<svg xmlns="http://www.w3.org/2000/svg" xmlns:xlink="http://www.w3.org/1999/xlink" version="1.1" style="" xml:space="preserve" width="45" height="45"><rect id="backgroundrect" width="100%" height="100%" x="0" y="0" fill="none" stroke="none" class="" style=""/>

<g class="currentLayer" style=""><title>Layer 1</title><g id="surface1" class="">
	<path style="fill:#F4B10B;" d="M14.992855578660965,37.12500047683716 h16 v6 H14.992855578660965 V37.12500047683716 z" id="svg_1"/>
	<path style="fill:#F4B10B;" d="M37.992855578660965,16.125000476837158 C37.992855578660965,16.125000476837158 37.992855578660965,16.22500047683716 37.992855578660965,16.125000476837158 c-0.3000000000000003,-3.8 -1.8,-7.2 -4.2,-9.8 c-1.8,-1.9 -4.1,-3.1 -6.8,-3.8 c-0.8,-0.4 -1.6,-0.8 -2.3,-1.4 l-1.1,-0.9 c-0.4,-0.3000000000000003 -0.9,-0.3000000000000003 -1.3,0 l-1.1,0.9 c-0.7000000000000006,0.6000000000000006 -1.5,1 -2.3,1.4 c-2.6,0.6000000000000006 -4.9,1.9 -6.7,3.8 c-2.5,2.5 -3.9,5.9 -4.2,9.7 c0,0 0,0 -0.1,0 c0,0 -2,1.7000000000000002 -2,2 c0.1,2.6 0.4,4.8 0.8,7 c0.1,0.3000000000000003 2.3,1 2.3,1 c0.2,1 0.5,2 0.8,3 l1.1,2 h24 l1.1,-2 c0.3000000000000003,-1 0.5,-2 0.8,-3 c0,0 2.2,-0.7000000000000006 2.3,-1 c0.5,-2.2 0.8,-4.4 0.9,-7 C39.992855578660965,17.825000476837157 37.992855578660965,16.125000476837158 37.992855578660965,16.125000476837158 z" id="svg_2"/>
	<path style="fill:#B57F08;" d="M10.992855578660965,30.125000476837158 h24 v4 H10.992855578660965 V30.125000476837158 z" id="svg_3"/>
	<path style="fill:#FFD600;" d="M22.99285557866096,40.12500047683716 c-3.7,0 -6.2,-1.5 -7.7,-2.7 c-0.8,-0.7000000000000006 -1.4,-1.6 -1.7000000000000002,-2.6 c-1.3,-4.9 -3.5,-10.6 -3.6,-17 C9.792855578660966,10.625000476837158 14.292855578660966,4.125000476837158 22.99285557866096,4.125000476837158 s13.2,6.5 13,13.7 c-0.2,6.3 -2.3,12.1 -3.6,17 c-0.3000000000000003,1 -0.8,2 -1.7000000000000002,2.6 C29.192855578660964,38.62500047683716 26.692855578660964,40.12500047683716 22.99285557866096,40.12500047683716 z" id="svg_4"/>
	<path style="fill:#684903;" d="M24.99285557866096,34.12500047683716 h-4 c-0.6000000000000006,0 -1,-0.4 -1,-1 s0.4,-1 1,-1 h4 c0.6000000000000006,0 1,0.4 1,1 S25.592855578660966,34.12500047683716 24.99285557866096,34.12500047683716 z" id="svg_5"/>
	<path style="fill:#FFC107;" d="M25.99285557866096,30.125000476837158 l-3,-3 l-3,3 l-6,-6 l4,-2 h10 l4,2 L25.99285557866096,30.125000476837158 z" id="svg_6"/>
	<path style="fill:#F4B10B;" d="M27.99285557866096,16.125000476837158 c-2.8,0 -4.3,2.3 -5,3 c-0.7000000000000006,-0.7000000000000006 -2.2,-3 -5,-3 s-5,2.2 -5,5 s2.2,5 5,5 c2.9,0 5,-3 5,-3 s2.1,3 5,3 c2.8,0 5,-2.2 5,-5 S30.792855578660966,16.125000476837158 27.99285557866096,16.125000476837158 z" id="svg_7"/>
	<path style="fill:#FFEA00;" d="M20.99285557866096,21.125000476837158 c0,1.7000000000000002 -1.3,3 -3,3 s-3,-1.3 -3,-3 s1.3,-3 3,-3 S20.99285557866096,19.42500047683716 20.99285557866096,21.125000476837158 z" id="svg_8"/>
	<path style="fill:#FFEA00;" d="M30.99285557866096,21.125000476837158 c0,1.7000000000000002 -1.3,3 -3,3 s-3,-1.3 -3,-3 s1.3,-3 3,-3 S30.99285557866096,19.42500047683716 30.99285557866096,21.125000476837158 z" id="svg_9"/>
	<path style="fill:#684903;" d="M28.99285557866096,21.125000476837158 c0,0.6000000000000006 -0.4,1 -1,1 s-1,-0.4 -1,-1 s0.4,-1 1,-1 S28.99285557866096,20.525000476837157 28.99285557866096,21.125000476837158 z" id="svg_10"/>
	<path style="fill:#FFD600;" d="M23.99285557866096,2.125000476837158 c0,0.6000000000000006 -0.4,1 -1,1 s-1,-0.4 -1,-1 s0.4,-1 1,-1 S23.99285557866096,1.5250004768371583 23.99285557866096,2.125000476837158 z" id="svg_11"/>
	<path style="fill:#684903;" d="M18.99285557866096,21.125000476837158 c0,0.6000000000000006 -0.4,1 -1,1 s-1,-0.4 -1,-1 s0.4,-1 1,-1 S18.99285557866096,20.525000476837157 18.99285557866096,21.125000476837158 z" id="svg_12"/>
	<path style="fill:#DD9F05;" d="M10.992855578660965,36.12500047683716 c-0.6000000000000006,0 -1,-0.4 -1,-1 v-6 c0,-0.6000000000000006 0.4,-1 1,-1 s1,0.4 1,1 v6 C11.992855578660965,35.72500047683716 11.592855578660965,36.12500047683716 10.992855578660965,36.12500047683716 z" id="svg_13"/>
	<path style="fill:#FFD600;" d="M31.99285557866096,44.12500047683716 H13.992855578660965 c-0.6000000000000006,0 -1,-0.4 -1,-1 s0.4,-1 1,-1 h18 c0.6000000000000006,0 1,0.4 1,1 S32.592855578660966,44.12500047683716 31.99285557866096,44.12500047683716 z" id="svg_14"/>
	<path style="fill:#DD9F05;" d="M34.992855578660965,36.12500047683716 c-0.6000000000000006,0 -1,-0.4 -1,-1 v-6 c0,-0.6000000000000006 0.4,-1 1,-1 s1,0.4 1,1 v6 C35.992855578660965,35.72500047683716 35.592855578660966,36.12500047683716 34.992855578660965,36.12500047683716 z" id="svg_15"/>
</g></g></svg>