<?xml version="1.0" standalone="no"?>
<!DOCTYPE svg PUBLIC "-//W3C//DTD SVG 20010904//EN"
 "http://www.w3.org/TR/2001/REC-SVG-20010904/DTD/svg10.dtd">
<svg version="1.0" xmlns="http://www.w3.org/2000/svg"
 width="500.000000pt" height="410.000000pt" viewBox="0 0 500.000000 410.000000"
 preserveAspectRatio="xMidYMid meet">
<metadata>
Created by potrace 1.15, written by Peter Selinger 2001-2017
</metadata>
<g transform="translate(0.000000,410.000000) scale(0.100000,-0.100000)"
fill="#000000" stroke="none">
<path d="M2893 4083 l-23 -15 32 -44 c17 -24 29 -47 26 -50 -3 -3 -20 15 -37
40 -31 45 -32 46 -57 30 -27 -18 -29 -10 22 -89 9 -14 14 -28 12 -31 -3 -2
-20 18 -38 45 -31 49 -32 50 -56 35 -13 -9 -24 -18 -24 -20 0 -2 25 -42 57
-89 31 -47 54 -87 51 -90 -3 -3 -32 35 -64 84 l-59 90 -25 -19 c-23 -17 -23
-19 -7 -44 9 -14 24 -37 33 -51 9 -14 12 -25 8 -25 -5 0 -22 20 -37 45 -32 50
-31 49 -58 35 -25 -14 -24 -23 7 -70 37 -56 25 -60 -14 -5 -28 39 -35 44 -51
35 -31 -16 -31 -23 0 -69 17 -24 28 -45 26 -48 -3 -2 -13 7 -24 22 -51 72 -46
69 -72 47 l-24 -19 32 -47 c18 -26 31 -50 28 -53 -3 -2 -21 18 -40 46 l-34 52
-24 -20 -23 -19 57 -87 c32 -48 56 -89 53 -92 -2 -3 -30 34 -62 81 -57 86 -76
99 -97 65 -7 -11 -2 -26 18 -57 15 -24 26 -45 23 -48 -3 -3 -15 10 -27 28 -41
64 -36 61 -62 48 -13 -7 -26 -14 -27 -16 -2 -1 10 -23 28 -49 18 -26 30 -49
27 -51 -3 -3 -19 15 -37 40 -26 39 -34 45 -50 36 -31 -16 -30 -24 2 -73 17
-26 28 -50 26 -53 -3 -2 -20 18 -38 45 -27 43 -35 49 -50 41 -32 -17 -32 -29
0 -76 17 -26 29 -48 26 -51 -2 -2 -18 16 -36 41 -32 48 -49 56 -69 32 -9 -11
15 -53 115 -202 70 -104 129 -191 131 -193 3 -4 137 84 648 429 132 89 348
235 480 324 l240 161 -309 3 c-170 1 -311 0 -314 -2 -2 -3 5 -17 15 -33 30
-43 35 -53 26 -53 -4 0 -21 20 -36 45 -25 39 -33 45 -63 45 -36 0 -42 -8 -22
-28 6 -6 9 -14 6 -18 -4 -3 -14 6 -23 20 -14 21 -25 26 -57 26 l-40 0 24 -32
c34 -45 41 -58 31 -58 -4 0 -21 21 -38 45 -16 25 -32 45 -35 44 -3 0 -15 -7
-27 -16z"/>
<path d="M845 3819 c-33 -65 -57 -120 -55 -122 3 -3 49 -25 103 -51 53 -25 97
-49 97 -52 0 -2 -11 -27 -25 -54 l-25 -50 -73 35 c-39 20 -85 43 -100 51 -26
15 -29 15 -42 -3 -8 -10 -15 -21 -15 -25 0 -3 44 -27 98 -53 53 -26 99 -49
101 -51 7 -6 -41 -104 -51 -104 -5 0 -49 20 -98 45 -49 25 -94 45 -98 45 -5 0
-13 -10 -19 -22 -9 -20 -3 -25 93 -73 l103 -50 -25 -53 c-13 -28 -27 -52 -30
-52 -2 0 -49 23 -104 50 l-100 50 -145 -296 c-80 -163 -145 -298 -145 -300 0
-11 306 -155 340 -160 48 -8 100 9 133 44 14 15 96 171 183 347 86 176 158
321 159 323 2 2 17 -4 34 -12 16 -9 32 -16 35 -16 3 0 21 32 40 70 l34 70 -31
16 c-18 9 -34 18 -35 19 -2 2 22 55 53 119 51 102 57 120 53 161 -9 77 -41
106 -207 189 -81 40 -155 75 -163 78 -11 5 -30 -25 -73 -113z"/>
<path d="M1710 3424 c-123 -57 -228 -108 -233 -113 -11 -11 42 -121 64 -134
12 -8 72 16 235 92 120 57 223 106 227 110 6 6 -58 152 -66 151 -1 -1 -103
-48 -227 -106z"/>
<path d="M4212 3511 c-236 -88 -327 -374 -184 -580 113 -162 346 -210 514
-105 56 35 116 103 146 164 24 49 27 66 27 160 0 95 -3 110 -28 163 -37 74
-110 148 -184 183 -78 37 -211 44 -291 15z"/>
<path d="M4620 2000 c-85 -21 -165 -42 -178 -47 l-23 -9 30 -32 c17 -17 31
-38 31 -46 0 -13 32 -150 82 -358 8 -32 17 -48 27 -48 20 0 301 66 307 72 5 5
-102 464 -114 489 -6 14 -25 12 -162 -21z"/>
<path d="M3610 1464 c-69 -18 -156 -43 -195 -53 -38 -11 -147 -41 -241 -67
l-171 -47 -37 -50 c-23 -31 -31 -47 -20 -43 14 5 176 50 767 213 43 12 57 20
53 30 -4 8 -6 23 -6 34 0 24 -1 24 -150 -17z"/>
<path d="M3745 682 c-44 -32 -152 -106 -240 -166 -88 -60 -164 -112 -169 -117
-5 -4 1 -24 14 -44 21 -34 21 -37 5 -49 -17 -12 -10 -25 81 -159 l99 -146 433
-1 433 0 -44 63 c-40 56 -188 271 -355 517 -82 120 -76 114 -101 101 -18 -10
-23 -7 -43 24 -13 19 -25 35 -28 35 -3 0 -41 -26 -85 -58z"/>
<path d="M2160 689 c-88 -24 -127 -41 -196 -86 -59 -38 -94 -42 -184 -18 -75
20 -213 16 -295 -9 -56 -16 -167 -55 -171 -59 -10 -9 29 -114 50 -136 13 -14
34 -51 46 -82 12 -33 39 -76 63 -102 l42 -45 85 3 c101 4 163 24 208 68 32 31
62 105 62 153 0 44 92 47 110 3 20 -47 87 -107 133 -120 55 -15 139 -4 202 25
92 43 125 94 125 191 0 31 7 72 16 93 11 26 14 52 9 90 l-6 52 -112 -1 c-79 0
-134 -6 -187 -20z m203 -88 c18 -17 23 -35 25 -99 4 -74 2 -80 -24 -112 -36
-42 -117 -80 -172 -80 -54 0 -108 22 -138 57 -29 33 -49 118 -40 165 10 53 24
62 151 92 11 3 55 4 98 2 65 -2 82 -7 100 -25z m-593 -81 c26 -26 36 -51 44
-115 15 -108 -70 -189 -198 -189 -63 1 -107 17 -138 51 -24 26 -48 98 -48 144
0 31 6 42 33 62 56 42 135 63 240 66 35 1 52 -4 67 -19z"/>
</g>
</svg>
