<svg xmlns="http://www.w3.org/2000/svg" xmlns:xlink="http://www.w3.org/1999/xlink" version="1.1" style="" xml:space="preserve" width="600" height="600"><rect id="backgroundrect" width="100%" height="100%" x="0" y="0" fill="none" stroke="none" class="" style=""/>


































































<g class="currentLayer" style=""><title>Layer 1</title><path style="fill:#F97906;" d="M512.6666646003723,533.0666641235351 v-57.6 c0,-44 -35.2,-78.4 -79.2,-78.4 H175.8666646003723 c-44,0 -79.2,33.6 -79.2,78.4 v57.6 H512.6666646003723 z" id="svg_1" class=""/><polyline style="fill:#E57200;" points="96.66665840148926,477.06665802001953 96.66665840148926,533.0666580200195 512.6666660308838,533.0666580200195 512.6666660308838,477.06665802001953 " id="svg_2" class=""/><ellipse style="fill:#F4BA38;" cx="304.6666646003723" cy="411.4666519165039" rx="59.20000076293945" ry="52.79999923706055" id="svg_3" class=""/><path style="fill:#5B5B5B;" d="M368.6666646003723,393.06666412353513 c0,34.4 -28,60 -62.4,60 h-4 c-34.4,0 -62.4,-25.6 -62.4,-60 V362.66666412353516 c0,-34.4 28,-62.4 62.4,-62.4 h4 c34.4,0 62.4,28 62.4,62.4 V393.06666412353513 z" id="svg_4" class=""/><path style="fill:#3F3F3F;" d="M305.4666646003723,297.86666412353514 L305.4666646003723,297.86666412353514 c34.4,0 63.2,28 63.2,62.4 v33.6 c0,34.4 -28,60 -62.4,60 l0,0 " id="svg_5" class=""/><path style="fill:#FFCC4D;" d="M168.66666460037231,105.06666412353516 c0,2.4 -1.6,4 -4,4 l0,0 c-2.4,0 -4,-1.6 -4,-4 v-64 c0,-2.4 1.6,-4 4,-4 l0,0 c2.4,0 4,1.6 4,4 V105.06666412353516 z" id="svg_6" class=""/><path style="fill:#F4BA38;" d="M164.66666460037231,37.066664123535155 L164.66666460037231,37.066664123535155 c3.2,0 4,0.8 4,4 v58.4 c0,3.2 -1.6,4.8 -4.8,4.8 l0,0 " id="svg_7" class=""/><rect x="152.66666460037231" y="93.06666564941406" style="fill:#F29130;" width="24" height="32" id="svg_8" class=""/><polyline style="fill:#F97906;" points="152.66665840148926,93.06666564941406 176.6666660308838,93.06666564941406 176.6666660308838,125.06666564941406 " id="svg_9" class=""/><path style="fill:#0B6382;" d="M192.66666460037231,172.26666412353515 c0,9.6 -7.2,16.8 -16.8,16.8 H153.46666460037233 c-9.6,0 -16.8,-7.2 -16.8,-16.8 V133.86666412353514 c0,-9.6 7.2,-16.8 16.8,-16.8 h22.4 c9.6,0 16.8,7.2 16.8,16.8 V172.26666412353515 z" id="svg_10" class=""/><path style="fill:#00233F;" d="M152.66666460037231,117.06666412353516 h23.2 c9.6,0 16.8,7.2 16.8,16.8 V170.66666412353516 c0,9.6 -8.8,18.4 -17.6,18.4 H152.66666460037231 " id="svg_11" class=""/><path style="fill:#0B6382;" d="M464.6666646003723,172.26666412353515 c0,9.6 -7.2,16.8 -16.8,16.8 h-22.4 c-9.6,0 -16.8,-7.2 -16.8,-16.8 V133.86666412353514 c0,-9.6 7.2,-16.8 16.8,-16.8 h22.4 c9.6,0 16.8,7.2 16.8,16.8 V172.26666412353515 z" id="svg_12" class=""/><path style="fill:#00233F;" d="M432.6666646003723,117.06666412353516 h16 c9.6,0 16,8 16,17.6 v36 c0,9.6 -6.4,18.4 -16,18.4 h-16 " id="svg_13" class=""/><path style="fill:#F97906;" d="M552.6666646003723,277.06666412353513 c0,44.8 -19.2,80 -64,80 H120.66666460037231 c-44.8,0 -64,-34.4 -64,-80 v-65.6 C56.666664600372314,166.66666412353516 91.86666460037232,133.06666412353516 137.46666460037233,133.06666412353516 H472.6666646003723 c44.8,0 80.8,33.6 80.8,79.2 v64.8 H552.6666646003723 z" id="svg_14" class=""/><path style="fill:#F29130;" d="M552.6666646003723,277.06666412353513 c0,44.8 -19.2,80 -64,80 H120.66666460037231 c-44.8,0 -64,-34.4 -64,-80 v-65.6 C56.666664600372314,166.66666412353516 91.86666460037232,133.06666412353516 137.46666460037233,133.06666412353516 H472.6666646003723 c44.8,0 80.8,33.6 80.8,79.2 v64.8 H552.6666646003723 z" id="svg_15" class=""/><path style="fill:#F97906;" d="M552.6666646003723,213.06666412353516 v64 c0,44.8 -19.2,80 -64,80 H120.66666460037231 c-44.8,0 -64,-34.4 -64,-80 v-64 " id="svg_16" class=""/><path style="fill:#E57200;" d="M552.6666646003723,276.2666641235352 c0,44.8 -19.2,80.8 -64,80.8 H120.66666460037231 c-44.8,0 -64,-36 -64,-81.6 " id="svg_17" class=""/><circle style="fill:#0B6382;" cx="164.66666460037231" cy="242.66666412353516" r="81.5999984741211" id="svg_18" class=""/><circle style="opacity:0.2;fill:#727272;enable-background:new    ;" cx="164.66666460037231" cy="251.46666717529297" r="81.5999984741211" id="svg_19" class=""/><path style="fill:#00233F;" d="M164.66666460037231,161.06666412353516 c44.8,0 81.6,36.8 81.6,81.6 s-36.8,81.6 -81.6,81.6 " id="svg_20" class=""/><g id="svg_21" class="">
	<circle style="fill:#FFFAF5;" cx="164.66666460037231" cy="242.66666412353516" r="55.20000076293945" id="svg_22"/>
	<circle style="fill:#FFFAF5;" cx="164.66666460037231" cy="242.66666412353516" r="55.20000076293945" id="svg_23"/>
</g><path style="fill:#EFEBE8;" d="M126.26666460037231,203.46666412353517 c21.6,-21.6 56.8,-21.6 78.4,0 s21.6,56.8 0,78.4 " id="svg_24" class=""/><g id="svg_25" class="">
	<path style="fill:#CCCAC8;" d="M164.66666460037231,201.86666412353514 c29.6,0 53.6,14.4 55.2,44 c0,-0.8 0,-2.4 0,-3.2 c0,-30.4 -24.8,-55.2 -55.2,-55.2 S109.46666460037231,212.26666412353515 109.46666460037231,242.66666412353516 c0,0.8 0,2.4 0,3.2 C111.86666460037232,217.06666412353516 135.8666646003723,201.86666412353514 164.66666460037231,201.86666412353514 z" id="svg_26"/>
	<circle style="fill:#CCCAC8;" cx="147.8666615486145" cy="173.86666107177734" r="3.200000047683716" id="svg_27"/>
	<circle style="fill:#CCCAC8;" cx="164.66666460037231" cy="173.86666107177734" r="3.200000047683716" id="svg_28"/>
	<circle style="fill:#CCCAC8;" cx="182.2666630744934" cy="173.86666107177734" r="3.200000047683716" id="svg_29"/>
</g><path style="fill:#727272;" d="M175.8666646003723,242.66666412353516 c0,5.6 -4.8,10.4 -10.4,10.4 s-10.4,-4.8 -10.4,-10.4 c0,-5.6 4.8,-10.4 10.4,-10.4 S175.8666646003723,237.06666412353516 175.8666646003723,242.66666412353516 z" id="svg_30" class=""/><path style="fill:#3F3F3F;" d="M164.66666460037231,232.26666412353515 c5.6,0 10.4,4.8 10.4,10.4 c0,5.6 -4.8,10.4 -10.4,10.4 " id="svg_31" class=""/><g id="svg_32" class="">
	<circle style="fill:#FFFAF5;" cx="160.66666460037231" cy="238.66666412353516" r="3.200000047683716" id="svg_33"/>
	<circle style="fill:#FFFAF5;" cx="169.46666765213013" cy="247.46666717529297" r="1.600000023841858" id="svg_34"/>
</g><circle style="fill:#0B6382;" cx="439.0666584968567" cy="242.66666412353516" r="81.5999984741211" id="svg_35" class=""/><circle style="opacity:0.2;fill:#727272;enable-background:new    ;" cx="439.0666584968567" cy="251.46666717529297" r="81.5999984741211" id="svg_36" class=""/><path style="fill:#00233F;" d="M439.0666646003723,161.06666412353516 c44.8,0 81.6,36.8 81.6,81.6 s-36.8,81.6 -81.6,81.6 " id="svg_37" class=""/><g id="svg_38" class="">
	<circle style="fill:#FFFAF5;" cx="439.0666584968567" cy="242.66666412353516" r="55.20000076293945" id="svg_39"/>
	<circle style="fill:#FFFAF5;" cx="439.0666584968567" cy="242.66666412353516" r="55.20000076293945" id="svg_40"/>
</g><path style="fill:#EFEBE8;" d="M399.8666646003723,203.46666412353517 c21.6,-21.6 56.8,-21.6 78.4,0 s21.6,56.8 0,78.4 " id="svg_41" class=""/><g id="svg_42" class="">
	<path style="fill:#CCCAC8;" d="M439.0666646003723,201.86666412353514 c29.6,0 53.6,14.4 55.2,44 c0,-0.8 0,-2.4 0,-3.2 c0,-30.4 -24.8,-55.2 -55.2,-55.2 s-55.2,24.8 -55.2,55.2 c0,0.8 0,2.4 0,3.2 C385.4666646003723,217.06666412353516 409.4666646003723,201.86666412353514 439.0666646003723,201.86666412353514 z" id="svg_43"/>
	<circle style="fill:#CCCAC8;" cx="422.26667070388794" cy="173.86666107177734" r="3.200000047683716" id="svg_44"/>
	<circle style="fill:#CCCAC8;" cx="439.0666584968567" cy="173.86666107177734" r="3.200000047683716" id="svg_45"/>
	<circle style="fill:#CCCAC8;" cx="455.86667680740356" cy="173.86666107177734" r="3.200000047683716" id="svg_46"/>
</g><path style="fill:#727272;" d="M449.4666646003723,242.66666412353516 c0,5.6 -4.8,10.4 -10.4,10.4 S428.6666646003723,248.26666412353515 428.6666646003723,242.66666412353516 c0,-5.6 4.8,-10.4 10.4,-10.4 C444.6666646003723,232.26666412353515 449.4666646003723,237.06666412353516 449.4666646003723,242.66666412353516 z" id="svg_47" class=""/><path style="fill:#3F3F3F;" d="M439.0666646003723,232.26666412353515 c5.6,0 10.4,4.8 10.4,10.4 c0,5.6 -4.8,10.4 -10.4,10.4 " id="svg_48" class=""/><g id="svg_49" class="">
	<circle style="fill:#FFFAF5;" cx="435.0666584968567" cy="238.66666412353516" r="3.200000047683716" id="svg_50"/>
	<circle style="fill:#FFFAF5;" cx="443.0666584968567" cy="247.46666717529297" r="1.600000023841858" id="svg_51"/>
</g><path style="fill:#FFCC4D;" d="M159.06666460037232,141.86666412353514 L159.06666460037232,141.86666412353514 c0,-4 3.2,-8.8 7.2,-8.8 h277.6 c4,0 7.2,4 7.2,8 l0,0 " id="svg_52" class=""/><path style="opacity:0.2;fill:#727272;enable-background:new    ;" d="M351.8666646003723,317.06666412353513 c0,9.6 0.8,16 -8.8,16 h-77.6 c-9.6,0 -8.8,-6.4 -8.8,-16 l0,0 c0,-9.6 7.2,-16 16.8,-16 h61.6 C344.6666646003723,301.06666412353513 351.8666646003723,307.46666412353517 351.8666646003723,317.06666412353513 L351.8666646003723,317.06666412353513 z" id="svg_53" class=""/><path style="fill:#FFE650;" d="M351.8666646003723,309.06666412353513 c0,9.6 0.8,16 -8.8,16 h-77.6 c-9.6,0 -8.8,-6.4 -8.8,-16 l0,0 c0,-9.6 7.2,-16 16.8,-16 h61.6 C344.6666646003723,293.06666412353513 351.8666646003723,299.46666412353517 351.8666646003723,309.06666412353513 L351.8666646003723,309.06666412353513 z" id="svg_54" class=""/><path style="fill:#FFC200;" d="M351.8666646003723,309.06666412353513 L351.8666646003723,309.06666412353513 c0,9.6 0.8,16 -8.8,16 h-77.6 c-9.6,0 -8.8,-7.2 -8.8,-16 l0,0 " id="svg_55" class=""/><polygon style="fill:#FFED94;" points="248.6666660308838,129.86666107177734 304.6666660308838,120.26666259765625 360.6666660308838,129.86666107177734 360.6666660308838,157.86666107177734 304.6666660308838,192.26667022705078 248.6666660308838,157.86666107177734 " id="svg_56" class=""/><polygon style="fill:#FFCC4D;" points="248.6666660308838,129.86666107177734 304.6666660308838,145.06666564941406 360.6666660308838,129.86666107177734 360.6666660308838,157.86666107177734 304.6666660308838,192.26667022705078 248.6666660308838,157.86666107177734 " id="svg_57" class=""/><polyline style="fill:#F4BA38;" points="304.6666660308838,145.06666564941406 360.6666660308838,129.86666107177734 360.6666660308838,157.86666107177734 304.6666660308838,192.26667022705078 " id="svg_58" class=""/><rect x="161.46666765213013" y="103.46666717529297" style="fill:#FFCC4D;" width="8" height="8" id="svg_59" class=""/><g id="svg_60" class="">
	<rect x="117.33333253860474" y="49.19999718666077" style="fill:#FFED94;" width="8" height="2.4000000953674316" id="svg_61"/>
	<rect x="117.33333253860474" y="59.599997758865356" style="fill:#FFED94;" width="8" height="2.4000000953674316" id="svg_62"/>
	<rect x="117.33333253860474" y="69.19999814033508" style="fill:#FFED94;" width="8" height="2.4000000953674316" id="svg_63"/>
	<rect x="117.33333253860474" y="79.59999585151672" style="fill:#FFED94;" width="8" height="2.4000000953674316" id="svg_64"/>
	<rect x="117.33333253860474" y="89.99999737739563" style="fill:#FFED94;" width="8" height="2.4000000953674316" id="svg_65"/>
</g><g id="svg_66" class="">
	<rect x="240.66666460037231" y="373.06665802001953" style="fill:#686868;" width="128" height="8" id="svg_67"/>
	<rect x="240.66666460037231" y="389.06665802001953" style="fill:#686868;" width="128" height="8" id="svg_68"/>
</g><rect x="136.66666460037231" y="453.06665802001953" style="fill:#A0D827;" width="32" height="32" id="svg_69" class=""/><polygon style="fill:#CFF23B;" points="160.6666660308838,470.66666412353516 136.66665840148926,481.8666763305664 136.66665840148926,453.06665802001953 160.6666660308838,453.06665802001953 " id="svg_70" class=""/><rect x="176.66666460037231" y="453.06665802001953" style="fill:#E2336D;" width="32" height="32" id="svg_71" class=""/><polygon style="fill:#F45683;" points="200.6666660308838,470.66666412353516 176.6666660308838,481.8666763305664 176.6666660308838,453.06665802001953 200.6666660308838,453.06665802001953 " id="svg_72" class=""/><g id="svg_73" class="">
	<path style="fill:#FFCC4D;" d="M460.6666646003723,481.06666412353513 c0,2.4 -1.6,4 -4,4 h-54.4 c-2.4,0 -4,-1.6 -4,-4 l0,0 c0,-2.4 1.6,-4 4,-4 H456.6666646003723 C459.0666646003723,477.06666412353513 460.6666646003723,478.66666412353516 460.6666646003723,481.06666412353513 L460.6666646003723,481.06666412353513 z" id="svg_74"/>
	<path style="fill:#FFCC4D;" d="M460.6666646003723,457.06666412353513 c0,2.4 -1.6,4 -4,4 h-54.4 c-2.4,0 -4,-1.6 -4,-4 l0,0 c0,-2.4 1.6,-4 4,-4 H456.6666646003723 C459.0666646003723,453.06666412353513 460.6666646003723,454.66666412353516 460.6666646003723,457.06666412353513 L460.6666646003723,457.06666412353513 z" id="svg_75"/>
	<path style="fill:#FFCC4D;" d="M460.6666646003723,505.06666412353513 c0,2.4 -1.6,4 -4,4 h-54.4 c-2.4,0 -4,-1.6 -4,-4 l0,0 c0,-2.4 1.6,-4 4,-4 H456.6666646003723 C459.0666646003723,501.06666412353513 460.6666646003723,502.66666412353516 460.6666646003723,505.06666412353513 L460.6666646003723,505.06666412353513 z" id="svg_76"/>
</g><path style="fill:#FFC200;" d="M305.4666646003723,277.06666412353513 c0,0.8 -0.8,2.4 -2.4,2.4 l0,0 c-0.8,0 -2.4,-0.8 -2.4,-2.4 V171.46666412353517 c0,-0.8 0.8,-2.4 2.4,-2.4 l0,0 c0.8,0 2.4,0.8 2.4,2.4 V277.06666412353513 z" id="svg_77" class=""/><g id="svg_78" class="">
</g><g id="svg_79" class="">
</g><g id="svg_80" class="">
</g><g id="svg_81" class="">
</g><g id="svg_82" class="">
</g><g id="svg_83" class="">
</g><g id="svg_84" class="">
</g><g id="svg_85" class="">
</g><g id="svg_86" class="">
</g><g id="svg_87" class="">
</g><g id="svg_88" class="">
</g><g id="svg_89" class="">
</g><g id="svg_90" class="">
</g><g id="svg_91" class="">
</g><g id="svg_92" class="">
</g></g></svg>