<?xml version="1.0" encoding="UTF-8"?>
<!DOCTYPE svg PUBLIC "-//W3C//DTD SVG 1.1//EN" "http://www.w3.org/Graphics/SVG/1.1/DTD/svg11.dtd">
<!-- Creator: CorelDRAW X6 -->
<svg xmlns="http://www.w3.org/2000/svg" xml:space="preserve" width="8.26389in" height="8.26389in" version="1.1" style="shape-rendering:geometricPrecision; text-rendering:geometricPrecision; image-rendering:optimizeQuality; fill-rule:evenodd; clip-rule:evenodd"
viewBox="0 0 8264 8264"
 xmlns:xlink="http://www.w3.org/1999/xlink">
 <defs>
  <style type="text/css">
   <![CDATA[
    .fil35 {fill:#25A789;fill-rule:nonzero}
    .fil31 {fill:#2B3046;fill-rule:nonzero}
    .fil27 {fill:#2D2F48;fill-rule:nonzero}
    .fil20 {fill:#313650;fill-rule:nonzero}
    .fil18 {fill:#313757;fill-rule:nonzero}
    .fil16 {fill:#33355A;fill-rule:nonzero}
    .fil5 {fill:#384276;fill-rule:nonzero}
    .fil25 {fill:#3C4467;fill-rule:nonzero}
    .fil26 {fill:#434B63;fill-rule:nonzero}
    .fil24 {fill:#4F2C42;fill-rule:nonzero}
    .fil30 {fill:#4F535F;fill-rule:nonzero}
    .fil15 {fill:#566288;fill-rule:nonzero}
    .fil23 {fill:#586289;fill-rule:nonzero}
    .fil29 {fill:#5F2D40;fill-rule:nonzero}
    .fil9 {fill:#676F84;fill-rule:nonzero}
    .fil28 {fill:#6A7085;fill-rule:nonzero}
    .fil34 {fill:#732D3F;fill-rule:nonzero}
    .fil10 {fill:#7E7F7F;fill-rule:nonzero}
    .fil14 {fill:#833052;fill-rule:nonzero}
    .fil21 {fill:#8B483D;fill-rule:nonzero}
    .fil22 {fill:#8C8D5A;fill-rule:nonzero}
    .fil1 {fill:#8F9AB7;fill-rule:nonzero}
    .fil13 {fill:#919AB8;fill-rule:nonzero}
    .fil19 {fill:#A13250;fill-rule:nonzero}
    .fil33 {fill:#AB503B;fill-rule:nonzero}
    .fil32 {fill:#AD9F56;fill-rule:nonzero}
    .fil2 {fill:#B0B1B0;fill-rule:nonzero}
    .fil17 {fill:#B2B3B3;fill-rule:nonzero}
    .fil3 {fill:#E5326A;fill-rule:nonzero}
    .fil12 {fill:#EC5138;fill-rule:nonzero}
    .fil7 {fill:#F0A051;fill-rule:nonzero}
    .fil11 {fill:#F26849;fill-rule:nonzero}
    .fil6 {fill:#F7E376;fill-rule:nonzero}
    .fil8 {fill:#F9B2A0;fill-rule:nonzero}
    .fil0 {fill:#F9FCFE;fill-rule:nonzero}
    .fil4 {fill:#FEFEFE;fill-rule:nonzero}
   ]]>
  </style>
 </defs>
 <g id="Layer_x0020_1">
  <metadata id="CorelCorpID_0Corel-Layer"/>
  <polygon class="fil0" points="0,8264 8268,8264 8268,-4 0,-4 "/>
  <path class="fil1" d="M4399 7524l-97 0 0 -205c0,-4 0,-7 0,-12 0,-4 0,-8 0,-11l0 -89 14 20c-11,55 2,112 34,158l19 26c9,13 19,24 31,34l0 80zm0 -2094c-32,-14 -64,-27 -97,-39l0 -1731 -6 -1c-11,-1 -21,-3 -32,-4 8,-1 16,-1 24,-2 39,3 77,8 111,13l0 1764zm-785 -872l0 -872c17,0 35,-1 54,-2 14,3 28,5 43,7l0 830c-36,5 -69,18 -97,37zm-886 -809c-13,-1 -27,-2 -40,-2 -2,0 -5,0 -7,0 -5,-1 -10,-2 -16,-2 -19,-26 -29,-57 -29,-92l0 -127c34,-23 66,-48 97,-74l0 201c0,35 11,67 30,94 -12,0 -23,1 -35,2zm2197 -39c-17,0 -34,-1 -54,-2 5,-1 10,-2 15,-3 14,2 27,3 39,5zm-1416 -31c-45,0 -99,-3 -156,-19l0 -36c54,31 108,47 159,55 -1,0 -2,0 -3,0zm-423 -403l-10 0c-25,-37 -55,-87 -78,-143 7,-12 14,-25 20,-37 3,10 6,19 9,29 19,56 39,106 59,152zm2388 -114l-59 0c0,-11 1,-22 1,-33 1,-96 2,-204 0,-318 40,35 67,75 81,117 24,76 7,160 -23,234zm-2585 -1325c-20,-25 -42,-50 -64,-73 22,-28 54,-48 90,-56l6 -1 0 -177 -2 -2c-29,-29 -45,-70 -45,-111l0 -24c0,-87 71,-157 157,-157l24 0c4,0 7,0 12,0 4,0 8,0 11,0l9 0c-68,20 -117,83 -117,157l0 24c0,44 18,85 47,115l0 169c-66,14 -118,68 -129,136zm2320 -243c-40,-90 -87,-170 -139,-241 18,-67 79,-117 152,-117l24 0c4,0 7,0 12,0 4,0 8,0 11,0l9 0c-68,20 -117,83 -117,157l0 24c0,44 18,85 47,115l0 61zm-1846 -129c5,-15 7,-31 7,-47l0 -24c0,-17 -3,-34 -7,-49 208,-241 441,-381 643,-381l5 0c5,0 10,0 16,1 -219,39 -462,224 -663,500zm834 -499c-3,-1 -6,-1 -9,-2 4,0 8,0 12,0 3,0 5,0 8,0 -4,1 -8,1 -11,2z"/>
  <path class="fil2" d="M4892 7538l-604 0 0 -7 13 0 0 -212c0,-22 -5,-44 -13,-63l0 -54c2,-2 4,-4 6,-6l8 11 0 89c0,4 0,7 0,11 0,5 0,9 0,12l0 205 97 0 0 7 493 0 0 7zm-688 0l-38 0c2,-2 5,-5 7,-7l31 0 0 7zm-314 0l-189 0c4,-4 7,-7 10,-11l0 4 169 0c3,2 6,5 9,7zm413 -2147c-5,-2 -9,-3 -14,-5l0 -1714c-35,-5 -66,-8 -96,-11 24,-2 48,-4 73,-6 10,1 21,3 32,4l6 1 0 1731zm-702 -823l0 -870c-12,-2 -25,-4 -37,-7 -20,1 -38,2 -55,2 -45,0 -99,-3 -156,-18 0,-3 0,-6 0,-9l0 -5c57,16 111,19 156,19 1,0 2,0 3,0 36,5 70,7 101,7 1,0 1,0 2,0l0 872c-5,3 -9,6 -14,10zm-516 -731l-46 0c-3,-2 -6,-5 -10,-7l104 0c-15,5 -32,7 -48,7zm-419 -92c-6,-1 -12,-2 -18,-2 -16,-26 -25,-57 -25,-89l0 -118c5,-3 9,-6 14,-9l0 127c0,34 11,66 29,92zm2263 -21c-28,0 -58,-2 -93,-5l0 -6c12,-1 24,-2 35,-4 19,1 37,2 54,2 29,3 55,5 78,6l0 3c-23,3 -48,5 -75,5zm502 -1466l-49 0c0,-2 -1,-5 -1,-7l99 0c-15,5 -32,7 -48,7zm-2605 -495c-3,-3 -6,-7 -10,-10 23,-28 55,-49 92,-58l0 -160c-30,-32 -47,-75 -47,-118l0 -24c0,-94 77,-171 171,-171l24 0c4,0 8,0 12,0 3,0 7,0 11,0l24 0c17,0 33,2 48,7l-15 0c-16,0 -32,2 -47,7l-9 0c-4,0 -7,0 -11,0 -5,0 -9,0 -12,0l-24 0c-87,0 -157,71 -157,157l0 24c0,41 17,81 45,111l2 2 0 177 -6 1c-37,8 -68,28 -90,56zm2245 -411c-3,-5 -7,-9 -10,-14 23,-68 87,-117 162,-117l24 0c4,0 8,0 12,0 3,0 7,0 11,0l24 0c17,0 33,2 48,7l-15 0c-16,0 -32,2 -47,7l-9 0c-4,0 -7,0 -11,0 -5,0 -9,0 -12,0l-24 0c-73,0 -134,50 -152,117zm-1707 -8c-2,-5 -3,-10 -5,-15 209,-240 444,-380 648,-380l6 0c25,0 50,3 75,8 -20,1 -39,3 -59,7 -5,0 -10,0 -16,-1l-5 0c-201,0 -435,140 -643,381zm826 -380c-25,-5 -49,-7 -73,-7l-6 0c-1,0 -2,0 -3,0 31,-4 63,-7 94,-7 21,0 41,1 61,3 12,1 23,3 35,4 -29,0 -59,3 -88,7 -3,0 -5,0 -8,0 -4,0 -8,0 -12,0z"/>
  <path class="fil3" d="M3187 3357l-19 0c-14,-8 -29,-12 -46,-12l-84 0c-65,-90 -190,-294 -132,-474 19,-61 59,-115 117,-161 4,133 26,265 69,391 36,105 73,190 111,257 -5,-1 -10,-1 -15,-1zm2375 -450c49,153 -34,323 -100,426l-131 0c8,-58 13,-126 14,-205 2,-138 2,-290 -3,-448 117,60 191,135 220,227zm32 440c72,-122 148,-307 91,-485 -45,-140 -162,-250 -350,-326 -7,-118 -19,-237 -36,-354 3,0 6,0 9,0l225 0c52,0 95,-43 95,-95l0 -214c0,-52 -42,-95 -95,-95l-19 0c-14,-8 -29,-12 -46,-12l-24 0 0 -267 0 -1c28,-16 48,-47 48,-82l0 -24c0,-52 -43,-95 -95,-95l-24 0c-4,0 -8,0 -12,1 -4,0 -8,-1 -12,-1l-24 0c-52,0 -95,43 -95,95l0 24c0,35 19,66 48,82l0 1 0 267 -36 0c-13,0 -26,3 -38,8 -131,-392 -379,-699 -847,-746 -53,-5 -108,-3 -163,7 -27,-6 -54,-10 -81,-10 -287,-3 -632,312 -857,741l-4 0 0 -267 0 -1c28,-16 48,-47 48,-82l0 -24c0,-52 -43,-95 -95,-95l-24 0c-4,0 -8,0 -12,1 -4,0 -8,-1 -12,-1l-24 0c-52,0 -95,43 -95,95l0 24c0,35 19,66 48,82l0 1 0 267 -36 0c-52,0 -95,43 -95,95l0 214c0,52 43,95 95,95l19 0c7,4 14,7 22,9 -32,114 -54,231 -64,347 -169,76 -275,180 -317,312 -65,203 43,414 121,533 -19,17 -30,42 -30,69l0 214c0,52 43,95 95,95l19 0c14,8 29,12 46,12l225 0c52,0 95,-43 95,-95l0 -191c111,129 236,149 391,140 34,8 71,12 109,13 -2,7 -2,14 -2,21l0 3646c0,4 0,8 1,12 0,4 -1,8 -1,12l0 142 451 0 0 -142c0,-52 -43,-95 -95,-95l-59 0 0 -3575c0,-16 -4,-31 -11,-44 70,-8 144,-17 222,-21 67,6 130,14 190,23 -6,13 -10,27 -10,42l0 3646c0,4 0,8 1,12 0,4 -1,8 -1,12l0 142 451 0 0 -142c0,-52 -43,-95 -95,-95l-59 0 0 -3575c0,-2 0,-3 0,-5 43,2 82,-1 117,-10 125,18 228,23 305,-21l0 28c0,52 43,95 95,95l19 0c14,8 29,12 46,12l225 0c52,0 95,-43 95,-95l0 -214c0,-45 -32,-83 -74,-93z"/>
  <path class="fil4" d="M5409 3264l14 0c50,-86 109,-221 73,-336 -14,-43 -41,-82 -81,-117 2,114 1,223 0,318 -1,49 -3,93 -6,135zm-2334 12l10 0c-20,-46 -39,-96 -59,-152 -25,-72 -44,-148 -56,-226 -39,134 47,293 104,378zm-6 -691l-12 5c-150,67 -244,158 -279,270 -57,178 46,373 113,473l32 49 -43 40c-3,3 -8,9 -8,19l0 214c0,14 11,26 25,26l37 0 16 9c4,2 8,3 12,3l225 0c14,0 26,-11 26,-26l0 -235 -21 -4c-2,0 -4,0 -4,0l-37 0 -16 -9c-4,-2 -8,-3 -12,-3l-119 0 -21 -29c-81,-112 -208,-330 -142,-535 23,-73 70,-139 139,-194l89 -72zm1469 4808l312 0 0 -73c0,-14 -11,-25 -25,-25l-129 0 0 -3646 -3 -75 75 3c7,0 14,0 20,0 30,0 56,-3 77,-8l13 -3 13 2c60,8 103,12 140,12 53,0 92,-8 121,-25l104 -59 0 147c0,14 11,26 26,26l37 0 16 9c4,2 8,3 12,3l225 0c14,0 26,-11 26,-26l0 -214c0,-13 -10,-23 -20,-25l-76 -17 -3 5 -249 0 12 -79c8,-55 13,-121 14,-196 2,-131 2,-286 -3,-445l-4 -99 -3 -44c-8,-125 -19,-242 -35,-348l-13 -88 88 8 2 0 225 0c14,0 26,-11 26,-25l0 -214c0,-14 -11,-26 -26,-26l-37 0 -16 -9c-4,-2 -8,-3 -12,-3l-93 0 0 -334 -2 -42 37 -21c8,-5 13,-13 13,-22l0 -24c0,-14 -11,-26 -26,-26l-24 0 -3 0 -9 1 -9 -1 -3 0 -24 0c-14,0 -26,11 -26,26l0 24c0,9 5,17 13,22l36 21 -2 43 0 334 -105 0c-3,0 -7,1 -10,2l-70 30 -24 -72c-144,-432 -402,-660 -789,-699 -46,-5 -94,-2 -143,7l-15 3 -14 -3c-22,-5 -44,-8 -65,-8l-4 0c-249,0 -574,289 -790,704l-20 37 -116 0 0 -334 -2 -42 37 -21c8,-5 13,-13 13,-22l0 -24c0,-14 -11,-26 -26,-26l-24 0 -3 0 -9 1 -9 -1 -3 0 -24 0c-14,0 -25,11 -25,26l0 24c0,9 5,17 13,22l36 21 -2 43 0 334 -105 0c-14,0 -26,11 -26,26l0 214c0,14 11,25 26,25l37 0 16 9c2,1 4,2 6,2l69 18 -19 68c-32,113 -53,225 -62,335l-3 41 -6 3 4 133c4,131 26,256 66,370 34,100 69,180 106,246l35 62 37 43c72,84 150,117 277,117 18,0 37,-1 58,-2l10 -1 10 2c28,7 59,10 95,11l85 2 -19 83c-1,2 -1,4 -1,6l0 3646 0 3 1 9 -1 9 0 3 0 73 312 0 0 -73c0,-14 -11,-25 -26,-25l-129 0 0 -3645c0,-4 -1,-8 -3,-12l-46 -89 100 -12c71,-9 147,-17 227,-22l5 0 5 0c74,6 143,16 195,24l94 14 -42 85c-2,4 -3,7 -3,11l0 3646 0 3 1 9 -1 9 0 3 0 73zm451 139l-590 0 0 -212c0,-4 0,-8 0,-12 0,-4 0,-8 0,-12l0 -3629c-34,-5 -72,-9 -111,-13 -48,3 -95,7 -141,12l0 3489c86,5 154,77 154,164l0 212 -590 0 0 -212c0,-4 0,-8 0,-12 0,-4 0,-8 0,-12l0 -3604c-15,-2 -29,-4 -43,-7 -20,1 -38,2 -56,2 -77,0 -169,-9 -260,-62l0 42c0,91 -74,164 -164,164l-225 0c-21,0 -42,-4 -61,-12l-4 0c-91,0 -164,-74 -164,-164l0 -214c0,-25 6,-49 16,-71 -78,-129 -170,-342 -104,-552 45,-141 152,-254 318,-337 9,-81 23,-164 44,-247 -69,-20 -120,-83 -120,-158l0 -214c0,-79 56,-145 131,-161l0 -169c-30,-30 -47,-72 -47,-115l0 -24c0,-91 74,-164 164,-164l24 0c4,0 8,0 12,0 4,0 8,0 12,0l24 0c91,0 164,74 164,164l0 24c0,16 -2,32 -7,47 227,-312 507,-508 746,-508l6 0c27,0 54,3 82,9 57,-9 114,-11 168,-6 389,39 673,252 845,633l0 -61c-30,-30 -47,-72 -47,-115l0 -24c0,-91 74,-164 164,-164l24 0c4,0 8,0 12,0 4,0 8,0 12,0l24 0c91,0 164,74 164,164l0 24c0,44 -18,85 -47,115l0 172c5,2 10,3 15,5l4 0c91,0 164,74 164,164l0 214c0,91 -74,164 -164,164l-154 0c10,75 17,155 23,237 184,84 302,202 349,352 55,174 2,349 -64,481 31,30 50,72 50,118l0 214c0,91 -74,164 -164,164l-225 0c-21,0 -42,-4 -61,-12l-4 0c-67,0 -125,-41 -151,-99 -30,6 -63,10 -100,10 -41,0 -86,-4 -147,-12 -16,3 -32,6 -50,7l0 3443c86,5 154,77 154,164l0 212z"/>
  <path class="fil5" d="M5444 1417c0,52 -43,95 -95,95l-24 0c-52,0 -95,-43 -95,-95l0 -24c0,-52 43,-95 95,-95l24 0c52,0 95,43 95,95l0 24z"/>
  <path class="fil5" d="M5385 1808c0,30 -24,53 -53,53 -30,0 -53,-24 -53,-53l0 -309c0,-30 24,-53 53,-53 29,0 53,24 53,53l0 309z"/>
  <path class="fil5" d="M5563 2075c0,52 -42,95 -95,95l-225 0c-52,0 -95,-43 -95,-95l0 -214c0,-52 43,-95 95,-95l225 0c52,0 95,43 95,95l0 214z"/>
  <path class="fil5" d="M3253 1417c0,52 -43,95 -95,95l-24 0c-52,0 -95,-43 -95,-95l0 -24c0,-52 42,-95 95,-95l24 0c52,0 95,43 95,95l0 24z"/>
  <path class="fil5" d="M3193 1808c0,30 -24,53 -53,53 -29,0 -53,-24 -53,-53l0 -309c0,-30 24,-53 53,-53 30,0 53,24 53,53l0 309z"/>
  <path class="fil5" d="M5435 3519c15,0 31,-6 42,-19 12,-13 286,-329 191,-627 -59,-186 -245,-317 -552,-390 -30,-7 -60,11 -67,41 -7,30 11,60 41,67 267,63 426,169 472,315 76,238 -166,517 -169,520 -20,23 -18,58 5,78 11,9 24,14 37,14z"/>
  <path class="fil5" d="M3217 3653c0,52 -43,95 -95,95l-225 0c-52,0 -95,-43 -95,-95l0 -214c0,-52 43,-95 95,-95l225 0c52,0 95,43 95,95l0 214z"/>
  <path class="fil5" d="M2944 3483c-15,0 -31,-6 -42,-19 -12,-13 -286,-329 -191,-627 59,-186 245,-317 552,-390 30,-7 60,11 67,41 7,30 -11,60 -41,67 -267,63 -426,169 -472,315 -76,238 166,517 169,520 20,23 18,58 -5,78 -11,9 -24,14 -37,14z"/>
  <path class="fil5" d="M5102 3125c-9,768 -378,459 -933,453 -117,-1 -222,9 -316,19 -353,39 -563,77 -760,-496 -308,-895 467,-2082 1022,-2075 555,7 997,1331 988,2100z"/>
  <path class="fil5" d="M4682 7295c0,52 -43,95 -95,95l-24 0c-52,0 -95,-42 -95,-95l0 -3646c0,-52 43,-95 95,-95l24 0c52,0 95,43 95,95l0 3646z"/>
  <path class="fil5" d="M4836 7461l0 -142c0,-52 -43,-95 -95,-95l-178 0c-52,0 -95,43 -95,95l0 142 368 0z"/>
  <path class="fil5" d="M3994 7295c0,52 -43,95 -95,95l-24 0c-52,0 -95,-42 -95,-95l0 -3646c0,-52 42,-95 95,-95l24 0c52,0 95,43 95,95l0 3646z"/>
  <path class="fil5" d="M4148 7461l0 -142c0,-52 -43,-95 -95,-95l-178 0c-52,0 -95,43 -95,95l0 142 368 0z"/>
  <path class="fil3" d="M5345 3128c-9,768 -378,459 -933,453 -122,-1 -234,11 -338,24 -371,45 -626,89 -738,-500 -255,-1337 469,-2130 1022,-2075 978,97 997,1331 988,2100z"/>
  <path class="fil3" d="M4077 7295c0,52 -43,95 -95,95l-24 0c-52,0 -95,-42 -95,-95l0 -3646c0,-52 43,-95 95,-95l24 0c52,0 95,43 95,95l0 3646z"/>
  <path class="fil3" d="M4231 7461l0 -142c0,-52 -43,-95 -95,-95l-178 0c-52,0 -95,43 -95,95l0 142 368 0z"/>
  <path class="fil3" d="M4765 7295c0,52 -43,95 -95,95l-24 0c-52,0 -95,-42 -95,-95l0 -3646c0,-52 43,-95 95,-95l24 0c52,0 95,43 95,95l0 3646z"/>
  <path class="fil3" d="M4920 7461l0 -142c0,-52 -43,-95 -95,-95l-178 0c-52,0 -95,43 -95,95l0 142 368 0z"/>
  <path class="fil4" d="M4184 2004c0,118 -96,214 -214,214 -118,0 -214,-96 -214,-214 0,-118 96,-214 214,-214 118,0 214,96 214,214z"/>
  <path class="fil5" d="M4089 2004c0,66 -53,119 -119,119 -66,0 -119,-53 -119,-119 0,-66 53,-119 119,-119 66,0 119,53 119,119z"/>
  <path class="fil4" d="M5015 2004c0,118 -96,214 -214,214 -118,0 -214,-96 -214,-214 0,-118 96,-214 214,-214 118,0 214,96 214,214z"/>
  <path class="fil5" d="M4920 2004c0,66 -53,119 -119,119 -66,0 -119,-53 -119,-119 0,-66 53,-119 119,-119 66,0 119,53 119,119z"/>
  <path class="fil6" d="M5039 3143c0,52 -43,95 -95,95l-1151 0c-52,0 -95,-43 -95,-95l0 -641c0,-52 43,-95 95,-95l1151 0c52,0 95,43 95,95l0 641z"/>
  <path class="fil5" d="M4943 3097c0,45 -36,81 -81,81l-987 0c-45,0 -81,-36 -81,-81l0 -549c0,-45 36,-81 81,-81l987 0c45,0 81,36 81,81l0 549z"/>
  <path class="fil4" d="M4943 2835l0 -287c0,-45 -36,-81 -81,-81l-987 0c-45,0 -81,36 -81,81l0 287 1149 0z"/>
  <polygon class="fil7" points="4866,2467 4866,2467 "/>
  <path class="fil7" d="M4866 2467c0,0 0,0 0,0 0,0 0,0 0,0z"/>
  <path class="fil7" d="M4866 2467c0,0 0,0 0,0 0,0 0,0 0,0z"/>
  <path class="fil7" d="M4864 2467c0,0 0,0 0,0 0,0 0,0 0,0z"/>
  <path class="fil7" d="M4864 2467c0,0 0,0 0,0 0,0 0,0 0,0z"/>
  <path class="fil7" d="M4863 2467c0,0 0,0 0,0 0,0 0,0 0,0z"/>
  <path class="fil7" d="M4863 2467c0,0 0,0 0,0 0,0 0,0 0,0z"/>
  <path class="fil7" d="M4863 2467c0,0 0,0 0,0 0,0 0,0 0,0z"/>
  <path class="fil7" d="M4863 2467c0,0 0,0 0,0 0,0 0,0 0,0z"/>
  <path class="fil7" d="M4862 2467c0,0 0,0 0,0 0,0 0,0 0,0z"/>
  <path class="fil7" d="M4862 2467c0,0 0,0 0,0 0,0 0,0 0,0z"/>
  <path class="fil7" d="M4862 2467c0,0 0,0 0,0 0,0 0,0 0,0z"/>
  <path class="fil8" d="M3877 2835l-83 0 0 -287c0,-45 36,-81 81,-81l987 0 0 0c0,0 0,0 0,0 0,0 0,0 0,0 0,0 0,0 0,0 0,0 0,0 0,0 0,0 0,0 0,0 0,0 0,0 0,0 0,0 0,0 0,0 0,0 0,0 0,0 0,0 0,0 0,0 0,0 0,0 0,0 0,0 0,0 0,0 0,0 0,0 0,0 0,0 0,0 0,0 0,0 0,0 0,0 0,0 0,0 0,0 0,0 0,0 0,0 0,0 0,0 0,0 0,0 0,0 0,0 0,0 0,0 0,0 0,0 0,0 0,0 0,0 0,0 0,0 0,0 1,0 1,0 0,0 0,0 0,0 0,0 0,0 0,0 0,0 0,0 0,0 0,0 0,0 0,0l0 0c39,2 71,32 76,71l-984 0c-45,0 -81,36 -81,81l0 215z"/>
  <polygon class="fil5" points="4006,2834 4014,2834 4014,2478 4006,2478 "/>
  <polygon class="fil5" points="4188,2834 4196,2834 4196,2478 4188,2478 "/>
  <polygon class="fil5" points="4370,2834 4378,2834 4378,2478 4370,2478 "/>
  <polygon class="fil5" points="4552,2834 4560,2834 4560,2478 4552,2478 "/>
  <polygon class="fil5" points="4734,2834 4742,2834 4742,2478 4734,2478 "/>
  <polygon class="fil5" points="4916,2834 4924,2834 4924,2478 4916,2478 "/>
  <path class="fil3" d="M3282 3665c0,52 -43,95 -95,95l-225 0c-52,0 -95,-43 -95,-95l0 -214c0,-52 43,-95 95,-95l225 0c52,0 95,43 95,95l0 214z"/>
  <path class="fil5" d="M3371 2075c0,52 -43,95 -95,95l-225 0c-52,0 -95,-43 -95,-95l0 -214c0,-52 43,-95 95,-95l225 0c52,0 95,43 95,95l0 214z"/>
  <path class="fil3" d="M3437 2087c0,52 -43,95 -95,95l-225 0c-52,0 -95,-43 -95,-95l0 -214c0,-52 43,-95 95,-95l225 0c52,0 95,43 95,95l0 214z"/>
  <path class="fil5" d="M5602 3642c0,52 -42,95 -95,95l-225 0c-52,0 -95,-43 -95,-95l0 -214c0,-52 43,-95 95,-95l225 0c52,0 95,43 95,95l0 214z"/>
  <path class="fil3" d="M5668 3653c0,52 -43,95 -95,95l-225 0c-52,0 -95,-43 -95,-95l0 -214c0,-52 43,-95 95,-95l225 0c52,0 95,43 95,95l0 214z"/>
  <path class="fil3" d="M3033 3483c-15,0 -31,-6 -42,-19 -12,-13 -286,-329 -191,-627 59,-186 245,-317 552,-390 30,-7 60,11 67,41 7,30 -11,60 -41,67 -267,63 -426,169 -472,315 -76,238 166,517 169,520 20,23 18,58 -5,78 -11,9 -24,14 -37,14z"/>
  <path class="fil3" d="M5452 3507c15,0 31,-6 42,-19 12,-13 286,-329 191,-626 -59,-186 -245,-317 -552,-390 -30,-7 -60,11 -67,41 -7,30 11,60 41,67 267,63 426,169 472,315 76,238 -166,517 -169,520 -20,23 -18,58 5,78 11,9 24,14 37,14z"/>
  <path class="fil3" d="M3253 1808c0,30 -24,53 -53,53 -30,0 -53,-24 -53,-53l0 -309c0,-30 24,-53 53,-53 30,0 53,24 53,53l0 309z"/>
  <path class="fil3" d="M3300 1417c0,52 -43,95 -95,95l-24 0c-52,0 -95,-43 -95,-95l0 -24c0,-52 43,-95 95,-95l24 0c52,0 95,43 95,95l0 24z"/>
  <path class="fil3" d="M5628 2087c0,52 -42,95 -95,95l-225 0c-52,0 -95,-43 -95,-95l0 -214c0,-52 43,-95 95,-95l225 0c52,0 95,43 95,95l0 214z"/>
  <path class="fil3" d="M5444 1808c0,30 -24,53 -53,53 -29,0 -53,-24 -53,-53l0 -309c0,-30 24,-53 53,-53 29,0 53,24 53,53l0 309z"/>
  <path class="fil3" d="M5492 1417c0,52 -43,95 -95,95l-24 0c-52,0 -95,-43 -95,-95l0 -24c0,-52 43,-95 95,-95l24 0c52,0 95,43 95,95l0 24z"/>
  <path class="fil1" d="M1369 7485l-160 -1 4 -188 0 -1c-3,-12 -4,-24 -4,-36l0 -1148 -5 -1c-53,-13 -102,-36 -145,-67 30,-20 58,-44 80,-73 50,65 131,122 230,147l0 1143c0,12 1,25 4,37l-4 189zm638 -204c-42,-12 -116,-42 -149,-83l0 -1076 160 0 0 1136c0,7 0,14 1,21l-12 1zm-1297 -1192c-9,0 -18,0 -28,-1 -9,1 -18,1 -27,1 -181,0 -329,-147 -329,-329 0,-102 46,-196 127,-259l3 -2 0 -911 -3 -2c-136,-81 -218,-225 -218,-385 0,-247 201,-448 448,-448 13,0 26,1 40,2 13,-1 26,-2 39,-2 3,0 5,0 8,0 -213,38 -376,224 -376,448 0,162 84,309 221,391l0 903c-82,63 -129,159 -129,264 0,159 111,292 259,327 -12,1 -24,2 -36,2zm485 -2256c-13,-9 -27,-18 -40,-26l99 0c-20,6 -40,14 -58,26zm1251 -16c-44,-11 -88,-17 -121,-17l-1 0c61,-30 129,-46 198,-46 13,0 26,1 41,2 13,-1 26,-2 39,-2 2,0 5,0 7,0 -57,10 -112,31 -162,63zm-1143 -17l0 -120 -5 -1c-232,-63 -444,-200 -596,-388 -166,-205 -258,-463 -258,-727 0,-636 518,-1154 1154,-1154 11,0 23,0 35,1 -578,66 -1029,558 -1029,1154 0,266 92,525 259,731 154,190 366,327 600,390l0 115 -157 0c-1,0 -2,0 -2,0z"/>
  <path class="fil2" d="M2707 7504l-180 -1 -27 1 -442 -3 1 4 -180 -1 -27 1 -657 -5 5 -201c-3,-13 -4,-26 -4,-38l0 -1138c-54,-14 -105,-39 -149,-71 4,-3 9,-5 13,-8 43,31 93,54 145,67l5 1 0 1148c0,12 1,24 4,36l0 1 -4 188 160 1 0 6 650 5 27 -1 171 1 -1 -4 451 3 27 -1 11 0 2 8zm-61 -225c-11,-3 -24,-8 -39,-14l34 -3 5 17zm-788 -80c-1,-2 -3,-3 -4,-5l0 -1071 4 0 0 1076zm-1148 -1095c-9,0 -18,0 -28,-1 -8,1 -18,1 -27,1 -189,0 -342,-154 -342,-342 0,-105 47,-203 129,-268l0 -896c-139,-84 -221,-231 -221,-395 0,-255 207,-462 462,-462 13,0 27,1 40,2 12,-1 26,-2 39,-2 27,0 54,2 81,7 -25,0 -49,3 -73,7 -3,0 -5,0 -8,0 -13,0 -26,1 -39,2 -14,-1 -27,-2 -40,-2 -247,0 -448,201 -448,448 0,159 81,303 218,385l3 2 0 911 -3 2c-80,62 -127,157 -127,259 0,181 147,329 329,329 9,0 18,0 27,-1 10,1 19,1 28,1 12,0 24,-1 36,-2 14,3 28,6 42,7 -25,6 -51,9 -78,9zm543 -2296l-99 0c-8,-5 -17,-9 -26,-14 3,0 6,0 10,0l150 0 0 -103c-233,-64 -445,-203 -598,-391 -168,-207 -261,-468 -261,-735 0,-644 524,-1168 1168,-1168 36,0 74,2 111,5 36,-3 73,-5 109,-5 45,0 89,3 132,7 -25,1 -50,2 -76,5 -37,-3 -74,-5 -110,-5 -45,0 -89,3 -132,7 -12,0 -23,-1 -35,-1 -636,0 -1154,518 -1154,1154 0,264 91,522 258,727 152,187 364,325 596,388l5 1 0 120c-17,0 -34,3 -50,7zm1070 -7l-30 0c69,-39 148,-60 228,-60 13,0 27,1 40,2 12,-1 26,-2 39,-2 16,0 31,1 47,2 1,2 3,4 4,6 -14,1 -29,3 -43,6 -2,0 -5,0 -7,0 -13,0 -26,1 -39,2 -14,-1 -28,-2 -41,-2 -69,0 -136,16 -198,46z"/>
  <path class="fil9" d="M2667 3748c-1,-1 -1,-2 -2,-3 5,1 10,2 16,2 -4,0 -9,0 -13,0z"/>
  <path class="fil10" d="M2650 3749c-1,-2 -3,-4 -4,-6 6,1 12,1 18,2 1,1 1,2 2,3 -5,0 -11,1 -16,1z"/>
  <path class="fil5" d="M2684 5473l0 -877c1,0 3,0 4,0 9,0 19,0 28,-1l0 826c0,9 1,19 3,27 -12,7 -24,16 -35,25zm-601 1865l-82 7c0,0 -163,-39 -210,-134l0 -1150 289 0 0 1199c0,11 2,21 4,31l-1 48zm-938 -1621c-12,-75 -55,-139 -114,-181l0 -954c41,-11 80,-29 114,-52l0 1187zm1923 -260l0 -975c0,-9 -1,-17 -2,-25 58,-68 93,-157 93,-254 0,-217 -176,-393 -393,-393 -13,0 -26,1 -39,2 -13,-1 -26,-2 -39,-2 -86,0 -166,28 -231,75 -50,-14 -100,-22 -133,-22l-120 0 0 -222c502,-102 879,-545 879,-1077 0,-607 -492,-1099 -1099,-1099 -37,0 -74,2 -110,5 -36,-4 -73,-5 -110,-5 -607,0 -1099,492 -1099,1099 0,524 368,963 859,1072l0 226 -220 0c-43,0 -81,20 -110,52 -70,-65 -164,-105 -267,-105 -13,0 -26,1 -39,2 -13,-1 -26,-2 -39,-2 -217,0 -393,176 -393,393 0,155 90,290 221,353l0 944c0,9 1,19 3,27 -79,48 -132,134 -132,234 0,151 122,273 273,273 9,0 18,0 27,-1 9,1 18,1 27,1 136,0 248,-99 269,-229l0 19c0,91 116,220 286,240l0 1195c0,11 2,21 4,31l-3 139 586 4 1 -1 115 1 -1 -4 534 4 1 -1 115 1 -27 -98 -107 9c0,0 -163,-39 -210,-134l0 -1150 84 0c83,0 152,-75 159,-171 48,40 109,65 177,65 9,0 18,-1 27,-1 9,1 18,1 27,1 151,0 273,-122 273,-273 0,-93 -47,-176 -118,-225z"/>
  <path class="fil4" d="M2621 5607l0 -1075 67 1c7,0 14,0 23,-1l67 -5 0 893c0,4 1,9 2,14l10 44 -38 23c-10,6 -19,13 -27,19l-103 87zm-1537 120c-9,-56 -41,-107 -88,-139l-27 -19 0 -1035 46 -12c34,-9 67,-24 96,-44l97 -65 0 1303 -124 10zm770 1467c30,43 109,76 153,88l12 -1c-1,-7 -1,-14 -1,-21l0 -1136 -164 0 0 1071zm-357 173l390 3c-56,-26 -121,-69 -152,-132l-6 -13 0 -1227 414 0 0 1261c0,5 1,10 2,15l2 9 -2 84 390 3c-56,-26 -121,-69 -152,-132l-6 -13 0 -1227 147 0c49,0 92,-50 97,-114l10 -122 93 79c38,32 86,50 136,50 7,0 14,0 21,-1l6 -1 6 1c7,1 14,1 21,1 116,0 210,-94 210,-210 0,-69 -34,-134 -91,-173l-27 -19 0 -1008c0,-4 0,-8 -1,-13l-6 -30 20 -23c50,-60 78,-135 78,-213 0,-182 -148,-330 -330,-330 -11,0 -22,1 -33,2l-6 1 -6 -1c-82,-8 -162,14 -227,61l-25 18 -29 -8c-50,-14 -94,-19 -116,-19l-182 0 0 -335 50 -10c480,-98 829,-525 829,-1015 0,-571 -465,-1036 -1036,-1036 -34,0 -69,2 -104,5l-6 1 -6 -1c-35,-3 -70,-5 -104,-5 -571,0 -1036,465 -1036,1036 0,481 341,907 810,1011l49 11 0 339 -282 0c-23,0 -45,11 -63,31l-42 48 -47 -43c-69,-64 -162,-96 -258,-87l-6 1 -6 -1c-11,-1 -22,-2 -33,-2 -182,0 -330,148 -330,330 0,127 71,241 186,297l35 17 0 983c0,4 1,9 2,14l10 44 -38 23c-64,39 -102,106 -102,180 0,116 94,210 210,210 7,0 14,0 21,-1l6 -1 6 1c7,1 14,1 21,1 103,0 191,-74 207,-176l124 10 0 19c0,53 88,161 232,178l55 7 0 1250c0,5 1,10 2,15l2 9 -2 84zm1368 130l-171 -1 -27 1 -451 -3 1 4 -171 -1 -27 1 -650 -5 5 -194c-3,-13 -4,-25 -4,-37l0 -1143c-99,-25 -180,-82 -230,-147 -62,78 -157,127 -263,127 -9,0 -18,0 -27,-1 -9,1 -18,1 -27,1 -185,0 -335,-150 -335,-335 0,-105 48,-201 129,-264l0 -903c-137,-82 -221,-228 -221,-391 0,-251 204,-455 455,-455 13,0 26,1 39,2 111,-10 218,21 306,85 33,-22 71,-33 110,-33l157 0 0 -115c-234,-63 -446,-200 -600,-390 -167,-206 -259,-465 -259,-731 0,-640 521,-1161 1161,-1161 36,0 73,2 110,5 37,-3 74,-5 110,-5 640,0 1161,521 1161,1161 0,533 -367,999 -879,1127l0 109 57 0c34,0 78,6 121,17 83,-53 181,-77 282,-68 13,-1 26,-2 39,-2 251,0 455,204 455,455 0,98 -32,194 -90,272 0,2 0,4 0,6l0 944c75,63 118,157 118,256 0,185 -151,335 -335,335 -9,0 -18,0 -27,-1 -58,5 -114,-6 -165,-29 -37,82 -112,136 -198,136l-22 0 0 1071c32,46 114,77 153,88l148 -12 62 227z"/>
  <path class="fil11" d="M2969 5420c0,70 -57,127 -127,127 -70,0 -127,-57 -127,-127l0 -1039c0,-70 57,-127 127,-127 70,0 127,57 127,127l0 1039z"/>
  <path class="fil11" d="M3133 5681c0,151 -122,273 -273,273 -151,0 -273,-122 -273,-273 0,-151 122,-273 273,-273 151,0 273,122 273,273z"/>
  <path class="fil6" d="M3187 5681c0,151 -122,273 -273,273 -151,0 -273,-122 -273,-273 0,-151 122,-273 273,-273 151,0 273,122 273,273z"/>
  <path class="fil6" d="M3069 5520c0,70 -57,127 -127,127 -70,0 -127,-57 -127,-127l0 -1039c0,-70 57,-127 127,-127 70,0 127,57 127,127l0 1039z"/>
  <path class="fil11" d="M931 5500c0,70 -57,127 -127,127 -70,0 -127,-57 -127,-127l0 -1039c0,-70 57,-127 127,-127 70,0 127,57 127,127l0 1039z"/>
  <path class="fil11" d="M3081 4203c0,217 -176,393 -393,393 -217,0 -393,-176 -393,-393 0,-217 176,-393 393,-393 217,0 393,176 393,393z"/>
  <path class="fil6" d="M3159 4203c0,217 -176,393 -393,393 -217,0 -393,-176 -393,-393 0,-217 176,-393 393,-393 217,0 393,176 393,393z"/>
  <path class="fil11" d="M2534 7345c0,0 -175,-42 -214,-144l0 -1259c0,-66 -54,-120 -120,-120 -66,0 -120,54 -120,120l0 1318c0,11 2,21 4,31l-3 139 586 4 89 -89 -222 0z"/>
  <path class="fil11" d="M1886 7345c0,0 -175,-42 -214,-144l0 -1259c0,-66 -54,-120 -120,-120 -66,0 -120,54 -120,120l0 1318c0,11 2,21 4,31l-3 139 586 4 89 -89 -222 0z"/>
  <path class="fil11" d="M2484 5824c0,104 -72,189 -160,189l-811 53c-213,18 -367,-137 -367,-242l0 -1772c0,-104 72,-189 160,-189l1019 0c88,0 307,54 307,159l-148 1802z"/>
  <path class="fil11" d="M2025 3923c0,88 -72,160 -160,160l-180 0c-88,0 -160,-72 -160,-160l0 -499c0,-88 72,-160 160,-160l180 0c88,0 160,72 160,160l0 499z"/>
  <path class="fil11" d="M2864 2565c0,607 -492,1099 -1099,1099 -607,0 -1099,-492 -1099,-1099 0,-607 492,-1099 1099,-1099 607,0 1099,492 1099,1099z"/>
  <path class="fil6" d="M3083 2565c0,607 -492,1099 -1099,1099 -607,0 -1099,-492 -1099,-1099 0,-607 492,-1099 1099,-1099 607,0 1099,492 1099,1099z"/>
  <path class="fil11" d="M1243 4203c0,217 -176,393 -393,393 -217,0 -393,-176 -393,-393 0,-217 176,-393 393,-393 217,0 393,176 393,393z"/>
  <path class="fil6" d="M1321 4203c0,217 -176,393 -393,393 -217,0 -393,-176 -393,-393 0,-217 176,-393 393,-393 217,0 393,176 393,393z"/>
  <path class="fil11" d="M1095 5761c0,151 -122,273 -273,273 -151,0 -273,-122 -273,-273 0,-151 122,-273 273,-273 151,0 273,122 273,273z"/>
  <path class="fil6" d="M1150 5761c0,151 -122,273 -273,273 -151,0 -273,-122 -273,-273 0,-151 122,-273 273,-273 151,0 273,122 273,273z"/>
  <path class="fil6" d="M2204 4023c0,88 -72,160 -160,160l-180 0c-88,0 -160,-72 -160,-160l0 -499c0,-88 72,-160 160,-160l180 0c88,0 160,72 160,160l0 499z"/>
  <path class="fil6" d="M2684 5871c0,104 -72,189 -160,189l-1019 0c-88,0 -160,-85 -160,-189l0 -1772c0,-104 72,-189 160,-189l1019 0c88,0 160,85 160,189l0 1772z"/>
  <path class="fil6" d="M2108 7336l-107 9c0,0 -163,-39 -210,-134l0 -1250c0,-66 -54,-120 -120,-120 -66,0 -120,54 -120,120l0 1318 1 150 582 4 -27 -98z"/>
  <path class="fil6" d="M2756 7336l-107 9c0,0 -163,-39 -210,-134l0 -1250c0,-66 -54,-120 -120,-120 -66,0 -120,54 -120,120l0 1318 1 150 582 4 -27 -98z"/>
  <path class="fil4" d="M2581 4774c-6,-281 -235,-506 -517,-506 -282,0 -511,226 -517,506l1035 0z"/>
  <path class="fil7" d="M2068 4268c0,0 0,0 0,0 0,0 0,0 0,0zm-1 0c0,0 0,0 0,0 0,0 0,0 0,0zm-1 0c0,0 0,0 0,0 0,0 0,0 0,0zm-1 0c0,0 0,0 0,0 0,0 0,0 0,0zm-1 0c-1,0 -1,0 -2,0 1,0 1,0 2,0z"/>
  <path class="fil8" d="M1661 4774l-115 0c6,-281 235,-506 517,-506l0 0c1,0 1,0 2,0 0,0 1,0 1,0 0,0 0,0 0,0 0,0 0,0 1,0 0,0 0,0 0,0 0,0 1,0 1,0 0,0 0,0 0,0 0,0 0,0 1,0 0,0 0,0 0,0 139,1 264,57 356,147 -75,-43 -162,-67 -255,-67 -255,0 -466,184 -509,426z"/>
  <path class="fil11" d="M2876 2630c0,88 -72,160 -160,160l-1345 0c-88,0 -160,-72 -160,-160l0 -240c0,-88 72,-160 160,-160l1345 0c88,0 160,72 160,160l0 240z"/>
  <path class="fil7" d="M1211 2633c0,0 0,0 0,0 0,0 0,0 0,0zm0 -1c0,0 0,0 0,0 0,0 0,0 0,0zm0 0c0,0 0,0 0,0 0,0 0,0 0,0zm0 -1c0,0 0,0 0,0 0,0 0,0 0,0zm0 0c0,0 0,0 0,0 0,0 0,0 0,0zm0 -1c0,0 0,0 0,0 0,0 0,0 0,0zm0 -1c0,0 0,0 0,0l0 0c0,0 0,0 0,0zm1532 -398c0,0 0,0 0,0 0,0 0,0 0,0zm0 0c0,0 0,0 0,0 0,0 0,0 0,0zm-1 0c0,0 0,0 0,0 0,0 0,0 0,0zm0 0c0,0 0,0 0,0 0,0 0,0 0,0zm-1 0c0,0 0,0 0,0 0,0 0,0 0,0zm0 0c0,0 0,0 0,0 0,0 0,0 0,0zm-1 0c0,0 0,0 0,0 0,0 0,0 0,0zm0 0c0,0 0,0 0,0 0,0 0,0 0,0zm-1 0c0,0 0,0 0,0 0,0 0,0 0,0zm0 0c0,0 0,0 0,0 0,0 0,0 0,0zm0 0c0,0 0,0 0,0 0,0 0,0 0,0zm-1 0c0,0 0,0 0,0 0,0 0,0 0,0zm-1 0c0,0 0,0 0,0 0,0 0,0 0,0zm0 0c0,0 0,0 0,0 0,0 0,0 0,0zm0 0c0,0 0,0 0,0 0,0 0,0 0,0zm-1 0c0,0 0,0 0,0 0,0 0,0 0,0zm0 0c0,0 0,0 0,0 0,0 0,0 0,0zm0 0c0,0 0,0 0,0 0,0 0,0 0,0zm-1 0c0,0 0,0 0,0 0,0 0,0 0,0zm0 0c0,0 0,0 0,0 0,0 0,0 0,0zm0 0c0,0 0,0 0,0 0,0 0,0 0,0zm-1 0c0,0 0,0 0,0 0,0 0,0 0,0zm0 0c0,0 0,0 0,0 0,0 0,0 0,0zm0 0c0,0 0,0 0,0 0,0 0,0 0,0zm-1 0c0,0 0,0 0,0 0,0 0,0 0,0zm0 0c0,0 0,0 0,0 0,0 0,0 0,0zm0 0c0,0 0,0 0,0 0,0 0,0 0,0zm-1 0c0,0 0,0 0,0 0,0 0,0 0,0zm0 0c0,0 0,0 0,0 0,0 0,0 0,0zm0 0c0,0 0,0 0,0 0,0 0,0 0,0zm-1 0c0,0 0,0 0,0 0,0 0,0 0,0zm0 0c0,0 0,0 0,0 0,0 0,0 0,0zm0 0c0,0 0,0 0,0 0,0 0,0 0,0zm-1 0c0,0 0,0 0,0 0,0 0,0 0,0zm0 0c0,0 0,0 0,0 0,0 0,0 0,0zm0 0c0,0 0,0 0,0 0,0 0,0 0,0zm-1 0c0,0 0,0 0,0 0,0 0,0 0,0zm0 0c0,0 0,0 0,0 0,0 0,0 0,0zm0 0c0,0 0,0 0,0 0,0 0,0 0,0zm-1 0c0,0 0,0 0,0 0,0 0,0 0,0zm0 0c0,0 0,0 0,0 0,0 0,0 0,0zm0 0c0,0 0,0 0,0 0,0 0,0 0,0zm-1 0c0,0 0,0 0,0 0,0 0,0 0,0zm0 0c0,0 0,0 0,0 0,0 0,0 0,0zm0 0c0,0 0,0 0,0 0,0 0,0 0,0zm-1 0c0,0 0,0 0,0 0,0 0,0 0,0zm0 0c0,0 0,0 0,0 0,0 0,0 0,0zm0 0c0,0 0,0 0,0 0,0 0,0 0,0zm-1 0c0,0 0,0 0,0 0,0 0,0 0,0zm0 0c0,0 0,0 0,0 0,0 0,0 0,0z"/>
  <path class="fil12" d="M1277 2759c-39,-28 -65,-74 -66,-126 0,0 0,0 0,0 0,0 0,0 0,0 0,0 0,0 0,0 0,0 0,0 0,0 0,0 0,0 0,0 0,0 0,0 0,0 0,0 0,0 0,0 0,0 0,0 0,0 0,0 0,0 0,0 0,0 0,0 0,0 0,0 0,0 0,0 0,0 0,0 0,0 0,0 0,0 0,0l0 -240c0,-88 72,-160 160,-160l1345 0 0 0c0,0 0,0 0,0 0,0 0,0 0,0 0,0 0,0 0,0 0,0 0,0 0,0 0,0 0,0 0,0l0 0c0,0 0,0 0,0 0,0 0,0 0,0 0,0 0,0 0,0 0,0 0,0 0,0 0,0 0,0 0,0 0,0 0,0 0,0 0,0 0,0 0,0 0,0 0,0 0,0 0,0 0,0 0,0 0,0 0,0 0,0 0,0 0,0 0,0 0,0 0,0 0,0 0,0 0,0 0,0 0,0 0,0 0,0 0,0 0,0 0,0 0,0 0,0 0,0 0,0 0,0 0,0 0,0 0,0 0,0 0,0 0,0 0,0 0,0 0,0 0,0 0,0 0,0 0,0 0,0 0,0 0,0 0,0 0,0 0,0 0,0 0,0 0,0 0,0 0,0 0,0 0,0 0,0 0,0 0,0 0,0 0,0 0,0 0,0 0,0 0,0 0,0 0,0 0,0 0,0 0,0 0,0 0,0 0,0 0,0 0,0 0,0 0,0 0,0 0,0 0,0 0,0 0,0 0,0 0,0 0,0 0,0 0,0 0,0 0,0 0,0 0,0 0,0 0,0 0,0 0,0 0,0 0,0 0,0 0,0 0,0 0,0 0,0 0,0 0,0 0,0 0,0 0,0 0,0 0,0 0,0 0,0 0,0 0,0 0,0 0,0 0,0 0,0 0,0 0,0 0,0 0,0 0,0 0,0 0,0 0,0 0,0 0,0 0,0 0,0 0,0 0,0 0,0 0,0 0,0 0,0 0,0 0,0 0,0 0,0 0,0 0,0 0,0 0,0 0,0 0,0 0,0 0,0 0,0 0,0 0,0 0,0 0,0 0,0 0,0 0,0 0,0 0,0 0,0 0,0 0,0 0,0 0,0 0,0 0,0 0,0 0,0 0,0 0,0 0,0 0,0 0,0 0,0 0,0 0,0 0,0 0,0 0,0 0,0 0,0 0,0 0,0 0,0 0,0 0,0 0,0 0,0 0,0 0,0 0,0 0,0 0,0 0,0 0,0 0,0 0,0 0,0 0,0 0,0 0,0 0,0 0,0 0,0 0,0 0,0 0,0 0,0 0,0 0,0 0,0 0,0 0,0 0,0 0,0 1,0 0,0 0,0 0,0 0,0 0,0 0,0 0,0 0,0 0,0 0,0 1,0 1,0 0,0 0,0 0,0 0,0 0,0 0,0 0,0 0,0 0,0 0,0 1,0 1,0 0,0 0,0 0,0 0,0 0,0 0,0 0,0 0,0 0,0 0,0 1,0 1,0 0,0 0,0 0,0 0,0 0,0 0,0 0,0 0,0 0,0 54,9 100,46 121,95 -26,-19 -59,-31 -94,-31l-1345 0c-88,0 -160,72 -160,160l0 240c0,22 5,43 13,63z"/>
  <path class="fil5" d="M1757 2510c0,66 -54,120 -120,120 -66,0 -120,-54 -120,-120 0,-66 54,-120 120,-120 66,0 120,54 120,120z"/>
  <path class="fil5" d="M2609 2510c0,66 -54,120 -120,120 -66,0 -120,-54 -120,-120 0,-66 54,-120 120,-120 66,0 120,54 120,120z"/>
  <path class="fil11" d="M1797 2910l613 0c0,0 -293,400 -613,0z"/>
  <path class="fil6" d="M1031 5600c0,70 -57,127 -127,127 -70,0 -127,-57 -127,-127l0 -1039c0,-70 57,-127 127,-127 70,0 127,57 127,127l0 1039z"/>
  <path class="fil5" d="M2609 5187c0,88 -67,160 -149,160l-768 0c-82,0 -149,-72 -149,-160l0 -107c0,-88 67,-160 149,-160l768 0c82,0 149,72 149,160l0 107z"/>
  <path class="fil1" d="M6343 7475l-101 0 0 -302c0,-33 -7,-64 -20,-93l0 -404 120 0 0 457c0,6 0,13 1,20 -1,7 -1,14 -1,20l0 302zm-999 0l-120 0 0 -302c0,-6 0,-13 1,-21 -1,-7 -1,-13 -1,-19l0 -473 -5 -1c-52,-15 -98,-44 -134,-85l-1 -1 -66 -20 -5 7 -54 -25 -87 -27c9,-17 18,-34 26,-52l66 30 -9 15 130 40 58 27 5 -7 59 18c36,42 84,72 137,87l0 468c0,6 0,13 1,20 -1,7 -1,14 -1,20l0 302zm-509 -2036l0 -163c53,-59 115,-113 188,-158l2 -1 1 -3c32,-123 144,-209 271,-209l65 0c-104,23 -187,103 -215,207 -137,85 -238,204 -311,327z"/>
  <path class="fil13" d="M4765 5573l0 -210c21,-30 44,-59 69,-86l0 163c-27,45 -50,90 -69,134z"/>
  <path class="fil14" d="M4731 5655c-27,-27 -57,-54 -88,-78 32,-71 72,-145 122,-215l0 210c-13,28 -24,56 -34,83z"/>
  <path class="fil1" d="M7210 5074c-12,-29 -29,-56 -50,-79 29,-56 48,-135 56,-233l0 -3 -2 -2c-6,-7 -11,-14 -17,-22l-1 -1c-47,-36 -105,-98 -117,-186 -1,-5 -1,-10 -1,-14l-2 -24 -11 21c-49,91 -143,147 -246,147l-206 0c-4,0 -8,1 -12,1l-213 0 -1 5c-3,12 -7,24 -12,35 -9,-1 -18,-2 -27,-2l-261 0c-98,0 -178,80 -178,178l0 3 -120 0 0 -3c0,-45 18,-88 50,-120l5 -5 -5 -5c-22,-23 -38,-51 -45,-81l-1 -5 -277 0c-6,0 -13,0 -19,-1l-199 0c-154,0 -280,-126 -280,-280l0 -681c3,0 5,0 8,0 29,59 88,96 154,96l3 0c20,8 41,12 63,12l225 0c17,0 33,-2 48,-7l56 0c91,0 164,-74 164,-164l0 -214c0,-46 -19,-88 -50,-118 22,-44 43,-94 59,-146l44 0 2 -5c40,-132 160,-220 299,-220 138,0 258,88 299,220l2 5 428 -1c154,0 280,125 280,280l1 960 13 -24c12,-22 26,-44 44,-65l33 -41 82 46c-56,73 -80,146 -70,219 12,89 69,152 120,191 5,7 11,15 17,22 -14,163 -59,273 -127,313z"/>
  <path class="fil15" d="M5300 3811l-57 0c-20,0 -40,-4 -59,-11l-7 -1c-58,0 -111,-32 -138,-82 33,0 64,-4 92,-10 25,58 83,99 151,99l4 0c5,2 9,4 14,5zm123 -547l-14 0c2,-28 4,-57 5,-88l54 0c-14,32 -30,62 -45,88z"/>
  <path class="fil9" d="M5469 3825l-225 0c-22,0 -43,-4 -63,-12l-3 0c-65,0 -125,-37 -154,-96 2,0 5,0 7,0 3,0 6,0 8,0 27,50 80,82 138,82l7 1c19,8 39,11 59,11l57 0c15,5 31,7 47,7l170 0c-15,5 -32,7 -48,7z"/>
  <path class="fil13" d="M5573 3818l-225 0c-16,0 -32,-2 -47,-7 -5,-1 -9,-3 -14,-5l-4 0c-67,0 -125,-41 -151,-99 -28,6 -58,9 -92,10 -3,0 -6,0 -8,0 -2,0 -5,0 -7,0 -3,0 -5,0 -8,0l0 -69c5,0 11,0 16,0 60,0 112,-9 155,-34l0 28c0,52 43,95 95,95l19 0c14,8 29,12 46,12l225 0c52,0 95,-43 95,-95l0 -214c0,-45 -32,-83 -74,-93 29,-49 58,-107 79,-172l73 0c-16,52 -37,102 -59,146 31,30 50,72 50,118l0 214c0,91 -74,164 -164,164zm-111 -485l-131 0c7,-46 11,-98 13,-158l69 0c-1,31 -3,60 -5,88l14 0c15,-26 31,-56 45,-88l75 0c-23,60 -53,115 -81,158z"/>
  <path class="fil16" d="M5472 3333l-10 0c27,-43 58,-97 81,-158l13 0c-24,61 -56,116 -84,158z"/>
  <path class="fil14" d="M5032 3648c-5,0 -10,0 -16,0l0 -192c0,-154 126,-280 280,-280l48 0c-2,59 -6,112 -13,158l-49 0c-52,0 -95,43 -95,95l0 186c-44,25 -96,34 -155,34z"/>
  <path class="fil16" d="M5301 3737l-19 0c-52,0 -95,-43 -95,-95l0 -214c0,-52 43,-95 95,-95l190 0c-3,4 -5,8 -8,12l-116 0c-52,0 -95,43 -95,95l0 214c0,36 20,67 49,83z"/>
  <path class="fil14" d="M5573 3748l-225 0c-17,0 -32,-4 -46,-12 -29,-16 -49,-47 -49,-83l0 -214c0,-52 43,-95 95,-95l116 0c-29,43 -52,69 -53,70 -20,23 -18,58 5,78 11,9 24,14 37,14 15,0 31,-6 42,-19 5,-5 52,-59 100,-141 42,10 74,47 74,93l0 214c0,52 -43,95 -95,95z"/>
  <path class="fil14" d="M5452 3507c-13,0 -26,-5 -37,-14 -23,-20 -25,-55 -5,-78 1,-1 24,-27 53,-70 3,-4 5,-8 8,-12 28,-42 59,-96 84,-158l118 0c-21,64 -51,123 -79,172 -48,82 -95,136 -100,141 -11,12 -26,19 -42,19z"/>
  <path class="fil1" d="M7721 4615c-18,0 -43,-5 -75,-13 -7,-2 -14,-4 -19,-6 0,0 0,0 0,0 10,-19 25,-44 50,-67l39 -35 64 50c-14,17 -24,35 -32,48 -4,8 -11,19 -13,21 0,0 -4,2 -14,2z"/>
  <path class="fil2" d="M7121 7489l-912 0 0 -7 34 0 0 -7 101 0 0 7 778 0 0 7zm-999 0l-912 0 0 -316c0,-7 0,-13 1,-21 -1,-6 -1,-13 -1,-19l0 -463c-52,-16 -98,-46 -134,-87l-53 -16 -6 8 -63 -29 -89 -27c2,-4 5,-8 7,-12l87 27 54 25 5 -7 66 20 1 1c36,41 82,70 134,85l5 1 0 473c0,6 0,13 1,19 -1,8 -1,14 -1,21l0 302 120 0 0 7 778 0 0 7zm101 -409c-4,-9 -9,-18 -14,-26l0 -371 -226 0 0 -7 240 0 0 404zm-1388 -1804l0 -21c51,-55 110,-105 178,-148 35,-128 151,-216 283,-216l478 0c1,-45 18,-88 49,-121 -20,-22 -35,-49 -43,-77l-266 0c-7,0 -13,0 -20,-1l-199 0c-162,0 -294,-132 -294,-294l0 -679c4,-1 9,-1 13,-2 0,0 1,0 1,0l0 681c0,154 126,280 280,280l199 0c7,0 13,1 19,1l277 0 1 5c7,30 23,58 45,81l5 5 -5 5c-32,32 -50,75 -50,120l0 3 -365 0c-21,0 -42,2 -63,7l-65 0c-127,0 -238,86 -271,209l-1 3 -2 1c-72,45 -134,99 -188,158zm2265 -861l-1 -960c0,-154 -126,-280 -280,-280l-428 1 -2 -5c-41,-131 -161,-220 -299,-220 -138,0 -258,88 -299,220l-2 5 -44 0c1,-5 3,-9 4,-14l29 0c44,-135 168,-225 310,-225 143,0 267,90 310,225l417 -1c162,0 294,132 294,294l1 907c9,-15 20,-30 32,-45l41 -50 94 53 -2 2c-2,3 -5,6 -7,9l-82 -46 -33 41c-17,21 -32,43 -44,65l-13 24z"/>
  <path class="fil9" d="M5468 3176l-54 0c0,-5 0,-9 0,-14l59 0c-2,5 -4,9 -6,14z"/>
  <path class="fil10" d="M5002 3719l0 -3c4,0 9,0 13,0 -4,1 -9,1 -13,2z"/>
  <path class="fil17" d="M4765 5362l0 -23c21,-29 44,-57 69,-84l0 21c-25,28 -48,57 -69,86zm251 -1645c0,0 -1,0 -1,0 -4,0 -9,0 -13,0l0 -69c5,0 9,0 14,0l0 69zm730 -541l-73 0c2,-5 3,-9 4,-14l72 0c-1,5 -3,9 -4,14zm-204 0l-75 0c2,-5 4,-9 6,-14l74 0c-2,5 -3,9 -5,14zm-129 0l-69 0c0,-5 0,-9 0,-14l69 0c0,5 0,9 0,14z"/>
  <path class="fil18" d="M5555 3176l-13 0c2,-5 3,-9 5,-14l13 0c-2,5 -4,9 -5,14z"/>
  <path class="fil19" d="M5016 3647c-5,0 -9,0 -14,0l0 -191c0,-162 132,-294 294,-294l49 0c0,5 0,9 0,14l-48 0c-154,0 -280,126 -280,280l0 192z"/>
  <path class="fil19" d="M4643 5577c-4,-3 -7,-6 -11,-9 34,-76 78,-155 133,-229l0 23c-50,70 -90,143 -122,215z"/>
  <path class="fil19" d="M5673 3176l-118 0c2,-5 4,-9 5,-14l117 0c-1,5 -3,9 -4,14z"/>
  <path class="fil2" d="M7161 4994c-3,-4 -7,-8 -10,-11 27,-54 45,-129 52,-220 -5,-6 -10,-13 -15,-19 -48,-37 -107,-100 -121,-189 -54,84 -147,136 -248,136l-206 0c-4,0 -8,1 -13,1l-202 0c-3,10 -6,20 -11,29 -5,-1 -9,-2 -14,-3 5,-11 10,-23 12,-35l1 -5 213 0c4,0 8,0 12,-1l206 0c103,0 197,-57 246,-147l11 -21 2 24c0,5 1,10 1,14 11,88 70,150 117,186l1 1c5,7 11,15 17,22l2 2 0 3c-8,98 -27,177 -56,233zm-635 -97l0 -3c0,-1 0,-3 0,-4l292 0 0 0c22,0 44,2 64,7l-356 0zm1101 -302c-5,-2 -8,-4 -11,-5 0,-1 0,-2 0,-3 11,-19 26,-46 52,-69l48 -42 73 58c-3,3 -6,7 -9,10l-64 -50 -39 35c-26,23 -40,48 -50,67 0,0 0,0 0,0z"/>
  <path class="fil4" d="M5206 5889l0 323c-37,-30 -72,-45 -72,-45 11,-120 38,-210 72,-278zm2850 -1148l-3 -3 0 -2 -10 -6 -197 -156c-63,56 -30,146 -219,94 -40,-11 -64,-27 -78,-43 -15,-62 23,-118 23,-118l-2 -1c3,-4 5,-6 5,-6l-244 -137c-134,166 -25,279 39,326 12,17 25,33 38,46 -22,363 -174,418 -247,423 -12,-109 -105,-193 -216,-193l-516 1c17,-19 28,-45 28,-72 0,-60 -49,-109 -109,-109l-261 0c-60,0 -109,49 -109,109 0,28 11,53 28,73l-583 0c-110,0 -201,82 -215,189 -423,238 -494,838 -494,838 -228,-21 -248,212 -248,212l100 52 0 1 140 73c60,-60 23,-155 213,-107 7,2 14,4 21,6 79,75 19,174 19,174l103 47c-2,4 -3,6 -3,6l50 15 10 5 1 -1 112 35c2,-3 4,-6 6,-9 37,59 101,100 175,103 0,2 0,5 0,7l0 519c0,7 1,13 1,20 -1,7 -1,13 -1,20l0 240 759 0 0 -240c0,-88 -72,-160 -160,-160l-100 0 0 -400c0,-2 0,-4 0,-6l387 0 113 0c0,2 0,5 0,7l0 519c0,7 1,13 1,20 -1,7 -1,13 -1,20l0 240 759 0 0 -240c0,-88 -72,-160 -160,-160l-100 0 0 -400c0,-3 0,-5 0,-8l36 0c120,0 217,-98 217,-218l-1 -613c509,-171 629,-842 629,-842 197,30 248,-141 258,-186 3,-4 5,-6 5,-6z"/>
  <path class="fil4" d="M5275 6359l-114 -93c-28,-23 -55,-35 -55,-35l-46 -20 4 -50c11,-117 37,-219 79,-303l132 -265 0 766zm1207 984l620 0 0 -170c0,-50 -41,-90 -90,-90l-169 0 0 -473 -4 -73 108 0c40,0 77,-16 105,-44 28,-28 43,-65 43,-105l-1 -663 47 -16c464,-156 582,-782 583,-788l12 -67 67 10c12,2 23,3 34,3 82,0 119,-58 136,-103l-112 -89c-21,35 -57,79 -140,79 -31,0 -68,-6 -112,-19 -52,-15 -89,-36 -113,-67l-9 -12 -4 -15c-9,-37 -6,-73 2,-101l-24 -12 8 -9 -114 -64c-13,26 -19,51 -16,74 6,48 49,86 74,104l10 7 7 10c8,12 18,24 29,36l21 22 -2 31c-25,423 -226,482 -312,488l-66 5 -8 -66c-9,-75 -72,-131 -147,-131l-672 1 103 -116c5,-5 10,-14 10,-26 0,-22 -18,-39 -39,-39l-261 0c-22,0 -39,18 -39,39 0,12 6,21 10,26l104 116 -738 0c-74,0 -137,55 -147,128l-5 34 -30 17c-386,218 -458,780 -459,786l-8 67 -67 -6c-8,-1 -15,-1 -22,-1 -91,0 -127,62 -141,106l96 51 0 1 40 21c18,-38 53,-98 151,-98 29,0 63,5 104,15 8,2 16,4 24,7l16 5 12 11c62,59 69,131 58,188l88 40 70 22 37 -55 56 91c26,42 70,68 119,70l70 3 -3 74 0 519c0,3 0,7 1,11l1 9 -1 9c-1,4 -1,8 -1,11l0 170 620 0 0 -170c0,-50 -41,-90 -90,-90l-169 0 0 -472 -3 -72 645 -1 -3 77 0 519c0,3 0,7 1,11l1 9 -1 9c-1,4 -1,8 -1,11l0 170zm759 139l-898 0 0 -309c0,-6 0,-13 1,-20 -1,-7 -1,-14 -1,-20l0 -457 -361 0 0 267 30 0c126,0 229,103 229,229l0 309 -898 0 0 -309c0,-6 0,-13 1,-20 -1,-7 -1,-14 -1,-20l0 -468c-53,-15 -101,-46 -137,-87l-59 -18 -5 7 -58 -27 -130 -40 9 -15 -104 -48 40 -66c4,-7 23,-45 2,-77 -29,-7 -52,-11 -69,-11 -12,0 -17,2 -17,2 -3,2 -9,15 -13,24 -10,20 -23,49 -48,74l-36 36 -226 -118 0 -1 -100 -53 4 -46c8,-91 72,-259 258,-275 30,-162 142,-597 491,-812 33,-124 146,-214 277,-214l485 0 0 -3c0,-98 80,-178 178,-178l261 0c98,0 178,80 178,178l0 3 419 -1c119,0 222,72 265,176 68,-40 113,-149 127,-313 -6,-7 -12,-15 -17,-22 -50,-39 -108,-102 -120,-191 -10,-76 16,-152 77,-228l37 -46 375 210 -57 58 -3 4c-4,6 -13,24 -14,44 6,3 16,7 30,11 32,9 57,13 75,13 11,0 14,-2 14,-2 3,-2 9,-14 13,-21 11,-19 25,-46 52,-69l44 -39 239 189 46 28 -1 8 23 18 -36 51c-30,111 -114,223 -267,228 -43,170 -196,647 -615,817l1 564c0,77 -30,149 -84,203 -46,46 -105,75 -169,82l0 270 30 0c126,0 229,103 229,229l0 309z"/>
  <path class="fil4" d="M5423 4616l202 0c6,0 11,1 17,1l340 0c-3,9 -4,19 -4,29 0,60 49,109 109,109l261 0c60,0 109,-49 109,-109 0,-10 -1,-20 -4,-29l276 0c4,0 8,0 11,-1l207 0c120,0 217,-98 217,-218l-1 -943c0,-120 -98,-217 -218,-217l-479 1c-13,-126 -119,-225 -249,-225 -130,0 -236,99 -249,225l-545 0c-120,0 -218,97 -218,218l0 943c0,120 97,218 218,218z"/>
  <path class="fil4" d="M6073 4547l-24 88c-1,4 -1,7 -1,10 0,22 18,39 39,39l261 0c22,0 39,-18 39,-39 0,-3 -1,-7 -2,-11l-24 -88 367 0 3 0 8 0 207 0c82,0 148,-67 148,-148l-1 -943c0,-82 -67,-148 -148,-148l-542 1 -6 -63c-9,-92 -87,-162 -180,-162 -93,0 -170,70 -180,162l-6 62 -608 0c-82,0 -148,66 -148,148l0 943c0,82 66,148 148,148l207 0c4,0 8,1 12,1l431 -1zm275 276l-261 0c-84,0 -155,-59 -173,-137l-272 0c-7,0 -13,0 -19,-1l-199 0c-158,0 -287,-129 -287,-287l0 -943c0,-158 129,-287 287,-287l489 0c40,-132 162,-225 305,-225 143,0 265,93 305,225l423 -1c158,0 287,129 287,287l1 943c0,158 -128,287 -287,287l-206 0c-4,0 -8,1 -13,1l-207 0c-18,79 -89,138 -174,138z"/>
  <path class="fil5" d="M7722 4853c0,0 -121,673 -631,843l32 -538c0,0 265,61 287,-443 0,0 -258,-128 -78,-350l244 137c0,0 -120,120 51,168 189,53 156,-37 219,-94l209 166c0,0 -108,147 -334,112z"/>
  <path class="fil5" d="M6772 7133c0,88 -72,160 -160,160l-40 0c-88,0 -160,-72 -160,-160l0 -519c0,-88 72,-160 160,-160l40 0c88,0 160,72 160,160l0 519z"/>
  <path class="fil5" d="M7032 7412l0 -240c0,-88 -72,-160 -160,-160l-300 0c-88,0 -160,72 -160,160l0 240 619 0z"/>
  <path class="fil5" d="M5773 7133c0,88 -72,160 -160,160l-40 0c-88,0 -160,-72 -160,-160l0 -519c0,-88 72,-160 160,-160l40 0c88,0 160,72 160,160l0 519z"/>
  <path class="fil5" d="M6033 7412l0 -240c0,-88 -72,-160 -160,-160l-300 0c-88,0 -160,72 -160,160l0 240 619 0z"/>
  <path class="fil5" d="M6468 3263c0,138 -112,250 -250,250 -138,0 -250,-112 -250,-250 0,-138 112,-250 250,-250 138,0 250,112 250,250z"/>
  <path class="fil5" d="M6457 4645c0,60 -49,109 -109,109l-261 0c-60,0 -109,-49 -109,-109 0,-60 49,-109 109,-109l261 0c60,0 109,49 109,109z"/>
  <path class="fil5" d="M6457 4895c0,60 -49,109 -109,109l-261 0c-60,0 -109,-49 -109,-109 0,-60 49,-109 109,-109l261 0c60,0 109,49 109,109z"/>
  <path class="fil5" d="M6946 4398c0,120 -97,218 -218,218l-1305 0c-120,0 -218,-97 -218,-218l0 -943c0,-120 97,-218 218,-218l1305 0c120,0 218,97 218,218l0 943z"/>
  <path class="fil5" d="M6946 6389c0,120 -97,218 -218,218l-1305 0c-120,0 -218,-97 -218,-218l0 -1204c0,-120 97,-218 218,-218l1305 0c120,0 218,97 218,218l0 1204z"/>
  <path class="fil11" d="M7164 4397c0,120 -97,218 -217,218l-1305 2c-120,0 -218,-97 -218,-217l-1 -943c0,-120 97,-218 217,-218l1305 -2c120,0 218,97 218,217l1 943z"/>
  <path class="fil11" d="M7164 6388c0,120 -97,218 -217,218l-1305 2c-120,0 -218,-97 -218,-217l-1 -1204c0,-120 97,-218 217,-218l1305 -2c120,0 218,97 218,217l1 1204z"/>
  <path class="fil5" d="M6109 3796c0,120 -97,218 -218,218 -120,0 -218,-97 -218,-218 0,-120 97,-218 218,-218 120,0 218,97 218,218z"/>
  <path class="fil4" d="M5956 3796c0,36 -29,65 -65,65 -36,0 -65,-29 -65,-65 0,-36 29,-65 65,-65 36,0 65,29 65,65z"/>
  <path class="fil5" d="M6957 3796c0,120 -97,218 -218,218 -120,0 -218,-97 -218,-218 0,-120 97,-218 218,-218 120,0 218,97 218,218z"/>
  <path class="fil4" d="M6805 3796c0,36 -29,65 -65,65 -36,0 -65,-29 -65,-65 0,-36 29,-65 65,-65 36,0 65,29 65,65z"/>
  <path class="fil5" d="M6533 4068c0,24 -19,44 -44,44l-326 0c-24,0 -44,-19 -44,-44 0,-24 20,-44 44,-44l326 0c24,0 44,19 44,44z"/>
  <path class="fil5" d="M6087 5363c0,72 -58,131 -131,131l-131 0c-72,0 -131,-58 -131,-131l0 -11c0,-72 58,-131 131,-131l131 0c72,0 131,58 131,131l0 11z"/>
  <path class="fil5" d="M6968 5363c0,72 -58,131 -131,131l-131 0c-72,0 -131,-58 -131,-131l0 -11c0,-72 58,-131 131,-131l131 0c72,0 131,58 131,131l0 11z"/>
  <path class="fil11" d="M5913 7133c0,88 -72,160 -160,160l-40 0c-88,0 -160,-72 -160,-160l0 -519c0,-88 72,-160 160,-160l40 0c88,0 160,72 160,160l0 519z"/>
  <path class="fil11" d="M6173 7412l0 -240c0,-88 -72,-160 -160,-160l-300 0c-88,0 -160,72 -160,160l0 240 619 0z"/>
  <path class="fil11" d="M6912 7133c0,88 -72,160 -160,160l-40 0c-88,0 -160,-72 -160,-160l0 -519c0,-88 72,-160 160,-160l40 0c88,0 160,72 160,160l0 519z"/>
  <path class="fil11" d="M7172 7412l0 -240c0,-88 -72,-160 -160,-160l-300 0c-88,0 -160,72 -160,160l0 240 619 0z"/>
  <path class="fil5" d="M4714 5994c0,0 80,-679 579,-879l0 539c0,0 -220,20 -260,459 0,0 252,132 85,365l-160 -73c0,0 103,-172 -140,-233 -190,-48 -153,47 -213,107l-140 -73c0,0 20,-233 248,-212z"/>
  <path class="fil11" d="M7793 4933c0,0 -121,673 -631,843l-40 -549c0,0 293,4 360,-433 0,0 -264,-153 -84,-375l176 89c0,0 -113,165 126,241 187,60 156,-37 219,-94l135 82c0,0 -34,231 -260,197z"/>
  <path class="fil11" d="M4814 6047c0,0 52,-720 611,-880l7 519c0,0 -258,41 -298,481 0,0 265,112 99,345l-173 -53c0,0 103,-172 -140,-233 -191,-48 -153,47 -213,107l-140 -73c0,0 20,-233 248,-212z"/>
  <polygon class="fil5" points="5753,6154 6952,6154 6952,5694 5753,5694 "/>
  <polygon class="fil20" points="5846,6154 5753,6154 5753,5694 6952,5694 6952,5761 5846,5761 "/>
  <path class="fil4" d="M6145 5960c0,37 -30,67 -67,67 -37,0 -67,-30 -67,-67l0 -13c0,-37 30,-67 67,-67 37,0 67,30 67,67l0 13z"/>
  <path class="fil4" d="M6424 5960c0,37 -30,67 -67,67 -37,0 -67,-30 -67,-67l0 -13c0,-37 30,-67 67,-67 37,0 67,30 67,67l0 13z"/>
  <path class="fil4" d="M6704 5960c0,37 -30,67 -67,67 -37,0 -67,-30 -67,-67l0 -13c0,-37 30,-67 67,-67 37,0 67,30 67,67l0 13z"/>
  <path class="fil1" d="M4042 7575c-29,0 -57,-8 -82,-22l-2 -1c-15,-3 -29,-8 -41,-14l228 0c-28,23 -64,37 -103,37zm-465 0c-29,0 -57,-8 -82,-22l-2 -1c-76,-15 -132,-82 -132,-159l0 -153 -3 -2c-66,-40 -119,-88 -156,-144l-6 -8 -24 34 1 3c19,57 9,120 -26,169l-18 26c-36,50 -94,80 -155,80 -29,0 -59,-7 -85,-20l-2 -1c-22,-5 -43,-13 -62,-26l-22 -82 -61 5c-40,-63 -40,-148 6,-212l19 -26c35,-49 91,-79 151,-80l4 0 79 -110 -7 -4c-210,-100 -366,-246 -452,-421l-1 -3 -3 -1c-7,-3 -14,-5 -21,-8l-3 -1c-3,0 -6,0 -9,0l0 -285 22 0c73,0 137,-39 178,-100 6,0 12,-1 18,-1 9,1 19,1 28,1 26,0 52,-3 77,-9 11,1 23,2 35,2 9,0 18,0 28,-1 9,1 18,1 27,1 185,0 335,-151 335,-335 0,-99 -44,-192 -118,-256l0 -77c142,-48 299,-75 463,-76l6 0 0 2023c0,4 0,8 0,11 0,4 0,8 0,12l0 219 80 0c-28,23 -64,37 -103,37zm683 -365c-28,-32 -68,-53 -113,-55l0 -1795c49,11 96,25 142,41l0 700c-15,36 -22,71 -25,99l-4 51 29 15 0 916c-9,10 -19,20 -29,29zm575 -669l0 -32 16 5c-5,9 -11,18 -16,27zm-1235 -1576l-1 -1c-49,-42 -77,-104 -77,-168l0 -40c0,-68 31,-129 79,-170l0 379z"/>
  <path class="fil15" d="M3695 7524l-81 0 0 -205c0,-4 0,-7 0,-12 0,-4 0,-8 0,-11l0 -2720c28,-20 61,-34 97,-40l0 2760c0,4 0,8 0,12 0,4 0,8 0,12l0 185c-5,7 -10,14 -16,20zm704 -100c-7,-7 -14,-15 -20,-23l-19 -26c-31,-43 -42,-98 -31,-150l1 -3 -29 -40 0 -909 57 30 0 1 40 21 0 971c0,4 0,8 0,12 0,4 0,8 0,12l0 105zm-97 -1353l0 -665c33,12 66,25 97,40l0 516c-44,29 -76,69 -97,110z"/>
  <path class="fil9" d="M4145 7538l-228 0c-4,-2 -8,-4 -13,-7l249 0c-3,2 -5,5 -8,7zm-465 0l-80 0 0 -219c0,-4 0,-8 0,-12 0,-3 0,-7 0,-11l0 -2023 1 0 0 -306 -1 -1 0 -379c4,-4 9,-7 14,-11l0 2720c0,4 0,7 0,11 0,5 0,9 0,12l0 205 81 0c-5,5 -10,10 -15,14zm622 -356l-7 -9 -6 6c-1,1 -1,1 -2,2l0 -916 14 7 0 909zm-14 -1081l0 -700c5,2 9,3 14,5l0 665c-5,10 -10,20 -14,30z"/>
  <path class="fil13" d="M4153 7531l-249 0c-27,-17 -49,-41 -62,-69l355 0c-9,27 -24,51 -44,69zm-442 -27l0 -185c0,-4 0,-8 0,-12 0,-4 0,-8 0,-12l0 -2760c11,-2 21,-2 33,-2l37 0 0 2762c0,4 0,8 1,12 0,4 -1,8 -1,12l0 56c-11,0 -22,-1 -34,-1l-7 0 0 39c0,34 -11,66 -28,92zm824 -23c-51,0 -100,-21 -136,-57l0 -105c0,-4 0,-8 0,-12 0,-4 0,-8 0,-12l0 -971 69 36 0 934c0,4 0,8 1,12 0,4 -1,8 -1,12l0 142 150 0c-26,13 -55,20 -84,20zm-329 -227c-17,-18 -42,-30 -69,-30l-59 0 0 -1879c23,4 47,9 69,14l0 1795c45,3 85,24 113,55 -16,15 -34,29 -52,42l-2 1zm597 -30l-37 0 0 -102 2 3c21,30 33,64 35,99zm-37 -589l0 -176 61 28 -10 16 18 6 0 32c-21,32 -44,64 -69,94zm-366 -674l0 -516c24,11 47,22 69,34l0 449c-26,8 -49,19 -69,32zm-322 -1105l0 -162c6,19 9,40 9,61l0 40c0,21 -3,41 -9,61z"/>
  <path class="fil16" d="M4469 7307c0,-4 -1,-8 -1,-12l0 -934 83 44 0 415c-16,10 -32,20 -49,30l-7 4 56 79 0 293c-43,5 -77,39 -82,82zm-1 -1378l0 -449c29,15 56,32 83,49l0 263c-14,49 -23,92 -30,126 -19,2 -37,6 -53,11z"/>
  <path class="fil16" d="M4552 7461l-83 0 0 -142c0,-4 0,-8 1,-12 5,-43 39,-77 82,-82l0 70c0,4 0,8 1,12 0,4 -1,8 -1,12l0 142z"/>
  <path class="fil16" d="M3781 7307c0,-4 -1,-8 -1,-12l0 -2762 3 0c6,0 13,0 21,1 7,-1 13,-1 19,-1l40 0c0,0 0,0 0,0l0 2692c-43,5 -77,39 -82,82z"/>
  <path class="fil16" d="M3863 7461l-22 0c-10,-21 -15,-45 -15,-69l0 -18 -7 0c-9,0 -17,0 -26,0 -4,0 -9,0 -13,0l0 -56c0,-4 0,-8 1,-12 5,-43 39,-77 82,-82l0 70c0,4 0,8 1,12 0,4 -1,8 -1,12l0 142z"/>
  <path class="fil14" d="M3864 7307c0,-4 -1,-8 -1,-12l0 -2762c101,0 187,68 214,161l0 162c-12,41 -36,79 -69,107l-2 2 0 362 5 1c11,3 22,7 34,10 11,2 21,3 32,5l0 1879 -119 0c-48,0 -88,36 -94,83z"/>
  <path class="fil14" d="M4197 7461l-333 0 0 -142c0,-4 0,-8 1,-12 6,-47 46,-83 94,-83l178 0c27,0 52,11 69,30l-1 1 0 158c0,17 -3,34 -8,49z"/>
  <path class="fil14" d="M4552 7307c0,-4 -1,-8 -1,-12l0 -363 63 88 3 0c53,7 101,35 131,78l16 23 0 102 -119 0c-48,0 -88,36 -94,83zm-1 -488l0 -415 42 22 40 -40c3,-3 6,-6 9,-9l78 41 36 -36c2,-2 4,-4 5,-6l-38 64 43 19 0 176c-59,69 -130,131 -214,184zm0 -1028l0 -263c26,17 51,34 74,53 -33,75 -57,148 -74,210z"/>
  <path class="fil14" d="M4619 7461l-67 0 0 -142c0,-4 0,-8 1,-12 6,-47 46,-83 94,-83l156 0c1,14 0,28 -2,43 -8,50 -36,94 -77,123l-26 19c-4,3 -8,6 -14,9 -4,3 -8,7 -12,9l-26 19c-8,6 -17,11 -26,16z"/>
  <path class="fil15" d="M2748 6010c-9,0 -18,0 -28,-1 -3,0 -6,0 -9,1 4,-7 8,-15 11,-22 20,9 40,16 61,21 -12,1 -23,2 -35,2z"/>
  <path class="fil9" d="M2748 6024c-9,0 -18,0 -28,-1 -6,1 -12,1 -18,1 3,-5 6,-9 9,-14 3,0 6,0 9,-1 10,1 19,1 28,1 12,0 24,-1 35,-2 14,3 28,6 42,7 -25,6 -51,9 -77,9z"/>
  <path class="fil13" d="M2825 7351c-3,-2 -5,-3 -7,-5l-26 -18c-21,-15 -37,-33 -50,-53l61 -5 22 82zm-323 -943c-21,-1 -42,-4 -63,-10l0 -338 84 0c83,0 152,-75 159,-171 48,40 109,65 177,65 9,0 18,0 27,-1 9,1 18,1 27,1 151,0 273,-122 273,-273 0,-93 -47,-176 -118,-225l0 -85c20,-8 41,-16 63,-23l0 77c75,63 118,157 118,256 0,185 -151,335 -335,335 -9,0 -18,0 -27,-1 -9,1 -19,1 -28,1 -12,0 -23,-1 -35,-2 -14,-1 -28,-4 -42,-7 -21,-5 -41,-12 -61,-21 -3,8 -7,15 -11,22 -3,5 -6,10 -9,14 -41,61 -105,100 -178,100l-22 0 0 285z"/>
  <path class="fil21" d="M2860 5954c-67,0 -129,-24 -177,-65 0,-6 1,-12 1,-18l0 -44c44,69 118,117 203,125 -9,1 -18,1 -27,1z"/>
  <path class="fil22" d="M2914 5954c-9,0 -18,0 -27,-1 -85,-8 -159,-56 -203,-125l0 -204c40,-41 84,-79 132,-114l0 11c0,70 57,127 127,127 70,0 127,-57 127,-127l0 -64c71,49 118,132 118,225 0,151 -122,273 -273,273z"/>
  <path class="fil22" d="M2942 5647c-70,0 -127,-57 -127,-127l0 -11c75,-55 161,-101 253,-138l0 149c0,70 -57,127 -127,127z"/>
  <path class="fil22" d="M2524 6061l-84 0 0 -100c0,-52 -33,-97 -80,-113 46,-28 100,-44 157,-44 10,0 19,0 29,1l5 0 2 -4c35,-64 79,-124 131,-179l0 248c0,6 0,12 -1,18 -8,96 -76,171 -159,171z"/>
  <path class="fil22" d="M2440 6398c-129,-34 -225,-153 -225,-292 0,-109 58,-205 145,-258 47,16 80,61 80,113l0 437z"/>
  <path class="fil15" d="M4858 6502l-20 -6 9 -14 -12 -5 0 -194c17,0 39,4 67,11 21,32 2,70 -2,77l-40 66 25 11c-8,18 -17,36 -27,54z"/>
  <path class="fil23" d="M4835 6476l-69 -32 0 -48 13 -22c3,-5 11,-21 12,-40 5,-9 9,-18 13,-25 4,-8 10,-21 13,-24 0,0 4,-2 17,-2 1,0 1,0 2,0l0 194z"/>
  <polygon class="fil24" points="4765,6444 4743,6433 4765,6396 "/>
  <path class="fil15" d="M4288 6250l-15 -8 4 -41c1,-17 5,-37 11,-58l0 107z"/>
  <path class="fil25" d="M4399 6309l-25 -13 0 -1 -72 -38 0 -153c19,-45 50,-92 97,-126l0 208c-1,5 -1,10 -2,14l-4 46 6 3 0 60z"/>
  <path class="fil26" d="M4302 6257l-14 -7 0 -107c4,-13 8,-26 14,-39l0 153z"/>
  <path class="fil23" d="M4469 6345l-69 -36 0 -60 69 36 0 60zm-69 -160l0 -208c20,-14 43,-26 69,-34l0 79c-42,52 -63,115 -69,163z"/>
  <path class="fil27" d="M4552 6389l-83 -44 0 -60 25 13 0 1 58 30 0 59zm-83 -366l0 -79c18,-6 38,-10 60,-12l5 0 1 -5c4,-22 10,-49 17,-79l0 107c-34,18 -61,42 -83,69z"/>
  <path class="fil24" d="M4591 6409l-39 -20 0 -59 78 41c-2,2 -4,4 -6,6l-32 32zm-39 -455l0 -107c17,-72 44,-162 86,-257 32,25 61,52 88,80 -39,105 -60,197 -70,255 -40,4 -74,14 -104,29z"/>
  <path class="fil9" d="M4851 6514l-16 -5 0 -33 12 5 -9 14 20 6c-2,4 -5,8 -7,12z"/>
  <path class="fil28" d="M4835 6509l-18 -6 10 -16 -61 -28 0 -15 69 32 0 33zm-69 -113l0 -25c11,-13 19,-26 26,-38 -2,20 -10,36 -12,40l-13 22z"/>
  <path class="fil29" d="M4765 6459l-43 -19 38 -64c2,-2 3,-3 4,-5l0 25 -23 38 23 10 0 15z"/>
  <path class="fil9" d="M4288 6265l-29 -15 4 -51c2,-27 10,-62 25,-99l0 42c-6,21 -10,41 -11,58l-4 41 15 8 0 16z"/>
  <path class="fil26" d="M4399 6324l-40 -21 0 -1 -57 -30 0 -16 72 38 0 1 25 13 0 16zm-97 -221l0 -33c22,-41 53,-81 97,-110l0 17c-47,34 -78,80 -97,126z"/>
  <path class="fil30" d="M4302 6273l-14 -7 0 -16 14 7 0 16zm-14 -130l0 -42c4,-10 9,-20 14,-30l0 33c-6,13 -10,27 -14,39z"/>
  <path class="fil28" d="M4469 6361l-69 -36 0 -16 69 36 0 16zm-69 -383l0 -17c20,-13 43,-24 69,-32l0 15c-26,8 -49,20 -69,34z"/>
  <path class="fil31" d="M4552 6404l-83 -44 0 -16 83 44 0 16zm-83 -461l0 -15c17,-5 34,-9 53,-11 7,-34 16,-77 30,-126l0 55c-7,30 -13,56 -17,79l-1 5 -5 0c-22,2 -42,6 -60,12z"/>
  <path class="fil29" d="M4593 6426l-42 -22 0 -16 39 20 32 -32c2,-2 4,-4 6,-6l13 7c-3,3 -6,6 -9,9l-40 40zm-42 -579l0 -55c17,-63 41,-135 74,-210 4,3 8,6 11,9 -41,95 -68,185 -86,257z"/>
  <path class="fil13" d="M4885 6448l-25 -11 40 -66c4,-7 23,-45 2,-77 -28,-7 -50,-11 -67,-11 -1,0 -1,0 -2,0 -12,0 -17,2 -17,2 -3,2 -9,15 -13,24 -4,8 -8,16 -13,25 -7,12 -15,25 -26,38 -1,2 -3,3 -4,5 -2,2 -3,4 -5,6l-36 36 -78 -41 -13 -7 -78 -41 -58 -30 0 -1 -25 -13 -69 -36 -6 -3 4 -46c0,-5 1,-9 2,-14 7,-48 27,-111 69,-163 22,-27 49,-51 83,-69 29,-15 64,-26 104,-29 11,-58 32,-150 70,-255 19,19 37,39 53,59 -51,150 -64,265 -64,265 -10,-1 -19,-1 -29,-1 -201,0 -219,213 -219,213l100 52c0,1 0,1 0,1l140 73c48,-48 33,-120 127,-120 22,0 50,4 87,13 7,2 14,4 21,6 78,75 19,174 19,174l15 7c-25,10 -52,17 -80,20l-4 0 -2 4c-2,4 -3,7 -5,11zm275 -268c-15,-9 -26,-13 -26,-13 4,-43 10,-82 17,-117 8,27 12,54 12,83 0,16 -1,32 -4,48z"/>
  <path class="fil16" d="M4975 6413l-15 -7c0,0 60,-99 -19,-174 89,27 125,71 136,113 -29,29 -63,53 -102,68zm-408 -154l-100 -52c0,0 18,-213 219,-213 9,0 19,0 29,1 0,0 14,-115 64,-265 19,24 37,48 53,73l2 3 3 0c8,1 16,2 24,3 -39,136 -47,239 -47,239 -10,-1 -19,-1 -29,-1 -193,0 -218,197 -219,212z"/>
  <path class="fil21" d="M5077 6344c-11,-42 -47,-85 -136,-113 -7,-2 -14,-4 -21,-6 -36,-9 -65,-13 -87,-13 -93,0 -78,71 -127,120l-140 -73c0,0 0,0 0,-1 2,-15 26,-212 219,-212 9,0 19,0 29,1 0,0 7,-103 47,-239 39,7 75,21 109,43 89,35 155,110 181,199 -8,36 -14,75 -17,117 0,0 10,4 26,13 -10,63 -40,120 -83,164z"/>
  <path class="fil2" d="M4042 7589c-31,0 -61,-8 -88,-23 -24,-5 -46,-14 -65,-27l27 0c13,6 27,11 41,14l2 1c25,15 53,22 82,22 39,0 75,-14 103,-37l21 0c-32,31 -76,51 -124,51zm-465 0c-31,0 -61,-8 -88,-23 -82,-16 -142,-89 -142,-173l0 -145c-63,-38 -114,-85 -152,-138l-8 12c19,60 8,127 -29,178l-18 26c-38,54 -100,86 -166,86 -31,0 -63,-7 -91,-21 -19,-4 -36,-11 -53,-20l-5 -19c19,12 40,21 62,26l2 1c26,13 56,20 85,20 61,0 119,-30 155,-80l18 -26c35,-49 45,-112 26,-169l-1 -3 24 -34 6 8c37,56 90,104 156,144l3 2 0 153c0,78 55,145 132,159l2 1c25,15 53,22 82,22 39,0 75,-14 103,-37l21 0c-32,31 -76,51 -124,51zm-851 -313c-39,-67 -38,-154 10,-222l19 -26c37,-51 96,-83 159,-85l65 -91c-208,-101 -363,-247 -450,-422 -6,-2 -12,-5 -18,-7 -3,0 -5,0 -8,0l0 -14c3,0 6,0 9,0l3 1c7,3 14,6 21,8l3 1 1 3c86,175 243,321 452,421l7 4 -79 110 -4 0c-60,1 -117,31 -151,80l-19 26c-46,65 -46,149 -6,212l-15 1zm1542 -55c-3,-4 -6,-7 -9,-11 10,-9 20,-19 29,-29l0 20c-6,7 -13,13 -20,19zm567 -654l0 -25c6,-9 11,-18 16,-27l14 4c-9,16 -19,33 -30,48zm-547 -1166c-46,-16 -93,-30 -142,-41l0 -14c48,11 96,25 142,40l0 15zm-1157 -53l0 -15c140,-47 295,-74 456,-75l0 -286c-51,-45 -80,-109 -80,-177l0 -40c0,-76 36,-144 93,-187l0 18c-48,41 -79,102 -79,170l0 40c0,65 28,126 77,168l1 1 0 307 -6 0c-163,1 -320,27 -463,76z"/>
  <path class="fil9" d="M3711 7524l-16 0c6,-6 11,-13 16,-20l0 20zm688 -80c-11,-10 -22,-22 -31,-34l-19 -26c-32,-45 -45,-103 -34,-158l-14 -20 0 -24 29 40 -1 3c-11,52 0,107 31,150l19 26c6,8 12,16 20,23l0 19zm0 -1998c-32,-14 -64,-28 -97,-40l0 -15c33,12 66,25 97,39l0 15zm-785 -870l0 -17c29,-19 62,-32 97,-37l0 14c-36,5 -69,19 -97,40z"/>
  <path class="fil10" d="M4166 7538l-21 0c3,-2 5,-5 8,-7l19 0c-2,2 -4,5 -7,7zm-249 0l-27 0c-3,-2 -6,-5 -9,-7l24 0c4,2 8,5 13,7zm-216 0l-21 0c5,-4 10,-9 15,-14l16 0 0 3c-3,4 -7,7 -10,11zm601 -332l-8 -11c-2,2 -4,4 -6,6l0 -20c1,-1 1,-1 2,-2l6 -6 7 9 0 24zm0 -1800c-5,-2 -9,-3 -14,-5l0 -15c5,2 9,3 14,5l0 15zm-702 -133l0 -307 1 1 0 306 -1 0zm0 -686l0 -18c5,-3 9,-7 14,-10l0 17c-5,3 -9,7 -14,11z"/>
  <path class="fil17" d="M4172 7531l-19 0c20,-19 35,-43 44,-69l15 0c-8,26 -21,50 -39,69zm-268 0l-24 0c-23,-18 -42,-42 -53,-69l15 0c14,29 35,53 62,69zm-193 -4l0 -23c18,-26 28,-58 28,-92l0 -39 7 0c11,1 23,1 34,1l0 14c-9,0 -18,0 -27,-1l0 24c0,44 -16,84 -42,114zm824 -32c-50,0 -99,-19 -136,-51l0 -19c35,36 84,57 136,57 29,0 58,-7 84,-20l28 0c-33,22 -72,34 -112,34zm-316 -224c-4,-6 -8,-12 -13,-17l2 -1c19,-13 36,-27 52,-42 3,3 6,7 9,11 -16,14 -32,28 -50,41l0 9zm598 -47l-14 0c-2,-35 -14,-70 -35,-99l-2 -3 0 -24 14 19c23,32 36,69 38,107zm-51 -568l0 -21c26,-30 49,-61 69,-94l0 25c-21,31 -44,61 -69,90zm-297 -1177c-23,-12 -46,-24 -69,-34l0 -15c24,11 47,22 69,34l0 16zm-322 -120c-23,-5 -46,-10 -69,-14l0 -14c23,4 47,9 69,14l0 14zm-69 -464l0 -39c6,-20 9,-40 9,-61l0 -40c0,-21 -3,-42 -9,-61l0 -39c14,31 22,65 22,101l0 40c0,35 -8,69 -22,100zm-366 -360l0 -14c11,-1 21,-2 33,-2l37 0 0 14 -37 0c-11,0 -22,1 -33,2z"/>
  <path class="fil18" d="M4552 6932l-56 -79 7 -4c17,-10 33,-20 49,-30l0 17c-12,7 -24,15 -36,22l36 50 0 24zm0 -1403c-27,-17 -54,-34 -83,-49l0 -16c29,15 56,31 83,48l0 17z"/>
  <path class="fil18" d="M3804 4534c-8,-1 -14,-1 -21,-1l-3 0 0 -14 3 0c7,0 13,0 21,1 6,-1 13,-1 19,-1l40 0c0,0 0,0 0,0l0 14c0,0 0,0 0,0l-40 0c-6,0 -13,0 -19,1z"/>
  <path class="fil18" d="M3842 7461l-15 0c-9,-21 -14,-45 -14,-69l0 -4c-6,0 -13,0 -19,0 -4,0 -9,0 -13,0l0 -14c4,0 9,0 13,0 9,0 17,0 26,0l7 0 0 18c0,25 6,48 15,69z"/>
  <path class="fil19" d="M4077 5345c-11,-2 -21,-4 -32,-5 -12,-4 -23,-7 -34,-10l-5 -1 0 -362 2 -2c33,-29 57,-66 69,-107l0 39c-14,29 -33,55 -57,77l0 346c10,3 19,6 29,9 10,2 19,3 29,5l0 14zm0 -651c-27,-93 -112,-161 -214,-161l0 -14c94,0 176,56 214,136l0 39z"/>
  <path class="fil19" d="M4211 7461l-15 0c5,-15 8,-32 8,-49l0 -158 1 -1c5,5 9,11 13,17l0 141c0,17 -2,33 -7,49z"/>
  <path class="fil19" d="M4765 7122l-16 -23c-31,-43 -79,-72 -131,-78l-3 0 -63 -88 0 -24 71 99c55,8 106,38 138,84l5 7 0 24zm-214 -286l0 -17c83,-54 155,-116 214,-184l0 21c-59,67 -131,127 -214,180zm74 -1255c-24,-18 -49,-36 -74,-53l0 -17c28,18 55,36 80,56 -2,4 -4,9 -6,13z"/>
  <path class="fil19" d="M4647 7461l-28 0c9,-4 18,-10 26,-16l26 -19c4,-3 8,-6 12,-9 6,-3 10,-6 14,-9l26 -19c41,-29 69,-73 77,-123 2,-14 3,-29 2,-43l14 0c1,15 0,30 -3,45 -9,54 -38,101 -83,132l-26 18c-4,3 -9,6 -14,9 -3,3 -8,6 -12,9l-26 19c-2,1 -4,3 -6,4z"/>
  <path class="fil17" d="M2830 7370c-7,-4 -14,-8 -21,-13l-26 -18c-24,-17 -44,-39 -58,-63l15 -1c13,20 30,38 50,53l26 18c2,2 5,3 7,5l5 19zm-328 -948c-21,-1 -42,-4 -63,-9l0 -14c20,5 41,9 63,10l0 14zm567 -1051l0 -15c21,-8 41,-16 63,-23l0 15c-21,7 -42,15 -63,23z"/>
  <path class="fil32" d="M2684 5623l0 -20c40,-40 84,-77 132,-111l0 17c-48,35 -92,73 -132,114z"/>
  <path class="fil32" d="M2816 5509l0 -17c76,-54 161,-99 253,-136l0 15c-92,37 -178,83 -253,138z"/>
  <path class="fil32" d="M2360 5848c-6,-2 -12,-4 -18,-5 50,-34 110,-53 175,-53 8,0 17,0 25,1 37,-68 85,-131 141,-188l0 20c-52,54 -97,114 -131,179l-2 4 -5 0c-10,-1 -19,-1 -29,-1 -57,0 -111,16 -157,44z"/>
  <path class="fil32" d="M2440 6413c-137,-35 -239,-160 -239,-307 0,-110 56,-206 141,-263 6,1 12,3 18,5 -87,53 -145,149 -145,258 0,139 96,258 225,292l0 14z"/>
  <path class="fil9" d="M4872 6506l-14 -4c10,-18 19,-36 27,-54l13 6c-8,18 -17,35 -26,52z"/>
  <path class="fil10" d="M4865 6518l-14 -4c2,-4 5,-8 7,-12l14 4c-2,4 -5,8 -7,12z"/>
  <path class="fil17" d="M4898 6454l-13 -6c2,-4 3,-7 5,-11l2 -4 4 0c28,-3 55,-10 80,-20l17 8c-28,13 -59,22 -91,26 -1,2 -2,5 -3,7zm275 -266c-5,-3 -9,-5 -13,-8 2,-16 4,-31 4,-48 0,-28 -4,-56 -12,-83 2,-9 4,-18 6,-26 13,34 20,71 20,109 0,19 -2,37 -5,55z"/>
  <path class="fil18" d="M4992 6421l-17 -8c39,-16 73,-39 102,-68 1,6 3,11 3,16 -26,25 -55,45 -88,60z"/>
  <path class="fil33" d="M5080 6361c-1,-5 -2,-11 -3,-16 43,-44 73,-101 83,-164 4,2 8,5 13,8 -12,67 -45,127 -92,173z"/>
  <path class="fil29" d="M4726 5670c-27,-28 -57,-55 -88,-80 2,-4 4,-9 6,-13 31,25 61,51 88,78 -2,5 -4,10 -5,14z"/>
  <path class="fil34" d="M4637 5590c-4,-3 -7,-6 -11,-9 2,-4 4,-9 6,-13 4,3 8,6 11,9 -2,4 -4,9 -6,13z"/>
  <path class="fil17" d="M4779 5729c-17,-20 -34,-40 -53,-59 2,-5 4,-10 5,-14 19,19 36,38 53,58 -2,5 -4,10 -5,15z"/>
  <path class="fil18" d="M4861 5808c-8,-1 -16,-2 -24,-3l-3 0 -2 -3c-16,-25 -34,-49 -53,-73 2,-5 4,-10 5,-15 21,25 40,51 58,78 8,1 16,2 23,3 -1,5 -3,9 -4,13z"/>
  <path class="fil33" d="M5151 6050c-26,-89 -92,-164 -181,-199 -34,-22 -71,-36 -109,-43 1,-4 3,-9 4,-13 40,7 77,22 112,44 85,33 150,102 181,185 -2,8 -4,17 -6,26z"/>
  <path class="fil35" d="M5046 5907c-38,-26 -84,-41 -134,-41 -3,0 -6,0 -10,0 -135,-236 -421,-413 -768,-466 -28,-9 -57,-17 -87,-25l0 -441 0 -2c48,-28 80,-79 80,-138l0 -40c0,-88 -72,-160 -160,-160l-40 0c-7,0 -13,1 -20,1 -7,-1 -13,-1 -20,-1l-40 0c-88,0 -160,72 -160,160l0 40c0,59 32,111 80,138l0 2 0 401c-21,-1 -42,-1 -63,-1 -473,0 -875,227 -1016,542 -22,-6 -45,-10 -68,-10 -132,0 -240,107 -240,240 0,132 107,240 240,240 3,0 6,0 9,0 18,9 37,16 57,21 85,195 271,357 512,453l-145 203c-49,-12 -103,6 -134,50l-19 26c-41,57 -28,137 30,178l26 19c17,12 36,19 55,22 56,33 130,19 169,-36l19 -26c31,-44 31,-100 4,-143l110 -155c20,93 89,175 189,232 8,6 16,12 25,18 0,2 0,3 0,5l0 180c0,53 41,96 93,100 17,13 38,20 60,20 55,0 100,-45 100,-100l0 -109c38,6 76,9 117,9 33,0 64,-2 95,-6l0 86c0,53 41,96 93,100 17,13 38,20 60,20 55,0 100,-45 100,-100l0 -180c0,-4 0,-8 -1,-11 69,-42 122,-96 153,-158l105 148 1 1c-18,40 -15,89 12,127l19 26c41,57 121,71 178,30l26 -19c4,-3 8,-7 12,-10 5,-3 9,-5 14,-8l26 -19c57,-41 71,-121 30,-178l-19 -26c-27,-39 -72,-57 -116,-53l-1 -1 -178 -250c217,-106 378,-269 445,-460 4,0 9,1 13,1 132,0 240,-107 240,-240 0,-104 -67,-193 -159,-226z"/>
  <path class="fil4" d="M4062 7228l0 165c0,16 12,29 28,30l21 1 17 13c4,3 10,6 18,6 17,0 30,-14 30,-30l0 -180 0 -4 -5 -44 38 -23c59,-36 102,-81 127,-130l51 -104 197 276 -17 37c-9,19 -7,41 5,58l19 26c11,15 29,24 48,24 12,0 24,-4 34,-11l26 -19c2,-1 3,-3 6,-5l6 -6 8 -4c3,-1 5,-3 6,-4l26 -19c13,-9 21,-22 24,-38 3,-15 -1,-31 -10,-43l-19 -26c-12,-17 -32,-26 -53,-24l-41 4 -26 -38 -222 -312 73 -36c204,-100 350,-249 410,-420l17 -49 57 3c1,0 3,0 4,0 94,0 170,-76 170,-170 0,-72 -45,-136 -113,-160l-8 -3 -7 -5c-28,-19 -61,-29 -95,-29l-1 0c-2,0 -4,0 -5,0l-42 2 -21 -37c-127,-221 -395,-382 -718,-432l-6 -1 -5 -2c-26,-9 -54,-16 -82,-23l-53 -13 0 -493 0 -2 -1 -41 36 -21c28,-16 45,-46 45,-78l0 -40c0,-50 -41,-90 -90,-90l-40 0c-3,0 -7,0 -11,1l-9 1 -9 -1c-4,-1 -8,-1 -11,-1l-40 0c-50,0 -90,41 -90,90l0 40c0,32 17,62 45,78l36 21 -1 43 0 471 -72 -3c-22,-1 -42,-1 -60,-1 -436,0 -818,201 -952,501l-25 56 -58 -17c-16,-5 -32,-7 -49,-7 -94,0 -170,76 -170,170 0,94 76,170 170,170l1 0c2,0 4,0 6,0l18 -1 16 9c13,7 26,11 40,15l34 8 14 32c77,175 249,327 474,416l82 33 -223 313 -46 -11c-4,-1 -9,-2 -14,-2 -19,0 -36,9 -48,24l-18 26c-19,26 -13,63 14,81l26 19c7,5 16,9 25,10l13 2 12 7c9,5 19,8 29,8 19,0 36,-9 47,-24l19 -26c14,-19 14,-45 2,-65l-25 -39 229 -321 33 154c15,71 71,137 156,186l4 3 4 3c7,5 14,10 21,15l32 22 -2 42 0 179c0,16 12,29 28,30l21 1 17 13c4,3 10,6 18,6 17,0 30,-14 30,-30l0 -190 80 13c63,10 128,11 192,3l78 -10zm84 354c-30,0 -59,-8 -85,-23 -78,-15 -137,-85 -137,-166l0 -11c-24,1 -49,0 -73,-1l0 32c0,93 -76,169 -169,169 -30,0 -59,-8 -85,-23 -78,-15 -137,-85 -137,-166l0 -149c-67,-40 -121,-90 -159,-146l-16 23c19,59 10,123 -27,175l-18 26c-37,52 -97,83 -161,83 -31,0 -61,-7 -88,-21 -26,-6 -50,-16 -72,-32l-26 -18c-89,-63 -109,-186 -46,-275l19 -26c36,-51 95,-81 157,-83l72 -101c-210,-100 -369,-248 -455,-425 -7,-3 -15,-5 -22,-9 -168,-3 -304,-140 -304,-309 0,-170 139,-309 309,-309 10,0 20,0 29,1 173,-319 585,-531 1048,-533l0 -296c-50,-43 -80,-107 -80,-174l0 -40c0,-126 103,-229 229,-229l40 0c6,0 13,0 20,1 7,-1 14,-1 20,-1l40 0c126,0 229,103 229,229l0 40c0,67 -30,131 -80,174l0 354c11,3 23,7 33,10 346,54 638,227 792,465 48,5 94,20 135,46 118,46 197,161 197,288 0,159 -120,290 -274,307 -71,165 -207,310 -390,416l113 158c54,7 104,36 136,81l19 26c31,43 43,95 34,147 -9,52 -37,97 -80,128l-26 19c-4,3 -9,6 -13,9 -4,4 -8,7 -13,10l-26 19c-34,24 -73,37 -114,37 -64,0 -124,-31 -161,-83l-19 -26c-32,-45 -43,-102 -32,-155l-29 -40c-24,27 -52,52 -84,74l0 154c0,93 -76,169 -169,169z"/>
  <path class="fil5" d="M2920 7072c41,-57 121,-71 178,-30l26 19c57,41 71,121 30,178l-19 26c-41,57 -121,71 -178,30l-26 -19c-57,-41 -71,-121 -30,-178l19 -26z"/>
  <path class="fil5" d="M3291 6690c23,-32 68,-40 100,-17 32,23 40,68 17,100l-241 338c-23,32 -68,40 -100,17 -32,-23 -40,-68 -17,-100l241 -338z"/>
  <path class="fil5" d="M2861 6106c0,132 -107,240 -240,240 -132,0 -240,-107 -240,-240 0,-132 107,-240 240,-240 132,0 240,107 240,240z"/>
  <path class="fil5" d="M5152 6106c0,132 -107,240 -240,240 -132,0 -240,-107 -240,-240 0,-132 107,-240 240,-240 132,0 240,107 240,240z"/>
  <path class="fil5" d="M4193 7392c0,55 -45,100 -100,100 -55,0 -100,-45 -100,-100l0 -180c0,-55 45,-100 100,-100 55,0 100,45 100,100l0 180z"/>
  <path class="fil5" d="M3728 7392c0,55 -45,100 -100,100 -55,0 -100,-45 -100,-100l0 -180c0,-55 45,-100 100,-100 55,0 100,45 100,100l0 180z"/>
  <path class="fil5" d="M4367 6903c0,204 -237,370 -529,370 -292,0 -529,-165 -529,-370 0,-204 237,-370 529,-370 292,0 529,165 529,370z"/>
  <path class="fil5" d="M4047 4795c0,88 -72,160 -160,160l-40 0c-88,0 -160,-72 -160,-160l0 -40c0,-88 72,-160 160,-160l40 0c88,0 160,72 160,160l0 40z"/>
  <path class="fil5" d="M3947 5455c0,50 -40,90 -90,90 -50,0 -90,-40 -90,-90l0 -519c0,-50 40,-90 90,-90 50,0 90,40 90,90l0 519z"/>
  <path class="fil5" d="M4774 6124c0,436 -479,789 -1070,789 -591,0 -1070,-353 -1070,-789 0,-436 479,-789 1070,-789 591,0 1070,353 1070,789z"/>
  <path class="fil35" d="M4986 6174c0,436 -479,789 -1070,789 -591,0 -1070,-353 -1070,-789 0,-436 479,-789 1070,-789 591,0 1070,353 1070,789z"/>
  <path class="fil4" d="M4307 6214c0,188 -152,340 -340,340 -188,0 -340,-152 -340,-340 0,-188 152,-340 340,-340 188,0 340,152 340,340z"/>
  <path class="fil5" d="M4127 6214c0,88 -72,160 -160,160 -88,0 -160,-72 -160,-160 0,-88 72,-160 160,-160 88,0 160,72 160,160z"/>
  <path class="fil6" d="M4306 6194c-10,-178 -158,-320 -339,-320 -181,0 -329,141 -339,320l678 0z"/>
  <path class="fil35" d="M4047 5455c0,50 -40,90 -90,90 -50,0 -90,-40 -90,-90l0 -519c0,-50 40,-90 90,-90 50,0 90,40 90,90l0 519z"/>
  <path class="fil35" d="M4127 4795c0,88 -72,160 -160,160l-40 0c-88,0 -160,-72 -160,-160l0 -40c0,-88 72,-160 160,-160l40 0c88,0 160,72 160,160l0 40z"/>
  <path class="fil35" d="M3324 6697c23,-32 68,-40 100,-17 32,23 40,68 17,100l-241 338c-23,32 -68,40 -100,17 -32,-23 -40,-68 -17,-100l241 -338z"/>
  <path class="fil35" d="M2966 7088c41,-57 121,-71 178,-30l26 19c57,41 71,121 30,178l-19 26c-41,57 -121,71 -178,30l-26 -19c-57,-41 -71,-121 -30,-178l19 -26z"/>
  <path class="fil5" d="M4750 7172c-41,-57 -121,-71 -178,-30l-26 19c-57,41 -71,121 -30,178l19 26c41,57 121,71 178,30l26 -19c57,-41 71,-121 30,-178l-18 -26z"/>
  <path class="fil5" d="M4379 6789c-23,-32 -68,-40 -100,-17 -32,23 -40,68 -17,100l241 338c23,32 68,40 100,17 32,-23 40,-68 17,-100l-241 -338z"/>
  <path class="fil35" d="M4444 6743c-23,-32 -68,-40 -100,-17 -32,23 -40,68 -17,100l241 338c23,32 68,40 100,17 32,-23 40,-68 17,-100l-241 -338z"/>
  <path class="fil35" d="M4802 7135c-41,-57 -121,-71 -178,-30l-26 19c-57,41 -71,121 -30,178l19 26c41,57 121,71 178,30l26 -19c57,-41 71,-121 30,-178l-19 -26z"/>
  <path class="fil35" d="M4427 6943c0,204 -237,370 -529,370 -292,0 -529,-165 -529,-370 0,-204 237,-370 529,-370 292,0 529,165 529,370z"/>
  <path class="fil5" d="M4247 7033c0,33 -27,60 -60,60l-459 0c-33,0 -60,-27 -60,-60 0,-33 27,-60 60,-60l459 0c33,0 60,27 60,60z"/>
  <path class="fil35" d="M3781 7412c0,55 -45,100 -100,100 -55,0 -100,-45 -100,-100l0 -180c0,-55 45,-100 100,-100 55,0 100,45 100,100l0 180z"/>
  <path class="fil35" d="M4246 7412c0,55 -45,100 -100,100 -55,0 -100,-45 -100,-100l0 -180c0,-55 45,-100 100,-100 55,0 100,45 100,100l0 180z"/>
  <path class="fil35" d="M2981 6133c0,132 -107,240 -240,240 -132,0 -240,-107 -240,-240 0,-132 107,-240 240,-240 132,0 240,107 240,240z"/>
  <path class="fil35" d="M5205 6133c0,132 -107,240 -240,240 -132,0 -240,-107 -240,-240 0,-132 107,-240 240,-240 132,0 240,107 240,240z"/>
 </g>
</svg>
