<svg width="8010" height="8010" xmlns="http://www.w3.org/2000/svg">
 <defs>
  <style type="text/css">
   <![CDATA[
    .fil23 {fill:#282828}
    .fil16 {fill:#302F30}
    .fil2 {fill:#323132}
    .fil22 {fill:#3F403F}
    .fil12 {fill:#416D9C}
    .fil14 {fill:#424242}
    .fil5 {fill:#482E2E}
    .fil15 {fill:#585757}
    .fil10 {fill:#5F432F}
    .fil7 {fill:#7D2E2F}
    .fil9 {fill:#855B35}
    .fil21 {fill:#90908F}
    .fil24 {fill:#9A9B9C}
    .fil11 {fill:#9BCD6C}
    .fil4 {fill:#9C3234}
    .fil8 {fill:#9D6E41}
    .fil3 {fill:#CA4439}
    .fil19 {fill:#D7D7D6}
    .fil18 {fill:#E5E6E5}
    .fil1 {fill:#E8E9E8}
    .fil17 {fill:#EAB681}
    .fil6 {fill:#F08D6E}
    .fil20 {fill:#F7F7F8}
    .fil13 {fill:#FDCD9C}
    .fil0 {fill:#363435;fill-rule:nonzero}
   ]]>
  </style>
 </defs>
 <g class="currentLayer">
  <title>Layer 1</title>
  <g stroke="null" id="Layer_x0020_1">
   <metadata stroke="null" transform="translate(80.00277709960938,300.01043701171875) translate(60.00208282470703,1260.043701171875) translate(-739,-11045.9990234375) scale(0.9978193640708923,1.0011637210845947) translate(739,11045.9990234375) translate(-680.4817504882812,-9774.5810546875) scale(0.9715899229049683,0.9872133135795593) translate(680.4817504882812,9774.5810546875) " id="CorelCorpID_0Corel-Layer"/>
   <path stroke="null" id="svg_1" d="m-282.947486,-1868.638013c-34.900965,37.557762 -76.588228,57.325005 -125.06179,59.301729l0,-72.150437c25.206252,-0.988362 46.534619,-13.83707 64.954573,-37.557762c8.725241,-11.860346 15.51154,-24.709054 20.358896,-38.546124l74.649285,39.534486c-8.725241,17.790519 -20.358896,34.592675 -33.931493,49.418108l-0.969471,0zm-60.107217,-231.276744c-17.450482,-23.720692 -39.748321,-36.5694 -64.954573,-37.557762l0,-73.138799c48.473562,1.976724 90.160825,21.743967 125.06179,58.313367c17.450482,18.778881 31.02308,40.522848 39.748321,63.255178l-76.588228,39.534486c-4.847356,-18.778881 -12.603126,-35.581038 -24.236781,-50.40647l0.969471,0zm-78.52717,-36.5694c-22.297838,2.965086 -41.687263,14.825432 -59.137746,36.5694c-19.389425,24.709054 -28.114666,55.348281 -28.114666,90.929318c0,35.581038 9.694712,65.231902 28.114666,89.940956c16.481011,21.743967 35.870436,34.592675 59.137746,37.557762l0,72.150437c-47.504091,-1.976724 -89.191354,-21.743967 -123.122847,-58.313367c-35.870436,-39.534486 -54.290389,-85.987507 -54.290389,-142.32415c0,-55.348281 18.419954,-102.789664 54.290389,-142.32415c33.931493,-37.557762 75.618757,-56.336643 123.122847,-58.313367l0,74.127162z" class="fil0"/>
   <path stroke="null" id="svg_2" d="m46.672736,-1989.218196c6.786299,6.918535 13.572597,17.790519 19.389425,31.627589c2.908414,2.965086 4.847356,14.825432 6.786299,35.581038l2.908414,13.83707l7.75577,44.476297c1.938942,4.941811 3.877885,13.83707 6.786299,26.685778c2.908414,4.941811 8.725241,13.83707 16.481011,26.685778l-92.099768,0.988362c-2.908414,0 -8.725241,-11.860346 -16.481011,-33.604313c-1.938942,-2.965086 -5.816827,-29.650865 -13.572597,-80.057335c-2.908414,-11.860346 -10.664184,-21.743967 -22.297838,-28.662502c-10.664184,-3.953449 -37.809378,-5.930173 -79.496642,-5.930173l0,-72.150437l70.7714,0c28.114666,-9.883622 41.687263,-28.662502 41.687263,-56.336643l0,-6.918535c-5.816827,-29.650865 -22.297838,-45.464659 -49.443033,-46.453021l-62.046159,0l0,-71.162075l62.046159,0c52.351447,0 90.160825,14.825432 113.428135,43.487935c16.481011,24.709054 25.206252,51.394832 25.206252,78.08061l0,4.941811c0,31.627589 -8.725241,58.313367 -26.175723,82.034059c-2.908414,4.941811 -6.786299,8.895259 -10.664184,11.860346l-0.969471,0.988362zm-176.443765,178.89355l-88.221883,0l0,-401.275035l88.221883,0l0,401.275035z" class="fil0"/>
   <path stroke="null" id="svg_3" d="m417.010749,-1883.463446l0,74.127162l-182.260593,0l0,-74.127162l182.260593,0zm-15.51154,-174.940101l0,74.127162l-166.749053,0l0,-74.127162l166.749053,0zm14.542069,-151.21941l0,74.127162l-182.260593,0l0,-74.127162l182.260593,0zm-196.802662,400.286673l-88.221883,0l0,-401.275035l88.221883,0l0,401.275035z" class="fil0"/>
   <polygon stroke="null" id="svg_4" points="657.4400329589844,-2209.6231079101562 795.1050109863281,-1809.3364868164062 695.2494201660156,-1809.3364868164062 669.0736999511719,-1894.3357543945312 561.4624633789062,-1894.3357543945312 581.8213500976562,-1968.4627075195312 648.7148132324219,-1968.4627075195312 648.7148132324219,-1969.4512329101562 607.9970397949219,-2117.7056274414062 607.0276184082031,-2117.7056274414062 522.6835632324219,-1809.3364868164062 444.1564025878906,-1809.3364868164062 444.1564025878906,-1867.6499633789062 557.5845336914062,-2209.6231079101562 " class="fil0"/>
   <path stroke="null" id="svg_5" d="m1004.51032,-1810.324646l-88.221883,0l0,-310.345717l88.221883,0l0,310.345717zm97.916595,-398.309948l0,74.127162l-288.902429,0l0,-74.127162l288.902429,0z" class="fil0"/>
   <path stroke="null" id="svg_6" d="m1418.474539,-1883.463446l0,74.127162l-182.260593,0l0,-74.127162l182.260593,0zm-15.51154,-174.940101l0,74.127162l-166.749053,0l0,-74.127162l166.749053,0zm14.542069,-151.21941l0,74.127162l-182.260593,0l0,-74.127162l182.260593,0zm-196.802662,400.286673l-88.221883,0l0,-401.275035l88.221883,0l0,401.275035z" class="fil0"/>
   <path stroke="null" id="svg_7" d="m1659.872877,-2089.042774c-5.816827,-31.627589 -23.26731,-47.441383 -49.443033,-47.441383l-62.046159,-0.988362l0,-74.127162l62.046159,0c52.351447,0 90.160825,14.825432 113.428135,45.464659c16.481011,25.697416 25.206252,53.371556 25.206252,81.045697l0,148.254323c0,28.662502 -8.725241,55.348281 -25.206252,82.034059c-23.26731,30.639227 -61.076688,45.464659 -113.428135,45.464659l-62.046159,0l0,-74.127162l62.046159,-0.988362c27.145195,-0.988362 43.626206,-16.802157 49.443033,-47.441383l0,-157.149583zm-126.031261,279.70649l-88.221883,0l0,-401.275035l88.221883,0l0,401.275035z" class="fil0"/>
   <path stroke="null" id="svg_8" d="m2021.48565,-2210.611319l0.969471,0c62.046159,0 101.79448,22.73233 118.275491,69.185351c3.877885,8.895259 5.816827,19.767243 5.816827,31.627589l0,6.918535c0,9.883622 -1.938942,18.778881 -6.786299,25.697416c-5.816827,17.790519 -15.51154,31.627589 -29.084137,42.499573l-12.603126,6.918535l-6.786299,1.976724c6.786299,3.953449 12.603126,6.918535 17.450482,8.895259c27.145195,16.802157 42.656735,42.499573 46.534619,76.103886c0.969471,3.953449 0.969471,7.906897 0.969471,12.848708c-1.938942,23.720692 -3.877885,37.557762 -6.786299,41.51121c-1.938942,9.883622 -7.75577,21.743967 -19.389425,35.581038c-12.603126,18.778881 -36.839907,32.615951 -70.7714,40.522848l-23.26731,0.988362l-0.969471,0c-1.938942,0 -6.786299,0 -14.542069,0l-81.435584,0l0,-73.138799l91.130296,0c23.26731,-7.906897 34.900965,-22.73233 35.870436,-44.476297l0,-11.860346c0.969471,-14.825432 -4.847356,-26.685778 -19.389425,-35.581038c-2.908414,-4.941811 -11.633655,-7.906897 -26.175723,-8.895259l-81.435584,-0.988362l0,-75.115524l80.466113,0c2.908414,-0.988362 7.75577,-0.988362 13.572597,-0.988362c16.481011,-6.918535 24.236781,-20.755605 24.236781,-39.534486l-0.969471,-9.883622l-2.908414,-6.918535l-0.969471,0c-6.786299,-10.871984 -18.419954,-16.802157 -32.962022,-18.778881l-81.435584,0.988362l0.969471,-77.092248l81.435584,0l0.969471,0.988362z" class="fil0"/>
   <path stroke="null" id="svg_9" d="m2292.937596,-2004.043629l117.30602,-206.56769l96.947124,0l-126.031261,221.393123l0,177.905188l-88.221883,0l0,-193.718982l0,0.988362zm-109.55025,-207.556052l96.947124,0l57.198803,101.801302l-49.443033,84.999145l-105.672365,-185.812085l0.969471,-0.988362z" class="fil0"/>
   <path stroke="null" id="svg_10" d="m2884.315052,-1962.532418l87.252412,-246.102176l84.343998,0l-141.542801,400.286673l-29.084137,0l0,-154.184496l-0.969471,0zm-15.51154,153.196134l-28.114666,0l-141.542801,-400.286673l84.343998,0l86.28294,243.13709l0,157.149583l-0.969471,0z" class="fil0"/>
   <path stroke="null" id="svg_11" d="m3359.355959,-1883.463446l0,74.127162l-182.260593,0l0,-74.127162l182.260593,0zm-15.51154,-174.940101l0,74.127162l-166.749053,0l0,-74.127162l166.749053,0zm14.542069,-151.21941l0,74.127162l-182.260593,0l0,-74.127162l182.260593,0zm-196.802662,400.286673l-88.221883,0l0,-401.275035l88.221883,0l0,401.275035z" class="fil0"/>
   <path stroke="null" id="svg_12" d="m3702.548778,-1868.638013c-34.900965,37.557762 -76.588228,57.325005 -125.06179,59.301729l0,-72.150437c25.206252,-0.988362 46.534619,-13.83707 63.985102,-37.557762c8.725241,-11.860346 15.51154,-24.709054 20.358896,-38.546124l74.649285,39.534486c-8.725241,17.790519 -20.358896,34.592675 -33.931493,49.418108zm-61.076688,-231.276744c-17.450482,-23.720692 -39.748321,-36.5694 -63.985102,-37.557762l0,-73.138799c48.473562,1.976724 90.160825,21.743967 125.06179,58.313367c17.450482,18.778881 31.02308,40.522848 39.748321,63.255178l-76.588228,39.534486c-4.847356,-18.778881 -12.603126,-35.581038 -24.236781,-50.40647zm-78.52717,-36.5694c-22.297838,2.965086 -42.656735,14.825432 -59.137746,36.5694c-19.389425,24.709054 -28.114666,55.348281 -28.114666,90.929318c0,35.581038 9.694712,65.231902 28.114666,89.940956c16.481011,21.743967 35.870436,34.592675 59.137746,37.557762l0,72.150437c-47.504091,-1.976724 -89.191354,-21.743967 -123.122847,-58.313367c-35.870436,-39.534486 -54.290389,-85.987507 -54.290389,-142.32415c0,-55.348281 18.419954,-102.789664 54.290389,-142.32415c33.931493,-37.557762 75.618757,-56.336643 123.122847,-58.313367l0,74.127162z" class="fil0"/>
   <path stroke="null" id="svg_13" d="m3957.519714,-1810.324646l-88.221883,0l0,-310.345717l88.221883,0l0,310.345717zm97.916595,-398.309948l0,74.127162l-288.902429,0l0,-74.127162l288.902429,0z" class="fil0"/>
   <path stroke="null" id="svg_14" d="m4277.445223,-1881.486721c25.206252,-0.988362 46.534619,-13.83707 64.954573,-37.557762c19.389425,-24.709054 28.114666,-55.348281 28.114666,-89.940956c0,-35.581038 -9.694712,-65.231902 -28.114666,-90.929318c-17.450482,-23.720692 -39.748321,-36.5694 -64.954573,-37.557762l0,-73.138799c48.473562,1.976724 90.160825,21.743967 125.06179,58.313367c35.870436,39.534486 54.290389,86.97587 54.290389,142.32415c0,55.348281 -18.419954,102.789664 -54.290389,142.32415c-34.900965,37.557762 -76.588228,57.325005 -125.06179,59.301729l0,-72.150437l0,-0.988362zm-14.542069,-254.009074c-22.297838,2.965086 -42.656735,14.825432 -59.137746,36.5694c-19.389425,24.709054 -28.114666,55.348281 -28.114666,90.929318c0,35.581038 9.694712,65.231902 28.114666,89.940956c16.481011,21.743967 35.870436,34.592675 59.137746,37.557762l0,72.150437c-47.504091,-1.976724 -89.191354,-21.743967 -123.122847,-58.313367c-35.870436,-39.534486 -54.290389,-85.987507 -54.290389,-142.32415c0,-55.348281 18.419954,-102.789664 54.290389,-142.32415c33.931493,-37.557762 75.618757,-56.336643 123.122847,-58.313367l0,74.127162z" class="fil0"/>
   <path stroke="null" id="svg_15" d="m4748.608245,-1989.218196c6.786299,6.918535 13.572597,17.790519 19.389425,31.627589c2.908414,2.965086 4.847356,14.825432 6.786299,35.581038l2.908414,13.83707l7.75577,44.476297c1.938942,4.941811 3.877885,13.83707 6.786299,26.685778c2.908414,4.941811 8.725241,13.83707 16.481011,26.685778l-92.099768,0.988362c-2.908414,0 -8.725241,-11.860346 -16.481011,-33.604313c-1.938942,-2.965086 -5.816827,-29.650865 -13.572597,-80.057335c-2.908414,-11.860346 -10.664184,-21.743967 -22.297838,-28.662502c-10.664184,-3.953449 -37.809378,-5.930173 -79.496642,-5.930173l0,-72.150437l70.7714,0c27.145195,-9.883622 41.687263,-28.662502 41.687263,-56.336643l0,-6.918535c-5.816827,-29.650865 -22.297838,-45.464659 -49.443033,-46.453021l-62.046159,0l0,-71.162075l62.046159,0c52.351447,0 90.160825,14.825432 113.428135,43.487935c16.481011,24.709054 25.206252,51.394832 25.206252,78.08061l0,4.941811c0,31.627589 -8.725241,58.313367 -26.175723,82.034059c-2.908414,4.941811 -6.786299,8.895259 -11.633655,11.860346l0,0.988362zm-177.413237,178.89355l-88.221883,0l0,-401.275035l88.221883,0l0,401.275035z" class="fil0"/>
   <path stroke="null" id="svg_16" d="m4997.762353,-2211.599681c52.351447,0 90.160825,14.825432 113.428135,45.464659c16.481011,25.697416 25.206252,53.371556 25.206252,81.045697l0,5.930173c0,32.615951 -8.725241,61.278454 -26.175723,85.987507c-23.26731,32.615951 -69.801929,48.429746 -139.603858,45.464659l-34.900965,0l0,-75.115524l70.7714,0c27.145195,-10.871984 41.687263,-29.650865 41.687263,-58.313367l0,-6.918535c-5.816827,-31.627589 -22.297838,-47.441383 -49.443033,-48.429746l-62.046159,0l0,-74.127162l62.046159,0l-0.969471,-0.988362zm-75.618757,403.251759l-88.221883,0l0,-401.275035l88.221883,0l0,401.275035z" class="fil0"/>
   <path stroke="null" id="svg_17" d="m5356.466712,-1881.486721c25.206252,-0.988362 46.534619,-13.83707 63.985102,-37.557762c19.389425,-24.709054 28.114666,-55.348281 28.114666,-89.940956c0,-35.581038 -9.694712,-65.231902 -28.114666,-90.929318c-17.450482,-23.720692 -39.748321,-36.5694 -63.985102,-37.557762l0,-73.138799c48.473562,1.976724 90.160825,21.743967 125.06179,58.313367c35.870436,39.534486 54.290389,86.97587 54.290389,142.32415c0,55.348281 -18.419954,102.789664 -54.290389,142.32415c-34.900965,37.557762 -76.588228,57.325005 -125.06179,59.301729l0,-72.150437l0,-0.988362zm-14.542069,-254.009074c-22.297838,2.965086 -41.687263,14.825432 -59.137746,36.5694c-19.389425,24.709054 -28.114666,55.348281 -28.114666,90.929318c0,35.581038 9.694712,65.231902 28.114666,89.940956c16.481011,21.743967 35.870436,34.592675 59.137746,37.557762l0,72.150437c-47.504091,-1.976724 -89.191354,-21.743967 -123.122847,-58.313367c-35.870436,-39.534486 -54.290389,-85.987507 -54.290389,-142.32415c0,-55.348281 18.419954,-102.789664 54.290389,-142.32415c33.931493,-37.557762 75.618757,-56.336643 123.122847,-58.313367l0,74.127162z" class="fil0"/>
   <path stroke="null" id="svg_18" d="m5827.629734,-1989.218196c6.786299,6.918535 13.572597,17.790519 19.389425,31.627589c2.908414,2.965086 4.847356,14.825432 6.786299,35.581038l2.908414,13.83707l7.75577,44.476297c1.938942,4.941811 3.877885,13.83707 6.786299,26.685778c2.908414,4.941811 8.725241,13.83707 16.481011,26.685778l-92.099768,0.988362c-2.908414,0 -8.725241,-11.860346 -16.481011,-33.604313c-1.938942,-2.965086 -5.816827,-29.650865 -13.572597,-80.057335c-2.908414,-11.860346 -10.664184,-21.743967 -22.297838,-28.662502c-10.664184,-3.953449 -37.809378,-5.930173 -79.496642,-5.930173l0,-72.150437l70.7714,0c27.145195,-9.883622 41.687263,-28.662502 41.687263,-56.336643l0,-6.918535c-5.816827,-29.650865 -22.297838,-45.464659 -49.443033,-46.453021l-62.046159,0l0,-71.162075l62.046159,0c52.351447,0 90.160825,14.825432 113.428135,43.487935c16.481011,24.709054 25.206252,51.394832 25.206252,78.08061l0,4.941811c0,31.627589 -8.725241,58.313367 -26.175723,82.034059c-2.908414,4.941811 -6.786299,8.895259 -10.664184,11.860346l-0.969471,0.988362zm-176.443765,178.89355l-88.221883,0l0,-401.275035l88.221883,0l0,401.275035z" class="fil0"/>
   <path stroke="null" id="svg_19" d="m6101.990095,-1810.324646l-88.221883,0l0,-310.345717l88.221883,0l0,310.345717zm97.916595,-398.309948l0,74.127162l-288.902429,0l0,-74.127162l288.902429,0z" class="fil0"/>
   <polygon stroke="null" id="svg_20" points="6443.243988037109,-2209.6231079101562 6580.909027099609,-1809.3364868164062 6480.084320068359,-1809.3364868164062 6454.878265380859,-1894.3357543945312 6347.266937255859,-1894.3357543945312 6367.625823974609,-1968.4627075195312 6433.549652099609,-1968.4627075195312 6433.549652099609,-1969.4512329101562 6393.801116943359,-2117.7056274414062 6392.831878662109,-2117.7056274414062 6308.487640380859,-1809.3364868164062 6229.960784912109,-1809.3364868164062 6229.960784912109,-1867.6499633789062 6342.419281005859,-2209.6231079101562 " class="fil0"/>
   <path stroke="null" id="svg_21" d="m6888.231269,-1883.463446l0,74.127162l-182.260593,0l0,-74.127162l182.260593,0zm-200.680546,74.127162l-88.221883,0l0,-401.275035l88.221883,0l0,401.275035z" class="fil0"/>
   <polygon stroke="null" id="svg_22" points="6918.285003662109,-1809.3364868164062 7006.507171630859,-1809.3364868164062 7006.507171630859,-1883.4636840820312 6918.285003662109,-1883.4636840820312 " class="fil0"/>
   <path stroke="null" id="svg_23" d="m7350.66905,-1868.638013c-34.900965,37.557762 -76.588228,57.325005 -125.06179,59.301729l0,-72.150437c25.206252,-0.988362 46.534619,-13.83707 64.954573,-37.557762c8.725241,-11.860346 15.51154,-24.709054 20.358896,-38.546124l74.649285,39.534486c-8.725241,17.790519 -20.358896,34.592675 -33.931493,49.418108l-0.969471,0zm-60.107217,-231.276744c-17.450482,-23.720692 -39.748321,-36.5694 -64.954573,-37.557762l0,-73.138799c48.473562,1.976724 90.160825,21.743967 125.06179,58.313367c17.450482,18.778881 31.02308,40.522848 39.748321,63.255178l-76.588228,39.534486c-4.847356,-18.778881 -12.603126,-35.581038 -24.236781,-50.40647l0.969471,0zm-78.52717,-36.5694c-22.297838,2.965086 -42.656735,14.825432 -59.137746,36.5694c-19.389425,24.709054 -28.114666,55.348281 -28.114666,90.929318c0,35.581038 9.694712,65.231902 28.114666,89.940956c16.481011,21.743967 35.870436,34.592675 59.137746,37.557762l0,72.150437c-47.504091,-1.976724 -89.191354,-21.743967 -123.122847,-58.313367c-35.870436,-39.534486 -54.290389,-85.987507 -54.290389,-142.32415c0,-55.348281 18.419954,-102.789664 54.290389,-142.32415c33.931493,-37.557762 75.618757,-56.336643 123.122847,-58.313367l0,74.127162z" class="fil0"/>
   <path stroke="null" id="svg_24" d="m7606.609458,-1881.486721c25.206252,-0.988362 46.534619,-13.83707 64.954573,-37.557762c19.389425,-24.709054 28.114666,-55.348281 28.114666,-89.940956c0,-35.581038 -9.694712,-65.231902 -28.114666,-90.929318c-17.450482,-23.720692 -39.748321,-36.5694 -64.954573,-37.557762l0,-73.138799c48.473562,1.976724 90.160825,21.743967 125.06179,58.313367c35.870436,39.534486 54.290389,86.97587 54.290389,142.32415c0,55.348281 -18.419954,102.789664 -54.290389,142.32415c-34.900965,37.557762 -76.588228,57.325005 -125.06179,59.301729l0,-72.150437l0,-0.988362zm-14.542069,-254.009074c-22.297838,2.965086 -42.656735,14.825432 -59.137746,36.5694c-19.389425,24.709054 -28.114666,55.348281 -28.114666,90.929318c0,35.581038 9.694712,65.231902 28.114666,89.940956c16.481011,21.743967 35.870436,34.592675 59.137746,37.557762l0,72.150437c-47.504091,-1.976724 -89.191354,-21.743967 -123.122847,-58.313367c-35.870436,-39.534486 -54.290389,-85.987507 -54.290389,-142.32415c0,-55.348281 18.419954,-102.789664 54.290389,-142.32415c33.931493,-37.557762 75.618757,-56.336643 123.122847,-58.313367l0,74.127162z" class="fil0"/>
   <path stroke="null" id="svg_25" d="m8173.750132,-2033.694493l88.221883,-152.207772l0,376.565981l-88.221883,0l0,-224.358209zm-125.06179,51.394832l130.878617,-227.323296l84.343998,0l-215.222615,372.612532l0,-145.289237zm-20.358896,146.277599l-215.222615,-372.612532l84.343998,0l130.878617,227.323296l0,145.289237zm-127.970204,27.67414l-88.221883,0l0,-376.565981l88.221883,152.207772l0,224.358209z" class="fil0"/>
   <path stroke="null" id="svg_26" d="m-456.482837,-1520.734535c15.51154,-0.988362 29.084137,-8.895259 39.748321,-22.73233c11.633655,-14.825432 17.450482,-33.604313 17.450482,-55.348281c0,-21.743967 -5.816827,-40.522848 -17.450482,-55.348281c-10.664184,-14.825432 -24.236781,-22.73233 -39.748321,-22.73233l0,-45.464659c30.053608,0.988362 55.259861,12.848708 76.588228,35.581038c22.297838,23.720692 33.931493,53.371556 33.931493,86.97587c0,34.592675 -11.633655,63.255178 -33.931493,86.97587c-21.328367,22.73233 -47.504091,35.581038 -76.588228,36.5694l0,-44.476297zm-8.725241,-157.149583c-13.572597,1.976724 -26.175723,8.895259 -35.870436,22.73233c-11.633655,14.825432 -17.450482,33.604313 -17.450482,55.348281c0,21.743967 5.816827,40.522848 17.450482,55.348281c10.664184,13.83707 22.297838,20.755605 35.870436,22.73233l0,44.476297c-29.084137,-0.988362 -54.290389,-12.848708 -75.618757,-35.581038c-22.297838,-23.720692 -33.931493,-53.371556 -33.931493,-86.97587c0,-34.592675 10.664184,-63.255178 33.931493,-86.97587c21.328367,-22.73233 46.534619,-34.592675 75.618757,-35.581038l0,45.464659l0,-0.988362z" class="fil0"/>
   <path stroke="null" id="svg_27" d="m-66.755399,-1586.954799c3.877885,4.941811 8.725241,10.871984 12.603126,19.767243c1.938942,1.976724 2.908414,8.895259 3.877885,21.743967l1.938942,8.895259l4.847356,26.685778c0.969471,2.965086 2.908414,7.906897 3.877885,16.802157c1.938942,2.965086 4.847356,8.895259 9.694712,16.802157l-57.198803,0c-1.938942,0 -4.847356,-6.918535 -9.694712,-20.755605c-0.969471,-1.976724 -3.877885,-17.790519 -8.725241,-49.418108c-1.938942,-6.918535 -6.786299,-12.848708 -13.572597,-17.790519c-6.786299,-1.976724 -23.26731,-3.953449 -48.473562,-3.953449l0,-44.476297l43.626206,0c17.450482,-5.930173 25.206252,-17.790519 25.206252,-34.592675l0,-3.953449c-3.877885,-18.778881 -13.572597,-27.67414 -31.02308,-28.662502l-37.809378,0l0,-43.487935l37.809378,0c31.992551,0 55.259861,8.895259 69.801929,26.685778c10.664184,15.813794 15.51154,31.627589 15.51154,48.429746l0,2.965086c0,18.778881 -5.816827,36.5694 -16.481011,50.40647c-1.938942,2.965086 -3.877885,4.941811 -6.786299,7.906897l0.969471,0zm-110.519721,110.696561l-54.290389,0l0,-247.090539l54.290389,0l0,247.090539z" class="fil0"/>
   <polygon stroke="null" id="svg_28" points="84.48258781433105,-1476.2583618164062 138.77297973632812,-1476.2583618164062 138.77297973632812,-1723.3489379882812 84.48258781433105,-1723.3489379882812 " class="fil0"/>
   <path stroke="null" id="svg_29" d="m412.163393,-1655.151788c-10.664184,-14.825432 -24.236781,-22.73233 -39.748321,-22.73233l0,-45.464659c30.053608,0.988362 55.259861,12.848708 76.588228,35.581038c10.664184,11.860346 19.389425,24.709054 24.236781,38.546124l-47.504091,23.720692c-2.908414,-11.860346 -7.75577,-21.743967 -14.542069,-30.639227l0.969471,0.988362zm69.801929,57.325005c-0.969471,32.615951 -11.633655,61.278454 -33.931493,84.010783c-21.328367,22.73233 -47.504091,35.581038 -76.588228,36.5694l0,-44.476297c15.51154,-0.988362 29.084137,-8.895259 39.748321,-22.73233c1.938942,-1.976724 3.877885,-4.941811 4.847356,-7.906897l-45.565148,0l0,-45.464659l110.519721,0l0.969471,0zm-119.244962,-81.045697c-13.572597,1.976724 -26.175723,8.895259 -35.870436,22.73233c-11.633655,14.825432 -17.450482,33.604313 -17.450482,55.348281c0,21.743967 5.816827,40.522848 17.450482,55.348281c10.664184,13.83707 22.297838,20.755605 35.870436,22.73233l0,44.476297c-29.084137,-0.988362 -54.290389,-12.848708 -75.618757,-35.581038c-22.297838,-23.720692 -33.931493,-53.371556 -33.931493,-86.97587c0,-34.592675 11.633655,-63.255178 33.931493,-86.97587c21.328367,-22.73233 46.534619,-34.592675 75.618757,-35.581038l0,45.464659l0,-0.988362z" class="fil0"/>
   <polygon stroke="null" id="svg_30" points="599.2718200683594,-1476.2583618164062 653.5621643066406,-1476.2583618164062 653.5621643066406,-1723.3489379882812 599.2718200683594,-1723.3489379882812 " class="fil0"/>
   <path stroke="null" id="svg_31" d="m910.47161,-1722.360414l54.290389,0l0,231.276744l-54.290389,-92.906043l0,-138.370702zm1.938942,246.102176l-141.542801,-246.102176l51.381976,0l142.512272,246.102176l-51.381976,0l-0.969471,0zm-88.221883,0l-54.290389,0l0,-231.276744l54.290389,92.906043l0,138.370702z" class="fil0"/>
   <polygon stroke="null" id="svg_32" points="1213.9165954589844,-1722.3605346679688 1298.2605895996094,-1476.2583618164062 1236.2144470214844,-1476.2583618164062 1220.7028503417969,-1528.6416625976562 1154.7787780761719,-1528.6416625976562 1167.3819274902344,-1574.1062622070312 1208.0997009277344,-1574.1062622070312 1208.0997009277344,-1575.0946655273438 1182.8934020996094,-1666.0241088867188 1181.9239196777344,-1666.0241088867188 1130.5419616699219,-1476.2583618164062 1082.0684509277344,-1476.2583618164062 1082.0684509277344,-1512.8279418945312 1151.8703308105469,-1722.3605346679688 " class="fil0"/>
   <path stroke="null" id="svg_33" d="m1587.162534,-1521.722897l0,45.464659l-111.489192,0l0,-45.464659l111.489192,0zm-123.122847,45.464659l-54.290389,0l0,-247.090539l54.290389,0l0,247.090539z" class="fil0"/>
   <path stroke="null" id="svg_34" d="m2070.928683,-1629.454372l0,45.464659l-102.763951,0l0,-45.464659l102.763951,0zm8.725241,-92.906043l0,45.464659l-111.489192,0l0,-45.464659l111.489192,0zm-121.183905,246.102176l-54.290389,0l0,-247.090539l54.290389,0l0,247.090539z" class="fil0"/>
   <path stroke="null" id="svg_35" d="m2359.831112,-1586.954799c3.877885,4.941811 8.725241,10.871984 12.603126,19.767243c1.938942,1.976724 2.908414,8.895259 3.877885,21.743967l1.938942,8.895259l4.847356,26.685778c0.969471,2.965086 2.908414,7.906897 3.877885,16.802157c1.938942,2.965086 4.847356,8.895259 9.694712,16.802157l-57.198803,0c-1.938942,0 -4.847356,-6.918535 -10.664184,-20.755605c-0.969471,-1.976724 -3.877885,-17.790519 -8.725241,-49.418108c-1.938942,-6.918535 -6.786299,-12.848708 -13.572597,-17.790519c-6.786299,-1.976724 -23.26731,-3.953449 -49.443033,-3.953449l0,-44.476297l43.626206,0c17.450482,-5.930173 25.206252,-17.790519 25.206252,-34.592675l0,-3.953449c-3.877885,-18.778881 -13.572597,-27.67414 -31.02308,-28.662502l-37.809378,0l0,-43.487935l37.809378,0c31.992551,0 55.259861,8.895259 69.801929,26.685778c10.664184,15.813794 15.51154,31.627589 15.51154,48.429746l0,2.965086c0,18.778881 -5.816827,36.5694 -16.481011,50.40647c-1.938942,2.965086 -3.877885,4.941811 -6.786299,7.906897l2.908414,0zm-112.458664,110.696561l-54.290389,0l0,-247.090539l54.290389,0l0,247.090539z" class="fil0"/>
   <path stroke="null" id="svg_36" d="m2686.54292,-1522.711259l0,45.464659l-111.489192,0l0,-45.464659l111.489192,0zm-9.694712,-107.731475l0,45.464659l-102.763951,0l0,-45.464659l102.763951,0zm8.725241,-92.906043l0,45.464659l-111.489192,0l0,-45.464659l111.489192,0zm-121.183905,246.102176l-54.290389,0l0,-247.090539l54.290389,0l0,247.090539z" class="fil0"/>
   <path stroke="null" id="svg_37" d="m2979.323234,-1522.711259l0,45.464659l-111.489192,0l0,-45.464659l111.489192,0zm-9.694712,-107.731475l0,45.464659l-102.763951,0l0,-45.464659l102.763951,0zm8.725241,-92.906043l0,45.464659l-111.489192,0l0,-45.464659l111.489192,0zm-121.183905,246.102176l-54.290389,0l0,-247.090539l54.290389,0l0,247.090539z" class="fil0"/>
   <path stroke="null" id="svg_38" d="m3410.737935,-1571.141005l53.320918,-151.21941l51.381976,0l-87.252412,246.102176l-18.419954,0l0,-94.882767l0.969471,0zm-10.664184,94.882767l-17.450482,0l-87.252412,-246.102176l51.381976,0l53.320918,149.242685l0,96.859491z" class="fil0"/>
   <path stroke="null" id="svg_39" d="m3802.404316,-1522.711259l0,45.464659l-111.489192,0l0,-45.464659l111.489192,0zm-9.694712,-107.731475l0,45.464659l-102.763951,0l0,-45.464659l102.763951,0zm8.725241,-92.906043l0,45.464659l-111.489192,0l0,-45.464659l111.489192,0zm-121.183905,246.102176l-54.290389,0l0,-247.090539l54.290389,0l0,247.090539z" class="fil0"/>
   <path stroke="null" id="svg_40" d="m4113.604583,-1512.827638c-21.328367,22.73233 -47.504091,35.581038 -76.588228,36.5694l0,-44.476297c15.51154,-0.988362 29.084137,-8.895259 39.748321,-22.73233c5.816827,-6.918535 9.694712,-14.825432 12.603126,-23.720692l45.565148,24.709054c-5.816827,10.871984 -12.603126,20.755605 -21.328367,30.639227l0,-0.988362zm-36.839907,-141.335788c-10.664184,-14.825432 -24.236781,-22.73233 -39.748321,-22.73233l0,-45.464659c30.053608,0.988362 55.259861,12.848708 76.588228,35.581038c10.664184,11.860346 19.389425,24.709054 24.236781,38.546124l-47.504091,23.720692c-2.908414,-11.860346 -7.75577,-21.743967 -14.542069,-30.639227l0.969471,0.988362zm-48.473562,-22.73233c-13.572597,1.976724 -26.175723,8.895259 -35.870436,22.73233c-11.633655,14.825432 -17.450482,33.604313 -17.450482,55.348281c0,21.743967 5.816827,40.522848 17.450482,55.348281c10.664184,13.83707 22.297838,20.755605 35.870436,22.73233l0,44.476297c-29.084137,-0.988362 -54.290389,-12.848708 -75.618757,-35.581038c-22.297838,-23.720692 -33.931493,-53.371556 -33.931493,-86.97587c0,-34.592675 10.664184,-63.255178 33.931493,-86.97587c21.328367,-22.73233 46.534619,-34.592675 75.618757,-35.581038l0,45.464659l0,-0.988362z" class="fil0"/>
   <path stroke="null" id="svg_41" d="m4370.514462,-1477.2466l-54.290389,0l0,-190.753896l54.290389,0l0,190.753896zm60.107217,-245.113814l0,45.464659l-177.413237,0l0,-45.464659l177.413237,0z" class="fil0"/>
   <path stroke="null" id="svg_42" d="m4666.20319,-1520.734535c15.51154,-0.988362 29.084137,-8.895259 39.748321,-22.73233c11.633655,-14.825432 17.450482,-33.604313 17.450482,-55.348281c0,-21.743967 -5.816827,-40.522848 -17.450482,-55.348281c-10.664184,-14.825432 -24.236781,-22.73233 -39.748321,-22.73233l0,-45.464659c30.053608,0.988362 55.259861,12.848708 76.588228,35.581038c22.297838,23.720692 33.931493,53.371556 33.931493,86.97587c0,34.592675 -11.633655,63.255178 -33.931493,86.97587c-21.328367,22.73233 -47.504091,35.581038 -76.588228,36.5694l0,-44.476297zm-8.725241,-157.149583c-13.572597,1.976724 -26.175723,8.895259 -35.870436,22.73233c-11.633655,14.825432 -17.450482,33.604313 -17.450482,55.348281c0,21.743967 5.816827,40.522848 17.450482,55.348281c10.664184,13.83707 22.297838,20.755605 35.870436,22.73233l0,44.476297c-29.084137,-0.988362 -54.290389,-12.848708 -75.618757,-35.581038c-22.297838,-23.720692 -33.931493,-53.371556 -33.931493,-86.97587c0,-34.592675 11.633655,-63.255178 33.931493,-86.97587c21.328367,-22.73233 46.534619,-34.592675 75.618757,-35.581038l0,45.464659l0,-0.988362z" class="fil0"/>
   <path stroke="null" id="svg_43" d="m5055.930628,-1586.954799c3.877885,4.941811 8.725241,10.871984 12.603126,19.767243c1.938942,1.976724 2.908414,8.895259 3.877885,21.743967l1.938942,8.895259l4.847356,26.685778c0.969471,2.965086 2.908414,7.906897 3.877885,16.802157c1.938942,2.965086 4.847356,8.895259 9.694712,16.802157l-57.198803,0c-1.938942,0 -4.847356,-6.918535 -9.694712,-20.755605c-0.969471,-1.976724 -3.877885,-17.790519 -8.725241,-49.418108c-1.938942,-6.918535 -6.786299,-12.848708 -13.572597,-17.790519c-6.786299,-1.976724 -23.26731,-3.953449 -48.473562,-3.953449l0,-44.476297l43.626206,0c17.450482,-5.930173 25.206252,-17.790519 25.206252,-34.592675l0,-3.953449c-3.877885,-18.778881 -13.572597,-27.67414 -31.02308,-28.662502l-37.809378,0l0,-43.487935l37.809378,0c31.992551,0 55.259861,8.895259 69.801929,26.685778c10.664184,15.813794 15.51154,31.627589 15.51154,48.429746l0,2.965086c0,18.778881 -5.816827,36.5694 -16.481011,50.40647c-1.938942,2.965086 -3.877885,4.941811 -6.786299,7.906897l0.969471,0zm-110.519721,110.696561l-54.290389,0l0,-247.090539l54.290389,0l0,247.090539z" class="fil0"/>
   <path stroke="null" id="svg_44" d="m5310.901564,-1722.360414c24.236781,0 44.595677,6.918535 63.015631,20.755605c10.664184,8.895259 18.419954,25.697416 23.26731,50.40647l0,1.976724l-27.145195,2.965086l-22.297838,1.976724c-1.938942,-13.83707 -5.816827,-22.73233 -11.633655,-26.685778c-4.847356,-3.953449 -12.603126,-7.906897 -25.206252,-10.871984l0,-41.51121l0,0.988362zm-24.236781,140.347426c-47.504091,-8.895259 -71.740872,-31.627589 -71.740872,-69.185351l0,-2.965086c0,-38.546124 24.236781,-61.278454 72.710343,-68.196989l14.542069,0l0,41.51121c-10.664184,0.988362 -18.419954,1.976724 -22.297838,3.953449c-8.725241,3.953449 -12.603126,10.871984 -12.603126,23.720692c0,10.871984 13.572597,19.767243 41.687263,24.709054c6.786299,0.988362 12.603126,2.965086 17.450482,3.953449c49.443033,8.895259 73.679814,32.615951 73.679814,73.138799l0,2.965086c0,41.51121 -24.236781,65.231902 -72.710343,72.150437l-16.481011,0.988362l0,-43.487935c11.633655,-0.988362 19.389425,-2.965086 23.26731,-4.941811c8.725241,-3.953449 12.603126,-11.860346 12.603126,-24.709054c0,-11.860346 -13.572597,-21.743967 -41.687263,-27.67414c-5.816827,-1.976724 -12.603126,-3.953449 -20.358896,-4.941811l0.969471,0.988362l0.969471,-1.976724zm-18.419954,49.418108c10.664184,5.930173 20.358896,9.883622 29.084137,10.871984l4.847356,0.988362l0,44.476297c-29.084137,0.988362 -51.381976,-4.941811 -66.893515,-18.778881c-17.450482,-11.860346 -26.175723,-31.627589 -28.114666,-59.301729l50.412504,-4.941811c0.969471,11.860346 4.847356,20.755605 10.664184,26.685778l0,0.988362l0,-0.988362z" class="fil0"/>
   <path stroke="null" id="svg_45" d="m5720.018426,-1722.360414c24.236781,0 44.595677,6.918535 63.015631,20.755605c10.664184,8.895259 18.419954,25.697416 23.26731,50.40647l0,1.976724l-27.145195,2.965086l-22.297838,1.976724c-1.938942,-13.83707 -5.816827,-22.73233 -11.633655,-26.685778c-4.847356,-3.953449 -12.603126,-7.906897 -25.206252,-10.871984l0,-41.51121l0,0.988362zm-24.236781,140.347426c-47.504091,-8.895259 -71.740872,-31.627589 -71.740872,-69.185351l0,-2.965086c0,-38.546124 24.236781,-61.278454 72.710343,-68.196989l14.542069,0l0,41.51121c-10.664184,0.988362 -18.419954,1.976724 -22.297838,3.953449c-8.725241,3.953449 -12.603126,10.871984 -12.603126,23.720692c0,10.871984 13.572597,19.767243 41.687263,24.709054c6.786299,0.988362 12.603126,2.965086 17.450482,3.953449c49.443033,8.895259 73.679814,32.615951 73.679814,73.138799l0,2.965086c0,41.51121 -24.236781,65.231902 -72.710343,72.150437l-16.481011,0.988362l0,-43.487935c11.633655,-0.988362 19.389425,-2.965086 23.26731,-4.941811c8.725241,-3.953449 12.603126,-11.860346 12.603126,-24.709054c0,-11.860346 -13.572597,-21.743967 -41.687263,-27.67414c-5.816827,-1.976724 -12.603126,-3.953449 -20.358896,-4.941811l0.969471,0.988362l0.969471,-1.976724zm-18.419954,49.418108c10.664184,5.930173 20.358896,9.883622 29.084137,10.871984l4.847356,0.988362l0,44.476297c-29.084137,0.988362 -51.381976,-4.941811 -66.893515,-18.778881c-17.450482,-11.860346 -26.175723,-31.627589 -27.145195,-59.301729l50.412504,-4.941811c0.969471,11.860346 4.847356,20.755605 10.664184,26.685778l0,0.988362l-0.969471,-0.988362z" class="fil0"/>
   <polygon stroke="null" id="svg_46" points="5926.516448974609,-1476.2583618164062 5980.806488037109,-1476.2583618164062 5980.806488037109,-1723.3489379882812 5926.516448974609,-1723.3489379882812 " class="fil0"/>
   <path stroke="null" id="svg_47" d="m6236.746597,-1722.360414l54.290389,0l0,231.276744l-54.290389,-92.906043l0,-138.370702zm1.938942,246.102176l-141.542801,-246.102176l51.381976,0l142.512272,246.102176l-51.381976,0l-0.969471,0zm-88.221883,0l-54.290389,0l0,-231.276744l54.290389,92.906043l0,138.370702z" class="fil0"/>
   <path stroke="null" id="svg_48" d="m6604.176196,-1512.827638c-21.328367,22.73233 -47.504091,35.581038 -76.588228,36.5694l0,-44.476297c15.51154,-0.988362 29.084137,-8.895259 39.748321,-22.73233c5.816827,-6.918535 9.694712,-14.825432 12.603126,-23.720692l45.565148,24.709054c-5.816827,10.871984 -12.603126,20.755605 -21.328367,30.639227l0,-0.988362zm-36.839907,-141.335788c-10.664184,-14.825432 -24.236781,-22.73233 -39.748321,-22.73233l0,-45.464659c30.053608,0.988362 55.259861,12.848708 76.588228,35.581038c10.664184,11.860346 19.389425,24.709054 24.236781,38.546124l-47.504091,23.720692c-2.908414,-11.860346 -7.75577,-21.743967 -14.542069,-30.639227l0.969471,0.988362zm-48.473562,-22.73233c-13.572597,1.976724 -26.175723,8.895259 -35.870436,22.73233c-11.633655,14.825432 -17.450482,33.604313 -17.450482,55.348281c0,21.743967 5.816827,40.522848 17.450482,55.348281c10.664184,13.83707 22.297838,20.755605 35.870436,22.73233l0,44.476297c-29.084137,-0.988362 -54.290389,-12.848708 -75.618757,-35.581038c-22.297838,-23.720692 -33.931493,-53.371556 -33.931493,-86.97587c0,-34.592675 11.633655,-63.255178 33.931493,-86.97587c21.328367,-22.73233 46.534619,-34.592675 75.618757,-35.581038l0,45.464659l0,-0.988362z" class="fil0"/>
   <path stroke="null" id="svg_49" d="m6919.254349,-1522.711259l0,45.464659l-111.489192,0l0,-45.464659l111.489192,0zm-9.694712,-107.731475l0,45.464659l-102.763951,0l0,-45.464659l102.763951,0zm8.725241,-92.906043l0,45.464659l-111.489192,0l0,-45.464659l111.489192,0zm-121.183905,246.102176l-54.290389,0l0,-247.090539l54.290389,0l0,247.090539z" class="fil0"/>
   <path stroke="null" id="svg_50" d="m7420.47098,-1521.722897l0,45.464659l-126.031261,0l0,-45.464659l126.031261,0zm-127.970204,-149.242685c-5.816827,4.941811 -8.725241,13.83707 -9.694712,24.709054l-47.504091,-4.941811c0.969471,-26.685778 9.694712,-44.476297 26.175723,-55.348281c14.542069,-11.860346 35.870436,-17.790519 63.015631,-16.802157l0,41.51121l-4.847356,0.988362c-8.725241,0.988362 -18.419954,3.953449 -27.145195,9.883622l0,0.988362l0,-0.988362zm-57.198803,147.265961l0,-6.918535c0,-40.522848 25.206252,-67.208627 75.618757,-81.045697c4.847356,-0.988362 9.694712,-1.976724 17.450482,-3.953449c27.145195,-7.906897 40.717792,-20.755605 39.748321,-39.534486c0,-11.860346 -3.877885,-19.767243 -12.603126,-23.720692c-3.877885,-1.976724 -11.633655,-2.965086 -22.297838,-3.953449l0,-41.51121l14.542069,0c48.473562,6.918535 72.710343,29.650865 72.710343,68.196989l0,2.965086c0,36.5694 -23.26731,64.24354 -69.801929,83.022421c-6.786299,0.988362 -13.572597,2.965086 -19.389425,3.953449c-30.053608,8.895259 -44.595677,20.755605 -43.626206,36.5694l0,51.394832l-52.351447,0l0,-47.441383l0,1.976724z" class="fil0"/>
   <path stroke="null" id="svg_51" d="m7624.05994,-1723.348777c29.084137,0.988362 50.412504,9.883622 63.985102,26.685778l0.969471,-0.988362l0,0.988362l-0.969471,0.988362c10.664184,15.813794 15.51154,32.615951 15.51154,50.40647l0,88.952594c0,19.767243 -7.75577,39.534486 -22.297838,58.313367c-10.664184,12.848708 -30.053608,19.767243 -57.198803,21.743967l0,-46.453021c16.481011,-5.930173 24.236781,-17.790519 24.236781,-34.592675l0,-89.940956c-2.908414,-16.802157 -11.633655,-26.685778 -24.236781,-28.662502l0,-46.453021l0,-0.988362zm-11.633655,47.441383c-12.603126,1.976724 -21.328367,11.860346 -24.236781,28.662502l0,89.940956c0,16.802157 7.75577,28.662502 24.236781,34.592675l0,46.453021c-27.145195,-1.976724 -45.565148,-8.895259 -57.198803,-21.743967c-14.542069,-18.778881 -22.297838,-37.557762 -22.297838,-58.313367l0,-88.952594c0,-17.790519 4.847356,-34.592675 15.51154,-50.40647l-0.969471,-0.988362l0,-0.988362l0.969471,0.988362c13.572597,-16.802157 34.900965,-25.697416 63.985102,-26.685778l0,46.453021l0,0.988362z" class="fil0"/>
   <path stroke="null" id="svg_52" d="m7911.023427,-1723.348777c29.084137,0.988362 50.412504,9.883622 63.985102,26.685778l0.969471,-0.988362l0,0.988362l-0.969471,0.988362c10.664184,15.813794 15.51154,32.615951 15.51154,50.40647l0,88.952594c0,19.767243 -7.75577,39.534486 -22.297838,58.313367c-10.664184,12.848708 -30.053608,19.767243 -57.198803,21.743967l0,-46.453021c16.481011,-5.930173 24.236781,-17.790519 24.236781,-34.592675l0,-89.940956c-2.908414,-16.802157 -11.633655,-26.685778 -24.236781,-28.662502l0,-46.453021l0,-0.988362zm-11.633655,47.441383c-13.572597,1.976724 -21.328367,11.860346 -24.236781,28.662502l0,89.940956c0,16.802157 8.725241,28.662502 24.236781,34.592675l0,46.453021c-27.145195,-1.976724 -45.565148,-8.895259 -57.198803,-21.743967c-14.542069,-18.778881 -22.297838,-37.557762 -22.297838,-58.313367l0,-88.952594c0,-17.790519 4.847356,-34.592675 15.51154,-50.40647l-0.969471,-0.988362l0,-0.988362l0.969471,0.988362c13.572597,-16.802157 34.900965,-25.697416 63.985102,-26.685778l0,46.453021l0,0.988362z" class="fil0"/>
   <path stroke="null" id="svg_53" d="m8161.147006,-1669.97722c-2.908414,24.709054 9.694712,37.557762 37.809378,39.534486c9.694712,0 19.389425,1.976724 29.084137,4.941811c43.626206,14.825432 64.954573,40.522848 64.954573,78.08061l0,2.965086c0,38.546124 -24.236781,61.278454 -72.710343,68.196989l-14.542069,0l0,-40.522848c10.664184,-0.988362 18.419954,-1.976724 22.297838,-3.953449c8.725241,-2.965086 12.603126,-10.871984 12.603126,-23.720692c0.969471,-17.790519 -11.633655,-30.639227 -35.870436,-39.534486c-9.694712,-0.988362 -18.419954,-2.965086 -26.175723,-3.953449c-48.473562,-3.953449 -71.740872,-30.639227 -70.7714,-82.034059l52.351447,0l0.969471,0zm131.848089,-7.906897l0,-45.464659l-185.169007,0l0,45.464659l185.169007,0zm-127.970204,149.242685c9.694712,5.930173 18.419954,8.895259 27.145195,9.883622l4.847356,0.988362l0,41.51121c-27.145195,0.988362 -48.473562,-4.941811 -63.015631,-16.802157c-16.481011,-10.871984 -25.206252,-28.662502 -26.175723,-55.348281l47.504091,-4.941811c0.969471,10.871984 3.877885,19.767243 9.694712,24.709054l0,0.988362l0,-0.988362z" class="fil0"/>
   <path stroke="null" id="svg_54" d="m2990.956889,-8480.780827l0,-251.043987l72.710343,0c373.246427,0 378.093783,-319.240976 752.309681,-319.240976l243.337281,0c20.358896,-91.91768 135.725973,-225.346571 248.184637,-216.451312l185.169007,14.825432c52.351447,3.953449 113.428135,27.67414 138.634387,47.441383c376.154841,62.266816 372.276956,1106.965613 -28.114666,1106.965613c-66.893515,0 -217.161558,14.825432 -289.8719,0.988362c-23.26731,0 -46.534619,-5.930173 -68.832458,-15.813794c-76.588228,-16.802157 -149.298571,-90.929318 -184.199535,-160.114669l-1.938942,0c-389.727438,0 -605.919524,-208.544415 -995.646962,-208.544415l-71.740872,0l0,0.988362zm-1265.159967,367.670721c76.588228,-16.802157 149.298571,-90.929318 184.199535,-160.114669l1.938942,0c389.727438,0 605.919524,-208.544415 995.646962,-208.544415l71.740872,0l0,-251.043987l-72.710343,0c-373.246427,0 -378.093783,-319.240976 -752.309681,-319.240976l-243.337281,0c-20.358896,-91.91768 -135.725973,-225.346571 -248.184637,-216.451312l-185.169007,14.825432c-52.351447,3.953449 -113.428135,27.67414 -138.634387,47.441383c-376.154841,62.266816 -372.276956,1106.965613 28.114666,1106.965613c66.893515,0 217.161558,14.825432 289.8719,0.988362c23.26731,0 46.534619,-5.930173 68.832458,-15.813794l0,0l0,0.988362z" class="fil1"/>
   <path stroke="null" id="svg_55" d="m1397.146172,-8430.374357c-1.938942,11.860346 -46.534619,25.697416 -39.748321,39.534486c25.206252,19.767243 86.28294,42.499573 138.634387,47.441383l185.169007,14.825432c112.458664,8.895259 227.825741,-123.545269 248.184637,-216.451312c-158.993283,-167.033204 -370.338013,76.103886 -532.23971,113.661648l0,0.988362z" class="fil2"/>
   <path stroke="null" id="svg_56" d="m1378.726218,-9384.143836c-1.938942,-11.860346 -46.534619,-25.697416 -39.748321,-39.534486c25.206252,-19.767243 86.28294,-42.499573 138.634387,-47.441383l185.169007,-14.825432c1.938942,0 2.908414,0 4.847356,0l13.572597,0c106.641836,4.941811 211.34473,129.475442 230.734155,216.451312c-158.993283,167.033204 -370.338013,-76.103886 -532.23971,-113.661648l-0.969471,-0.988362z" class="fil2"/>
   <path stroke="null" id="svg_57" d="m1374.848333,-9427.631771c75.618757,0 197.772133,-15.813794 282.116131,-19.767243l0,277.729765c23.26731,85.987507 35.870436,183.835361 35.870436,287.613387c0,103.778026 -13.572597,201.62588 -35.870436,287.613387l0,277.729765c-72.710343,13.83707 -222.978385,-0.988362 -289.8719,-0.988362c-412.025277,0 -404.269507,-1109.9307 7.75577,-1109.9307z" class="fil3"/>
   <path stroke="null" id="svg_58" d="m1656.964464,-8315.724347c158.993283,0 287.932958,-254.009074 287.932958,-565.343152c0,-311.334079 -129.909146,-565.343152 -287.932958,-565.343152c-158.993283,0 -287.932958,254.009074 -287.932958,565.343152c0,311.334079 129.909146,565.343152 287.932958,565.343152z" class="fil4"/>
   <path stroke="null" id="svg_59" d="m2980.292705,-8700.197225l0,-251.043987l-72.710343,0c-373.246427,0 -378.093783,-319.240976 -752.309681,-319.240976l-340.284405,0c-63.985102,256.97416 -59.137746,515.925045 0,778.829378l97.916595,0c389.727438,0 605.919524,-208.544415 995.646962,-208.544415l71.740872,0z" class="fil3"/>
   <path stroke="null" id="svg_60" d="m2980.292705,-8716.01102l0,-219.416398c-109.55025,1.976724 -197.772133,50.40647 -197.772133,109.708199c0,59.301729 88.221883,107.731475 197.772133,109.708199z" class="fil5"/>
   <path stroke="null" id="svg_61" d="m1965.256318,-8665.60455c133.787031,-7.906897 266.604591,-44.476297 399.42215,-80.057335c21.328367,-5.930173 43.626206,-11.860346 64.954573,-17.790519c-2.908414,7.906897 -4.847356,16.802157 -7.75577,24.709054c-17.450482,5.930173 -34.900965,11.860346 -52.351447,17.790519c-146.390157,50.40647 -276.299303,92.906043 -431.414701,96.859491c9.694712,-12.848708 18.419954,-26.685778 26.175723,-41.51121l0.969471,0zm36.839907,-83.022421c-7.75577,21.743967 -16.481011,42.499573 -26.175723,62.266816c127.970204,-8.895259 255.940407,-43.487935 383.910611,-79.068972c25.206252,-6.918535 50.412504,-13.83707 75.618757,-20.755605c1.938942,-9.883622 3.877885,-19.767243 5.816827,-29.650865c-22.297838,4.941811 -44.595677,10.871984 -67.862987,15.813794c-123.122847,19.767243 -240.428867,41.51121 -371.307485,51.394832l0,0zm20.358896,-82.034059c133.787031,-7.906897 240.428867,-17.790519 358.704358,-22.73233c23.26731,-2.965086 43.626206,-6.918535 63.015631,-10.871984c0,9.883622 -0.969471,18.778881 -1.938942,28.662502c-24.236781,5.930173 -48.473562,10.871984 -72.710343,16.802157c-120.214434,18.778881 -234.61204,40.522848 -361.612772,49.418108c5.816827,-19.767243 10.664184,-40.522848 14.542069,-61.278454l0,0zm6.786299,-81.045697c0,20.755605 -1.938942,41.51121 -3.877885,61.278454c131.848089,-7.906897 238.489925,-16.802157 355.795945,-21.743967c21.328367,-3.953449 42.656735,-7.906897 63.985102,-11.860346c0,-8.895259 -0.969471,-18.778881 -1.938942,-27.67414c-15.51154,1.976724 -31.02308,4.941811 -52.351447,4.941811c-117.30602,-8.895259 -217.161558,-12.848708 -360.643301,-4.941811l0,0l-0.969471,0zm-4.847356,-81.045697c2.908414,19.767243 4.847356,39.534486 4.847356,60.290091c143.481743,-7.906897 244.306752,-3.953449 362.582243,5.930173c16.481011,-1.976724 31.992551,-3.953449 48.473562,-4.941811c-1.938942,-9.883622 -2.908414,-18.778881 -5.816827,-27.67414c-9.694712,0 -19.389425,0 -35.870436,-1.976724c-119.244962,-25.697416 -213.283673,-41.51121 -374.215898,-31.627589l0,0zm-17.450482,-79.068972c190.016363,-16.802157 277.268774,13.83707 399.42215,57.325005l10.664184,3.953449c3.877885,10.871984 7.75577,20.755605 10.664184,31.627589c-8.725241,0 -17.450482,-0.988362 -26.175723,-0.988362c-121.183905,-25.697416 -217.161558,-42.499573 -381.002197,-32.615951c-3.877885,-20.755605 -8.725241,-40.522848 -14.542069,-59.301729l0,0l0.969471,0zm392.635852,22.73233c-73.679814,-58.313367 -135.725973,-89.940956 -246.245695,-89.940956l-172.565881,0c6.786299,14.825432 13.572597,31.627589 19.389425,47.441383c193.894248,-17.790519 283.085602,11.860346 406.208449,55.348281c-1.938942,-3.953449 -3.877885,-7.906897 -6.786299,-12.848708l0,0z" class="fil5"/>
   <path stroke="null" id="svg_62" d="m2778.642687,-8894.90457c-42.656735,-8.895259 -83.374527,-23.720692 -124.092319,-44.476297c-62.046159,-31.627589 -113.428135,-73.138799 -166.749053,-118.603459c-109.55025,-92.906043 -184.199535,-144.300875 -332.528635,-144.300875c281.146659,33.604313 350.948589,293.54356 623.370007,306.392268l0,0l0,0.988362z" class="fil6"/>
   <path stroke="null" id="svg_63" d="m1547.414214,-9404.899442c-256.909878,198.660793 -265.635119,847.026366 9.694712,1054.582419c-228.795212,-228.311658 -231.703626,-842.084556 -9.694712,-1054.582419z" class="fil6"/>
   <path stroke="null" id="svg_64" d="m1814.988276,-9270.482189c-80.466113,259.939247 -66.893515,519.878493 0,778.829378c-42.656735,-259.939247 -49.443033,-518.890131 0,-778.829378z" class="fil7"/>
   <path stroke="null" id="svg_65" d="m2798.032112,-8763.452403c-218.131029,28.662502 -425.597874,147.265961 -650.515201,174.940101c221.039442,-59.301729 432.384173,-179.881912 650.515201,-174.940101z" class="fil6"/>
   <path stroke="null" id="svg_66" d="m4574.103422,-8430.374357c1.938942,11.860346 46.534619,25.697416 39.748321,39.534486c-25.206252,19.767243 -86.28294,42.499573 -138.634387,47.441383l-185.169007,14.825432c-112.458664,8.895259 -227.825741,-123.545269 -248.184637,-216.451312c158.993283,-167.033204 370.338013,76.103886 532.23971,113.661648l0,0.988362z" class="fil2"/>
   <path stroke="null" id="svg_67" d="m4592.523375,-9384.143836c1.938942,-11.860346 46.534619,-25.697416 39.748321,-39.534486c-25.206252,-19.767243 -86.28294,-42.499573 -138.634387,-47.441383l-185.169007,-14.825432c-1.938942,0 -2.908414,0 -4.847356,0l-13.572597,0c-106.641836,4.941811 -211.34473,129.475442 -230.734155,216.451312c158.993283,167.033204 370.338013,-76.103886 532.23971,-113.661648l0.969471,-0.988362z" class="fil2"/>
   <path stroke="null" id="svg_68" d="m4596.40126,-9427.631771c-75.618757,0 -197.772133,-15.813794 -282.116131,-19.767243l0,277.729765c-23.26731,85.987507 -35.870436,183.835361 -35.870436,287.613387c0,103.778026 13.572597,201.62588 35.870436,287.613387l0,277.729765c72.710343,13.83707 222.978385,-0.988362 289.8719,-0.988362c412.025277,0 404.269507,-1109.9307 -7.75577,-1109.9307z" class="fil3"/>
   <path stroke="null" id="svg_69" d="m4315.254601,-8315.724347c158.993283,0 287.932958,-254.009074 287.932958,-565.343152c0,-311.334079 -129.909146,-565.343152 -287.932958,-565.343152c-158.993283,0 -287.932958,254.009074 -287.932958,565.343152c0,311.334079 129.909146,565.343152 287.932958,565.343152z" class="fil4"/>
   <path stroke="null" id="svg_70" d="m2990.956889,-8700.197225l0,-251.043987l72.710343,0c373.246427,0 378.093783,-319.240976 752.309681,-319.240976l340.284405,0c63.985102,256.97416 59.137746,515.925045 0,778.829378l-97.916595,0c-389.727438,0 -605.919524,-208.544415 -995.646962,-208.544415l-71.740872,0z" class="fil3"/>
   <path stroke="null" id="svg_71" d="m2990.956889,-8716.01102l0,-219.416398c109.55025,1.976724 196.802662,50.40647 196.802662,109.708199c0,59.301729 -88.221883,107.731475 -196.802662,109.708199z" class="fil5"/>
   <path stroke="null" id="svg_72" d="m4006.962747,-8665.60455c-133.787031,-7.906897 -266.604591,-44.476297 -399.42215,-80.057335c-21.328367,-5.930173 -43.626206,-11.860346 -64.954573,-17.790519c2.908414,7.906897 4.847356,16.802157 7.75577,24.709054c17.450482,5.930173 34.900965,11.860346 52.351447,17.790519c147.359628,50.40647 276.299303,92.906043 431.414701,96.859491c-9.694712,-12.848708 -18.419954,-26.685778 -27.145195,-41.51121zm-37.809378,-83.022421c7.75577,21.743967 16.481011,42.499573 26.175723,62.266816c-127.970204,-8.895259 -255.940407,-43.487935 -383.910611,-79.068972c-25.206252,-6.918535 -50.412504,-13.83707 -75.618757,-20.755605c-1.938942,-9.883622 -3.877885,-19.767243 -5.816827,-29.650865c22.297838,4.941811 44.595677,10.871984 67.862987,15.813794c123.122847,19.767243 240.428867,41.51121 371.307485,51.394832l0,0zm-20.358896,-82.034059c-133.787031,-7.906897 -240.428867,-17.790519 -358.704358,-22.73233c-23.26731,-2.965086 -43.626206,-6.918535 -63.015631,-10.871984c0,9.883622 0.969471,18.778881 1.938942,28.662502c24.236781,5.930173 48.473562,10.871984 72.710343,16.802157c120.214434,18.778881 234.61204,40.522848 361.612772,49.418108c-5.816827,-19.767243 -10.664184,-40.522848 -14.542069,-61.278454l0,0zm-6.786299,-81.045697c0,20.755605 1.938942,41.51121 3.877885,61.278454c-131.848089,-7.906897 -238.489925,-16.802157 -355.795945,-21.743967c-21.328367,-3.953449 -42.656735,-7.906897 -63.985102,-11.860346c0,-8.895259 0.969471,-18.778881 1.938942,-27.67414c15.51154,1.976724 31.02308,4.941811 52.351447,4.941811c117.30602,-8.895259 217.161558,-12.848708 360.643301,-4.941811l0,0l0.969471,0zm4.847356,-81.045697c-2.908414,19.767243 -3.877885,39.534486 -4.847356,60.290091c-143.481743,-7.906897 -244.306752,-3.953449 -362.582243,5.930173c-16.481011,-1.976724 -31.992551,-3.953449 -48.473562,-4.941811c1.938942,-9.883622 2.908414,-18.778881 5.816827,-27.67414c9.694712,0 19.389425,0 35.870436,-1.976724c119.244962,-25.697416 213.283673,-41.51121 374.215898,-31.627589l0,0zm17.450482,-79.068972c-190.016363,-16.802157 -277.268774,13.83707 -399.42215,57.325005l-10.664184,3.953449c-3.877885,10.871984 -7.75577,20.755605 -10.664184,31.627589c8.725241,0 17.450482,-0.988362 26.175723,-0.988362c121.183905,-25.697416 217.161558,-42.499573 381.002197,-32.615951c3.877885,-20.755605 8.725241,-40.522848 14.542069,-59.301729l0,0l-0.969471,0zm-392.635852,22.73233c73.679814,-58.313367 135.725973,-89.940956 246.245695,-89.940956l172.565881,0c-6.786299,14.825432 -13.572597,31.627589 -19.389425,47.441383c-193.894248,-17.790519 -283.085602,11.860346 -406.208449,55.348281c1.938942,-3.953449 3.877885,-7.906897 6.786299,-12.848708l0,0z" class="fil5"/>
   <path stroke="null" id="svg_73" d="m3193.576378,-8894.90457c42.656735,-8.895259 83.374527,-23.720692 124.092319,-44.476297c62.046159,-31.627589 113.428135,-73.138799 166.749053,-118.603459c109.55025,-92.906043 184.199535,-144.300875 332.528635,-144.300875c-281.146659,33.604313 -350.948589,293.54356 -623.370007,306.392268l0,0l0,0.988362z" class="fil6"/>
   <path stroke="null" id="svg_74" d="m4423.83538,-9404.899442c256.909878,198.660793 265.635119,847.026366 -9.694712,1054.582419c228.795212,-228.311658 231.703626,-842.084556 9.694712,-1054.582419z" class="fil6"/>
   <path stroke="null" id="svg_75" d="m4156.261318,-9270.482189c80.466113,259.939247 66.893515,519.878493 0,778.829378c42.656735,-259.939247 49.443033,-518.890131 0,-778.829378z" class="fil7"/>
   <path stroke="null" id="svg_76" d="m3174.186953,-8763.452403c218.131029,28.662502 425.597874,147.265961 650.515201,174.940101c-221.039442,-59.301729 -432.384173,-179.881912 -650.515201,-174.940101z" class="fil6"/>
   <path stroke="null" id="svg_77" d="m2642.916714,-8265.317877c28.114666,131.452167 -29.084137,255.985798 -127.970204,277.729765c-98.886066,22.73233 -202.619489,-66.220264 -230.734155,-197.672431c-78.52717,-364.705635 -95.977653,-396.333224 -77.557699,-663.191006c6.786299,-99.824578 -0.969471,-192.73062 46.534619,-255.985798c43.626206,-58.313367 139.603858,-90.929318 206.497374,-90.929318c139.603858,0 253.031993,155.172858 253.031993,345.926754c0,70.173713 -2.908414,144.300875 -41.687263,189.765534c-95.977653,112.673286 -56.229332,267.846144 -29.084137,392.379775l0.969471,1.976724z" class="fil2"/>
   <path stroke="null" id="svg_78" d="m2597.351566,-8241.597186c28.114666,131.452167 -29.084137,255.985798 -127.970204,277.729765c-98.886066,22.73233 -286.963487,9.883622 -315.078153,-121.568545c-78.52717,-364.705635 -69.801929,-486.27418 -51.381976,-752.1436c13.572597,-190.753896 171.596409,-333.078046 312.169739,-333.078046c139.603858,0 253.031993,155.172858 253.031993,345.926754c0,70.173713 -2.908414,144.300875 -41.687263,189.765534c-95.977653,112.673286 -56.229332,267.846144 -29.084137,393.368138z" class="fil8"/>
   <path stroke="null" id="svg_79" d="m2236.708265,-8322.642882c-6.786299,-153.196134 0,-305.403906 27.145195,-456.623315c21.328367,-117.615096 184.199535,-98.836215 157.054341,31.627589c-28.114666,140.347426 -43.626206,276.741403 -19.389425,415.112105c-55.259861,2.965086 -110.519721,6.918535 -165.779582,9.883622l0.969471,0z" class="fil9"/>
   <path stroke="null" id="svg_80" d="m2309.418608,-8418.514011l-17.450482,3.953449l35.870436,3.953449l-18.419954,-7.906897zm79.496642,-50.40647l-66.893515,-22.73233l-66.893515,14.825432l57.198803,25.697416l76.588228,-17.790519l0,0zm-52.351447,-93.894405l-86.28294,13.83707l73.679814,24.709054l67.862987,-14.825432l-55.259861,-23.720692l0,0zm59.137746,-40.522848l-83.374527,-44.476297l-61.076688,14.825432l89.191354,38.546124l55.259861,-8.895259l0,0zm-46.534619,-135.405615l-93.069239,25.697416l60.107217,31.627589l102.763951,-24.709054l-69.801929,-32.615951l0,0zm45.565148,-44.476297l-82.405055,-6.918535l39.748321,18.778881l42.656735,-11.860346l0,0zm-166.749053,-45.464659l256.909878,21.743967c8.725241,0.988362 14.542069,7.906897 14.542069,16.802157c-0.969471,6.918535 -5.816827,12.848708 -11.633655,13.83707l-91.130296,24.709054l75.618757,35.581038c4.847356,1.976724 8.725241,5.930173 9.694712,10.871984c1.938942,7.906897 -2.908414,16.802157 -11.633655,18.778881l-111.489192,26.685778l94.03871,50.40647c7.75577,3.953449 10.664184,13.83707 6.786299,20.755605c-1.938942,4.941811 -6.786299,7.906897 -11.633655,7.906897l0,0l-52.351447,7.906897l53.320918,22.73233c4.847356,1.976724 8.725241,5.930173 9.694712,11.860346c1.938942,7.906897 -3.877885,16.802157 -11.633655,18.778881l-64.954573,13.83707l69.801929,23.720692c7.75577,2.965086 12.603126,11.860346 9.694712,19.767243c-1.938942,4.941811 -5.816827,8.895259 -11.633655,9.883622l0,0l-90.160825,20.755605l72.710343,32.615951c6.786299,1.976724 10.664184,8.895259 9.694712,16.802157c-0.969471,8.895259 -8.725241,14.825432 -17.450482,13.83707l-223.947856,-27.67414l0,0c-5.816827,-0.988362 -11.633655,-5.930173 -13.572597,-11.860346c-1.938942,-7.906897 2.908414,-16.802157 11.633655,-18.778881l63.985102,-14.825432l-63.015631,-28.662502c-7.75577,-3.953449 -11.633655,-12.848708 -7.75577,-20.755605c1.938942,-4.941811 5.816827,-7.906897 10.664184,-8.895259l0,0l61.076688,-13.83707l-83.374527,-27.67414c-5.816827,-1.976724 -10.664184,-6.918535 -11.633655,-12.848708c-0.969471,-8.895259 4.847356,-16.802157 12.603126,-17.790519l99.855538,-15.813794l-87.252412,-37.557762c-7.75577,-2.965086 -11.633655,-12.848708 -7.75577,-20.755605c1.938942,-4.941811 5.816827,-7.906897 10.664184,-8.895259l0,0l72.710343,-17.790519l-62.046159,-33.604313c-3.877885,-1.976724 -7.75577,-5.930173 -8.725241,-9.883622c-1.938942,-7.906897 2.908414,-16.802157 10.664184,-18.778881l95.008181,-25.697416l-85.313469,-39.534486c-7.75577,-3.953449 -10.664184,-12.848708 -7.75577,-20.755605c2.908414,-5.930173 8.725241,-9.883622 15.51154,-8.895259l0,0l0.969471,0.988362z" class="fil10"/>
   <path stroke="null" id="svg_81" d="m1994.340455,-8275.201499c62.046159,-235.230193 724.195016,-183.835361 700.927706,55.348281l-137.664916,1391.613914l-947.173401,0l383.910611,-1446.962194z" class="fil11"/>
   <path stroke="null" id="svg_82" d="m3406.86005,-8265.317877c-28.114666,131.452167 29.084137,255.985798 127.970204,277.729765c98.886066,22.73233 202.619489,-66.220264 230.734155,-197.672431c78.52717,-364.705635 95.977653,-396.333224 77.557699,-663.191006c-6.786299,-99.824578 0.969471,-192.73062 -46.534619,-255.985798c-43.626206,-58.313367 -139.603858,-90.929318 -206.497374,-90.929318c-139.603858,0 -253.031993,155.172858 -253.031993,345.926754c0,70.173713 2.908414,144.300875 41.687263,189.765534c95.977653,112.673286 56.229332,267.846144 29.084137,392.379775l-0.969471,1.976724z" class="fil2"/>
   <path stroke="null" id="svg_83" d="m3452.425198,-8241.597186c-28.114666,131.452167 29.084137,255.985798 127.970204,277.729765c98.886066,22.73233 286.963487,9.883622 315.078153,-121.568545c78.52717,-364.705635 69.801929,-486.27418 51.381976,-752.1436c-13.572597,-190.753896 -171.596409,-333.078046 -312.169739,-333.078046c-139.603858,0 -253.031993,155.172858 -253.031993,345.926754c0,70.173713 2.908414,144.300875 41.687263,189.765534c95.977653,112.673286 56.229332,267.846144 29.084137,393.368138z" class="fil8"/>
   <path stroke="null" id="svg_84" d="m3814.037971,-8322.642882c6.786299,-153.196134 0,-305.403906 -27.145195,-456.623315c-21.328367,-117.615096 -184.199535,-98.836215 -157.054341,31.627589c28.114666,140.347426 43.626206,276.741403 19.389425,415.112105c55.259861,2.965086 110.519721,6.918535 165.779582,9.883622l-0.969471,0z" class="fil9"/>
   <path stroke="null" id="svg_85" d="m3741.327628,-8418.514011l17.450482,3.953449l-35.870436,3.953449l18.419954,-7.906897zm-79.496642,-50.40647l66.893515,-22.73233l66.893515,14.825432l-57.198803,25.697416l-76.588228,-17.790519l0,0zm52.351447,-93.894405l86.28294,13.83707l-73.679814,24.709054l-67.862987,-14.825432l55.259861,-23.720692l0,0zm-59.137746,-40.522848l83.374527,-44.476297l61.076688,14.825432l-89.191354,38.546124l-55.259861,-8.895259l0,0zm46.534619,-135.405615l93.069239,25.697416l-60.107217,31.627589l-102.763951,-24.709054l69.801929,-32.615951l0,0zm-45.565148,-44.476297l82.405055,-6.918535l-39.748321,18.778881l-42.656735,-11.860346l0,0zm166.749053,-45.464659l-256.909878,21.743967c-8.725241,0.988362 -14.542069,7.906897 -14.542069,16.802157c0.969471,6.918535 5.816827,12.848708 11.633655,13.83707l91.130296,24.709054l-75.618757,35.581038c-4.847356,1.976724 -8.725241,5.930173 -9.694712,10.871984c-1.938942,7.906897 2.908414,16.802157 11.633655,18.778881l111.489192,26.685778l-94.03871,50.40647c-7.75577,3.953449 -10.664184,13.83707 -6.786299,20.755605c1.938942,4.941811 6.786299,7.906897 11.633655,7.906897l0,0l52.351447,7.906897l-53.320918,22.73233c-4.847356,1.976724 -8.725241,5.930173 -9.694712,11.860346c-1.938942,7.906897 3.877885,16.802157 11.633655,18.778881l64.954573,13.83707l-69.801929,23.720692c-7.75577,2.965086 -12.603126,11.860346 -9.694712,19.767243c1.938942,4.941811 5.816827,8.895259 11.633655,9.883622l0,0l90.160825,20.755605l-72.710343,32.615951c-6.786299,1.976724 -10.664184,8.895259 -9.694712,16.802157c0.969471,8.895259 8.725241,14.825432 17.450482,13.83707l223.947856,-27.67414l0,0c5.816827,-0.988362 11.633655,-5.930173 13.572597,-11.860346c1.938942,-7.906897 -2.908414,-16.802157 -11.633655,-18.778881l-63.985102,-14.825432l63.015631,-28.662502c7.75577,-3.953449 11.633655,-12.848708 7.75577,-20.755605c-1.938942,-4.941811 -5.816827,-7.906897 -10.664184,-8.895259l0,0l-61.076688,-13.83707l83.374527,-27.67414c5.816827,-1.976724 10.664184,-6.918535 11.633655,-12.848708c0.969471,-8.895259 -4.847356,-16.802157 -12.603126,-17.790519l-99.855538,-15.813794l87.252412,-37.557762c7.75577,-2.965086 11.633655,-12.848708 7.75577,-20.755605c-1.938942,-4.941811 -5.816827,-7.906897 -10.664184,-8.895259l0,0l-72.710343,-17.790519l62.046159,-33.604313c3.877885,-1.976724 7.75577,-5.930173 8.725241,-9.883622c1.938942,-7.906897 -2.908414,-16.802157 -10.664184,-18.778881l-95.008181,-25.697416l85.313469,-39.534486c7.75577,-3.953449 10.664184,-12.848708 7.75577,-20.755605c-2.908414,-5.930173 -8.725241,-9.883622 -15.51154,-8.895259l0,0l0,0l-0.969471,0.988362z" class="fil10"/>
   <path stroke="null" id="svg_86" d="m4037.985827,-8275.201499c-27.145195,-241.160366 -705.775062,-184.823723 -700.927706,55.348281l26.175723,1391.613914l838.592622,0l-163.840639,-1446.962194z" class="fil11"/>
   <polygon stroke="null" id="svg_108" points="5047.205413818359,7500.046569824219 5080.167816162109,7500.046569824219 5080.167816162109,7473.361022949219 5047.205413818359,7473.361022949219 " class="fil0"/>
   <path stroke="null" id="svg_112" d="m4603.359752,3806.426021c310.230796,-169.998291 727.103429,-274.764679 1143.976062,-379.531067c673.782511,-169.998291 1349.503965,-339.996581 1492.985708,-763.015583l171.596409,60.290091c-175.474294,517.901769 -898.699839,699.760405 -1620.955912,881.619042c-406.208449,102.789664 -812.416898,204.590966 -1101.319328,362.728911l-85.313469,-163.079755l-0.969471,0.988362z" class="fil3"/>
   <path stroke="null" id="svg_113" d="m4755.566736,3920.087669c564.232261,-33.604313 856.043104,-322.206062 1153.670774,-616.737984c386.819024,-382.496154 782.36329,-774.875929 1735.353518,-710.632389l-12.603126,184.823723c-871.554644,-59.301729 -1238.984243,304.415544 -1596.719131,658.249195c-321.864451,319.240976 -637.912075,631.563417 -1270.007323,669.121179l-10.664184,-184.823723l0.969471,0z" class="fil12"/>
   <polygon stroke="null" id="svg_114" points="2322.1944274902344,5053.738952636719 3774.4622497558594,6396.923034667969 4019.7386169433594,6140.936706542969 3535.0030212402344,5120.947448730469 2228.1556091308594,4351.013610839844 " class="fil13"/>
   <polygon stroke="null" id="svg_115" points="4600.451507568359,3450.6154174804688 2661.5093688964844,4656.417175292969 3960.6009216308594,6098.437683105469 5254.845062255859,4371.769226074219 " class="fil14"/>
   <path stroke="null" id="svg_116" d="m2661.50886,4656.417474l-643.728903,755.108686l106.641836,556.447893l199.711075,149.242685l120.214434,-504.064699l571.988031,-563.366428l-491.521918,665.16773l-110.519721,549.529358l190.985834,114.65001l287.932958,-394.3565l474.071436,-545.575909l-350.948589,-389.414689l-354.826473,-393.368138zm1040.242639,1154.406996l-235.581511,498.134526l-394.574794,280.694852l184.199535,130.463804l375.185369,-154.184496l329.620221,-466.506937l-259.818292,-288.601749l-328.65075,440.809521l-397.483208,280.694852l-244.306752,-139.359064l312.169739,-386.449602l324.772865,-566.331515l334.467577,370.635808l0,0z" class="fil15"/>
   <path stroke="null" id="svg_117" d="m2523.843944,5714.953341l-110.519721,549.529358l190.985834,114.65001l287.932958,-394.3565l-368.399071,-269.822868zm-507.033458,-303.427181l426.567345,201.62588l-120.214434,504.064699l-199.711075,-149.242685l-106.641836,-556.447893l0,0zm1355.320792,839.119469l-397.483208,280.694852l-244.306752,-139.359064l312.169739,-386.449602l329.620221,245.113814l0,0zm93.069239,57.325005l-394.574794,280.694852l184.199535,130.463804l375.185369,-154.184496l-164.810111,-256.97416l0,0z" class="fil2"/>
   <polygon stroke="null" id="svg_118" points="4600.451507568359,3450.6154174804688 4957.217132568359,4358.920349121094 3960.6009216308594,6098.437683105469 5254.845062255859,4371.769226074219 " class="fil16"/>
   <path stroke="null" id="svg_119" d="m3037.663701,3209.455279c152.206985,-36.5694 295.688728,-27.67414 444.987299,27.67414c163.840639,60.290091 326.711808,120.580183 490.552447,180.870274c143.481743,53.371556 252.062522,141.335788 334.467577,273.776317c62.046159,99.824578 124.092319,198.660793 186.138478,298.485371c31.992551,36.5694 64.954573,73.138799 96.947124,109.708199c29.084137,33.604313 40.717792,75.115524 31.02308,119.591821c-9.694712,43.487935 -36.839907,77.092248 -77.557699,94.882767c-105.672365,45.464659 -222.978385,39.534486 -326.711808,-19.767243c-34.900965,-19.767243 -70.7714,-40.522848 -105.672365,-60.290091c-96.947124,-126.510356 -193.894248,-252.032349 -290.841372,-378.542705c-24.236781,1.976724 -47.504091,2.965086 -71.740872,4.941811c-22.297838,0.988362 -40.717792,15.813794 -48.473562,36.5694c-7.75577,21.743967 -1.938942,44.476297 14.542069,59.301729c9.694712,8.895259 19.389425,17.790519 29.084137,26.685778c-300.536084,186.800447 -782.36329,486.27418 -1082.899374,673.074627c-161.901697,189.765534 -177.413237,208.544415 -339.314934,398.309948c-171.596409,-275.753041 -307.322383,-493.192715 -479.888263,-768.945756c-427.536816,-660.225919 -1331.084011,-1087.19837 -1770.254482,-1432.136762c474.071436,-326.159511 785.271704,-822.317313 1259.343139,-1148.476824c251.093051,276.741403 1117.800339,1122.779408 1368.893389,1399.520811c88.221883,96.859491 211.34473,135.405615 337.375991,104.766388z" class="fil13"/>
   <path stroke="null" id="svg_120" d="m3701.7515,3896.366977c-7.75577,21.743967 -1.938942,44.476297 14.542069,59.301729c9.694712,8.895259 19.389425,17.790519 29.084137,26.685778l-959.776527,595.982379c89.191354,-279.70649 80.466113,-557.436255 -180.32165,-829.235848c263.696177,219.416398 567.140675,371.62417 1097.441443,146.277599l-0.969471,0.988362z" class="fil17"/>
   <path stroke="null" id="svg_121" d="m4957.216754,4830.369213c10.664184,30.639227 20.358896,60.290091 31.02308,90.929318c-7.75577,99.824578 21.328367,209.532777 -24.236781,298.485371c-40.717792,79.068972 -158.023812,87.964232 -210.375259,160.114669c-35.870436,50.40647 -5.816827,130.463804 -38.77885,182.846999c-58.168274,93.894405 -160.932226,84.999145 -215.222615,180.870274c-40.717792,72.150437 -3.877885,246.102176 -61.076688,305.403906c-70.7714,74.127162 -207.466845,39.534486 -285.024544,104.766388c-46.534619,38.546124 0,144.300875 -52.351447,175.928464c-103.733423,63.255178 -237.520454,48.429746 -355.795945,72.150437c36.839907,-51.394832 72.710343,-103.778026 109.55025,-155.172858c8.725241,-114.65001 -5.816827,-226.334933 -37.809378,-335.05477c-45.565148,-156.16122 139.603858,-363.717273 235.581511,-263.892695c4.847356,4.941811 10.664184,8.895259 18.419954,9.883622l14.542069,-205.579328c3.877885,-57.325005 13.572597,-110.696561 61.076688,-143.312512c11.633655,-7.906897 24.236781,-15.813794 35.870436,-23.720692c58.168274,-39.534486 135.725973,-29.650865 183.230064,23.720692c10.664184,12.848708 22.297838,24.709054 32.962022,37.557762c-9.694712,-103.778026 -20.358896,-206.56769 -30.053608,-310.345717c-8.725241,-85.987507 90.160825,-167.033204 172.565881,-147.265961c31.992551,7.906897 57.198803,26.685778 74.649285,55.348281c16.481011,27.67414 31.992551,54.359918 48.473562,82.034059c21.328367,-64.24354 43.626206,-128.48708 64.954573,-192.73062c13.572597,-39.534486 45.565148,-65.231902 86.28294,-68.196989c12.603126,-0.988362 26.175723,-1.976724 38.77885,-2.965086c46.534619,-3.953449 87.252412,23.720692 102.763951,68.196989z" class="fil13"/>
   <polygon stroke="null" id="svg_122" points="4600.451507568359,3450.6154174804688 7321.757659912109,2012.5485229492188 7482.689788818359,2466.2067260742188 4807.918792724609,3742.1825561523438 " class="fil18"/>
   <polygon stroke="null" id="svg_123" points="5047.378265380859,4079.2140502929688 7604.843109130859,2780.5057983398438 7949.974456787109,3341.8954467773438 5254.845062255859,4371.769226074219 " class="fil18"/>
   <polygon stroke="null" id="svg_124" points="7432.277191162109,2325.8591918945312 4773.017425537109,3693.7526245117188 4807.918792724609,3742.1825561523438 7482.689788818359,2466.2067260742188 " class="fil19"/>
   <polygon stroke="null" id="svg_125" points="5208.309906005859,4306.537292480469 7842.363128662109,3166.9555053710938 7949.974456787109,3341.8954467773438 5254.845062255859,4371.769226074219 " class="fil19"/>
   <path stroke="null" id="svg_126" d="m4664.43644,3472.359613l2664.106965,-1277.952266l-54.290389,-106.743113l-2609.816575,1384.695378zm437.231529,618.714709l2465.365361,-1231.499245l78.52717,139.359064l-2544.862002,1092.140181l0,0l0.969471,0z" class="fil20"/>
   <polygon stroke="null" id="svg_127" points="2044.9256286621094,5424.374694824219 2665.3872985839844,4722.637878417969 2169.9873962402344,5483.676452636719 " class="fil21"/>
   <polygon stroke="null" id="svg_128" points="2564.5623474121094,5747.569030761719 3026.0303649902344,5125.889831542969 2665.3872985839844,5818.731140136719 " class="fil21"/>
   <polygon stroke="null" id="svg_129" points="3075.4737243652344,6030.240417480469 3390.5518493652344,5541.989929199219 3184.0542907714844,6111.286804199219 " class="fil21"/>
   <polygon stroke="null" id="svg_130" points="3487.4988708496094,6342.562683105469 3730.8362731933594,5900.765319824219 3548.5755310058594,6436.457702636719 " class="fil21"/>
   <polygon stroke="null" id="svg_131" points="2044.9256286621094,5424.374694824219 2136.0557556152344,5935.358093261719 2169.9873962402344,5483.676452636719 " class="fil22"/>
   <polygon stroke="null" id="svg_132" points="2564.5623474121094,5747.569030761719 2451.1341247558594,6245.703796386719 2665.3872985839844,5818.731140136719 " class="fil22"/>
   <polygon stroke="null" id="svg_133" points="3075.4737243652344,6030.240417480469 2776.8765563964844,6388.027526855469 3184.0542907714844,6111.286804199219 " class="fil22"/>
   <polygon stroke="null" id="svg_134" points="3489.4378356933594,6345.528015136719 3115.2217712402344,6598.549011230469 3548.5755310058594,6436.457702636719 " class="fil22"/>
   <polygon stroke="null" id="svg_135" points="2323.1639099121094,6117.216979980469 2465.6761169433594,5870.126159667969 2541.2947692871094,5623.035339355469 2700.2881774902344,5475.769714355469 3016.3360290527344,5049.785827636719 2443.3782653808594,5613.152038574219 " class="fil23"/>
   <polygon stroke="null" id="svg_136" points="2730.3416442871094,6392.969421386719 2791.4185485839844,6238.784851074219 3010.5188903808594,5944.253601074219 3252.8868103027344,5569.664245605469 3366.3147888183594,5439.200378417969 3042.5113220214844,6006.519714355469 " class="fil23"/>
   <polygon stroke="null" id="svg_137" points="3524.3387145996094,6048.031433105469 3432.2391052246094,6266.459655761719 3125.8860778808594,6517.502624511719 3075.4737243652344,6591.630554199219 3465.2010192871094,6307.970886230469 3700.7825622558594,5810.824401855469 " class="fil23"/>
   <polygon stroke="null" id="svg_138" points="3840.3863220214844,4035.7260131835938 2810.8079528808594,4693.975280761719 3662.9732360839844,5595.361022949219 3014.3968200683594,4715.718933105469 " class="fil24"/>
  </g>
  <path d="m4950.032715,7288.864258c0,0 80.368164,1.324219 300.010254,-60.002441c140.243164,-39.157715 297.844727,-103.918945 440.015625,-180.006348c78.861816,-42.205566 150.408203,-86.476074 180.005859,-120.003906c47.725098,-54.0625 69.178711,-73.871582 80.00293,-100.003418c22.961914,-55.43457 0,-100.003418 0,-120.004395c0,-60.001953 9.611328,-100.77832 0,-160.005371c-10.130859,-62.430664 -41.134277,-78.353516 -100.003418,-120.004395c-81.636719,-57.759277 -157.576172,-89.87207 -220.007813,-100.003418c-39.484863,-6.407715 -100.003418,-20.000488 -160.005371,-20.000488c-40.001465,0 -60.001953,0 -100.003418,0c0,0 -20.000977,0 -20.000977,0l0,-40.001465l0,-20.000488l0,0" id="svg_139" fill-opacity="null" stroke-opacity="null" stroke-width="null" stroke="null" fill="none"/>
  <path stroke="null" d="m5750.060531,7968.883546c0,0 -20.074409,4.28826 -107.187959,-65.258024c-128.518,-102.601201 -241.400133,-281.317821 -571.670567,-478.560256c-244.303918,-145.902271 -495.560697,-299.01944 -786.046921,-413.301702c-193.822633,-76.253494 -372.69195,-140.858321 -482.346687,-174.021573c-105.462392,-31.895095 -196.511621,-43.505526 -267.970333,-65.258024c-71.45893,-21.753029 -178.647107,-43.505526 -285.835284,-43.505526c-125.052909,0 -286.920823,-10.599304 -464.482172,21.752498c-180.178812,32.828688 -320.666093,70.51174 -482.346905,108.76355c-106.671793,25.237273 -178.646889,21.753029 -196.511621,43.505526l-35.729465,0" id="svg_141" fill-opacity="0" stroke-opacity="null" stroke-width="null" fill="#000000"/>
  <rect id="svg_142" height="1500.052072" width="1960.068041" y="6448.834856" x="1169.901452" fill-opacity="0" stroke-opacity="null" stroke-width="null" stroke="null" fill="#000000"/>
  <rect stroke="null" id="svg_143" height="500.017357" width="3600.124974" y="7108.857768" x="3089.968104" fill-opacity="0" stroke-opacity="null" stroke-width="null" fill="#000000"/>
  <rect id="svg_144" height="600.020829" width="2420.08401" y="7008.854296" x="2109.934084" fill-opacity="0" stroke-opacity="null" stroke-width="null" stroke="null" fill="#000000"/>
  <rect id="svg_145" height="700.0243" width="1200.041658" y="568.630732" x="1869.925752" stroke-opacity="null" stroke-width="null" stroke="null" fill="none"/>
  <rect id="svg_146" height="700.0243" width="1200.041658" y="568.630732" x="1869.925752" stroke-opacity="null" stroke-width="null" stroke="null" fill="none"/>
  <rect id="svg_147" height="1100.038186" width="80.002777" y="828.639758" x="2289.940332" stroke-opacity="null" stroke-width="null" stroke="null" fill="none"/>
  <rect id="svg_148" height="700.0243" width="1200.041658" y="6868.849482" x="1669.918809" stroke-opacity="null" stroke-width="null" stroke="null" fill="none"/>
  <path id="svg_149" d="m2289.940332,7188.860545c1040.036104,-460.015969 2440.084704,960.033326 2430.223616,951.422196c9.861089,8.61113 -3370.256248,308.621544 -3380.117404,300.01042" opacity="0.5" fill-opacity="0" stroke-opacity="null" stroke-width="null" stroke="null" fill="#000000"/>
  <path id="svg_150" d="m2369.943109,7348.866099" opacity="0.5" fill-opacity="0" stroke-opacity="0" stroke-width="null" stroke="#000000" fill="#000000"/>
 </g>
 <g>
  <title>Layer 2</title>
  <rect fill="none" y="0" x="0" height="100%" width="100%" id="backgroundrect"/>
 </g>
 <g>
  <title>background</title>
  <rect fill="none" id="canvas_background" height="8012" width="8012" y="-1" x="-1"/>
 </g>
</svg>
