<svg xmlns="http://www.w3.org/2000/svg" xmlns:xlink="http://www.w3.org/1999/xlink" data-name="Layer 1" width="1180" height="1180" style=""><rect id="backgroundrect" width="100%" height="100%" x="0" y="0" fill="none" stroke="none" class="" style=""/><defs><linearGradient id="e61bd437-9da2-4863-9545-c2af53c0a537" x1="0.5000460147857666" y1="1" x2="0.5000460147857666" y2="0"><stop offset="0" stop-color="gray" stop-opacity="0.25"/><stop offset="0.54" stop-color="gray" stop-opacity="0.12"/><stop offset="1" stop-color="gray" stop-opacity="0.1"/></linearGradient><linearGradient id="10ef4d3d-1e97-4021-86f6-ed4174e2acc5" x1="843.9099731445312" y1="397.30999755859375" x2="843.9099731445312" y2="115.79000091552734" xlink:href="#e61bd437-9da2-4863-9545-c2af53c0a537"/><linearGradient id="7562a594-e7f2-488a-b294-03a8761f4adc" x1="779.0399780273438" y1="396.82000732421875" x2="779.0399780273438" y2="308.92999267578125" xlink:href="#e61bd437-9da2-4863-9545-c2af53c0a537"/><linearGradient id="02021a5a-8b4c-4a8f-a82b-baff5e596802" x1="830.3099975585938" y1="396.82000732421875" x2="830.3099975585938" y2="308.92999267578125" xlink:href="#e61bd437-9da2-4863-9545-c2af53c0a537"/><linearGradient id="dd623d78-3bb6-4132-be49-2e425533c027" x1="969.1400146484375" y1="556.3099975585938" x2="969.1400146484375" y2="137.1199951171875" xlink:href="#e61bd437-9da2-4863-9545-c2af53c0a537"/><linearGradient id="55adf8d3-7ffb-491e-9308-2cd46ab42596" x1="355.6600036621094" y1="691.6699829101562" x2="355.6600036621094" y2="298.9800109863281" xlink:href="#e61bd437-9da2-4863-9545-c2af53c0a537"/></defs><title>firmware</title><g class="currentLayer" style=""><title>Layer 1</title><path d="M1087.4766661834717,672.9555392456055 c-37.66,47.88 -23,117.84 0.9,173.86 c8,18.76 17.08,38.6 13.7,58.72 c-4.13,24.6 -26.09,42.58 -49.14,52.12 c-42,17.38 -92.3,13.24 -130.91,-10.78 c-33.36,-20.76 -57.26,-54.51 -91.19,-74.32 C774.0066661834717,839.3855392456055 701.7666661834717,851.9055392456055 640.1066661834717,874.7455392456054 c-43.63,16.16 -91.32,37.17 -134.67,20.28 c-30.5,-11.88 -51.59,-40.8 -63.08,-71.45 c-5.55,-14.8 -9.57,-30.82 -20.16,-42.55 c-6.3,-7 -14.51,-11.92 -22.93,-16.1 c-76.87,-38.11 -174,-17.7 -248.63,-60 c-50.43,-28.55 -82.71,-82.41 -97,-138.56 s-12.63,-115 -9,-172.88 c2.58,-41.1 7.21,-85 33.47,-116.7 c27.78,-33.56 75.46,-46 118.55,-39.66 s82.16,29.11 116.52,55.88 c42.95,33.46 82.78,75.13 135.51,88.69 c35.91,9.23 73.69,4.18 110.72,2.43 c61.92,-2.92 123.86,3.58 185.43,10.7 c58.95,6.8100000000000005 118.32,14.31 174.48,33.49 c39.74,13.57 71.6,38.2 109.13,55.41 c24.46,11.22 51.13,14.31 74.29,28.6 c28.53,17.6 54.68,48.21 47.37,84 C1143.1566661834718,630.4555392456055 1107.4666661834717,647.5355392456055 1087.4766661834717,672.9555392456055 z" fill="#00a779" opacity="0.1" id="svg_1" class=""/><path d="M650.6766661834716,664.4755392456054 c-3.42,3.42 -4.2,8.12 -5.41,12.48 c-3.47,12.44 -11.63,23.92 -23,32.35 c-8.33,6.18 -19.51,13 -17.53,22.23 c0.4700000000000001,2.2 1.7200000000000002,4.26 2,6.48 c1.42,9.61 -13.27,14.67 -19,23.08 c-4.24,6.26 -3.1,14 -1.85,21.16 c1.54,8.73 3.41,18.05 10.57,24.48 c1.9300000000000002,1.73 4.24,3.24 5.59,5.33 c3,4.69 0.4,10.83 3.14,15.64 c3.66,6.41 15.2,6.69 21.9,2.37 s9.79,-11.43 12.76,-18.09 c8,-18 17.88,-36.07 34.55,-49.19 c16,-12.57 39.23,-22.33 42,-40.63 c1.18,-7.85 -1.8,-16.45 2.75,-23.36 c2.15,-3.27 5.74,-5.69 8.18,-8.81 c7.25,-9.3 1.85,-22.75 -8.76,-29.36 C702.5766661834717,650.6755392456055 664.6166661834717,650.5155392456054 650.6766661834716,664.4755392456054 z" fill="#dee3f3" opacity="0.5" id="svg_2" class=""/><ellipse cx="844.0266513824463" cy="626.3955383300781" rx="155.02999877929688" ry="26.040000915527344" fill="#dee3f3" opacity="0.5" id="svg_3" class=""/><polygon points="868.4866733551025,525.6455383300781 879.9966831207275,525.6455383300781 879.9966831207275,518.5155334472656 879.9966831207275,517.2755432128906 785.826639175415,517.2755432128906 785.826639175415,518.5155334472656 785.826639175415,525.6455383300781 797.33664894104,525.6455383300781 797.33664894104,534.0155334472656 778.4966831207275,534.0155334472656 778.4966831207275,544.4755554199219 887.326639175415,544.4755554199219 887.326639175415,534.0155334472656 868.4866733551025,534.0155334472656 868.4866733551025,525.6455383300781 " fill="url(#e61bd437-9da2-4863-9545-c2af53c0a537)" id="svg_4" class=""/><path d="M945.5866661834717,533.3055392456055 h0 a142,142 0 0 0 -0.6000000000000002,-29.31 A79.66,79.66 0 0 0 938.2666661834717,480.18553924560547 C932.2066661834717,467.4855392456055 923.5766661834717,460.58553924560545 916.0066661834717,456.8455392456055 a41.89,41.89 0 0 0 -16.29,-4.44 a7.32,7.32 0 0 0 -14.48,0 V433.5555392456055 H845.4666661834717 V423.09553924560544 H899.0066661834717 a6.06,6.06 0 0 0 6.06,-6.06 V362.18553924560547 a6.06,6.06 0 0 0 -6.06,-6.06 H878.7066661834717 V302.06553924560546 a8.16,8.16 0 0 0 4.8,-7.44 c0,-0.08000000000000003 0,-0.16000000000000006 0,-0.24000000000000005 s0,-0.16000000000000006 0,-0.24000000000000005 a8.17,8.17 0 0 0 -16.33,0 c0,0.08000000000000003 0,0.16000000000000006 0,0.24000000000000005 s0,0.16000000000000006 0,0.24000000000000005 a8.16,8.16 0 0 0 4.32,7.21 v54.29 H796.0766661834717 V301.83553924560545 a8.16,8.16 0 0 0 4.32,-7.21 c0,-0.08000000000000003 0,-0.16000000000000006 0,-0.24000000000000005 s0,-0.16000000000000006 0,-0.24000000000000005 a8.17,8.17 0 0 0 -16.33,0 c0,0.08000000000000003 0,0.16000000000000006 0,0.24000000000000005 s0,0.16000000000000006 0,0.24000000000000005 a8.16,8.16 0 0 0 4.8,7.44 v54.06 H766.7766661834717 a6.06,6.06 0 0 0 -6.06,6.06 v54.84 a6.06,6.06 0 0 0 6.06,6.06 h53.58 v10.46 H780.5966661834717 v15.42 a7.3100000000000005,7.3100000000000005 0 0 0 -1.58,-2.63 l-0.17,-0.18000000000000005 a7.32,7.32 0 0 0 -12.5,5.18 v1 a41.12,41.12 0 0 0 -16.52,4.45 c-7.58,3.75 -16.2,10.65 -22.26,23.36 a79.66,79.66 0 0 0 -6.72,23.79 a142,142 0 0 0 -0.6000000000000002,29.31 c-16.79,13.94 4.24,34.19 4.24,34.19 c17.23,0 16.84,-28.6 16.65,-33.48 h0.09000000000000004 s0,-0.24000000000000005 -0.12000000000000002,-0.6900000000000004 v0 h0 a107.13,107.13 0 0 1 -1,-24.16 a61.7,61.7 0 0 1 4.08,-18.54 a32.91,32.91 0 0 1 8.28,-12.15 a28.31,28.31 0 0 1 13.91,-6.71 v4.71 a7.32,7.32 0 0 0 14.25,2.37 v38.44 H885.2366661834717 V479.62553924560547 a7.3100000000000005,7.3100000000000005 0 0 0 1.86,3.9 l0.2,0.21000000000000005 a7.32,7.32 0 0 0 12.5,-5.18 v-6.74 a28.24,28.24 0 0 1 13.6,6.6400000000000015 a32.91,32.91 0 0 1 8.28,12.15 A61.7,61.7 0 0 1 925.7666661834717,509.18553924560547 a107.13,107.13 0 0 1 -1,24.16 h0 v0 c-0.07,0.45 -0.12000000000000002,0.6900000000000004 -0.12000000000000002,0.6900000000000004 h0.09000000000000004 c-0.19000000000000006,4.88 -0.5700000000000002,33.48 16.65,33.48 C941.3466661834717,567.4955392456054 962.3766661834717,547.2455392456054 945.5866661834717,533.3055392456055 z" fill="url(#10ef4d3d-1e97-4021-86f6-ed4174e2acc5)" id="svg_5" class=""/><polygon points="783.7366733551025,545.445556640625 783.7366733551025,554.945556640625 796.2866611480713,554.945556640625 796.2866611480713,569.5955505371094 796.2866611480713,569.5955505371094 796.2866611480713,582.1455383300781 796.2866611480713,600.9855346679688 796.2866611480713,611.445556640625 796.2866611480713,617.7255554199219 781.6366367340088,617.7255554199219 781.6366367340088,632.3755493164062 821.4066562652588,632.3755493164062 821.4066562652588,617.7255554199219 815.12668800354,617.7255554199219 815.12668800354,611.445556640625 815.12668800354,611.445556640625 815.12668800354,600.9855346679688 815.12668800354,600.9855346679688 815.12668800354,582.1455383300781 815.12668800354,582.1455383300781 815.12668800354,569.5955505371094 815.12668800354,569.5955505371094 815.12668800354,554.945556640625 829.7766513824463,554.945556640625 829.7766513824463,545.445556640625 829.7766513824463,544.4855346679688 783.7366733551025,544.4855346679688 783.7366733551025,545.445556640625 " fill="url(#7562a594-e7f2-488a-b294-03a8761f4adc)" id="svg_6" class=""/><polygon points="833.9566440582275,545.445556640625 833.9566440582275,554.945556640625 852.7966709136963,554.945556640625 852.7966709136963,569.5955505371094 852.7966709136963,569.5955505371094 852.7966709136963,582.1455383300781 852.7966709136963,600.9855346679688 852.7966709136963,611.445556640625 852.7966709136963,617.7255554199219 838.1466464996338,617.7255554199219 838.1466464996338,632.3755493164062 877.9066562652588,632.3755493164062 877.9066562652588,617.7255554199219 871.62668800354,617.7255554199219 871.62668800354,611.445556640625 871.62668800354,600.9855346679688 871.62668800354,582.1455383300781 871.62668800354,569.5955505371094 871.62668800354,569.5955505371094 871.62668800354,554.945556640625 879.9966831207275,554.945556640625 879.9966831207275,545.445556640625 879.9966831207275,544.4855346679688 833.9566440582275,544.4855346679688 833.9566440582275,545.445556640625 " fill="url(#02021a5a-8b4c-4a8f-a82b-baff5e596802)" id="svg_7" class=""/><rect x="762.6566562652588" y="358.9055404663086" width="140.50999450683594" height="65.16000366210938" rx="12.970000267028809" ry="12.970000267028809" fill="#00a779" id="svg_8" class=""/><rect x="773.85666847229" y="414.06553649902344" width="118.11000061035156" height="1.2200000286102295" opacity="0.1" id="svg_9" class=""/><rect x="773.85666847229" y="369.0855407714844" width="118.11000061035156" height="44.79999923706055" opacity="0.3" id="svg_10" class=""/><circle cx="801.346658706665" cy="392.425537109375" r="16.290000915527344" opacity="0.1" id="svg_11" class=""/><circle cx="801.346658706665" cy="391.48553466796875" r="16.290000915527344" fill="#dee3f3" id="svg_12" class=""/><circle cx="864.4766635894775" cy="392.425537109375" r="16.290000915527344" opacity="0.1" id="svg_13" class=""/><circle cx="864.4766635894775" cy="391.48553466796875" r="16.290000915527344" fill="#dee3f3" id="svg_14" class=""/><rect x="820.6966953277588" y="424.06553649902344" width="24.43000030517578" height="14.260000228881836" fill="#00a779" id="svg_15" class=""/><rect x="782.0066928863525" y="434.2555389404297" width="101.81999969482422" height="81.44999694824219" fill="#00a779" id="svg_16" class=""/><polygon points="878.7266635894775,515.7055358886719 878.7266635894775,523.8455505371094 867.5266513824463,523.8455505371094 867.5266513824463,531.9955444335938 798.2966709136963,531.9955444335938 798.2966709136963,523.8455505371094 787.096658706665,523.8455505371094 787.096658706665,515.7055358886719 878.7266635894775,515.7055358886719 " fill="#00a779" id="svg_17" class=""/><polygon points="878.7266635894775,515.7055358886719 878.7266635894775,523.8455505371094 867.5266513824463,523.8455505371094 867.5266513824463,531.9955444335938 798.2966709136963,531.9955444335938 798.2966709136963,523.8455505371094 787.096658706665,523.8455505371094 787.096658706665,515.7055358886719 878.7266635894775,515.7055358886719 " opacity="0.3" id="svg_18" class=""/><rect x="779.9666538238525" y="531.9955444335938" width="105.88999938964844" height="10.180000305175781" fill="#00a779" id="svg_19" class=""/><rect x="785.0566806793213" y="542.175537109375" width="44.79999923706055" height="10.180000305175781" fill="#00a779" id="svg_20" class=""/><rect x="833.9366855621338" y="542.175537109375" width="44.79999923706055" height="10.180000305175781" fill="#00a779" id="svg_21" class=""/><rect x="783.0266513824463" y="613.445556640625" width="38.689998626708984" height="14.25" fill="#00a779" id="svg_22" class=""/><polygon points="797.2766513824463,566.6155395507812 797.2766513824463,578.8255310058594 797.2766513824463,597.1555480957031 797.2766513824463,607.3355407714844 797.2766513824463,613.445556640625 815.60666847229,613.445556640625 815.60666847229,607.3355407714844 815.60666847229,597.1555480957031 815.60666847229,578.8255310058594 815.60666847229,566.6155395507812 815.60666847229,552.3555297851562 797.2766513824463,552.3555297851562 797.2766513824463,566.6155395507812 " fill="#00a779" id="svg_23" class=""/><polygon points="852.2566928863525,552.3555297851562 852.2566928863525,566.6155395507812 852.2566928863525,578.8255310058594 852.2566928863525,597.1555480957031 852.2566928863525,607.3355407714844 852.2566928863525,613.445556640625 870.58664894104,613.445556640625 870.58664894104,607.3355407714844 870.58664894104,597.1555480957031 870.58664894104,578.8255310058594 870.58664894104,566.6155395507812 870.58664894104,552.3555297851562 852.2566928863525,552.3555297851562 " fill="#00a779" id="svg_24" class=""/><rect x="838.0066928863525" y="613.445556640625" width="38.689998626708984" height="14.25" fill="#00a779" id="svg_25" class=""/><path d="M782.3966661834717,451.5555392456055 v24.43 c0,0.18000000000000005 0,0.3700000000000001 0,0.55 a7.13,7.13 0 0 1 -14.23,-0.55 V451.5555392456055 a7.12,7.12 0 0 1 12.16,-5 l0.17,0.17 a7.1,7.1 0 0 1 1.9,4.32 C782.3866661834717,451.18553924560547 782.3966661834717,451.37553924560547 782.3966661834717,451.5555392456055 z" fill="#00a779" id="svg_26" class=""/><path d="M898.0066661834717,453.58553924560545 v24.44 a7.12,7.12 0 0 1 -12.16,5 l-0.2,-0.21000000000000005 a7.11,7.11 0 0 1 -1.8900000000000001,-4.83 V453.58553924560545 a7.13,7.13 0 0 1 14.25,0 z" fill="#00a779" id="svg_27" class=""/><path d="M768.1366661834717,452.57553924560546 v18.83 a27.55,27.55 0 0 0 -13.54,6.53 a32,32 0 0 0 -8.06,11.82 a60,60 0 0 0 -4,18 a103.14,103.14 0 0 0 1.13,24.2 H723.3366661834717 a139,139 0 0 1 0.53,-29.21 a77.51,77.51 0 0 1 6.54,-23.15 c5.9,-12.37 14.29,-19.09 21.66,-22.73 A40,40 0 0 1 768.1366661834717,452.57553924560546 z" fill="#00a779" id="svg_28" class=""/><path d="M727.4066661834717,564.5755392456055 s-20.46,-19.7 -4.12,-33.27 h20.29 S745.7366661834717,564.5755392456055 727.4066661834717,564.5755392456055 z" fill="#00a779" id="svg_29" class=""/><path d="M727.4066661834717,564.5755392456055 s-20.46,-19.7 -4.12,-33.27 h20.29 S745.7366661834717,564.5755392456055 727.4066661834717,564.5755392456055 z" opacity="0.3" id="svg_30" class=""/><rect x="798.2966709136963" y="446.4655456542969" width="69.2300033569336" height="52.939998626708984" opacity="0.3" id="svg_31" class=""/><rect x="797.2766513824463" y="552.3555297851562" width="18.329999923706055" height="14.25" opacity="0.3" id="svg_32" class=""/><rect x="797.2766513824463" y="578.8255310058594" width="18.329999923706055" height="18.329999923706055" opacity="0.3" id="svg_33" class=""/><rect x="797.2766513824463" y="607.3355407714844" width="18.329999923706055" height="6.110000133514404" opacity="0.3" id="svg_34" class=""/><rect x="852.2566928863525" y="552.3555297851562" width="18.329999923706055" height="14.25" opacity="0.3" id="svg_35" class=""/><rect x="852.2566928863525" y="578.8255310058594" width="18.329999923706055" height="18.329999923706055" opacity="0.3" id="svg_36" class=""/><rect x="852.2566928863525" y="607.3355407714844" width="18.329999923706055" height="6.110000133514404" opacity="0.3" id="svg_37" class=""/><path d="M768.1366661834717,452.57553924560546 v18.83 a27.55,27.55 0 0 0 -13.54,6.53 l-2.5300000000000002,-21 A40,40 0 0 1 768.1366661834717,452.57553924560546 z" opacity="0.3" id="svg_38" class=""/><path d="M746.5466661834716,489.75553924560546 a60,60 0 0 0 -4,18 l-18.7,-5 a77.51,77.51 0 0 1 6.54,-23.15 z" opacity="0.3" id="svg_39" class=""/><path d="M897.6866661834716,452.57553924560546 v18.83 a27.55,27.55 0 0 1 13.54,6.53 a32,32 0 0 1 8.06,11.82 a60,60 0 0 1 4,18 a103.14,103.14 0 0 1 -1.13,24.2 h20.36 A139,139 0 0 0 942.0066661834717,502.7855392456055 a77.51,77.51 0 0 0 -6.54,-23.15 c-5.9,-12.37 -14.29,-19.09 -21.66,-22.73 A40,40 0 0 0 897.6866661834716,452.57553924560546 z" fill="#00a779" id="svg_40" class=""/><path d="M938.4166661834716,564.5755392456055 s20.46,-19.7 4.12,-33.27 H922.2466661834717 S920.0866661834717,564.5755392456055 938.4166661834716,564.5755392456055 z" fill="#00a779" id="svg_41" class=""/><path d="M938.4166661834716,564.5755392456055 s20.46,-19.7 4.12,-33.27 H922.2466661834717 S920.0866661834717,564.5755392456055 938.4166661834716,564.5755392456055 z" opacity="0.3" id="svg_42" class=""/><path d="M897.6866661834716,452.57553924560546 v18.83 a27.55,27.55 0 0 1 13.54,6.53 l2.5300000000000002,-21 A40,40 0 0 0 897.6866661834716,452.57553924560546 z" opacity="0.3" id="svg_43" class=""/><path d="M919.2866661834717,489.75553924560546 a60,60 0 0 1 4,18 l18.7,-5 a77.51,77.51 0 0 0 -6.54,-23.15 z" opacity="0.3" id="svg_44" class=""/><rect x="820.6966953277588" y="424.06553649902344" width="24.43000030517578" height="1.690000057220459" opacity="0.1" id="svg_45" class=""/><path d="M885.6266661834717,448.76553924560545 v34.1 a7.11,7.11 0 0 1 -1.8900000000000001,-4.83 V453.58553924560545 A7.09,7.09 0 0 1 885.6266661834717,448.76553924560545 z" opacity="0.1" id="svg_46" class=""/><path d="M782.3666661834717,451.00553924560546 v25.53 a7.1,7.1 0 0 1 -1.9,4.32 V446.68553924560547 A7.1,7.1 0 0 1 782.3666661834717,451.00553924560546 z" opacity="0.1" id="svg_47" class=""/><rect x="787.096658706665" y="515.7055358886719" width="91.62999725341797" height="1.2100000381469727" opacity="0.1" id="svg_48" class=""/><rect x="785.0566806793213" y="542.175537109375" width="44.79999923706055" height="0.9300000071525574" opacity="0.1" id="svg_49" class=""/><rect x="833.9366855621338" y="542.175537109375" width="44.79999923706055" height="0.9300000071525574" opacity="0.1" id="svg_50" class=""/><rect x="790.0566806793213" y="298.60554122924805" width="7.010000228881836" height="60.29999923706055" fill="#00a779" id="svg_51" class=""/><rect x="870.4566440582275" y="298.60554122924805" width="7.010000228881836" height="60.29999923706055" fill="#00a779" id="svg_52" class=""/><circle cx="793.326639175415" cy="299.0755424499512" r="7.949999809265137" opacity="0.1" id="svg_53" class=""/><circle cx="793.326639175415" cy="298.60554122924805" r="7.949999809265137" fill="#00a779" id="svg_54" class=""/><circle cx="874.1966953277588" cy="299.0755424499512" r="7.949999809265137" opacity="0.1" id="svg_55" class=""/><circle cx="874.1966953277588" cy="298.60554122924805" r="7.949999809265137" fill="#00a779" id="svg_56" class=""/><path d="M625.5666661834716,483.33553924560545 s23.26,45.65 4.3100000000000005,70.63 s1.7200000000000002,93 1.7200000000000002,93 " fill="none" stroke="#fc6681" stroke-miterlimit="10" stroke-width="2" id="svg_57" class=""/><path d="M632.4566661834717,469.12553924560547 c0,8.8 -6.46,15.93 -6.46,15.93 s-6.46,-7.13 -6.46,-15.93 S626.0066661834717,453.18553924560547 626.0066661834717,453.18553924560547 S632.4566661834717,460.32553924560546 632.4566661834717,469.12553924560547 z" fill="#fc6681" id="svg_58" class=""/><path d="M637.6266661834717,483.33553924560545 s-23.26,45.65 -4.3100000000000005,70.63 s-1.7200000000000002,93 -1.7200000000000002,93 " fill="none" stroke="#ffd037" stroke-miterlimit="10" stroke-width="2" id="svg_59" class=""/><path d="M630.7366661834717,469.12553924560547 c0,8.8 6.46,15.93 6.46,15.93 s6.46,-7.13 6.46,-15.93 S637.1966661834717,453.18553924560547 637.1966661834717,453.18553924560547 S630.7366661834717,460.32553924560546 630.7366661834717,469.12553924560547 z" fill="#ffd037" id="svg_60" class=""/><path d="M647.0966661834717,483.33553924560545 s23.26,45.65 4.3100000000000005,70.63 s1.7200000000000002,93 1.7200000000000002,93 " fill="none" stroke="#fc6681" stroke-miterlimit="10" stroke-width="2" id="svg_61" class=""/><path d="M654.0066661834717,469.12553924560547 c0,8.8 -6.46,15.93 -6.46,15.93 s-6.46,-7.13 -6.46,-15.93 S647.5266661834717,453.18553924560547 647.5266661834717,453.18553924560547 S654.0066661834717,460.32553924560546 654.0066661834717,469.12553924560547 z" fill="#fc6681" id="svg_62" class=""/><path d="M650.3666661834717,505.70553924560545 c-6.1,6.34 -15.7,7 -15.7,7 s0.2900000000000001,-9.620000000000001 6.39,-16 s15.7,-7 15.7,-7 S656.4666661834717,499.3555392456055 650.3666661834717,505.70553924560545 z" fill="#fc6681" id="svg_63" class=""/><path d="M651.0066661834717,537.1855392456055 c-6.1,6.34 -15.7,7 -15.7,7 s0.2900000000000001,-9.620000000000001 6.39,-16 s15.7,-7 15.7,-7 S657.0766661834717,530.8555392456055 651.0066661834717,537.1855392456055 z" fill="#fc6681" id="svg_64" class=""/><path d="M617.8866661834717,554.5255392456054 c5.77,6.65 5.57,16.27 5.57,16.27 s-9.55,-1.15 -15.32,-7.8 s-5.57,-16.27 -5.57,-16.27 S612.1166661834717,547.8755392456055 617.8866661834717,554.5255392456054 z" fill="#fc6681" id="svg_65" class=""/><path d="M623.2366661834717,487.3655392456055 c7.34,4.86 9.71,14.19 9.71,14.19 s-9.52,1.44 -16.85,-3.42 s-9.71,-14.19 -9.71,-14.19 S615.9066661834717,482.49553924560547 623.2366661834717,487.3655392456055 z" fill="#fc6681" id="svg_66" class=""/><path d="M659.1566661834717,483.33553924560545 s-23.26,45.65 -4.3100000000000005,70.63 s-1.7200000000000002,93 -1.7200000000000002,93 " fill="none" stroke="#ffd037" stroke-miterlimit="10" stroke-width="2" id="svg_67" class=""/><path d="M652.2666661834717,469.12553924560547 c0,8.8 6.46,15.93 6.46,15.93 s6.46,-7.13 6.46,-15.93 S658.7266661834717,453.18553924560547 658.7266661834717,453.18553924560547 S652.2666661834717,460.32553924560546 652.2666661834717,469.12553924560547 z" fill="#ffd037" id="svg_68" class=""/><path d="M654.1266661834717,506.37553924560547 c-6.18,6.27 -6.58,15.88 -6.58,15.88 s9.61,-0.55 15.79,-6.82 s6.58,-15.88 6.58,-15.88 S660.2966661834716,500.1155392456055 654.1266661834717,506.37553924560547 z" fill="#ffd037" id="svg_69" class=""/><path d="M666.2366661834717,549.9855392456054 c-6.18,6.27 -6.58,15.88 -6.58,15.88 s9.61,-0.55 15.79,-6.82 S682.0066661834717,543.1855392456055 682.0066661834717,543.1855392456055 S672.4166661834716,543.7155392456054 666.2366661834717,549.9855392456054 z" fill="#ffd037" id="svg_70" class=""/><path d="M648.4166661834716,540.3955392456055 s14,-22.07 33.65,-22.54 " fill="none" stroke="#ffd037" stroke-miterlimit="10" stroke-width="2" id="svg_71" class=""/><path d="M637.5166661834717,527.0755392456055 s-14,-22.07 -33.65,-22.54 " fill="none" stroke="#fc6681" stroke-miterlimit="10" stroke-width="2" id="svg_72" class=""/><path d="M635.6966661834717,558.5655392456055 s14,-22.07 33.65,-22.54 " fill="none" stroke="#ffd037" stroke-miterlimit="10" stroke-width="2" id="svg_73" class=""/><circle cx="681.4166660308838" cy="517.695556640625" r="3.630000114440918" fill="#ffd037" id="svg_74" class=""/><circle cx="604.2066440582275" cy="504.675537109375" r="3.630000114440918" fill="#fc6681" id="svg_75" class=""/><path d="M646.0066661834717,565.8355392456054 s-14,-22.07 -33.65,-22.54 " fill="none" stroke="#fc6681" stroke-miterlimit="10" stroke-width="2" id="svg_76" class=""/><circle cx="612.6866855621338" cy="543.435546875" r="3.630000114440918" fill="#fc6681" id="svg_77" class=""/><circle cx="669.60666847229" cy="536.16552734375" r="3.630000114440918" fill="#ffd037" id="svg_78" class=""/><path d="M723.3666661834717,620.4755392456054 s-33.73,-6.75 -42.73,-15.74 s-49.48,-24.74 -54,-13.49 s-60.72,49.48 -22.49,56.22 s90,9 101.2,4.5 S723.3666661834717,620.4755392456054 723.3666661834717,620.4755392456054 z" fill="#a8a8a8" id="svg_79" class=""/><path d="M604.1766661834716,643.2855392456055 c38.23,6.75 90,9 101.2,4.5 c8.56,-3.43 14.51,-19.88 16.87,-27.54 l1.12,0.23 s-6.75,27 -18,31.48 s-63,2.25 -101.2,-4.5 c-11,-1.9500000000000002 -14.19,-6.52 -13,-12.31 C592.1166661834717,638.9355392456055 596.0066661834717,641.8355392456054 604.1766661834716,643.2855392456055 z" opacity="0.2" id="svg_80" class=""/><path d="M1087.7166661834717,491.39553924560545 s8.08,10.57 -3.73,26.53 s-21.55,29.43 -17.62,39.38 c0,0 17.82,-29.64 32.33,-30.05 S1103.6766661834718,509.18553924560547 1087.7166661834717,491.39553924560545 z" fill="#fc6681" id="svg_81" class=""/><path d="M1087.7166661834717,491.39553924560545 a13.09,13.09 0 0 1 1.6500000000000004,3.31 c14.15,16.63 21.7,32.15 8.09,32.54 c-12.67,0.3600000000000001 -27.88,23 -31.52,28.75 a12.28,12.28 0 0 0 0.4300000000000001,1.3 s17.82,-29.64 32.33,-30.05 S1103.6766661834718,509.18553924560547 1087.7166661834717,491.39553924560545 z" opacity="0.1" id="svg_82" class=""/><path d="M1102.7366661834717,504.8655392456055 c0,3.72 -0.4200000000000001,6.74 -0.93,6.74 s-0.93,-3 -0.93,-6.74 s0.52,-2 1,-2 S1102.7366661834717,501.18553924560547 1102.7366661834717,504.8655392456055 z" fill="#ffd037" id="svg_83" class=""/><path d="M1107.8966661834718,509.3055392456055 c-3.27,1.78 -6.11,2.8600000000000003 -6.36,2.4 s2.2,-2.26 5.47,-4 s2,-0.4800000000000001 2.22,0 S1111.1666661834718,507.52553924560544 1107.8966661834718,509.3055392456055 z" fill="#ffd037" id="svg_84" class=""/><path d="M1045.0066661834717,491.39553924560545 s-8.08,10.57 3.73,26.53 s21.55,29.43 17.62,39.38 c0,0 -17.82,-29.64 -32.33,-30.05 S1029.0666661834716,509.18553924560547 1045.0066661834717,491.39553924560545 z" fill="#fc6681" id="svg_85" class=""/><path d="M1045.0066661834717,491.39553924560545 a13.09,13.09 0 0 0 -1.6500000000000004,3.31 c-14.15,16.63 -21.7,32.15 -8.09,32.54 c12.67,0.3600000000000001 27.88,23 31.52,28.75 a12.28,12.28 0 0 1 -0.4300000000000001,1.3 s-17.82,-29.64 -32.33,-30.05 S1029.0666661834716,509.18553924560547 1045.0066661834717,491.39553924560545 z" opacity="0.1" id="svg_86" class=""/><path d="M1030.0066661834717,504.8655392456055 c0,3.72 0.4200000000000001,6.74 0.93,6.74 s0.93,-3 0.93,-6.74 s-0.52,-2 -1,-2 S1030.0066661834717,501.18553924560547 1030.0066661834717,504.8655392456055 z" fill="#ffd037" id="svg_87" class=""/><path d="M1024.8366661834716,509.3055392456055 c3.27,1.78 6.11,2.8600000000000003 6.36,2.4 s-2.2,-2.26 -5.47,-4 s-2,-0.4800000000000001 -2.22,0 S1021.5766661834716,507.52553924560544 1024.8366661834716,509.3055392456055 z" fill="#ffd037" id="svg_88" class=""/><path d="M1032.5666661834716,555.9255392456055 s22.6,-0.7000000000000002 29.41,-5.55 s34.76,-10.64 36.45,-2.8600000000000003 s34,38.68 8.45,38.89 s-59.28,-4 -66.08,-8.11 S1032.5666661834716,555.9255392456055 1032.5666661834716,555.9255392456055 z" fill="#a8a8a8" id="svg_89" class=""/><path d="M1107.3366661834716,583.6955392456055 c-25.51,0.21000000000000005 -59.28,-4 -66.08,-8.11 c-5.18,-3.15 -7.24,-14.47 -7.93,-19.69 l-0.7500000000000002,0 s1.4300000000000002,18.23 8.23,22.37 s40.57,8.32 66.08,8.11 c7.36,-0.06000000000000002 9.91,-2.68 9.77,-6.5600000000000005 C1115.6266661834716,582.1855392456055 1112.8166661834716,583.6555392456055 1107.3366661834716,583.6955392456055 z" opacity="0.2" id="svg_90" class=""/><rect x="849.7466220855713" y="619.945556640625" width="74" height="9" transform="rotate(-17.350000381469727 -21.92333412170417,449.1555480957031) " fill="#00a779" id="svg_91" class=""/><path d="M963.0966661834717,664.4955392456054 s-38.72,-7.74 -49.05,-18.07 s-56.79,-28.4 -62,-15.49 s-69.7,56.79 -25.82,64.54 s103.26,10.33 116.17,5.16 S963.0966661834717,664.4955392456054 963.0966661834717,664.4955392456054 z" fill="#a8a8a8" id="svg_92" class=""/><path d="M826.2666661834717,690.6755392456055 c43.89,7.74 103.26,10.33 116.17,5.16 c9.83,-3.93 16.66,-22.82 19.36,-31.62 l1.29,0.27 s-7.74,31 -20.65,36.14 s-72.28,2.58 -116.17,-5.16 c-12.67,-2.24 -16.29,-7.49 -14.93,-14.13 C812.4266661834716,685.6755392456055 816.8366661834717,689.0155392456055 826.2666661834717,690.6755392456055 z" opacity="0.2" id="svg_93" class=""/><path d="M1049.0866661834716,326.88553924560546 a11.38,11.38 0 0 0 -3.2,-4.44 c-10.39,-9.47 -27.2,-6.6 -40.1,-12.38 c-3,-1.33 -6,-3.18 -9.25,-2.67 c-4.51,0.7100000000000002 -8.7,5.84 -12.63,3.56 l0.28,0.8600000000000002 l-0.28,-0.15000000000000005 l2.89,8.8 c1.11,3.38 2.2800000000000002,6.86 4.44,9.67 a25.32,25.32 0 0 0 6.12,42.11 l0.4,0.8900000000000002 l0.3700000000000001,0.16000000000000006 a29.56,29.56 0 0 1 1.9100000000000001,6.13 c-3.34,0.46 -9.17,4.16 -14.91,9.620000000000001 l-11.47,-0.3900000000000001 a37.5,37.5 0 0 1 -20.6,-7 l-34.29,-24.65 a11.48,11.48 0 0 0 -6.57,2.9 c-4.26,-4.44 -7.87,-9.07 -7.5600000000000005,-11.79 c0,0 -15.95,-29.84 -21.74,-14.92 s10.870000000000001,30.56 10.870000000000001,30.56 l10.58,13.7 a57.63,57.63 0 0 0 -0.79,7.26 c13,14.92 58.71,28.42 58.71,28.42 l7.12,0.3400000000000002 l0,0.3500000000000001 a24.24,24.24 0 0 0 -0.6400000000000002,5.7 c0,0.28 0,0.56 0,0.8500000000000002 s0,0.3800000000000001 0,0.5700000000000002 c0.3600000000000001,23.8 3.62,96.64 3.62,96.64 c0.6300000000000002,-0.28 1.29,-0.54 2,-0.79 l-0.51,6.47 s-30.44,4.26 -52.91,12.79 s-23.19,18.48 -23.19,18.48 v87.78 c-6.42,3.29 -16.55,7.62 -21.74,5.3100000000000005 c-5.6400000000000015,-2.51 -8.74,-0.4 -9.3,1.8 h0 a2.8,2.8 0 0 0 0,1.33 v0 a2.38,2.38 0 0 0 0.22000000000000006,0.56 l0,0 a2.26,2.26 0 0 0 0.3800000000000001,0.5 c2.17,2.13 49.29,20.61 60.16,17.76 a7.51,7.51 0 0 0 1,-0.3300000000000001 l0.3000000000000001,-0.15000000000000005 c0.2,-0.09000000000000004 0.4,-0.19000000000000006 0.5900000000000002,-0.3000000000000001 s0.21000000000000005,-0.15000000000000005 0.3200000000000001,-0.22000000000000006 s0.3300000000000001,-0.21000000000000005 0.4800000000000001,-0.3400000000000002 s0.2,-0.18000000000000005 0.3000000000000001,-0.27 s0.28,-0.25 0.4100000000000001,-0.3800000000000001 s0.18000000000000005,-0.21000000000000005 0.27,-0.3100000000000001 s0.25,-0.28 0.3600000000000001,-0.4300000000000001 s0.16000000000000006,-0.23 0.23,-0.3400000000000002 s0.22000000000000006,-0.3200000000000001 0.3200000000000001,-0.4900000000000001 s0.13,-0.24000000000000005 0.2,-0.3600000000000001 s0.2,-0.3600000000000001 0.28,-0.54 s0.11000000000000003,-0.25 0.16000000000000006,-0.3700000000000001 s0.17,-0.4 0.25,-0.6000000000000002 l0.13,-0.3700000000000001 c0.08000000000000003,-0.22000000000000006 0.15000000000000005,-0.4400000000000001 0.22000000000000006,-0.6600000000000003 l0.1,-0.3500000000000001 c0.07,-0.24000000000000005 0.13,-0.4800000000000001 0.19000000000000006,-0.7300000000000002 l0.07,-0.3300000000000001 c0.06000000000000002,-0.26 0.11000000000000003,-0.53 0.16000000000000006,-0.79 l0,-0.3000000000000001 c0,-0.2900000000000001 0.09000000000000004,-0.5700000000000002 0.13,-0.8600000000000002 l0,-0.25 c0,-0.3100000000000001 0.07,-0.6200000000000002 0.09000000000000004,-0.9400000000000002 l0,-0.2 q0,-0.51 0.06000000000000002,-1 v-0.14 q0,-0.54 0,-1.09 v-0.07 a59.5,59.5 0 0 0 -1.4,-12.6 h0 l2.63,-74.78 A407.79,407.79 0 0 0 978.1066661834717,567.1855392456055 l1.56,35.68 s0,23.45 8,34.11 c6.82,9.12 14.71,49.46 16.84,60.91 c-2.93,5.59 -8.53,12.49 -18.29,12.28 c0,0 -18.36,-1.59 -17.32,3.46 h0 a2.6,2.6 0 0 0 0.12000000000000002,0.3900000000000001 v0 a3.59,3.59 0 0 0 0.2,0.4200000000000001 l0,0 c0.07,0.13 0.16000000000000006,0.26 0.25,0.4 l0.06000000000000002,0.08000000000000003 c0.11000000000000003,0.15000000000000005 0.22000000000000006,0.3000000000000001 0.3600000000000001,0.46 l0,0 l0.4,0.4400000000000001 l0.12000000000000002,0.12000000000000002 c0.16000000000000006,0.16000000000000006 0.3400000000000002,0.3300000000000001 0.53,0.51 c9.42,8.53 64.51,9.95 64.51,9.95 v-0.19000000000000006 c0,-0.05000000000000002 0,-0.12000000000000002 0,-0.2 v0 c0,-2.47 -0.3600000000000001,-15.42 -3.66,-25.16 h0.7600000000000002 s-8,-71.77 -14.5,-80.3 c0,0 -1.73,-37.84 2.18,-61.56 l0.7200000000000002,-0.26 c18.27,-6.82 19.57,-23.63 17.69,-36 c3.46,1.11 5.51,1.87 5.51,1.87 s-0.06000000000000002,-0.54 -0.18000000000000005,-1.49 l0.18000000000000005,0.07 s-0.3500000000000001,-2.26 -0.92,-5.78 c-1.31,-9.68 -3.84,-26.6 -6.54,-34.59 c-0.4400000000000001,-1.7600000000000002 -0.8500000000000002,-3.26 -1.24,-4.4 a75.12,75.12 0 0 1 -3.19,-14.76 a174.94,174.94 0 0 1 -1.12,-19.57 a187.88,187.88 0 0 1 2,-26.11 c1.11,-7.55 2.1,-16.14 2,-22.14 a29.52,29.52 0 0 0 -0.4400000000000001,-6.24 c-1,-4.43 -5.24,-7.3100000000000005 -9.68,-9.14 c-0.2900000000000001,-0.12000000000000002 -0.5800000000000002,-0.21000000000000005 -0.8700000000000002,-0.3200000000000001 c0.11000000000000003,-1.6800000000000004 0.25,-3.58 0.4300000000000001,-5.59 a4.77,4.77 0 0 0 3.6900000000000004,0.7500000000000002 c1.9100000000000001,-0.4200000000000001 3.2800000000000002,-2 4.5,-3.51 c6.42,-7.8900000000000015 13,-16.11 15.49,-25.91 a56,56 0 0 0 1.36,-13.34 q0,-0.3700000000000001 0,-0.7400000000000002 A14.51,14.51 0 0 0 1049.0866661834716,326.88553924560546 z" fill="url(#dd623d78-3bb6-4132-be49-2e425533c027)" id="svg_94" class=""/><path d="M990.5966661834717,365.34553924560544 s9.73,14.6 7.65,21.55 s22.94,2.7800000000000002 22.94,2.7800000000000002 s0.7000000000000002,-27.11 5.5600000000000005,-33.37 S990.5966661834717,365.34553924560544 990.5966661834717,365.34553924560544 z" fill="#f7c4a7" id="svg_95" class=""/><path d="M926.2966661834716,374.7355392456055 s-20.16,-16.68 -19.47,-22.94 c0,0 -15.29,-29.2 -20.86,-14.6 S896.4066661834717,367.08553924560545 896.4066661834717,367.08553924560545 l19.47,25.72 z" fill="#f7c4a7" id="svg_96" class=""/><path d="M905.7866661834717,636.4655392456054 S887.0066661834717,648.2855392456055 879.3766661834717,644.8155392456055 s-10.43,2.09 -8.34,4.17 s47.27,20.16 57.7,17.38 s5.12,-25.55 5.12,-25.55 z" fill="#535461" id="svg_97" class=""/><path d="M1005.1966661834717,687.1855392456055 s-4.52,19.12 -20.16,18.77 c0,0 -23.64,-2.09 -14.6,6.26 s61.87,9.73 61.87,9.73 s0,-28.5 -9.73,-34.76 S1005.1966661834717,687.1855392456055 1005.1966661834717,687.1855392456055 z" fill="#535461" id="svg_98" class=""/><path d="M976.6966661834717,552.3555392456055 l2.09,48.66 s0,22.94 7.65,33.37 s16.68,62.57 16.68,62.57 h26.42 s-7.65,-70.21 -13.9,-78.56 c0,0 -2.7800000000000002,-61.87 7,-75.77 z" fill="#575988" id="svg_99" class=""/><path d="M976.6966661834717,552.3555392456055 l2.09,48.66 s0,22.94 7.65,33.37 s16.68,62.57 16.68,62.57 h26.42 s-7.65,-70.21 -13.9,-78.56 c0,0 -2.7800000000000002,-61.87 7,-75.77 z" opacity="0.1" id="svg_100" class=""/><path d="M1031.6166661834716,508.5555392456055 s16,38.23 -13.21,49.36 s-82,9.73 -82,9.73 l-2.7800000000000002,80.64 s-32.67,4.17 -33.37,-6.26 V553.7455392456054 s0.7000000000000002,-9.73 22.25,-18.07 S973.2166661834717,523.1855392456055 973.2166661834717,523.1855392456055 l1.3900000000000001,-18.07 z" fill="#575988" id="svg_101" class=""/><path d="M1006.0066661834717,382.6055392456054 a33.27,33.27 0 0 1 16.33,2.31 c4.26,1.79 8.36,4.61 9.29,8.94 c1.1,5.13 -0.12000000000000002,16.64 -1.52,26.37 a181.63,181.63 0 0 0 -0.8500000000000002,46.09 c0.7200000000000002,6.39 1.71,12 3.06,14.44 c4.17,7.65 8.34,43.8 8.34,43.8 s-45.88,-17.38 -68.82,-7 c0,0 -3.13,-71.26 -3.48,-94.54 c-0.27,-18 22.59,-38.58 30.24,-39.28 C1003.0766661834717,383.3655392456055 1001.5466661834716,383.06553924560546 1006.0066661834717,382.6055392456054 z" opacity="0.1" id="svg_102" class=""/><path d="M1006.0066661834717,381.18553924560547 a33.27,33.27 0 0 1 16.33,2.31 c4.26,1.79 8.36,4.61 9.29,8.94 c1.1,5.13 -0.12000000000000002,16.64 -1.52,26.37 a181.63,181.63 0 0 0 -0.8500000000000002,46.09 a74.75,74.75 0 0 0 3.06,14.44 c3.13,9.38 8.34,43.8 8.34,43.8 s-45.88,-17.38 -68.82,-7 c0,0 -3.13,-71.26 -3.48,-94.54 c-0.27,-18 22.59,-38.58 30.24,-39.28 C1003.0766661834717,381.97553924560543 1001.5466661834716,381.6755392456055 1006.0066661834717,381.18553924560547 z" fill="#e14b5a" id="svg_103" class=""/><path d="M1018.4066661834718,419.57553924560546 L969.0066661834717,416.7955392456055 s-3.14,-24.2 4,-23.95 l48.85,1.7000000000000002 S1032.3166661834716,407.0555392456055 1018.4066661834718,419.57553924560546 z" opacity="0.1" id="svg_104" class=""/><path d="M1018.4066661834718,418.18553924560547 l-56.31,-2.7800000000000002 S918.3066661834716,402.18553924560547 905.7866661834717,387.59553924560544 c0,0 0.7000000000000002,-25.72 14.6,-27.11 l32.89,24.12 A35.51,35.51 0 0 0 973.0066661834717,391.45553924560545 l48.85,1.7000000000000002 S1032.3166661834716,405.6655392456055 1018.4066661834718,418.18553924560547 z" fill="#e14b5a" id="svg_105" class=""/><path d="M1020.8366661834716,368.47553924560543 c0.8300000000000002,-6.59 3.8200000000000003,-8.78 5.91,-11.47 c4.87,-6.26 -36.15,9 -36.15,9 a73.74,73.74 0 0 1 5.54,10.23 a24.92,24.92 0 0 0 10.44,2.2800000000000002 C1012.6366661834717,378.5555392456055 1016.5166661834717,372.0455392456055 1020.8366661834716,368.47553924560543 z" opacity="0.1" id="svg_106" class=""/><circle cx="1006.58664894104" cy="352.8355407714844" r="25.030000686645508" fill="#f7c4a7" id="svg_107" class=""/><path d="M990.7866661834717,335.2955392456055 c-2.67,-2.91 -3.95,-6.79 -5.16,-10.55 l-2.77,-8.61 c3.77,2.23 7.79,-2.79 12.11,-3.48 c3.1,-0.5 6,1.31 8.870000000000001,2.62 c12.37,5.66 28.49,2.85 38.46,12.12 a11.12,11.12 0 0 1 3.07,4.34 a14.54,14.54 0 0 1 0.56,4.9 a55.83,55.83 0 0 1 -1.3,13.05 c-2.37,9.59 -8.69,17.63 -14.85,25.35 c-1.17,1.47 -2.48,3 -4.32,3.43 c-3.58,0.8 -6.35,-3.07 -7.73,-6.46 a68.75,68.75 0 0 1 -4,-14 A18.28,18.28 0 0 0 1012.0066661834717,352.18553924560547 c-2.15,-3.8200000000000003 -7.46,-7.43 -10.69,-10.39 S993.7466661834717,338.5355392456055 990.7866661834717,335.2955392456055 z" opacity="0.1" id="svg_108" class=""/><path d="M990.7866661834717,334.59553924560544 c-2.67,-2.91 -3.95,-6.79 -5.16,-10.55 l-2.77,-8.61 c3.77,2.23 7.79,-2.79 12.11,-3.48 c3.1,-0.5 6,1.31 8.870000000000001,2.62 c12.37,5.66 28.49,2.85 38.46,12.12 a11.12,11.12 0 0 1 3.07,4.34 a14.54,14.54 0 0 1 0.56,4.9 a55.83,55.83 0 0 1 -1.3,13.05 c-2.37,9.59 -8.69,17.63 -14.85,25.35 c-1.17,1.47 -2.48,3 -4.32,3.43 c-3.58,0.8 -6.35,-3.07 -7.73,-6.46 a68.75,68.75 0 0 1 -4,-14 a18.28,18.28 0 0 0 -1.6500000000000004,-5.9 c-2.15,-3.8200000000000003 -7.46,-7.43 -10.69,-10.39 S993.7466661834717,337.83553924560545 990.7866661834717,334.59553924560544 z" fill="#632652" id="svg_109" class=""/><ellipse cx="1013.1966953277588" cy="355.6255416870117" rx="2.0899999141693115" ry="4.519999980926514" fill="#f7c4a7" id="svg_110" class=""/><path d="M1025.7066661834717,476.18553924560547 s-1.3900000000000001,4.17 -8.34,3.48 s-27.11,-2.09 -27.11,0 " opacity="0.1" id="svg_111" class=""/><path d="M970.4366661834716,711.5455392456055 a5.8900000000000015,5.8900000000000015 0 0 1 -2,-2.9 c-0.18000000000000005,0.9 0.3800000000000001,2.08 2,3.6 c9,8.34 61.87,9.73 61.87,9.73 s0,-0.25 0,-0.7000000000000002 C1032.0066661834717,721.2755392456055 979.4466661834717,719.8655392456054 970.4366661834716,711.5455392456055 z" fill="#fff" opacity="0.5" id="svg_112" class=""/><path d="M928.7266661834717,664.9755392456054 c-10.43,2.7800000000000002 -55.61,-15.29 -57.7,-17.38 a2.26,2.26 0 0 1 -0.5800000000000002,-1 a2.5,2.5 0 0 0 0.5800000000000002,2.41 c2.09,2.09 47.27,20.16 57.7,17.38 c5.37,-1.4300000000000002 6.5600000000000005,-8.16 6.46,-14.35 C935.0966661834717,657.7855392456055 933.6966661834717,663.6455392456055 928.7266661834717,664.9755392456054 z" fill="#fff" opacity="0.5" id="svg_113" class=""/><path d="M761.7166661834717,382.4055392456055 s-60.54,-17.93 -64.54,33.07 s16,135 0,162 s-73.09,66 -43,69.5 s45,8.5 36,26.5 s-56,35 -46,48 s15,29 5,45 s-45,26 -39,37 s28,17 17,29 s-42.89,39.3 -30.44,39.15 " fill="none" stroke="#535461" stroke-miterlimit="10" stroke-width="3" id="svg_114" class=""/><path d="M532.1666661834716,718.2555392456055 a298.41,298.41 0 0 1 -4.48,-41 h0 A55,55 0 0 0 489.0066661834717,626.9855392456054 c-3.95,-1.21 -8.3,-2.35 -13.11,-3.37 c-42.13,-8.95 -54.93,-1.1400000000000001 -56.38,-0.11000000000000003 a54,54 0 0 1 -3.19,-7 c-0.07,-0.24000000000000005 -0.14,-0.4900000000000001 -0.21000000000000005,-0.7400000000000002 a53.93,53.93 0 0 0 14.41,-32.49 c7,-7.13 11.13,-15.72 11.13,-25 c0,-8 -3,-15.43 -8.36,-21.9 V523.8655392456055 A54.71,54.71 0 0 0 378.58666618347166,469.18553924560547 h-4.44 a54.71,54.71 0 0 0 -54.71,54.71 v13.56 a34,34 0 0 0 -7.5600000000000005,20.9 c0,9.06 3.94,17.49 10.7,24.53 a53.94,53.94 0 0 0 15,33.55 c0.3000000000000001,2.05 0.6000000000000002,4.27 0.9,6.6 l-75.37,15.94 s-29.06,1.19 -47.77,39.81 C199.51666618347167,711.4355392456055 168.00666618347168,795.4755392456054 158.6866661834717,820.4855392456054 h0 c-1.6900000000000004,4.53 -2.64,7.13 -2.64,7.13 s0.3100000000000001,-0.3100000000000001 0.9,-0.8400000000000002 L156.00666618347168,829.1855392456055 s0.46,-0.46 1.33,-1.22 c-1.32,10.47 -1.51,28.44 12.21,30.68 c11.5,1.8800000000000003 41.11,2.6500000000000004 63.49,3 v0 h1.55 c14.83,0.2 26.11,0.2 26.11,0.2 v-0.2 H501.3666661834717 V859.1855392456055 a16.59,16.59 0 0 0 -1.33,-6.52 l0.3400000000000002,-0.4 a13.21,13.21 0 0 1 2.5,5.79 a5.79,5.79 0 0 1 -0.11000000000000003,0.6100000000000002 l0.14,-0.3700000000000001 a6.2,6.2 0 0 1 -0.14,2 s30.87,-79.55 30.54,-127 A80.47,80.47 0 0 0 532.1666661834716,718.2555392456055 zM339.7266661834717,633.7355392456054 a55.19,55.19 0 0 1 -0.7600000000000002,-6.86 v-0.06000000000000002 C339.2266661834717,629.0455392456055 339.4866661834717,631.3655392456055 339.7266661834717,633.7355392456054 zM246.19666618347168,804.6055392456054 v19 l-11.88,2.54 z" fill="url(#55adf8d3-7ffb-491e-9308-2cd46ab42596)" id="svg_115" class=""/><path d="M375.1366660308838,476.8155419921875 h0 A54.71,54.71 0 0 1 429.8366660308838,531.5555419921875 V554.8555419921875 a0,0 0 0 1 0,0 H320.4266660308838 a0,0 0 0 1 0,0 V531.5555419921875 a54.71,54.71 0 0 1 54.71,-54.71 z" fill="#e14b5a" id="svg_116" class=""/><ellipse cx="375.5166721343994" cy="562.5155334472656" rx="62.36000061035156" ry="42.849998474121094" fill="#e14b5a" id="svg_117" class=""/><path d="M335.53666618347165,604.0155392456054 s13,68.09 0,86.46 s39.79,25.63 39.79,25.63 L430.0066661834717,696.1855392456055 l7.65,-49 s-33.28,-18.75 -26.4,-56.62 z" fill="#f7c4a7" id="svg_118" class=""/><path d="M497.0066661834717,833.5455392456055 s3.44,14.92 -15.3,17.6 a106,106 0 0 1 -33.36,-0.4 l-4.13,-37.48 h43.61 z" fill="#f7c4a7" id="svg_119" class=""/><path d="M165.92666618347167,814.4455392456055 S157.64666618347167,848.0855392456054 176.39666618347167,851.1855392456055 S264.0066661834717,854.1855392456055 264.0066661834717,854.1855392456055 V814.4155392456055 l-31.17,6.66 l-29.27,-28.08 z" fill="#f7c4a7" id="svg_120" class=""/><path d="M339.5566661834717,626.0155392456054 l-73.26,15.49 s-27.93,1.15 -45.91,38.26 s-57,143.08 -57,143.08 s33.28,-33.66 72.3,2.3 l26,-47.05 L256.0066661834717,852.6755392456055 H457.5766661834717 v-35.2 s42.08,22.57 39,35.2 c0,0 36,-92.78 28.26,-134.95 a286.78,286.78 0 0 1 -4.3,-39.45 h0 a52.85,52.85 0 0 0 -37.19,-48.26 c-3.8,-1.17 -8,-2.26 -12.6,-3.24 c-43.23,-9.18 -54.32,0 -54.32,0 s-8.37,27.25 -8.22,39.59 c0.19000000000000006,15.88 -22.57,26.4 -22.57,26.4 s-33.66,-8 -35.2,-14.54 S336.8766661834717,633.6655392456055 339.5566661834717,626.0155392456054 z" opacity="0.1" id="svg_121" class=""/><path d="M339.5566661834717,624.4855392456054 l-73.26,15.49 s-27.93,1.15 -45.91,38.26 s-57,143.08 -57,143.08 s33.28,-33.66 72.3,2.3 l26,-47.05 L256.0066661834717,851.1855392456055 H457.5766661834717 v-35.2 s42.08,22.57 39,35.2 c0,0 36,-92.78 28.26,-134.95 a286.78,286.78 0 0 1 -4.3,-39.45 h0 a52.85,52.85 0 0 0 -37.19,-48.26 c-3.8,-1.17 -8,-2.26 -12.6,-3.24 c-43.23,-9.18 -54.32,0 -54.32,0 s-8.37,27.25 -8.22,39.59 c0.19000000000000006,15.88 -22.57,26.4 -22.57,26.4 s-33.66,-8 -35.2,-14.54 S336.8766661834717,632.1355392456055 339.5566661834717,624.4855392456054 z" fill="#575988" id="svg_122" class=""/><path d="M414.4266661834717,621.1855392456055 a51.78,51.78 0 0 1 -2,-27.16 l-75.75,13.39 s1.09,5.72 2.33,14.3 a52,52 0 0 0 75.41,-0.53 z" opacity="0.1" id="svg_123" class=""/><path d="M427.3566661834717,582.1855392456055 a52,52 0 0 1 -104,1.26 c0,-0.4200000000000001 0,-0.8400000000000002 0,-1.26 a52,52 0 0 1 29.17,-46.75 q2.34,-1.1400000000000001 4.8100000000000005,-2.06 a52.4,52.4 0 0 1 26.8,-2.49 h0 a52,52 0 0 1 43.15,47.85 Q427.3566661834717,580.4755392456054 427.3566661834717,582.1855392456055 z" fill="#f7c4a7" id="svg_124" class=""/><g opacity="0.1" id="svg_125" class=""><path d="M357.1966661834717,534.6155392456055 l0.07,0 q-2.47,0.91 -4.8100000000000005,2.06 a52,52 0 0 0 -29.17,46.75 c0,0.4200000000000001 0,0.8400000000000002 0,1.26 a11.56,11.56 0 0 0 4.67,-1.12 c12.69,-5.92 20.29,-24 23.28,-36.66 C352.33666618347166,542.3355392456054 353.3566661834717,537.2455392456054 357.1966661834717,534.6155392456055 z" id="svg_126"/><path d="M397.0066661834717,536.0855392456054 a51.6,51.6 0 0 0 -12.93,-4 a16.69,16.69 0 0 1 9.29,5.83 a23.79,23.79 0 0 1 2.84,5.07 a52.17,52.17 0 0 0 -43.76,0.91 c3.27,7.16 13.39,11.06 20.15,13.68 q11.1,4.29 22.47,7.84 l-6.69,-5.43 l15.11,2.4 a26.17,26.17 0 0 0 -1.05,-8.91 c2.88,2.33 6.73,3.11 9.870000000000001,5.1 c5.8900000000000015,3.71 8.34,10.870000000000001 11.55,17 a11,11 0 0 0 3.37,4.32 A52,52 0 0 0 397.0066661834717,536.0855392456054 z" id="svg_127"/></g><path d="M357.1966661834717,533.4455392456055 l0.07,0 q-2.47,0.91 -4.8100000000000005,2.06 A52,52 0 0 0 323.2966661834717,582.1855392456055 c0,0.4200000000000001 0,0.8400000000000002 0,1.26 a11.56,11.56 0 0 0 4.67,-1.12 c12.69,-5.92 20.29,-24 23.28,-36.66 C352.33666618347166,541.1855392456055 353.3566661834717,536.0655392456055 357.1966661834717,533.4455392456055 z" fill="#632652" id="svg_128" class=""/><path d="M397.0066661834717,534.9055392456055 a51.6,51.6 0 0 0 -12.93,-4 a16.69,16.69 0 0 1 9.29,5.83 a23.79,23.79 0 0 1 2.84,5.07 a52.17,52.17 0 0 0 -43.76,0.91 c3.27,7.16 13.39,11.06 20.15,13.68 q11.1,4.29 22.47,7.84 l-6.69,-5.43 l15.11,2.4 a26.17,26.17 0 0 0 -1.05,-8.91 c2.88,2.33 6.73,3.11 9.870000000000001,5.1 c5.8900000000000015,3.71 8.34,10.870000000000001 11.55,17 a11,11 0 0 0 3.37,4.32 A52,52 0 0 0 397.0066661834717,534.9055392456055 z" fill="#632652" id="svg_129" class=""/><path d="M317.3666661834717,573.6255392456055 s53.56,-66.56 115.53,0 l-5.36,-14.92 s-29.07,-42.46 -49.73,-33.28 s-40.93,15.68 -40.93,15.68 z" opacity="0.1" id="svg_130" class=""/><path d="M317.3666661834717,572.4555392456055 s53.56,-66.56 115.53,0 l-5.36,-14.92 s-29.07,-42.46 -49.73,-33.28 s-40.93,15.68 -40.93,15.68 z" fill="#e14b5a" id="svg_131" class=""/><path d="M273.3766661834717,715.9155392456055 s-11.48,30.6 4.59,58.15 s-14.15,39 -14.15,39 " opacity="0.1" id="svg_132" class=""/><path d="M459.2966661834717,688.3655392456054 s19.89,25.25 6.8900000000000015,47.82 s-12.24,76.89 -12.24,76.89 " opacity="0.1" id="svg_133" class=""/><path d="M255.7766660308838,835.6555419921875 H476.8966660308838 a18.36,18.36 0 0 1 18.36,18.36 v0 a0,0 0 0 1 0,0 H237.4166660308838 a0,0 0 0 1 0,0 v0 A18.36,18.36 0 0 1 255.7766660308838,835.6555419921875 z" fill="#535461" id="svg_134" class=""/><path d="M289.0366660308838,709.4155419921875 H443.6666660308838 a39,39 0 0 1 39,39 v91.45 a0,0 0 0 1 0,0 H250.0366660308838 a0,0 0 0 1 0,0 V748.4155419921875 A39,39 0 0 1 289.0366660308838,709.4155419921875 z" fill="#535461" id="svg_135" class=""/><circle cx="366.1466770172119" cy="780.3755493164062" r="13.770000457763672" fill="#fff" id="svg_136" class=""/><path d="M320.4266661834717,542.4155392456055 s52.64,-52.61 109.41,-1 " fill="none" stroke="#000" stroke-miterlimit="10" opacity="0.1" id="svg_137" class=""/><rect x="437.85666847229004" y="539.0755310058594" width="5.289999961853027" height="29.959999084472656" fill="#6a5c99" id="svg_138" class=""/><path d="M430.8066660308838,558.4555419921875 h0 a18.21,18.21 0 0 1 18.21,18.21 v1.17 a18.21,18.21 0 0 1 -18.21,18.21 h0 a0,0 0 0 1 0,0 V558.4555419921875 a0,0 0 0 1 0,0 z" fill="#ffd037" id="svg_139" class=""/><rect x="427.2766513824463" y="556.695556640625" width="8.220000267028809" height="41.119998931884766" rx="4.110000133514404" ry="4.110000133514404" fill="#6a5c99" id="svg_140" class=""/><rect x="947.0366611480713" y="1308.5555419921875" width="5.289999961853027" height="29.959999084472656" transform="rotate(-180 629.4566650390626,939.0855712890625) " fill="#6a5c99" id="svg_141" class=""/><path d="M942.3366880035401,1374.3455444335937 h0 a18.21,18.21 0 0 1 18.21,18.21 v1.17 a18.21,18.21 0 0 1 -18.21,18.21 h0 a0,0 0 0 1 0,0 v-37.6 a0,0 0 0 1 0,0 z" transform="rotate(180 630.6267089843749,985.4955444335938) " fill="#ffd037" id="svg_142" class=""/><rect x="972.8866367340088" y="1372.5855712890625" width="8.220000267028809" height="41.119998931884766" rx="4.110000133514404" ry="4.110000133514404" transform="rotate(-180 647.6666870117189,985.4955444335938) " fill="#6a5c99" id="svg_143" class=""/><path d="M437.2266661834717,507.0455392456055 C430.0666661834717,492.18553924560547 414.4766661834717,474.18553924560547 380.8666661834717,472.7255392456055 v0 l-0.4,0 h0 l-11.91,0.5700000000000002 v0.06000000000000002 c-33.39,1.54 -48.9,19.46 -56,34.3 a77.16,77.16 0 0 0 -7.38,32.12 l4.11,-0.1 l4.11,-0.09000000000000004 A70,70 0 0 1 320.0066661834717,510.94553924560546 c9.06,-18.61 25.74,-28.52 49.56,-29.43 h0 l10.53,-0.5800000000000002 h0 c23.82,0.91 40.5,10.81 49.56,29.43 a70,70 0 0 1 6.69,28.62 l4.11,0.09000000000000004 l4.11,0.1 A77.16,77.16 0 0 0 437.2266661834717,507.0455392456055 z" fill="#ffd037" id="svg_144" class=""/><rect x="64.27666664123535" y="854.2555541992188" width="560.780029296875" height="150.55999755859375" fill="#d6d6e3" id="svg_145" class=""/><rect x="64.27666664123535" y="864.3955688476562" width="560.780029296875" height="19.540000915527344" opacity="0.1" id="svg_146" class=""/><rect y="852.0855712890625" width="636" height="19.540000915527344" fill="#d6d6e3" id="svg_147" class="" x="26.66666603088379"/><path d="M462.1766661834717,803.4755392456054 s24,44 84,32 s31,111 31,111 s-9.82,58.68 -2.91,58.34 " fill="none" stroke="#535461" stroke-miterlimit="10" stroke-width="3" id="svg_148" class=""/></g></svg>