<?xml version="1.0" encoding="UTF-8" standalone="no"?>
<svg
   xmlns:dc="http://purl.org/dc/elements/1.1/"
   xmlns:cc="http://creativecommons.org/ns#"
   xmlns:rdf="http://www.w3.org/1999/02/22-rdf-syntax-ns#"
   xmlns:svg="http://www.w3.org/2000/svg"
   xmlns="http://www.w3.org/2000/svg"
   viewBox="0 0 453.06668 503.58667"
   height="503.58667"
   width="453.06668"
   xml:space="preserve"
   id="svg2"
   version="1.1"><metadata
     id="metadata8"><rdf:RDF><cc:Work
         rdf:about=""><dc:format>image/svg+xml</dc:format><dc:type
           rdf:resource="http://purl.org/dc/dcmitype/StillImage" /></cc:Work></rdf:RDF></metadata><defs
     id="defs6" /><g
     transform="matrix(1.3333333,0,0,-1.3333333,0,503.58667)"
     id="g10"><g
       transform="scale(0.1)"
       id="g12"><path
         id="path14"
         style="fill:#4a3c9e;fill-opacity:1;fill-rule:nonzero;stroke:none"
         d="M 3398.05,2721.87 0,2795.63 162.457,613.441 3343.9,662.609 3398.05,2721.87" /><path
         id="path16"
         style="fill:#100f0d;fill-opacity:1;fill-rule:nonzero;stroke:none"
         d="m 1652.05,3497.87 c 2.41,-0.23 4.88,-0.34 7.32,-0.34 40.27,0 73.46,30.15 77.33,70.18 0.65,5.77 6.67,49.17 40.36,53.09 2.48,0.29 4.9,0.43 7.2,0.43 11.56,0 19.89,-3.57 24.73,-10.62 5.46,-7.93 5.48,-18.41 0.07,-28.75 -5.8,-11.11 -17.74,-24.04 -30.37,-37.72 -40.22,-43.57 -101.01,-109.41 -75.37,-232.95 4.53,-21.87 18.19,-40.04 36.44,-50.96 -10.29,-13.21 -16.43,-29.78 -16.43,-47.77 0,-42.98 34.97,-77.95 77.96,-77.95 42.98,0 77.95,34.97 77.95,77.95 0,28.46 -15.33,53.39 -38.17,67 1.23,1.58 2.43,3.16 3.53,4.84 11.42,17.38 15.37,38.16 11.14,58.52 -9.36,45.15 4.3,59.96 37.33,95.73 17.18,18.61 38.56,41.77 53.93,71.15 32.06,61.28 28.33,133.75 -9.73,189.11 -34.12,49.62 -90.01,78.07 -153.35,78.07 -8.2,0 -16.56,-0.49 -24.84,-1.45 -55.84,-6.5 -102.61,-34.35 -135.29,-80.56 -22.79,-32.24 -38.51,-74.16 -42.03,-112.12 -1.92,-20.69 4.31,-40.91 17.56,-56.95 13.28,-16.09 32.01,-26.01 52.73,-27.93" /><path
         id="path18"
         style="fill:#100f0d;fill-opacity:1;fill-rule:nonzero;stroke:none"
         d="m 2521.5,979.98 c 9.06,12.508 12.62,32.05 11.79,63.31 -0.65,24.99 -4.27,57.81 -10.42,94.91 -11.32,68.12 -29.8,143.48 -50.44,206.29 6.75,6.59 12.03,14.76 15.52,24.21 5.01,13.61 7.51,37.3 -11.89,109.95 -12.04,45.03 -30.53,101.41 -53.51,163.04 -37.05,99.39 -96.18,238.2 -140.9,302.33 -14.32,20.53 -32.09,41.52 -55.33,41.52 -0.14,0 -0.27,0 -0.41,0 -19.01,29.67 -41.67,56.51 -67.6,80.03 -6.37,5.76 -12.98,11.41 -19.8,16.9 126.62,105.77 241.58,268.29 292.28,352.79 14.04,23.4 23.79,56.63 28.98,98.77 4.56,37 5.58,79.78 3.05,127.15 -4.66,87.44 -21.27,180.83 -44.7,252.27 31.27,92.48 58.23,192.92 74.31,277.07 8.1,42.34 12.8,77.19 13.98,103.59 1.29,28.96 -0.61,60.07 -24.49,71.31 -4.81,2.27 -10.04,3.42 -15.54,3.42 -15.85,0 -32.42,-9.34 -55.43,-31.24 -16.75,-15.94 -36.42,-38.13 -58.48,-65.96 -41.37,-52.2 -87.29,-119.71 -127.8,-187.73 -85.25,20.28 -197.79,30.16 -342.98,30.16 -47.52,0 -99.55,-1.07 -154.64,-3.19 -133.98,-5.15 -254.18,-23.15 -342.16,-40.23 18.35,66.88 32.71,130.87 41.17,183.83 5.24,32.78 7.9,59.58 7.9,79.66 0,14.2 0,47.45 -24.77,59.12 -4.81,2.27 -10.04,3.42 -15.53,3.42 -0.01,0 -0.02,0 -0.02,0 -18.59,0 -38.42,-12.84 -68.48,-44.31 -22.48,-23.54 -49.44,-56.65 -77.96,-95.76 -61.12,-83.82 -120.64,-182.44 -164.33,-272.16 -24.52,-11.32 -33.12,-18.72 -37.83,-24.02 -35.76,-40.23 -40.3,-135.67 -40.45,-204.83 -4.25,-32.09 -3.55,-60.43 2.08,-84.34 7.41,-154.79 32.74,-327.39 54.68,-430.3 21.14,-99.2 46.05,-150.71 88.85,-183.72 43.12,-33.26 101.33,-44.85 189.45,-62.4 17.08,-3.41 34.7,-6.92 53.84,-10.89 -5.18,-8.52 -10.06,-17.3 -14.62,-26.33 -1.35,0.04 -2.71,0.06 -4.09,0.07 -23.81,0 -54.51,-6.84 -91.22,-20.33 -32.17,-11.81 -68.72,-28.71 -105.7,-48.87 -62.02,-33.8 -119.14,-73.1 -159.44,-109.24 -22.197,34.26 -33.025,57.79 -43.565,80.69 -7.949,17.27 -15.558,33.79 -27.16,52.87 16.887,26.8 36.094,74.96 24.965,146.8 12.297,28.18 18.059,59.01 18.059,96.14 0,58.4 -20.539,121.09 -56.348,172 -37.226,52.93 -83.613,83.28 -127.262,83.28 -43.652,0 -90.039,-30.35 -127.265,-83.28 -35.809,-50.91 -56.348,-113.6 -56.348,-172 0,-29.02 3.449,-53.85 10.754,-76.71 -7.871,-9.32 -16.672,-20.58 -22.617,-30.64 -12.594,-21.32 -16.188,-46.57 -9.863,-69.28 4.804,-17.25 14.863,-30.74 28.312,-37.99 0.652,-0.34 1.309,-0.69 1.984,-1.02 0.704,-0.69 1.422,-1.35 2.153,-2 0.719,-1.24 1.457,-2.47 2.207,-3.68 0.558,-15.27 3.097,-29.97 7.574,-43.87 1.813,-57.54 18.395,-139.85 85.063,-213.93 72.847,-80.94 162.316,-147.41 251.914,-187.16 l 0.972,-0.43 c 9.598,-4.27 19.871,-6.74 30.601,-7.39 24.65,-17.66 54.1,-26.94 85.82,-26.94 7.07,0 14.35,0.46 21.63,1.37 64.17,8.03 149.21,97.11 211.22,180.36 7.1,-101.63 33.13,-205.4 116.75,-281.67 14.51,-46.84 40.34,-90.67 75.38,-128.04 -21.31,-81.65 -77.03,-315.699 -69.86,-400.808 -10.01,-18.711 -18.8,-47.262 -29.66,-95.344 -21.63,-95.797 -59.37,-349.547 -63.13,-435.726 -11.47,-18.813 -23.35,-49.071 -30.77,-71.731 -21.42,-65.371 -14.59,-86.609 -12.35,-93.59 6.09,-18.941 24.22,-32.1599 55.41,-40.4294 21.79,-5.7813 49.97,-8.961 79.36,-8.961 30.3,0 60.55,3.2891 87.46,9.5 41.43,9.5508 95.35,42.7694 144.25,88.8204 23.73,22.359 79.43,79.488 83.72,126.758 0.91,10.019 3.69,40.511 -51.76,239.48 -15.13,54.262 -45.6,158.641 -58.91,195.082 5.1,27.168 12.4,79.231 20.71,138.508 6.88,49.07 13.99,99.801 20.56,141.411 5.94,37.59 12.26,63.1 17.35,83.59 1.1,4.39 2.11,8.51 3.05,12.41 31.94,-7.55 64.9,-11.37 98.36,-11.37 12.33,0 24.7,0.54 37.01,1.59 0.98,-90 13.79,-293.881 73.71,-405.85 0.17,-0.32 0.34,-0.648 0.52,-0.968 -2.05,-14.981 -3.78,-33.18 -5.33,-56.262 -6.61,-97.981 -4.79,-354.52 4.78,-440.25 -8.44,-20.36 -15.51,-52.09 -19.35,-75.61 -11.1,-67.8902 -1.07,-87.8394 2.22,-94.3902 C 1921.74,10.6719 1949.66,0 1996.06,0 c 45.08,0 97.55,10.2617 140.37,27.4414 39.46,15.8281 87.61,56.9492 128.82,109.9996 20.02,25.75 66.23,90.778 63.2,138.149 -0.65,10.031 -2.61,40.578 -88.07,228.621 -26.85,59.098 -84.1,180.801 -94.74,194.309 -0.76,0.968 -1.54,1.878 -2.33,2.761 -3.12,18.551 -10.04,50.867 -20.43,99.09 -12.3,57.078 -26.25,121.789 -33.54,165.641 -9.17,55.048 -27.82,144.788 -43.01,188.858 0.9,6.24 1.05,12.36 0.82,17.88 77.12,51.74 129.93,127.98 146.96,212.55 0.49,0.51 0.97,1.02 1.45,1.52 19.23,20.42 35.54,42.76 49.13,67.39 4.79,-13.35 9.27,-23.4 13.39,-30.07 3.54,-5.74 7.81,-11.56 12.77,-17.41 -28.15,-107.89 -36.77,-292.95 -23.38,-328.18 4.84,-12.72 11.47,-25.68 19.53,-38.26 -25.77,-33.3 -41,-60.712 -45.36,-81.622 -5.89,-28.277 -10.16,-100.828 15.47,-132.367 8.84,-10.86 20.88,-16.84 33.92,-16.84 24.08,0 38.07,14.07 47.14,28.258 1.81,-22.199 2.88,-38.59 3.06,-47.438 0.97,-46.922 25.85,-80.961 59.18,-80.961 16.63,0 39.95,8.52 57.91,48.418 4.08,-1.027 8.24,-1.539 12.4,-1.539 35.36,0 64.52,36.16 76.11,94.379 6.7,33.684 -1.62,65.891 -11.62,89.672 3.55,12.73 5.66,26.02 6.29,39.73" /><path
         id="path20"
         style="fill:#b6e7f7;fill-opacity:1;fill-rule:nonzero;stroke:none"
         d="m 1560.71,1253.07 c -4.23,-6.36 -87.12,-329.672 -78.58,-425.32 8.54,-95.66 136.66,-129.828 145.2,-90.539 8.54,39.289 27.33,189.609 42.7,286.969 15.38,97.37 34.17,119.57 22.21,152.02 -11.96,32.47 -107.62,112.74 -131.53,76.87" /><path
         id="path22"
         style="fill:#99def9;fill-opacity:1;fill-rule:nonzero;stroke:none"
         d="m 1692.24,1176.2 c -11.96,32.47 -107.62,112.74 -131.53,76.87 -2.66,-4 -36.49,-133.56 -59.05,-252.9 40.19,-19.459 118.67,-81.24 111.96,-265.818 -0.13,-3.75 -0.24,-7.391 -0.31,-10.954 7.42,2.454 12.54,7 14.02,13.813 8.54,39.289 27.33,189.609 42.7,286.969 15.38,97.37 34.17,119.57 22.21,152.02" /><path
         id="path24"
         style="fill:#f9b040;fill-opacity:1;fill-rule:nonzero;stroke:none"
         d="m 1585.79,1272.84 c -8.62,0.2 -45.43,-52.6 -26.3,-139.87 1.6,-5.17 37.1,-19.79 43.57,-14.72 9.41,7.37 47.28,109.17 47.28,109.17 0,0 -11.96,44.22 -64.55,45.42" /><path
         id="path26"
         style="fill:#937241;fill-opacity:1;fill-rule:nonzero;stroke:none"
         d="m 1602.52,1119.83 c -3.37,11.88 -5.12,24.2 -6.03,36.55 -0.91,12.35 -0.62,24.82 0.82,37.17 1.51,12.32 4.21,24.57 8.64,36.21 2.21,5.8 4.77,11.48 7.76,16.92 3.06,5.39 6.44,10.61 10.33,15.4 -6.54,-10.46 -11.73,-21.63 -15.49,-33.24 -3.73,-11.62 -6.27,-23.59 -7.69,-35.72 -1.49,-12.12 -1.88,-24.37 -1.63,-36.61 0.13,-6.13 0.5,-12.26 1.08,-18.36 0.47,-6.13 1.25,-12.23 2.21,-18.32" /><path
         id="path28"
         style="fill:#99def9;fill-opacity:1;fill-rule:nonzero;stroke:none"
         d="m 1508.07,850.199 c -15.48,5.563 -22.63,-10.789 -25.8,-23.488 9.38,-94.852 136.55,-128.641 145.06,-89.5 0.36,1.66 0.75,3.578 1.14,5.629 -3.01,1.68 -6.47,3.121 -10.38,4.219 -40.01,11.25 -85.64,94.39 -110.02,103.14" /><path
         id="path30"
         style="fill:#b6e7f7;fill-opacity:1;fill-rule:nonzero;stroke:none"
         d="m 2171.46,1446.02 c 0,-172.86 -158.64,-312.99 -354.32,-312.99 -195.68,0 -354.3,140.13 -354.3,312.99 h 708.62" /><path
         id="path32"
         style="fill:#99def9;fill-opacity:1;fill-rule:nonzero;stroke:none"
         d="m 2171.17,1434.22 c -53.74,14.37 -113.8,-4.57 -113.8,-4.57 0,0 14.59,-194.07 -179.38,-220.64 -261.9,-35.87 -382.09,157.86 -382.09,157.86 0,0 -3.26,20.57 -29.1,32.26 25.61,-150.61 172.7,-266.1 350.34,-266.1 191.2,0 347,133.8 354.03,301.19" /><path
         id="path34"
         style="fill:#211d1d;fill-opacity:1;fill-rule:nonzero;stroke:none"
         d="m 1464.64,1444.23 c 1.09,-170.78 158.8,-309.4 352.5,-309.4 193.7,0 351.42,138.62 352.51,309.4 z m 352.5,-313 c -196.35,0 -356.09,141.22 -356.09,314.79 v 1.8 h 712.19 v -1.8 c 0,-173.57 -159.74,-314.79 -356.1,-314.79" /><path
         id="path36"
         style="fill:#e4f6fd;fill-opacity:1;fill-rule:nonzero;stroke:none"
         d="m 1408.78,1916.93 c -47.83,61.22 -380.78,-125.29 -422.546,-221.1 -41.761,-95.81 12.282,-226.01 130.206,-211.27 104.22,13.03 353.76,353.76 292.34,432.37" /><path
         id="path38"
         style="fill:#b6e7f7;fill-opacity:1;fill-rule:nonzero;stroke:none"
         d="m 1408.78,1916.93 c -34.43,44.07 -216.66,-40.26 -331.6,-126.7 104.51,-21.38 76.48,-110.33 42.15,-172.97 -18.14,-33.11 -98.64,-35.6 -129.072,-66.22 22.722,-43.94 66.172,-73.98 126.182,-66.48 104.22,13.03 353.76,353.76 292.34,432.37" /><path
         id="path40"
         style="fill:#99def9;fill-opacity:1;fill-rule:nonzero;stroke:none"
         d="m 1412.56,1909.42 c 0,0 -6.14,51.69 -77.23,-14.69 -41.62,-38.86 -89.79,-173.52 -134.97,-220.38 -35.1,-36.41 -5.77,-61.71 -22.48,-104.08 -39.57,-100.35 -146.81,-61.37 -167.49,-48.39 0.01,0 0.01,-0.01 0.01,-0.02 1.52,-1.67 3.09,-3.3 4.7,-4.88 0.04,-0.05 0.09,-0.09 0.13,-0.13 1.6,-1.57 3.24,-3.11 4.92,-4.59 l 0.01,-0.01 c 1.68,-1.47 3.4,-2.9 5.16,-4.29 0.11,-0.08 0.2,-0.15 0.31,-0.23 1.72,-1.35 3.49,-2.65 5.29,-3.9 0.02,-0.01 0.04,-0.03 0.06,-0.04 1.81,-1.25 3.67,-2.44 5.55,-3.59 0.19,-0.12 0.38,-0.23 0.57,-0.33 1.82,-1.11 3.67,-2.15 5.57,-3.15 0.06,-0.03 0.1,-0.06 0.16,-0.09 1.93,-1.01 3.9,-1.96 5.91,-2.87 0.27,-0.12 0.56,-0.24 0.84,-0.37 1.91,-0.84 3.84,-1.64 5.82,-2.39 0.09,-0.04 0.19,-0.07 0.28,-0.11 2.04,-0.76 4.12,-1.45 6.22,-2.11 0.38,-0.11 0.76,-0.23 1.14,-0.34 2,-0.59 4.02,-1.15 6.07,-1.64 0.13,-0.03 0.26,-0.07 0.38,-0.1 2.15,-0.5 4.34,-0.94 6.55,-1.33 0.46,-0.09 0.93,-0.17 1.4,-0.25 2.11,-0.34 4.25,-0.65 6.42,-0.9 0.12,-0.02 0.25,-0.04 0.37,-0.05 2.26,-0.24 4.57,-0.41 6.89,-0.54 0.54,-0.03 1.09,-0.05 1.63,-0.08 2.27,-0.09 4.55,-0.15 6.86,-0.13 0.1,0 0.19,0 0.28,0 2.39,0.03 4.81,0.14 7.25,0.29 0.6,0.03 1.21,0.08 1.81,0.12 2.47,0.19 4.96,0.41 7.49,0.73 16.53,2.06 37.18,12.75 59.88,29.46 111.32,82.67 275.49,314.94 236.24,395.4" /><path
         id="path42"
         style="fill:#b6e7f7;fill-opacity:1;fill-rule:nonzero;stroke:none"
         d="m 1177.26,1608.65 c 0,-55.11 -44.67,-99.78 -99.77,-99.78 -55.11,0 -99.779,44.67 -99.779,99.78 0,55.09 44.669,99.77 99.779,99.77 55.1,0 99.77,-44.68 99.77,-99.77" /><path
         id="path44"
         style="fill:#211d1d;fill-opacity:1;fill-rule:nonzero;stroke:none"
         d="m 1411.74,1826.31 c 0,-25.69 -20.83,-46.52 -46.52,-46.52 -25.69,0 -46.52,20.83 -46.52,46.52 0,25.7 20.83,46.53 46.52,46.53 25.69,0 46.52,-20.83 46.52,-46.53" /><path
         id="path46"
         style="fill:#99def9;fill-opacity:1;fill-rule:nonzero;stroke:none"
         d="m 1232.32,1717.48 c 0,0 -50.67,-61.62 -62.76,-68.24 -12.1,-6.62 -19.43,-3.83 -19.43,-3.83 0,0 7.54,-7.74 24.55,1.25 21.36,19.05 31.02,30.26 31.02,30.26 l 26.62,40.56" /><path
         id="path48"
         style="fill:#628795;fill-opacity:1;fill-rule:nonzero;stroke:none"
         d="m 1154.44,1643.11 c 0,0 3.84,-1.28 9.91,0.64 1.52,0.37 3.12,1.06 4.75,2.05 1.72,0.76 3.32,2.07 5.01,3.44 3.44,2.66 6.44,6.55 10.33,10.67 14.93,16.71 35.45,38.42 56.54,59.57 21.14,21.09 42.85,41.64 59.6,56.59 8.32,7.53 15.58,13.49 20.5,17.82 5,4.25 7.96,6.58 7.96,6.58 0,0 -2.32,-2.95 -6.56,-7.94 -4.31,-4.92 -10.26,-12.15 -17.78,-20.46 -14.92,-16.72 -35.45,-38.41 -56.55,-59.56 -21.14,-21.09 -42.86,-41.63 -59.61,-56.58 -4.14,-3.64 -8.15,-7.44 -12.33,-9.74 -2.06,-1.22 -3.97,-2.33 -6,-2.9 -1.91,-0.79 -3.73,-1.26 -5.45,-1.43 -3.35,-0.65 -6.06,-0.05 -7.77,0.31 -1.73,0.48 -2.55,0.94 -2.55,0.94" /><path
         id="path50"
         style="fill:#211d1d;fill-opacity:1;fill-rule:nonzero;stroke:none"
         d="m 1162.49,1608.65 c 0,-46.95 -38.06,-85.01 -85,-85.01 -46.95,0 -85.01,38.06 -85.01,85.01 0,46.94 38.06,85 85.01,85 46.94,0 85,-38.06 85,-85" /><path
         id="path52"
         style="fill:#937241;fill-opacity:1;fill-rule:nonzero;stroke:none"
         d="m 1140.66,1608.65 c 0,-34.9 -28.28,-63.19 -63.17,-63.19 -34.9,0 -63.18,28.29 -63.18,63.19 0,34.89 28.28,63.17 63.18,63.17 34.89,0 63.17,-28.28 63.17,-63.17" /><path
         id="path54"
         style="fill:#937241;fill-opacity:1;fill-rule:nonzero;stroke:none"
         d="m 1318.7,1826.31 c 0,-3.04 0.31,-6.02 0.88,-8.91 h 91.29 c 0.56,2.89 0.87,5.87 0.87,8.91 0,11.84 -4.45,22.61 -11.73,30.82 h -69.57 c -7.29,-8.21 -11.74,-18.98 -11.74,-30.82" /><path
         id="path56"
         style="fill:#5f492d;fill-opacity:1;fill-rule:nonzero;stroke:none"
         d="m 1319.58,1817.4 c 1.94,-10.02 7.12,-18.86 14.38,-25.47 h 62.52 c 7.26,6.61 12.44,15.45 14.39,25.47 h -91.29" /><path
         id="path58"
         style="fill:#99def9;fill-opacity:1;fill-rule:nonzero;stroke:none"
         d="m 1406.68,1919.26 c -14.96,14.74 -50.11,11.76 -94.16,-2.28 27.35,-9.93 13.71,-50.45 13.71,-50.45 0,0 70.06,23.23 80.45,52.73" /><path
         id="path60"
         style="fill:#e69f3c;fill-opacity:1;fill-rule:nonzero;stroke:none"
         d="m 904.613,1905.56 c 0,0 65.524,51.48 34.325,176.27 -12.481,23.4 -120.125,-49.92 -107.645,-107.64 12.48,-57.72 39.004,-73.32 73.32,-68.63" /><path
         id="path62"
         style="fill:#937241;fill-opacity:1;fill-rule:nonzero;stroke:none"
         d="m 940.492,1967.95 c 0,0 -1.933,0.41 -5.316,1.14 -3.242,0.82 -7.875,1.82 -13.153,3.4 -5.32,1.47 -11.457,3.16 -17.742,5.36 -6.511,1.68 -12.972,4.56 -19.765,6.46 -3.332,1.12 -6.672,2.22 -9.911,3.51 -3.226,1.35 -6.515,2.19 -9.652,3.31 -6.308,1.96 -12.07,4.97 -17.254,6.54 -10.277,3.52 -17.465,7.7 -17.465,7.7 0,0 7.446,2.57 19.118,3.67 2.929,0.39 6.093,0.59 9.363,0.27 3.293,-0.21 6.777,-0.5 10.367,-0.93 3.574,-0.49 7.359,-0.78 10.949,-1.94 3.66,-0.94 7.324,-2.1 10.989,-3.23 3.671,-1.14 7.246,-2.53 10.621,-4.24 3.422,-1.59 6.734,-3.28 9.886,-4.99 3.125,-1.76 5.977,-3.82 8.688,-5.69 2.699,-1.89 5.176,-3.77 7.316,-5.78 8.86,-7.5 12.961,-14.56 12.961,-14.56" /><path
         id="path64"
         style="fill:#f9b040;fill-opacity:1;fill-rule:nonzero;stroke:none"
         d="m 692.66,1999.23 c -18.969,-22.9 -52.812,-180.56 57.735,-303.4 110.554,-122.83 222.882,-171.53 243.21,-180.56 44.215,-19.65 101.955,20.88 101.955,61.41 0,52.11 -24.4,80.85 -67.56,138.8 -85.984,115.47 -71.309,140.53 -125.293,212.51 -58.961,78.61 -174.422,114.23 -210.047,71.24" /><path
         id="path66"
         style="fill:#fddeac;fill-opacity:1;fill-rule:nonzero;stroke:none"
         d="m 1028,1715.48 c -85.984,115.47 -71.309,140.53 -125.293,212.51 -22.687,30.25 -53.746,54.1 -85.398,69.59 -23.653,-40.83 36.367,-114.71 36.367,-114.71 0,0 53.828,35.74 83.137,-46.65 23.011,-64.66 80.287,-133.57 100.597,-150.49 19.33,-16.11 36.44,-44.36 54.25,-76.03 -8.44,33.92 -30.48,61.23 -63.66,105.78" /><path
         id="path68"
         style="fill:#fddeac;fill-opacity:1;fill-rule:nonzero;stroke:none"
         d="m 814.438,1808.34 c 0,0 14.234,-92.93 167.183,-225.43 -40.816,40.11 -159.371,194.5 -164.488,225.68 -5.11,31.18 -2.695,-0.25 -2.695,-0.25" /><path
         id="path70"
         style="fill:#e69f3c;fill-opacity:1;fill-rule:nonzero;stroke:none"
         d="m 817.133,1808.59 c 0,0 154.805,-229.89 247.197,-282.62 -84.271,50.03 -194.057,148.71 -247.197,282.62" /><path
         id="path72"
         style="fill:#937241;fill-opacity:1;fill-rule:nonzero;stroke:none"
         d="m 1064.33,1525.97 c -27.56,14.82 -53.26,33.03 -77.521,52.85 -24.286,19.85 -46.981,41.64 -67.981,64.98 -20.894,23.42 -40.098,48.4 -56.863,74.92 -16.852,26.47 -31.223,54.5 -42.594,83.62 13.926,-27.99 29.805,-54.84 47.27,-80.54 17.554,-25.64 36.761,-50.13 57.531,-73.22 20.672,-23.18 42.902,-44.96 66.242,-65.51 11.706,-10.23 23.676,-20.19 35.986,-29.73 12.23,-9.64 24.88,-18.78 37.93,-27.37" /><path
         id="path74"
         style="fill:#e69f3c;fill-opacity:1;fill-rule:nonzero;stroke:none"
         d="m 1053.09,1518.83 c -202.586,103.48 -253.156,300.57 -253.156,300.57 0,0 -74.442,78.79 -126.422,106.97 -5.004,-62.61 7.488,-153.44 76.883,-230.54 110.554,-122.83 222.882,-171.53 243.21,-180.56 19.225,-8.55 41.005,-5.71 59.485,3.56" /><path
         id="path76"
         style="fill:#211d1d;fill-opacity:1;fill-rule:nonzero;stroke:none"
         d="m 741.078,2015.87 c -21.125,0 -37.39,-6.15 -47.035,-17.79 -20.23,-24.41 -50.797,-180.52 57.687,-301.05 70.04,-77.83 155.848,-141.64 241.61,-179.68 l 0.992,-0.44 c 7.408,-3.29 15.468,-4.96 23.958,-4.96 17.9,0 36.8,7.42 51.86,20.36 15.01,12.89 23.61,29.06 23.61,44.37 0,47.92 -20.79,75.7 -58.52,126.12 l -8.68,11.62 c -47.966,64.4 -64.665,100.72 -79.4,132.76 -11.844,25.74 -22.062,47.97 -45.887,79.73 -43.808,58.41 -113.742,88.96 -160.195,88.96 z m 277.212,-507.51 v 0 c -9,0 -17.55,1.77 -25.415,5.27 l -0.984,0.44 c -86.223,38.25 -172.457,102.37 -242.828,180.56 -109.887,122.1 -78.403,280.86 -57.778,305.74 10.348,12.49 27.563,19.09 49.793,19.09 47.34,0 118.555,-31.05 163.063,-90.4 24.058,-32.07 34.351,-54.46 46.273,-80.38 14.664,-31.88 31.281,-68.01 79.016,-132.12 l 8.68,-11.61 c 38.2,-51.04 59.24,-79.16 59.24,-128.27 0,-16.35 -9.06,-33.52 -24.86,-47.1 -15.7,-13.48 -35.45,-21.22 -54.2,-21.22" /><path
         id="path78"
         style="fill:#e4f6fd;fill-opacity:1;fill-rule:nonzero;stroke:none"
         d="m 827.777,1803.93 c 24.567,9.82 72.219,119 2.457,201.44 -54.043,63.87 -106.863,47.91 -136.343,19.65 -29.481,-28.25 -46.672,-113 0,-165.82 46.679,-52.82 104.656,-66.97 133.886,-55.27" /><path
         id="path80"
         style="fill:#e69f3c;fill-opacity:1;fill-rule:nonzero;stroke:none"
         d="m 1377.78,1875.58 c -14.38,-50.52 -20.25,-105.41 -20.25,-162.83 0,-140.3 20.94,-265.68 123.39,-348.51 48.96,-39.6 130.17,-68.52 198.95,-86.6 -346.31,91.03 -317.61,478.49 -302.09,597.94" /><path
         id="path82"
         style="fill:#e69f3c;fill-opacity:1;fill-rule:nonzero;stroke:none"
         d="m 1695.43,1274.28 c -0.06,0.01 -0.12,0.02 -0.18,0.03 0.06,-0.01 0.12,-0.02 0.18,-0.03" /><path
         id="path84"
         style="fill:#f1f7f9;fill-opacity:1;fill-rule:nonzero;stroke:none"
         d="m 789.176,1974.81 c -30.352,0 -68.047,17.04 -89.906,45.48 -28.723,37.36 -47.071,71.56 -47.071,135.46 0,112.54 84.688,226.58 154.91,226.58 70.219,0 154.907,-114.04 154.907,-226.58 0,-63.9 -18.352,-98.1 -47.071,-135.46 -21.859,-28.44 -59.554,-45.48 -89.906,-45.48 h -35.863" /><path
         id="path86"
         style="fill:#ddebf0;fill-opacity:1;fill-rule:nonzero;stroke:none"
         d="m 914.945,2020.29 c 14.797,19.25 26.805,37.68 35.008,59.74 -28.289,-25.75 -71.894,-44.57 -135.039,-21.66 -98.758,35.83 -98.219,218.35 -95.769,273.06 -38.032,-43.73 -66.946,-109.94 -66.946,-175.68 0,-63.9 18.348,-98.1 47.071,-135.46 21.859,-28.44 59.554,-45.48 89.906,-45.48 h 35.863 c 30.352,0 68.047,17.04 89.906,45.48" /><path
         id="path88"
         style="fill:#3a2617;fill-opacity:1;fill-rule:nonzero;stroke:none"
         d="m 835.238,2207.66 -25.304,47.31 49.511,61.62 -30.183,62.14 c -7.465,2.32 -14.887,3.6 -22.153,3.6 -6.328,0 -12.769,-0.95 -19.254,-2.72 l 47.383,-69.62 -46.215,-57.22 37.415,-52.82 -19.805,-37.4 28.605,45.11" /><path
         id="path90"
         style="fill:#b6e7f7;fill-opacity:1;fill-rule:nonzero;stroke:none"
         d="m 789.703,2436.92 -6.555,165.42 -36.027,-14.74 z" /><path
         id="path92"
         style="fill:#b6e7f7;fill-opacity:1;fill-rule:nonzero;stroke:none"
         d="m 879.781,2409.08 39.305,113.01 26.207,-21.3 z" /><path
         id="path94"
         style="fill:#b6e7f7;fill-opacity:1;fill-rule:nonzero;stroke:none"
         d="m 738.938,2420.55 -62.243,94.98 -14.742,-27.84 z" /><path
         id="path96"
         style="fill:#f9b040;fill-opacity:1;fill-rule:nonzero;stroke:none"
         d="m 722.238,2034.32 c 6.903,-4.82 22.297,-29 22.961,-64.06 0.606,-32.03 -2.414,-54.99 -22.355,-59.83 -19.942,-4.83 -54.992,16.32 -71.309,57.41 -16.316,41.09 44.719,84.6 70.703,66.48" /><path
         id="path98"
         style="fill:#e69f3c;fill-opacity:1;fill-rule:nonzero;stroke:none"
         d="m 745.25,1961.78 c -28.988,-6.63 -60.508,7.9 -60.508,7.9 0,0 -10.449,0.59 -35.39,5.9 0.445,-2.58 1.16,-5.17 2.183,-7.74 16.317,-41.09 51.367,-62.24 71.309,-57.41 18.125,4.4 22.258,23.8 22.406,51.35" /><path
         id="path100"
         style="fill:#937241;fill-opacity:1;fill-rule:nonzero;stroke:none"
         d="m 728.887,1993.22 c 0,-25.03 -20.293,-45.32 -45.321,-45.32 -25.031,0 -45.324,20.29 -45.324,45.32 0,25.03 20.293,45.32 45.324,45.32 25.028,0 45.321,-20.29 45.321,-45.32" /><path
         id="path102"
         style="fill:#f9b040;fill-opacity:1;fill-rule:nonzero;stroke:none"
         d="m 636.34,2033.79 c 16.781,28.41 74.734,88.22 94.34,91.89 19.605,3.68 35.531,-9.8 31.855,-29.4 -3.672,-19.6 -40.43,-113.95 -60.035,-127.42 -19.605,-13.49 -42.879,-11.03 -58.809,-2.45 -15.925,8.57 -23.281,40.42 -7.351,67.38" /><path
         id="path104"
         style="fill:#e69f3c;fill-opacity:1;fill-rule:nonzero;stroke:none"
         d="m 760.895,2089.71 c -14.028,-29.24 -52.075,-95.96 -110.469,-104.31 -7.531,-1.07 -13.821,-2.42 -19.106,-3.97 2.86,-6.85 7.137,-12.21 12.371,-15.02 15.93,-8.58 39.204,-11.04 58.809,2.45 17.941,12.33 50.215,92.31 58.395,120.85" /><path
         id="path106"
         style="fill:#e69f3c;fill-opacity:1;fill-rule:nonzero;stroke:none"
         d="m 673.293,1988.7 c 0,0 11.594,40.03 -19.336,39.57 -4.059,-16 6.723,-47.07 6.723,-47.07 l 12.613,7.5" /><path
         id="path108"
         style="fill:#e4f6fd;fill-opacity:1;fill-rule:nonzero;stroke:none"
         d="m 628.574,1989.59 c 0.383,23.69 18.129,39.88 25.383,38.68 7.254,-1.21 17.746,-10.64 16.316,-18.74 -1.812,-10.27 -8.46,-39.28 -10.273,-47.13 0,0 -31.949,-5.55 -31.426,27.19" /><path
         id="path110"
         style="fill:#b6e7f7;fill-opacity:1;fill-rule:nonzero;stroke:none"
         d="m 659.652,1962.35 c -5.187,3.52 -6.925,8.79 -6.925,17.76 -16.18,-0.26 -21.446,14.42 -22.825,19.74 -0.765,-3.23 -1.269,-6.64 -1.328,-10.26 -0.492,-30.75 27.656,-27.73 31.078,-27.24" /><path
         id="path112"
         style="fill:#937241;fill-opacity:1;fill-rule:nonzero;stroke:none"
         d="m 837.051,1902.27 c 0,-25.53 -20.692,-46.22 -46.231,-46.22 -25.531,0 -46.226,20.69 -46.226,46.22 0,25.54 20.695,46.23 46.226,46.23 25.539,0 46.231,-20.69 46.231,-46.23" /><path
         id="path114"
         style="fill:#f9b040;fill-opacity:1;fill-rule:nonzero;stroke:none"
         d="m 748.223,1888.68 c -5.532,15.67 -1.817,120.86 33.234,161.95 11.106,13.02 35.652,7.86 39.887,-4.84 4.226,-12.69 27.191,-111.79 1.812,-155.3 -25.383,-43.51 -71.308,-12.09 -74.933,-1.81" /><path
         id="path116"
         style="fill:#e69f3c;fill-opacity:1;fill-rule:nonzero;stroke:none"
         d="m 834.879,1952.86 c -3.645,-5.56 -19.254,-29.05 -28.012,-37.21 -1.168,4.46 -3.078,9.73 -5.969,12.09 -5.464,4.47 -22.839,3.98 -28.304,3.48 -2.727,-0.25 -6.188,-4.69 -8.977,-9.08 -10.144,12.35 -12.961,33.02 -13.66,40.25 -4.961,-34.28 -4.566,-65.7 -1.734,-73.71 3.625,-10.28 49.55,-41.7 74.933,1.81 9.184,15.74 12.02,38.79 11.723,62.37" /><path
         id="path118"
         style="fill:#e4f6fd;fill-opacity:1;fill-rule:nonzero;stroke:none"
         d="m 773,1922.52 c -6.047,-6.05 -13.141,-40.19 -10.879,-47.74 3.621,-12.09 32.024,-13.9 39.281,-6.05 6.051,6.56 0,47.14 -4.836,51.97 -3.675,3.68 -18.793,6.59 -23.566,1.82" /><path
         id="path120"
         style="fill:#b6e7f7;fill-opacity:1;fill-rule:nonzero;stroke:none"
         d="m 801.402,1868.73 c 1.856,2.02 2.567,7.24 2.536,13.64 -2.665,2.29 -7.364,7.48 -8.309,16.25 -1.32,12.35 -22.055,11.47 -23.816,1.76 -1.27,-6.99 -6.875,-13.96 -9.918,-17.32 -0.297,-3.64 -0.274,-6.63 0.226,-8.28 3.621,-12.09 32.024,-13.9 39.281,-6.05" /><path
         id="path122"
         style="fill:#fddeac;fill-opacity:1;fill-rule:nonzero;stroke:none"
         d="m 750.566,2095.13 c -6.332,-27.48 -59.121,-91.29 -59.121,-91.29 0,0 79.856,79.18 59.121,91.29" /><path
         id="path124"
         style="fill:#e69f3c;fill-opacity:1;fill-rule:nonzero;stroke:none"
         d="m 1499.67,831.09 c 23.3,1.449 51.6,-46.668 79.85,-68.781 28.25,-22.118 39.12,-9.649 47.81,-25.098 8.69,-15.441 116.78,-375.34 111.87,-429.391 -4.91,-54.05 -126,-171.789 -205.84,-190.218 -79.84,-18.4223 -179.86,-6 -188.45,20.707 -8.98,27.902 27.02,125.293 44.22,147.41 1.22,72.472 39.81,337.16 62.7,438.543 15.06,66.699 28.19,105.597 47.84,106.828" /><path
         id="path126"
         style="fill:#d78821;fill-opacity:1;fill-rule:nonzero;stroke:none"
         d="m 1469.28,109.23 c -45.75,7.11 -73.31,32.7 -94.15,39.551 -17.28,5.688 -26.54,-4.98 -30.11,-10.722 6.77,-19.661 63.14,-31.469 124.26,-28.829" /><path
         id="path128"
         style="fill:#d78821;fill-opacity:1;fill-rule:nonzero;stroke:none"
         d="m 1432.16,347.75 c -20.48,-6.48 -30.84,5.91 -36,22.219 -4.11,-36.321 -6.73,-66.239 -7.03,-84.25 -6.69,-8.61 -16.21,-28.59 -24.84,-51.438 21.47,38.899 38.91,50.891 74.04,60.43 91.43,24.828 195.29,-72.57 210.11,-109.723 5.57,4.813 11.03,9.742 16.32,14.742 -21.28,110.329 -185.77,162.801 -232.6,148.02" /><path
         id="path130"
         style="fill:#937241;fill-opacity:1;fill-rule:nonzero;stroke:none"
         d="m 1389.13,285.719 c 21.41,15.543 47.46,25.133 74.32,27.152 13.39,1.07 27.16,-0.07 40.26,-3.101 13.15,-3.071 25.77,-7.758 37.99,-13.2 24.31,-11.179 47.08,-25.582 67.26,-43.101 10.06,-8.77 19.44,-18.399 27.43,-29.149 3.92,-5.422 7.49,-11.109 10.39,-17.14 2.89,-6 5.06,-12.442 5.74,-19.032 -3.05,12.934 -10.46,24.114 -18.9,33.993 -8.43,9.968 -18.11,18.828 -28.26,27.031 -10.23,8.129 -20.91,15.707 -32.08,22.469 -11.14,6.828 -22.64,13.07 -34.54,18.39 -23.67,10.848 -48.99,18.418 -74.99,17.278 -12.94,-0.457 -25.87,-2.598 -38.41,-6.27 -12.59,-3.578 -24.78,-8.687 -36.21,-15.32" /><path
         id="path132"
         style="fill:#d78821;fill-opacity:1;fill-rule:nonzero;stroke:none"
         d="m 1499.67,831.09 c -3.34,-4.399 -4.65,-9.82 -5.8,-15.09 -1.13,-5.32 -1.91,-10.711 -2.57,-16.121 -1.3,-10.809 -2.11,-21.688 -2.78,-32.578 -0.74,-10.891 -1.23,-21.75 -1.79,-32.699 -0.59,-10.922 -1.38,-21.832 -2.12,-32.731 -3.02,-43.609 -6.63,-87.152 -10.05,-130.691 -3.55,-43.539 -7.03,-87.078 -10.22,-130.629 -1.53,-21.77 -3.05,-43.539 -4.11,-65.34 -0.57,-10.902 -1.04,-21.813 -1.15,-32.711 -0.05,-5.449 -0.02,-10.898 0.24,-16.34 0.11,-2.719 0.28,-5.441 0.59,-8.148 0.35,-2.684 0.71,-5.43 1.88,-7.91 -1.34,2.41 -1.88,5.16 -2.41,7.828 -0.5,2.699 -0.84,5.422 -1.14,8.152 -0.55,5.457 -0.84,10.93 -1.06,16.387 -0.43,10.953 -0.5,21.89 -0.46,32.84 0.22,21.882 0.98,43.742 2.03,65.582 2.06,43.679 5.23,87.289 8.66,130.859 3.57,43.559 7.48,87.09 11.65,130.582 l 3,32.609 c 0.95,10.84 1.8,21.789 2.97,32.661 1.21,10.878 2.56,21.75 4.4,32.546 0.94,5.403 1.97,10.793 3.39,16.102 1.5,5.238 3.23,10.672 6.85,14.84" /><path
         id="path134"
         style="fill:#937241;fill-opacity:1;fill-rule:nonzero;stroke:none"
         d="m 1344.91,138.309 c 1.36,5.871 7.02,10.281 12.99,11.839 6.06,1.633 12.36,1.243 18.31,0.102 12.03,-2.352 22.73,-7.949 33.04,-13.371 10.26,-5.629 20.21,-11.481 30.47,-16.57 10.28,-5.028 20.93,-9.258 32.59,-10.778 -11.75,-1.511 -23.83,1.399 -34.82,5.641 -11.11,4.226 -21.43,9.937 -31.65,15.398 -5.07,2.809 -10.15,5.52 -15.28,7.989 -5.12,2.55 -10.26,4.652 -15.65,6.273 -5.35,1.477 -10.9,2.547 -16.32,1.879 -5.36,-0.531 -10.78,-3.211 -13.68,-8.402" /><path
         id="path136"
         style="fill:#d78821;fill-opacity:1;fill-rule:nonzero;stroke:none"
         d="m 1737.31,298.34 c -35.82,-65.192 -85.16,-74.809 -85.16,-74.809 0,0 4.29,-16.383 5.83,-30.07 39.34,35.769 71.23,76.379 79.33,104.879" /><path
         id="path138"
         style="fill:#211d1d;fill-opacity:1;fill-rule:nonzero;stroke:none"
         d="m 1500.71,829.328 c -0.3,0 -0.62,-0.008 -0.92,-0.027 -18.86,-1.18 -32.11,-43 -46.21,-105.442 -22.15,-98.109 -61.39,-363.199 -62.66,-438.179 l -0.01,-0.598 -0.37,-0.473 c -8.38,-10.777 -21.69,-40.629 -31.63,-70.98 -11.49,-35.039 -16.08,-63 -12.3,-74.77 5.26,-16.347 49.73,-28.218 105.74,-28.218 28.03,0 55.9,3.019 80.6,8.711 80.72,18.628 199.71,136.32 204.46,188.628 4.69,51.571 -102.47,412.04 -111.64,428.352 -3.77,6.688 -7.8,7.559 -14.47,8.977 -7.53,1.613 -17.84,3.812 -32.89,15.582 -10.62,8.308 -21.22,20.23 -31.47,31.75 -16.79,18.871 -32.64,36.687 -46.23,36.687 z m -48.36,-722.277 c -47.81,0 -102.37,9.609 -109.15,30.719 -8.99,27.941 26.5,125.16 44.14,148.57 1.47,75.93 40.61,340.308 62.74,438.308 20.05,88.801 33.8,107.25 49.48,108.231 15.48,0.973 32.28,-17.879 50.06,-37.848 10.15,-11.41 20.63,-23.203 31,-31.32 14.4,-11.262 24.24,-13.352 31.43,-14.891 6.86,-1.461 12.29,-2.621 16.85,-10.73 8.31,-14.781 117.16,-374.559 112.09,-430.43 -2.37,-26.039 -31.25,-68.051 -75.38,-109.609 -45.58,-42.93 -94.87,-73.66 -131.85,-82.199 -24.96,-5.762 -53.12,-8.801 -81.41,-8.801" /><path
         id="path140"
         style="fill:#f9b040;fill-opacity:1;fill-rule:nonzero;stroke:none"
         d="m 1608.09,597.512 c -13.37,-0.66 -75.95,-142.563 -71.95,-177.203 4,-34.637 73.05,-36.918 125.25,-106.59 15.16,-20.25 37.3,-18.649 37.3,13.32 0,31.981 -37.3,273.141 -90.6,270.473" /><path
         id="path142"
         style="fill:#f9b040;fill-opacity:1;fill-rule:nonzero;stroke:none"
         d="m 1601.73,202.57 c 0,0 -58.02,69.821 -143.25,62.559 -27.2,-38.981 -33.54,-106.078 11.79,-116.957 45.33,-10.883 94.29,10.879 131.46,54.398" /><path
         id="path144"
         style="fill:#b6e7f7;fill-opacity:1;fill-rule:nonzero;stroke:none"
         d="m 1884.17,1149.36 c -3.86,-5.25 -4.84,-297.758 68.99,-435.751 73.84,-137.98 162.2,-44.777 163.4,-30.257 1.22,14.519 -40.72,188.98 -55.54,277.937 -12.76,76.651 -38.03,188.131 -50.13,202.651 -12.1,14.53 -113.41,3.57 -126.72,-14.58" /><path
         id="path146"
         style="fill:#99def9;fill-opacity:1;fill-rule:nonzero;stroke:none"
         d="m 2008.56,768.309 c -43.22,29.273 -48.79,46.011 -27.89,151.961 14.79,74.91 49.76,96.14 69,102.17 -13.09,64.62 -29.67,130.56 -38.78,141.5 -12.1,14.53 -113.41,3.57 -126.72,-14.58 -3.86,-5.25 -4.84,-297.758 68.99,-435.751 73.84,-137.98 162.2,-44.777 163.4,-30.257 -54.3,25.687 -64.78,55.687 -108,84.957" /><path
         id="path148"
         style="fill:#f9b040;fill-opacity:1;fill-rule:nonzero;stroke:none"
         d="m 1900.77,1195.21 c -8.05,-4.73 -24.83,-82.22 13.19,-124.1 7.75,-6.21 46.53,-0.78 51.96,9.3 5.44,10.08 5.08,72.22 14.74,80.68 6.21,5.42 29.58,4.94 36.57,-5.92 3.41,15.11 -0.89,32.28 -0.89,32.28 0,0 -36.46,19.39 -56.62,21.72 -20.17,2.33 -45.76,-6.2 -58.95,-13.96" /><path
         id="path150"
         style="fill:#937241;fill-opacity:1;fill-rule:nonzero;stroke:none"
         d="m 1951.96,1209.17 c -0.71,-5.47 -1.34,-10.94 -1.74,-16.42 -0.49,-5.48 -0.86,-10.96 -1.04,-16.44 -0.36,-10.95 -0.36,-21.91 0.47,-32.81 0.76,-10.9 2.34,-21.73 4.85,-32.35 1.26,-5.32 2.84,-10.55 4.76,-15.68 1.82,-5.16 4.13,-10.15 6.66,-15.06 -3.22,4.49 -5.88,9.38 -8.28,14.39 -2.29,5.07 -4.19,10.3 -5.8,15.63 -3.21,10.67 -4.92,21.73 -5.77,32.81 -0.75,11.08 -0.66,22.21 0.37,33.25 1.01,11.02 2.63,22.01 5.52,32.68" /><path
         id="path152"
         style="fill:#e4f6fd;fill-opacity:1;fill-rule:nonzero;stroke:none"
         d="m 2036.14,956.73 c -15.2,-1.171 -54.85,-132.39 -35.93,-152.25 18.91,-19.859 52.94,-32.148 66.19,-61.468 13.24,-29.313 28.38,-14.192 19.86,21.75 -8.52,35.937 -25.54,193.867 -50.12,191.968" /><path
         id="path154"
         style="fill:#e69f3c;fill-opacity:1;fill-rule:nonzero;stroke:none"
         d="m 1982.49,753.84 c 22.79,5.031 58.16,-38.16 89.49,-55.649 31.31,-17.492 40.14,-3.511 51.11,-17.421 10.96,-13.93 173.24,-352.872 176.72,-407.032 3.47,-54.148 -98.02,-189.1599 -174.07,-219.6677 -76.05,-30.5117 -176.78,-33.6484 -189.39,-8.5898 -13.17,26.1914 7.39,127.9605 20.97,152.4605 -9.96,71.789 -12.63,339.289 -5.64,442.969 4.6,68.219 11.58,108.68 30.81,112.93" /><path
         id="path156"
         style="fill:#d78821;fill-opacity:1;fill-rule:nonzero;stroke:none"
         d="m 1969.27,59.8789 c -18.53,4.9414 -29.34,-6.918 -33.52,-13 0.2,-0.4687 0.38,-0.9687 0.6,-1.3984 9.19,-18.2696 65.21,-21.5313 124.36,-10.1524 -34.38,3.5703 -69.87,18.793 -91.44,24.5508" /><path
         id="path158"
         style="fill:#f9b040;fill-opacity:1;fill-rule:nonzero;stroke:none"
         d="m 1977.13,721.699 c 0,0 -5.25,-190.277 9.91,-275 15.16,-84.699 19.78,-103.008 19.78,-103.008 0,0 -29.19,333.528 -29.69,378.008" /><path
         id="path160"
         style="fill:#f9b040;fill-opacity:1;fill-rule:nonzero;stroke:none"
         d="m 2259.41,389.512 c -49.81,118.648 -128.78,281.687 -136.32,291.258 -10.97,13.91 -19.8,-0.071 -51.11,17.421 -24.68,13.778 -51.87,43.5 -73.45,53.028 7.32,-10.348 19.47,-27.199 31.64,-42.68 19.27,-24.527 59.59,-40.301 70.09,-43.809 10.38,-3.46 66.79,-231.98 159.15,-275.218" /><path
         id="path162"
         style="fill:#d78821;fill-opacity:1;fill-rule:nonzero;stroke:none"
         d="m 2014.39,265.129 c -64.81,118.101 -57.71,405.25 -54.67,447.68 -3.64,-18.387 -6.06,-42.571 -8.04,-71.899 -6.99,-103.68 -4.32,-371.18 5.64,-442.969 -2.36,-4.242 -4.93,-10.871 -7.5,-18.98 89.13,95.461 273.49,-3.41 275.93,-44.391 7.67,8.852 15.03,17.961 21.93,27.16 -80.88,135.731 -205.82,113.692 -233.29,103.399" /><path
         id="path164"
         style="fill:#937241;fill-opacity:1;fill-rule:nonzero;stroke:none"
         d="m 1957.32,197.941 c 18.76,18.668 43.01,32.161 69.25,38.289 13.07,3.122 26.85,4.11 40.26,3.141 13.46,-1.012 26.66,-3.691 39.57,-7.191 25.74,-7.289 50.46,-18.008 73.09,-32.219 11.3,-7.102 22.05,-15.172 31.59,-24.563 4.71,-4.75 9.13,-9.82 12.91,-15.328 3.79,-5.5 6.93,-11.511 8.62,-17.929 -5.01,12.32 -14.05,22.218 -23.91,30.679 -9.87,8.539 -20.81,15.809 -32.1,22.352 -11.37,6.449 -23.07,12.289 -35.16,17.258 -12.05,5.031 -24.38,9.422 -36.96,12.851 -25.06,7.071 -51.24,10.641 -76.75,5.508 -12.72,-2.449 -25.17,-6.559 -36.99,-12.121 -11.88,-5.457 -23.15,-12.406 -33.42,-20.727" /><path
         id="path166"
         style="fill:#d78821;fill-opacity:1;fill-rule:nonzero;stroke:none"
         d="m 1982.49,753.84 c -2.63,-4.852 -3.1,-10.41 -3.41,-15.801 -0.29,-5.43 -0.23,-10.891 -0.06,-16.328 0.38,-10.891 1.25,-21.762 2.27,-32.609 0.96,-10.883 2.15,-21.684 3.27,-32.59 1.1,-10.891 2.01,-21.782 2.96,-32.672 3.74,-43.551 6.87,-87.129 10.21,-130.668 3.2,-43.582 6.48,-87.121 10.04,-130.641 1.84,-21.75 3.7,-43.511 6.02,-65.199 1.1,-10.863 2.33,-21.703 3.9,-32.492 0.79,-5.391 1.66,-10.77 2.75,-16.121 0.53,-2.66 1.11,-5.328 1.85,-7.949 0.76,-2.598 1.52,-5.258 3.06,-7.52 -1.69,2.16 -2.64,4.801 -3.58,7.359 -0.91,2.59 -1.67,5.219 -2.38,7.871 -1.38,5.301 -2.51,10.661 -3.58,16.04 -2.11,10.742 -3.87,21.55 -5.52,32.359 -3.15,21.66 -5.77,43.383 -8.09,65.121 -4.7,43.469 -8.29,87.051 -11.61,130.629 -3.21,43.582 -6.04,87.203 -8.63,130.812 l -2.06,32.688 c -0.73,10.851 -1.58,21.801 -2.1,32.723 -0.49,10.937 -0.83,21.886 -0.67,32.847 0.1,5.481 0.29,10.961 0.88,16.422 0.66,5.41 1.53,11.039 4.48,15.719" /><path
         id="path168"
         style="fill:#937241;fill-opacity:1;fill-rule:nonzero;stroke:none"
         d="m 1936.35,45.4805 c 0.44,6.0312 5.35,11.2304 11,13.6992 5.75,2.5391 12.04,3.1523 18.08,2.9219 12.26,-0.461 23.69,-4.3399 34.72,-8.1133 11,-3.9766 21.74,-8.2266 32.65,-11.6797 10.94,-3.3789 22.11,-5.918 33.87,-5.6289 -11.38,-3.3008 -23.76,-2.2813 -35.28,0.2109 -11.63,2.4688 -22.71,6.5196 -33.65,10.3399 -5.43,2 -10.87,3.8789 -16.32,5.539 -5.46,1.7305 -10.86,3.0118 -16.43,3.7813 -5.52,0.6601 -11.16,0.8398 -16.42,-0.6524 -5.2,-1.3593 -10.15,-4.8398 -12.22,-10.4179" /><path
         id="path170"
         style="fill:#f9b040;fill-opacity:1;fill-rule:nonzero;stroke:none"
         d="m 2011.3,169.031 c 0,0 129.64,33.778 183.92,-43.41 -46.66,-44.9491 -129.77,-74.6405 -167.93,-51.7421 -38.18,22.9102 -15.99,95.1521 -15.99,95.1521" /><path
         id="path172"
         style="fill:#211d1d;fill-opacity:1;fill-rule:nonzero;stroke:none"
         d="m 1986.32,752.449 c -1.2,0 -2.35,-0.109 -3.45,-0.359 -18.45,-4.07 -25.1,-47.442 -29.39,-111.301 -6.78,-100.359 -4.69,-368.32 5.62,-442.598 l 0.08,-0.589 -0.29,-0.532 c -6.62,-11.941 -15.17,-43.488 -20.32,-75.019 -5.94,-36.3791 -6.18,-64.7112 -0.62,-75.7619 4.97,-9.8907 26.7,-15.7891 58.11,-15.7891 40.78,0 90.21,9.6719 129.02,25.2383 76.88,30.8515 176.3,165.4727 172.93,217.8907 -3.31,51.672 -164.75,391.32 -176.33,406.019 -4.76,6.043 -8.87,6.262 -15.68,6.641 -7.69,0.43 -18.22,1.012 -34.9,10.332 -11.76,6.578 -24.08,16.707 -35.97,26.508 -18.31,15.082 -35.61,29.32 -48.81,29.32 z m 9.74,-725.5388 c -19.56,0 -53.54,2.3086 -61.31,17.7695 -13.19,26.2109 6.89,127.7693 20.72,153.6093 -10.26,75.262 -12.33,342.512 -5.58,442.742 6.13,90.828 16.87,111.168 32.21,114.571 1.35,0.289 2.76,0.437 4.22,0.437 14.49,0 32.26,-14.641 51.08,-30.141 11.78,-9.699 23.97,-19.73 35.45,-26.148 15.96,-8.91 26.01,-9.469 33.35,-9.871 7,-0.391 12.54,-0.707 18.3,-8 10.49,-13.328 173.5,-352.039 177.09,-408.02 1.67,-26.089 -20.39,-72.039 -57.58,-119.918 -38.41,-49.441 -82.38,-87.4019 -117.59,-101.5308 -39.21,-15.7305 -89.15,-25.5 -130.36,-25.5" /><path
         id="path174"
         style="fill:#e69f3c;fill-opacity:1;fill-rule:nonzero;stroke:none"
         d="m 2269.6,1712.75 c 0,-118.18 -19.11,-225.74 -94.93,-306.24 -84.22,-89.41 -222.22,-145.4 -356.18,-145.4 -111.38,0 -257.89,38.7 -337.57,103.13 -102.45,82.83 -123.39,208.21 -123.39,348.51 0,126.4 28.31,240.68 113.73,322.65 83.13,79.79 221.66,128.98 347.23,128.98 120.83,0.01 238.34,-45.54 320.53,-120.08 90.99,-82.5 130.58,-200.51 130.58,-331.55" /><path
         id="path176"
         style="fill:#f9b040;fill-opacity:1;fill-rule:nonzero;stroke:none"
         d="m 1926.88,1878.57 c -117.93,13.83 -369.56,30.07 -376.64,-46.61 -7.08,-76.69 184.33,-115.02 243.32,-142.16 58.99,-27.13 147.31,-169.2 187.06,-191.51 59.7,-33.49 105.17,49.68 105.17,152.33 0,102.65 -23.65,212.08 -158.91,227.95" /><path
         id="path178"
         style="fill:#d78821;fill-opacity:1;fill-rule:nonzero;stroke:none"
         d="m 2202.03,1440.17 c 1.3,1.86 2.57,3.73 3.83,5.61 1.16,1.74 2.32,3.49 3.45,5.26 1.55,2.43 3.07,4.86 4.55,7.32 0.77,1.28 1.51,2.57 2.26,3.86 1.39,2.38 2.74,4.78 4.06,7.19 0.5,0.94 1.03,1.87 1.54,2.81 1.76,3.31 3.46,6.64 5.1,10 0.45,0.92 0.89,1.85 1.32,2.76 1.36,2.85 2.67,5.71 3.95,8.59 0.23,0.53 0.5,1.04 0.73,1.57 0,0.02 0,0.03 0,0.05 28.23,64.53 36.78,138.67 36.78,217.56 0,20.37 -0.97,40.43 -2.92,60.08 -32.53,84.52 -58.62,110.66 -58.62,110.66 0,0 -23.32,55.61 -48.44,24.22 -25.12,-31.39 10.38,-157.9 12.56,-205.39 8.96,-195.53 -91.5,-390.01 -370.78,-440.89 5.77,-0.2 11.48,-0.32 17.09,-0.32 133.96,0 271.96,55.99 356.18,145.4 7.38,7.83 14.16,15.95 20.5,24.28 1.18,1.57 2.36,3.12 3.51,4.7 1.13,1.55 2.25,3.11 3.35,4.68" /><path
         id="path180"
         style="fill:#d78821;fill-opacity:1;fill-rule:nonzero;stroke:none"
         d="m 2037.5,2049 c 0,0 71.27,-49.59 98.78,-122.11 5.83,-3.33 7.08,0.42 7.08,0.42 0,0 -23.34,58.34 -68.35,100.02 -38.3,35.47 -37.51,21.67 -37.51,21.67" /><path
         id="path182"
         style="fill:#f9b040;fill-opacity:1;fill-rule:nonzero;stroke:none"
         d="m 1541.44,2086.44 c 50.05,7.28 100.49,11.63 151.01,14.09 50.51,2.33 101.2,2.34 151.67,-1.62 25.23,-2 50.39,-5.02 75.31,-9.58 24.91,-4.59 49.6,-10.68 73.48,-19.3 11.92,-4.36 21.65,-9.95 32.88,-16.02 51.59,-22.74 96.28,-79.61 121.15,-144.24 9.62,-23.6 17.31,-47.93 23.57,-72.58 12.57,-49.31 19.17,-99.9 22.08,-150.55 2.76,-50.65 2.12,-101.51 -2.94,-151.98 -2.55,-25.22 -6.02,-50.38 -11.28,-75.19 -2.63,-12.41 -5.53,-24.77 -9.24,-36.89 -3.7,-12.12 -7.87,-24.15 -13.53,-35.47 4.93,11.65 8.61,23.75 11.71,35.97 3.06,12.25 5.71,24.57 7.87,37 4.26,24.86 7.35,49.9 9.4,75.04 3.97,50.26 4.61,100.82 1.28,151.11 -1.65,25.15 -4.28,50.23 -8.01,75.12 -3.76,24.88 -8.37,49.65 -14.55,74.02 -12.34,48.63 -24.19,94.37 -51.8,136.18 -19.09,29.25 -49.96,68.24 -119.5,95.98 -23.64,8.72 -48.17,14.96 -72.96,19.7 -24.79,4.72 -49.88,7.91 -75.05,10.08 -50.36,4.3 -101.01,4.64 -151.52,2.66 -50.52,-2.08 -100.96,-6.45 -151.03,-13.53" /><path
         id="path184"
         style="fill:#fddeac;fill-opacity:1;fill-rule:nonzero;stroke:none"
         d="m 1932.56,1396.14 c -2.49,-3.69 -6.49,-5.94 -10.25,-8.12 -3.85,-2.13 -7.86,-3.94 -11.92,-5.63 -8.14,-3.32 -16.5,-6.07 -24.94,-8.55 -16.87,-4.92 -34.06,-8.71 -51.37,-11.79 -34.66,-5.91 -69.84,-8.84 -105.07,-8.78 -17.6,0.02 -35.23,0.85 -52.76,2.75 -17.56,1.85 -34.95,4.73 -52.23,8.11 -34.54,6.92 -68.64,16.12 -101.64,28.82 -8.23,3.29 -16.36,6.72 -24.34,11.07 -2.01,1.16 -3.92,2.18 -6.09,3.97 -2.14,1.94 -3.44,3.83 -4.78,5.79 -2.57,3.9 -4.62,7.88 -6.57,11.91 -7.65,16.12 -13.56,32.69 -19.27,49.34 -5.63,16.67 -10.78,33.48 -15.6,50.38 -4.83,16.9 -9.22,33.92 -13.01,51.11 -1.89,8.58 -3.66,17.2 -5.12,25.93 -1.48,8.73 -2.37,17.53 -3.12,26.28 -1.45,17.55 -2.19,35.1 -2.43,52.67 -0.14,17.56 0.18,35.13 1.32,52.66 0.59,8.76 1.37,17.52 2.69,26.21 0.68,4.34 1.49,8.67 2.64,12.92 0.57,2.12 1.23,4.23 2.09,6.25 0.87,2 1.88,4.05 3.57,5.48 -1.63,-1.5 -2.54,-3.56 -3.32,-5.58 -0.77,-2.04 -1.33,-4.16 -1.82,-6.29 -0.96,-4.26 -1.58,-8.58 -2.09,-12.93 -1.02,-8.68 -1.54,-17.42 -1.86,-26.16 -0.61,-17.48 -0.38,-35 0.3,-52.48 1.38,-34.98 3.57,-69.92 12.53,-103.72 8.4,-33.9 18.05,-67.58 29.42,-100.61 5.74,-16.46 11.75,-32.94 19.24,-48.45 1.9,-3.85 3.9,-7.65 6.18,-11.06 1.12,-1.66 2.42,-3.35 3.55,-4.35 1.2,-1.01 3.16,-2.13 4.95,-3.12 7.44,-4 15.51,-7.35 23.57,-10.55 32.36,-12.69 66.15,-22.05 100.29,-29.1 17.1,-3.46 34.31,-6.41 51.61,-8.34 17.32,-1.9 34.73,-3.04 52.17,-3.43 34.89,-0.72 69.89,1.59 104.45,6.75 17.29,2.53 34.49,5.78 51.42,10.17 8.46,2.2 16.85,4.7 25.05,7.72 4.09,1.52 8.15,3.16 12.06,5.11 3.82,2.01 7.87,4.08 10.5,7.64" /><path
         id="path186"
         style="fill:#e69f3c;fill-opacity:1;fill-rule:nonzero;stroke:none"
         d="m 1434.36,1784.92 c 1.76,1.33 4.09,1.46 6.22,1.7 2.17,0.17 4.35,0.19 6.52,0.16 4.35,-0.08 8.69,-0.38 13.01,-0.73 8.65,-0.76 17.25,-1.81 25.85,-2.86 l 51.45,-6.8 c 34.24,-4.56 68.53,-8.54 102.8,-10.39 34.27,-1.58 68.62,-1.08 102.8,1.87 17.09,1.46 34.14,3.31 51.21,5.59 17.11,2.18 34.08,5.01 51.92,6.4 4.48,0.29 9.04,0.43 13.74,0.23 2.37,-0.12 4.77,-0.32 7.23,-0.7 1.23,-0.2 2.48,-0.44 3.73,-0.73 1.36,-0.35 2.32,-0.58 4.02,-1.2 0.67,-0.22 2.87,-1.18 3.95,-1.87 1.28,-0.73 2.43,-1.55 3.5,-2.4 2.14,-1.71 3.96,-3.57 5.6,-5.47 3.26,-3.81 5.8,-7.8 8.07,-11.85 4.52,-8.1 7.89,-16.41 10.92,-24.77 2.99,-8.37 5.59,-16.8 7.82,-25.3 4.48,-16.99 8,-34.1 11,-51.26 3.03,-17.17 5.4,-34.42 7.32,-51.7 1.94,-17.29 3.4,-34.6 4.66,-51.86 1.24,-17.28 2.4,-34.56 3.22,-51.88 0.7,-17.33 1.27,-34.69 0.79,-52.06 -0.27,-8.69 -0.74,-17.39 -1.85,-26.03 -0.57,-4.32 -1.31,-8.62 -2.4,-12.84 -1.1,-4.2 -2.49,-8.42 -4.9,-12.03 2.1,3.8 3.1,8.03 3.85,12.25 0.71,4.24 1.08,8.53 1.3,12.81 0.46,8.59 0.36,17.21 0.02,25.82 -0.71,17.2 -2.11,34.4 -3.84,51.58 -1.65,17.18 -3.54,34.34 -5.56,51.49 -2.04,17.19 -3.89,34.31 -6.41,51.33 -5.09,33.99 -10.98,67.98 -20.31,100.77 -4.71,16.28 -9.96,32.66 -17.84,46.79 -3.88,6.84 -8.94,13.5 -13.97,15.23 -0.34,0.12 -1.47,0.44 -2.21,0.62 -0.85,0.18 -1.73,0.35 -2.64,0.49 -1.81,0.27 -3.73,0.43 -5.68,0.5 -3.93,0.16 -8.03,-0.01 -12.18,-0.28 -16.67,-1.17 -33.89,-3.89 -51.08,-5.97 -17.24,-2.14 -34.58,-4.09 -51.99,-5.21 -34.79,-2.23 -69.8,-2.42 -104.56,0.51 -34.76,2.85 -69.06,8.4 -103.15,14.6 l -50.97,9.81 c -8.49,1.65 -16.98,3.25 -25.5,4.64 -4.25,0.7 -8.52,1.35 -12.8,1.79 -2.14,0.2 -4.29,0.37 -6.44,0.37 -2.11,-0.06 -4.39,0.01 -6.24,-1.16" /><path
         id="path188"
         style="fill:#d78821;fill-opacity:1;fill-rule:nonzero;stroke:none"
         d="m 1841.38,1893.93 c 0,0 103.53,-72.52 214.79,-69.23 0,0 -61.07,2.16 -133.44,33.28 -45.46,19.56 -81.35,35.95 -81.35,35.95" /><path
         id="path190"
         style="fill:#fddeac;fill-opacity:1;fill-rule:nonzero;stroke:none"
         d="m 2054.27,1823.99 c 0,0 -86.65,-5.28 -212.89,69.94 43.54,-32.55 107.32,-72.58 212.89,-69.94" /><path
         id="path192"
         style="fill:#e69f3c;fill-opacity:1;fill-rule:nonzero;stroke:none"
         d="m 1898.3,1742.74 c 0,0 32.01,-9.4 67.34,-27.61 0,0 -46.92,17.11 -62.38,20.43 -4.41,2.75 -4.96,7.18 -4.96,7.18" /><path
         id="path194"
         style="fill:#fddeac;fill-opacity:1;fill-rule:nonzero;stroke:none"
         d="m 1905.38,1734.91 c 0,0 36.03,-9.12 58.83,-19.38 -29.19,7.75 -52.68,17.33 -58.83,19.38" /><path
         id="path196"
         style="fill:#d78821;fill-opacity:1;fill-rule:nonzero;stroke:none"
         d="m 1531,1887.94 c 0,0 -81.8,-31.26 -104.43,-44.98 52.82,36.18 104.43,44.98 104.43,44.98" /><path
         id="path198"
         style="fill:#fddeac;fill-opacity:1;fill-rule:nonzero;stroke:none"
         d="m 1428.18,1843.97 c 0,0 22.31,15.54 102.82,43.97 -22.53,-12.9 -77.88,-32.59 -102.82,-43.97" /><path
         id="path200"
         style="fill:#d78821;fill-opacity:1;fill-rule:nonzero;stroke:none"
         d="m 1745.62,1902.53 c 178.22,8.03 347.34,83.63 347.34,162.64 -19.27,17.12 -38.29,30.89 -60.45,50.28 -64.92,31.29 -138.83,48.94 -214.02,48.93 -125.57,0 -264.1,-49.19 -347.23,-128.98 -11.14,-10.68 -21.29,-21.93 -30.54,-33.68 -12.61,-43.83 71.91,-109.69 304.9,-99.19" /><path
         id="path202"
         style="fill:#3a2617;fill-opacity:1;fill-rule:nonzero;stroke:none"
         d="m 1839.51,1992.26 c 0,-39.34 -65.26,-71.24 -145.76,-71.24 -80.5,0 -145.76,31.9 -145.76,71.24 0,39.35 65.26,71.25 145.76,71.25 80.5,0 145.76,-31.9 145.76,-71.25" /><path
         id="path204"
         style="fill:#e69f3c;fill-opacity:1;fill-rule:nonzero;stroke:none"
         d="m 1693.75,2004.55 c 61,0 113.21,-16.22 134.95,-39.22 6.95,8.31 10.81,17.4 10.81,26.93 0,39.35 -65.26,71.25 -145.76,71.25 -80.5,0 -145.76,-31.9 -145.76,-71.25 0,-9.53 3.86,-18.62 10.81,-26.93 21.74,23 73.96,39.22 134.95,39.22" /><path
         id="path206"
         style="fill:#937241;fill-opacity:1;fill-rule:nonzero;stroke:none"
         d="m 1712.49,1921.63 -30.2,130.41 -94.99,-18.01 40.5,-105.29 c 19.81,-4.92 42.21,-7.72 65.95,-7.72 6.35,0 12.6,0.22 18.74,0.61" /><path
         id="path208"
         style="fill:#835c25;fill-opacity:1;fill-rule:nonzero;stroke:none"
         d="m 1600.29,2036.49 40.38,-110.55 c 16.34,-3.13 34.08,-4.89 52.68,-4.91 l -34.08,126.65 -58.98,-11.19" /><path
         id="path210"
         style="fill:#79501c;fill-opacity:1;fill-rule:nonzero;stroke:none"
         d="m 1618.09,2039.87 34.58,-115.93 c 8.62,-1.25 17.57,-2.12 26.79,-2.57 l -33.25,123.83 -28.12,-5.33" /><path
         id="path212"
         style="fill:#937241;fill-opacity:1;fill-rule:nonzero;stroke:none"
         d="m 1726.79,1922.88 c 12.69,1.44 24.76,3.68 35.94,6.62 l 57.13,81.6 -49.13,24.57 -43.94,-112.79" /><path
         id="path214"
         style="fill:#835c25;fill-opacity:1;fill-rule:nonzero;stroke:none"
         d="m 1731.57,1923.5 c 8.32,1.1 16.36,2.51 24.03,4.27 l 52.12,89.41 -31.41,15.69 -44.74,-109.37" /><path
         id="path216"
         style="fill:#e4f6fd;fill-opacity:1;fill-rule:nonzero;stroke:none"
         d="m 1434.36,1784.92 c 10.12,8.42 126.53,-21.94 224.49,-25.48 118.54,-4.3 185.23,20.83 213.18,11.51 27.93,-9.32 49.55,-105.69 58.87,-198.81 9.32,-93.12 13.3,-157.38 1.66,-176 -11.65,-18.63 -147.1,-54.19 -276.85,-34.32 -84.4,12.94 -148.86,39.38 -160.82,48.28 -18.1,13.46 -59.25,150.58 -66.24,201.8 -6.98,51.22 -8.26,161.38 5.71,173.02" /><path
         id="path218"
         style="fill:#b6e7f7;fill-opacity:1;fill-rule:nonzero;stroke:none"
         d="m 1929.57,1393 c -346.37,-56.02 -494.66,147.27 -495.17,391.95 -0.01,-0.01 -0.03,-0.02 -0.04,-0.03 -13.97,-11.64 -12.69,-121.8 -5.71,-173.02 6.99,-51.22 48.14,-188.34 66.24,-201.8 11.96,-8.9 76.42,-35.34 160.82,-48.28 122.8,-18.81 250.63,12.03 273.86,31.18" /><path
         id="path220"
         style="fill:#b6e7f7;fill-opacity:1;fill-rule:nonzero;stroke:none"
         d="m 1521.34,1494.31 c 0,0 91.72,10.62 233.47,-15.92 -124.32,14.41 -199.36,14.41 -231.95,3.79 -32.6,-10.6 -1.52,12.13 -1.52,12.13" /><path
         id="path222"
         style="fill:#ffffff;fill-opacity:1;fill-rule:nonzero;stroke:none"
         d="m 1531.18,1484.69 c 0,0 42.19,15 221.09,-6.08 0,0 -153.75,12.17 -221.09,6.08" /><path
         id="path224"
         style="fill:#ffffff;fill-opacity:1;fill-rule:nonzero;stroke:none"
         d="m 1917.12,1630.49 c 0,0 -31.99,-32.84 -64.41,-44.35 0,0 25.16,2.56 67.39,37.54 -1.28,6.39 -2.98,6.81 -2.98,6.81" /><path
         id="path226"
         style="fill:#b6e7f7;fill-opacity:1;fill-rule:nonzero;stroke:none"
         d="m 1919.25,1633.5 c 0,0 -39.45,-33.28 -66.54,-47.36 24.17,9.62 55.9,31.74 66.54,47.36" /><path
         id="path228"
         style="fill:#99def9;fill-opacity:1;fill-rule:nonzero;stroke:none"
         d="m 1423.58,1696.14 c 0.21,-30.7 2.14,-62.69 5.07,-84.24 6.99,-51.22 48.14,-188.34 66.24,-201.8 11.96,-8.9 76.42,-35.34 160.82,-48.28 48.01,-7.35 96.76,-7.1 139.76,-2.94 0.31,0.06 0.61,0.12 0.92,0.19 -300.19,-5.96 -360.67,233.77 -372.81,337.07" /><path
         id="path230"
         style="fill:#f9b040;fill-opacity:1;fill-rule:nonzero;stroke:none"
         d="m 1903.03,1315.08 c -217.6,-84.23 -417.27,71.76 -417.27,71.76 0,0 30.72,-38.44 76.82,-70.94 53.19,-23.71 115.33,-40.46 174.72,-48.79 48.37,0.96 87.79,14.65 165.73,47.97" /><path
         id="path232"
         style="fill:#211d1d;fill-opacity:1;fill-rule:nonzero;stroke:none"
         d="m 1818.49,2162.59 c -128.87,0 -264.67,-50.43 -345.99,-128.48 -76.15,-73.08 -113.17,-178.2 -113.17,-321.36 0,-218.44 62.03,-298.05 122.72,-347.11 83.4,-67.45 232.37,-102.74 336.44,-102.74 134.73,0 270.71,55.5 354.87,144.84 65.31,69.33 94.44,163.41 94.44,305.01 0,138.93 -44.95,253.12 -129.98,330.22 -83.84,76.03 -200.23,119.63 -319.33,119.62 z m 0,-903.27 c -104.69,0 -254.64,35.56 -338.7,103.53 -109.31,88.38 -124.05,226.48 -124.05,349.9 0,144.19 37.38,250.15 114.28,323.95 81.95,78.66 218.73,129.48 348.47,129.48 119.98,0 237.25,-43.94 321.74,-120.55 85.81,-77.8 131.16,-192.91 131.16,-332.88 0,-142.59 -29.43,-237.41 -95.41,-307.47 -84.82,-90.03 -221.8,-145.96 -357.49,-145.96" /><path
         id="path234"
         style="fill:#3a2617;fill-opacity:1;fill-rule:nonzero;stroke:none"
         d="m 2196.28,1825.95 c 13.08,-62.22 7.53,-116.06 -12.39,-120.24 -19.91,-4.18 -46.66,42.86 -59.74,105.08 -13.08,62.23 -7.54,116.06 12.38,120.25 19.93,4.18 46.66,-42.87 59.75,-105.09" /><path
         id="path236"
         style="fill:#ddab5a;fill-opacity:1;fill-rule:nonzero;stroke:none"
         d="m 2196.28,1825.95 c -13.09,62.22 -39.82,109.27 -59.75,105.09 -4.81,-1.02 -8.79,-4.96 -11.86,-11.2 16.99,-13.27 35.28,-52.31 45.41,-100.44 9.91,-47.16 9.11,-89.49 -0.53,-109.04 4.97,-3.89 9.84,-5.6 14.34,-4.65 19.92,4.18 25.47,58.02 12.39,120.24" /><path
         id="path238"
         style="fill:#5f492d;fill-opacity:1;fill-rule:nonzero;stroke:none"
         d="m 2124.15,1810.79 c 1.81,-8.61 3.89,-16.94 6.16,-24.87 l 121.74,12.38 -5.03,24.66 -123.29,-10.05 c 0.15,-0.71 0.26,-1.4 0.42,-2.12" /><path
         id="path240"
         style="fill:#937241;fill-opacity:1;fill-rule:nonzero;stroke:none"
         d="m 2122.94,1816.97 127.6,8.46 -3.63,42.44 -129.21,-11.46 c 0.84,-12.35 2.58,-25.65 5.24,-39.44" /><path
         id="path242"
         style="fill:#e69f3c;fill-opacity:1;fill-rule:nonzero;stroke:none"
         d="m 2472.48,959.359 c 0,0 36.6,-50.91 26.2,-103.168 -9.1,-45.73 -31.12,-76.98 -54.05,-70.429 -22.93,6.547 -29.48,47.488 -27.84,75.34 1.64,27.839 -3.27,50.757 -3.27,50.757 l 58.96,47.5" /><path
         id="path244"
         style="fill:#937241;fill-opacity:1;fill-rule:nonzero;stroke:none"
         d="m 2416.79,870.102 c 0,0 6,-3.793 13.91,-6.821 2.02,-0.711 4.06,-1.519 6.31,-1.929 1.11,-0.243 2.17,-0.582 3.25,-0.903 1.14,-0.121 2.3,-0.25 3.47,-0.379 1.17,-0.082 2.25,-0.492 3.44,-0.461 1.21,0.063 2.4,0.09 3.59,0.032 l 1.79,-0.063 0.89,-0.039 0.11,-0.008 h 0.05 0.03 c -2.29,-0.14 -0.61,-0.043 -1.12,-0.07 l 0.29,0.039 0.57,0.07 4.6,0.649 c 1.41,0.23 3.37,0.191 4.32,0.601 0.96,0.43 1.96,0.692 2.96,0.969 1.02,0.352 1.97,0.332 3.17,0.793 1.18,0.477 2.35,0.969 3.56,1.359 2.42,0.731 4.76,1.731 7.01,2.75 2.31,0.891 4.56,1.778 6.59,2.77 8.21,3.719 14.73,6.379 14.73,6.379 0,0 -1.31,-7.031 -7.37,-15.199 -1.44,-2.121 -3.17,-4.289 -5.33,-6.301 -2.05,-2.121 -4.38,-4.25 -7.21,-6.02 -2.67,-1.871 -5.54,-3.8 -9.55,-5.109 -1.88,-0.711 -3.8,-1.441 -5.74,-2.012 -1.97,-0.597 -3.19,-0.539 -4.82,-0.828 l -4.61,-0.473 -0.57,-0.058 -0.29,-0.031 -1.19,-0.071 h -0.05 l -0.08,0.012 -0.18,0.02 -1.4,0.179 -2.78,0.403 c -3.69,0.437 -7.25,1.168 -10.48,2.777 -1.62,0.711 -3.22,1.351 -4.7,2.133 -1.39,0.968 -2.76,1.879 -4.01,2.859 -2.64,1.75 -4.55,4.09 -6.27,6.141 -1.87,1.886 -2.89,4.25 -3.96,6.047 -1.07,1.812 -1.54,3.711 -2.06,5.082 -0.85,3.007 -0.87,4.711 -0.87,4.711" /><path
         id="path246"
         style="fill:#e69f3c;fill-opacity:1;fill-rule:nonzero;stroke:none"
         d="m 2321.8,1060.9 c 0,0 -63.88,-68.791 -72.06,-108.091 -8.19,-39.309 -4.91,-114.649 21.29,-114.649 26.21,0 27.84,36.031 47.5,55.692 19.64,19.648 47.49,26.199 47.49,26.199 L 2321.8,1060.9" /><path
         id="path248"
         style="fill:#937241;fill-opacity:1;fill-rule:nonzero;stroke:none"
         d="m 2250.56,957.719 c 0,0 4.08,-6.731 8.7,-16.321 4.91,-9.457 10.29,-22.187 16.85,-32.457 3.22,-5.203 6.77,-9.421 10.46,-12.281 1.88,-1.34 3.77,-2.582 5.9,-3.301 1.05,-0.48 2.13,-0.769 3.26,-0.98 1.11,-0.367 2.26,-0.52 3.4,-0.598 4.58,-0.461 9.05,-0.043 12.25,0.309 3.17,0.449 5.2,0.609 5.2,0.609 0,0 -1.09,-1.57 -3.4,-4.148 -1.15,-1.281 -2.76,-2.621 -4.69,-4.121 -2.05,-1.309 -4.38,-3.039 -7.45,-3.981 -2.96,-1.179 -6.58,-2.109 -10.56,-2.008 -4,-0.082 -8.3,0.887 -12.35,2.629 -8.16,3.602 -14.55,10.231 -18.88,17.141 -8.73,14.051 -11.17,29.34 -11.13,40.641 -0.15,11.339 2.44,18.867 2.44,18.867" /><path
         id="path250"
         style="fill:#e69f3c;fill-opacity:1;fill-rule:nonzero;stroke:none"
         d="m 2338.17,933.16 c 0,0 11.07,-108.871 11.75,-142.301 1.02,-49.16 37.39,-80.449 63.6,-18.199 26.2,62.231 21.29,124.461 18,139.199 -3.27,14.75 -93.35,21.301 -93.35,21.301" /><path
         id="path252"
         style="fill:#937241;fill-opacity:1;fill-rule:nonzero;stroke:none"
         d="m 2347.18,842.262 c 0,0 6.13,-2.871 13.64,-7.371 7.73,-4.192 17,-10.391 25.58,-13.641 2.1,-0.852 4.21,-1.602 6.14,-1.961 1.87,-0.578 4.15,-0.59 5.46,-0.91 5.56,0.32 10.94,0.191 15.42,-0.231 3.46,0.383 7.64,-0.367 9.85,0.161 1.15,0.25 2.49,0.281 3.12,0.511 0.62,0.25 1.04,0.508 1.04,0.508 0,0 -0.01,-0.328 -0.2,-1.187 -0.27,-0.809 -0.77,-1.782 -1.67,-3.082 -0.87,-1.45 -2.16,-2.758 -3.83,-3.938 -1.63,-1.312 -3.6,-2.82 -5.97,-4.211 -4.17,-2.262 -8.99,-4.14 -14.3,-5.922 -4.16,-0.918 -7.69,-1.41 -11.56,-0.918 -3.85,0.168 -7.44,1.352 -10.82,2.578 -13.59,5.512 -22,15.993 -26.55,24.372 -4.66,8.41 -5.35,15.242 -5.35,15.242" /><path
         id="path254"
         style="fill:#e4f6fd;fill-opacity:1;fill-rule:nonzero;stroke:none"
         d="m 2491.41,1012.05 c 9.55,-68.519 -24.13,-129.859 -75.24,-136.98 -51.1,-7.121 -100.28,42.668 -109.83,111.192 -9.55,68.538 24.14,129.868 75.24,136.998 51.1,7.11 100.28,-42.68 109.83,-111.21" /><path
         id="path256"
         style="fill:#e69f3c;fill-opacity:1;fill-rule:nonzero;stroke:none"
         d="m 2356.19,1485.09 c -78.61,6.54 -95.58,-360.31 -81.89,-396.35 31.12,-81.88 146.59,-169.521 222.74,-93.361 36.04,36.041 -62.35,483.161 -140.85,489.711" /><path
         id="path258"
         style="fill:#d78821;fill-opacity:1;fill-rule:nonzero;stroke:none"
         d="m 2389.16,1459.76 c -15.31,5.95 -34.02,9.19 -56.72,8.64 -1.88,-0.05 -3.73,-0.19 -5.55,-0.38 -53.43,-72.05 -64.38,-348.25 -52.59,-379.28 17.06,-44.86 59.42,-91.439 106.77,-111.881 -33.35,72.441 -25.74,220.421 -18.55,299.861 -1.89,5.04 -3.19,10.33 -3.74,15.86 0,0 1.4,-3.12 4.44,-8.28 2.66,27.93 5.06,45.65 5.06,45.65 40.76,-5 65.72,11.65 72.18,19.5 -15.97,46.31 -33.6,86.01 -51.3,110.31" /><path
         id="path260"
         style="fill:#3a2617;fill-opacity:1;fill-rule:nonzero;stroke:none"
         d="m 2433.05,1373.73 c -3.78,-17.13 -33.61,-25.13 -66.62,-17.86 -33.01,7.28 -56.72,27.07 -52.94,44.21 3.78,17.15 33.6,25.15 66.62,17.86 33.02,-7.26 56.72,-27.06 52.94,-44.21" /><path
         id="path262"
         style="fill:#937241;fill-opacity:1;fill-rule:nonzero;stroke:none"
         d="m 2418.98,1376.84 c -3.77,-17.14 -27.31,-26.53 -52.55,-20.97 -25.25,5.57 -42.65,23.98 -38.88,41.12 3.78,17.13 27.31,26.53 52.56,20.95 25.24,-5.55 42.64,-23.96 38.87,-41.1" /><path
         id="path264"
         style="fill:#e69f3c;fill-opacity:1;fill-rule:nonzero;stroke:none"
         d="m 2355.57,1349.52 c 0,0 -38.85,-225.85 6.32,-361.372 -28.91,136.412 -6.32,361.372 -6.32,361.372" /><path
         id="path266"
         style="fill:#f9b040;fill-opacity:1;fill-rule:nonzero;stroke:none"
         d="m 2450.61,1318.47 c -5.29,-12.56 -23.21,-21.77 -62.73,-21.09 -1.41,-12.07 -2.81,-25.98 -4.05,-41.05 11.46,-12.91 27.3,-27.37 48.44,-40.1 -10.78,2.22 -32.23,12.9 -49.25,29.92 -7.58,-101.13 -7.39,-245.71 36.64,-255.752 49.64,-11.32 71.41,6.973 84.61,30.882 3.98,56.72 -19.84,188.51 -53.66,297.19" /><path
         id="path268"
         style="fill:#211d1d;fill-opacity:1;fill-rule:nonzero;stroke:none"
         d="m 2354.12,1483.38 c -9.65,0 -18.87,-6.27 -27.39,-18.64 -52.23,-75.72 -61.88,-346.07 -50.75,-375.36 22.28,-58.63 89.13,-121.411 153.13,-121.411 25.21,0 47.63,9.652 66.66,28.679 23.21,23.222 -11.97,229.812 -62.75,368.422 -27.24,74.38 -54.58,116.36 -76.97,118.23 -0.65,0.05 -1.29,0.08 -1.93,0.08 z m 74.99,-518.989 v 0 c -65.48,0 -133.78,63.959 -156.48,123.709 -11.23,29.55 -1.54,302.3 51.14,378.68 9.86,14.3 20.85,21.09 32.57,20.09 30.59,-2.55 60.42,-66.96 80.05,-120.56 23.82,-65.03 45.92,-150.18 59.14,-227.8 6.43,-37.81 19.6,-127.58 2.78,-144.389 -19.73,-19.73 -43.01,-29.73 -69.2,-29.73" /><path
         id="path270"
         style="fill:#fddeac;fill-opacity:1;fill-rule:nonzero;stroke:none"
         d="m 2358.78,1292.58 c 0,0 4.35,-49.13 73.49,-76.35 -23.98,2.65 -72.47,33.34 -73.49,76.35" /><path
         id="path272"
         style="fill:#d78821;fill-opacity:1;fill-rule:nonzero;stroke:none"
         d="m 2415.85,1337.67 c 0,0 -40.98,-8.45 -54.92,-24.93 -0.84,-4.65 -0.42,-16.48 -0.42,-16.48 0,0 0,23.25 55.34,41.41" /><path
         id="path274"
         style="fill:#fddeac;fill-opacity:1;fill-rule:nonzero;stroke:none"
         d="m 2404.68,1334.68 c 0,0 -29.65,-12.86 -39.41,-27.31 9.57,5.92 18.56,15.81 39.41,27.31" /><path
         id="path276"
         style="fill:#e69f3c;fill-opacity:1;fill-rule:nonzero;stroke:none"
         d="m 2368.22,1080.86 c 0,0 16.18,-34.35 73.44,-48.96 -45.01,7.9 -69.49,18.56 -73.44,48.96" /><path
         id="path278"
         style="fill:#fddeac;fill-opacity:1;fill-rule:nonzero;stroke:none"
         d="m 2441.66,1031.9 c 0,0 -52.51,5.93 -75.81,36.72 18.96,-26.46 27.25,-33.95 75.81,-36.72" /><path
         id="path280"
         style="fill:#b6e7f7;fill-opacity:1;fill-rule:nonzero;stroke:none"
         d="m 2225.18,1956.76 c 53.12,7.41 258.76,-515.89 235.84,-578.13 -22.29,-60.49 -144.13,4.91 -178.53,60.6 -34.38,55.68 -127.74,507.7 -57.31,517.53" /><path
         id="path282"
         style="fill:#99def9;fill-opacity:1;fill-rule:nonzero;stroke:none"
         d="m 2200.49,1900.16 c -9.24,-125.01 54.8,-416.89 82,-460.93 23.56,-38.13 88.11,-80.81 133.62,-84.51 -47.21,20.52 -80.73,54.99 -109.4,101.84 -52.56,85.89 -105.97,365.01 -106.22,443.6" /><path
         id="path284"
         style="fill:#e4f6fd;fill-opacity:1;fill-rule:nonzero;stroke:none"
         d="m 2226.47,1956.74 c -8.26,-21.83 -6.85,-104.29 33.61,-269.37 29.89,-121.99 81.32,-284.63 202.51,-300.17 6.6,90.12 -183.09,568.82 -236.12,569.54" /><path
         id="path286"
         style="fill:#211d1d;fill-opacity:1;fill-rule:nonzero;stroke:none"
         d="m 2226.32,1955.04 c -0.3,0 -0.61,-0.02 -0.9,-0.06 -5.91,-0.83 -10.82,-5.32 -14.6,-13.36 -15.85,-33.72 -11.75,-128.91 11.25,-261.18 18.68,-107.43 46.48,-215.21 61.95,-240.27 23.33,-37.77 91.73,-83.94 138.29,-83.94 18.94,0 31.39,7.75 37.03,23.02 18.49,50.23 -123.59,433.87 -202.72,547.33 -16.39,23.53 -25.54,28.46 -30.3,28.46 z m 195.99,-602.39 c -47.64,0 -117.53,47.09 -141.34,85.64 -30.81,49.87 -111.5,423.82 -73.4,504.86 4.33,9.21 10.17,14.38 17.35,15.38 8.52,1.2 19.78,-8.57 34.65,-29.9 35.62,-51.07 89.7,-167.4 137.76,-296.32 38.68,-103.74 76.16,-225.02 65.37,-254.3 -6.12,-16.59 -20.08,-25.36 -40.39,-25.36" /><path
         id="path288"
         style="fill:#ffffff;fill-opacity:1;fill-rule:nonzero;stroke:none"
         d="m 2240.3,1917.25 c 0,0 24.54,-269.97 104.63,-387.52 -30.99,105.93 -104.63,387.52 -104.63,387.52" /><path
         id="path290"
         style="fill:#d78821;fill-opacity:1;fill-rule:nonzero;stroke:none"
         d="m 1779.47,3277.86 c -22.79,0 -43.23,15.96 -48.04,39.16 -22.64,109.09 29.95,166.06 68.35,207.65 13.96,15.13 27.15,29.42 34.71,43.88 10.35,19.79 9.66,41.59 -1.85,58.33 -12.02,17.48 -32.91,25.45 -58.89,22.43 -56.15,-6.53 -64.8,-71.3 -65.61,-78.66 -2.5,-27.02 -26.42,-46.73 -53.44,-44.2 -27.01,2.5 -46.87,26.62 -44.36,53.65 4.84,52.14 42.84,154.11 152.05,166.82 62.01,7.21 118.56,-16.85 151.22,-64.37 32.03,-46.57 35.07,-107.71 7.95,-159.55 -13.59,-26 -32.71,-46.71 -49.58,-64.98 -34.15,-36.99 -56.71,-61.43 -44.34,-121.04 5.51,-26.56 -11.56,-52.57 -38.13,-58.09 -3.37,-0.69 -6.73,-1.03 -10.04,-1.03" /><path
         id="path292"
         style="fill:#d78821;fill-opacity:1;fill-rule:nonzero;stroke:none"
         d="m 1850.54,3212.46 c 0,-27.2 -22.05,-49.25 -49.25,-49.25 -27.21,0 -49.26,22.05 -49.26,49.25 0,27.2 22.05,49.25 49.26,49.25 27.2,0 49.25,-22.05 49.25,-49.25" /><path
         id="path294"
         style="fill:#e69f3c;fill-opacity:1;fill-rule:nonzero;stroke:none"
         d="m 1841.74,3184.4 c 5.54,7.96 8.8,17.62 8.8,28.06 0,27.2 -22.05,49.25 -49.25,49.25 -22.51,0 -41.45,-15.11 -47.33,-35.73 20.71,28.4 88.92,29.92 87.78,-41.58" /><path
         id="path296"
         style="fill:#e69f3c;fill-opacity:1;fill-rule:nonzero;stroke:none"
         d="m 1938.22,3619.58 c -3.31,22.34 -11.48,43.88 -24.61,62.97 -32.66,47.52 -89.21,71.58 -151.22,64.37 -81.5,-9.48 -123.33,-68.67 -141.33,-119.77 23.96,35.19 79.86,100.06 166.44,100.06 88.15,0 133.29,-71 150.72,-107.63" /><path
         id="path298"
         style="fill:#bb6e1d;fill-opacity:1;fill-rule:nonzero;stroke:none"
         d="m 1654.7,3526.45 c 27.02,-2.53 50.94,17.18 53.44,44.2 0.81,7.36 9.46,72.13 65.61,78.66 25.98,3.02 46.87,-4.95 58.89,-22.43 5.9,-8.57 8.93,-18.47 9.13,-28.75 10.79,30.96 -23.48,65.47 -60.2,65.47 -109.63,0 -61.83,-122.93 -124.75,-122.93 -29.77,0 -46.48,39.43 -46.48,39.43 -2.51,-27.03 17.35,-51.15 44.36,-53.65" /><path
         id="path300"
         style="fill:#f9b040;fill-opacity:1;fill-rule:nonzero;stroke:none"
         d="m 1076.44,2618.49 c 162.78,-93.16 373.38,723.9 320.52,748.81 -31.8,14.97 -210.01,-219.57 -305.69,-432.57 l -14.83,-316.24" /><path
         id="path302"
         style="fill:#d78821;fill-opacity:1;fill-rule:nonzero;stroke:none"
         d="m 1405.04,3342.52 c -30.6,-40.17 -165.58,-223.32 -247.71,-431.96 -54.13,-137.53 -81.89,-192.5 -102.07,-210.47 -8.74,-7.78 -5.54,-66.31 21.18,-81.6 148.12,-84.78 335.84,584.13 328.6,724.03" /><path
         id="path304"
         style="fill:#fddeac;fill-opacity:1;fill-rule:nonzero;stroke:none"
         d="m 1102.69,2959.44 c 96.1,173.66 238.84,373.7 300.17,398.67 -1.37,4.82 -3.31,7.97 -5.9,9.19 -30.58,14.4 -196.49,-201.86 -294.27,-407.86" /><path
         id="path306"
         style="fill:#211d1d;fill-opacity:1;fill-rule:nonzero;stroke:none"
         d="m 1078.28,2619.52 c 8,-4.4 16.35,-6.63 24.84,-6.64 0.01,0 0.02,0 0.03,0 103.78,-0.01 224.05,328.52 276.32,561.83 27.84,124.25 28.46,185.44 16.72,190.96 -0.72,0.35 -1.58,0.51 -2.55,0.51 -37.26,0 -206.22,-221.93 -300.59,-431.88 z m 24.87,-10.22 c -0.01,0 -0.02,0 -0.03,0 -9.46,0.01 -18.73,2.57 -27.58,7.63 l -0.95,0.55 0.05,1.09 14.85,316.58 0.14,0.31 c 42.14,93.81 104.62,201.11 171.42,294.38 48.45,67.64 108.73,139.93 132.59,139.93 1.51,0 2.88,-0.29 4.08,-0.85 24.28,-11.44 -5.15,-152.14 -14.75,-194.99 -28.35,-126.55 -72.34,-263.39 -117.68,-366.07 -40.01,-90.58 -100.61,-198.56 -162.14,-198.56" /><path
         id="path308"
         style="fill:#e4f6fd;fill-opacity:1;fill-rule:nonzero;stroke:none"
         d="m 1066.49,2941.36 c 26.21,29.48 321.01,127.74 661.66,140.84 340.65,13.1 499.81,-15.7 592.88,-62.23 91.7,-45.86 153.94,-455.3 85.15,-569.95 -68.79,-114.64 -275.13,-399.61 -448.74,-435.64 -173.61,-36.03 -334.11,-49.13 -553.57,-3.27 -219.47,45.86 -271.87,36.02 -314.45,235.83 -42.58,199.81 -89.37,619.67 -22.93,694.42" /><path
         id="path310"
         style="fill:#b6e7f7;fill-opacity:1;fill-rule:nonzero;stroke:none"
         d="m 2358.49,2979.5 c -127,-16.27 -346.49,-58.64 -365.1,-158.43 -26.31,-141.12 64.58,-679.27 -57.4,-734.28 -116.95,-52.74 -471.33,-87.87 -753.31,-16.91 45.83,-27.13 113.32,-36.23 221.19,-58.77 219.46,-45.86 379.96,-32.76 553.57,3.27 173.61,36.03 379.95,321 448.74,435.64 58.89,98.15 21.75,412.29 -47.69,529.48" /><path
         id="path312"
         style="fill:#628795;fill-opacity:1;fill-rule:nonzero;stroke:none"
         d="m 2188.45,2597.51 c 5.54,-32.99 10.64,-66.05 15.29,-99.16 4.74,-33.1 9.06,-66.25 13.31,-99.42 4.11,-33.17 8.14,-66.36 11.74,-99.6 1.85,-16.63 3.54,-33.25 5.24,-49.9 0.68,-8.56 0.01,-17.11 -2.06,-25.35 -2.04,-8.21 -5.83,-16.08 -11.52,-22.25 10.13,13.51 12.29,31.16 10.09,47.18 -2.52,16.52 -4.97,33.06 -7.31,49.62 -4.73,33.1 -9.06,66.25 -13.3,99.41 -4.1,33.18 -8.12,66.37 -11.73,99.61 -3.71,33.23 -6.95,66.52 -9.75,99.86" /><path
         id="path314"
         style="fill:#ffffff;fill-opacity:1;fill-rule:nonzero;stroke:none"
         d="m 1066.49,2941.36 c -12.24,-13.77 -20.63,-39.29 -25.91,-72.94 6.66,11.9 37.55,58.79 110.87,58.79 83.99,0 120.12,0 120.12,0 0,0 -160.22,0 -180.51,29.37 -12.66,-6.06 -21.05,-11.27 -24.57,-15.22" /><path
         id="path316"
         style="fill:#b6e7f7;fill-opacity:1;fill-rule:nonzero;stroke:none"
         d="m 2358.49,2979.5 c -127,-16.27 -346.49,-58.64 -365.1,-158.43 -26.31,-141.12 88.81,-652.46 -57.4,-734.28 -111.96,-62.65 -471.33,-87.87 -753.31,-16.91 45.83,-27.13 113.32,-36.23 221.19,-58.77 219.46,-45.86 379.96,-32.76 553.57,3.27 173.61,36.03 379.95,321 448.74,435.64 58.89,98.15 21.75,412.29 -47.69,529.48" /><path
         id="path318"
         style="fill:#628795;fill-opacity:1;fill-rule:nonzero;stroke:none"
         d="m 2188.45,2597.51 c 5.54,-32.99 10.64,-66.05 15.29,-99.16 4.74,-33.1 9.06,-66.25 13.31,-99.42 4.11,-33.17 8.14,-66.36 11.74,-99.6 1.85,-16.63 3.54,-33.25 5.24,-49.9 0.68,-8.56 0.01,-17.11 -2.06,-25.35 -2.04,-8.21 -5.83,-16.08 -11.52,-22.25 10.13,13.51 12.29,31.16 10.09,47.18 -2.52,16.52 -4.97,33.06 -7.31,49.62 -4.73,33.1 -9.06,66.25 -13.3,99.41 -4.1,33.18 -8.12,66.37 -11.73,99.61 -3.71,33.23 -6.95,66.52 -9.75,99.86" /><path
         id="path320"
         style="fill:#b6e7f7;fill-opacity:1;fill-rule:nonzero;stroke:none"
         d="m 1244.86,2838.13 c -85.78,-6.43 -95.33,-60.59 -100.8,-87.93 -3.06,-15.33 -4.72,-40.34 -5.23,-69.56 43.15,61.24 101.15,114.12 101.15,114.12 0,0 17.37,21.29 20.11,44.35 -5.68,-0.32 -10.8,-0.65 -15.23,-0.98" /><path
         id="path322"
         style="fill:#99def9;fill-opacity:1;fill-rule:nonzero;stroke:none"
         d="m 1766.01,2838.13 c -102.95,10.72 -435.37,6.43 -521.15,0 -18.51,-1.39 -33.46,-5.01 -45.6,-10.09 -17.38,-41.87 -25.09,-128.03 -18.73,-197.93 8.58,-94.37 10.72,-205.89 94.36,-218.75 83.64,-12.87 218.75,-40.76 388.17,-32.18 124.85,6.33 191.53,13.75 233.2,36.65 3.42,15.22 3.28,32.38 4.85,51.28 4.29,51.47 2.15,193.02 -6.43,257.36 -8.59,64.34 -25.74,102.94 -128.67,113.66" /><path
         id="path324"
         style="fill:#b6e7f7;fill-opacity:1;fill-rule:nonzero;stroke:none"
         d="m 1315.8,2233.86 c 0,0 40.65,7.99 119.4,5.95 78.76,-2.04 197.4,-10.36 220.3,-22.9 22.31,-12.22 28.9,-106.88 8.18,-139.6 -26.17,128.15 -347.88,156.55 -347.88,156.55" /><path
         id="path326"
         style="fill:#ffffff;fill-opacity:1;fill-rule:nonzero;stroke:none"
         d="m 1306.46,2204.44 c 0,0 -12.78,-85.01 7.7,-104.2 9.47,-8.88 197.15,-37.3 349.52,-22.93 -150.59,15.23 -327.62,-0.75 -357.22,127.13" /><path
         id="path328"
         style="fill:#ffffff;fill-opacity:1;fill-rule:nonzero;stroke:none"
         d="m 1901.11,2467.11 c -0.57,-12.05 -0.39,-24.09 -1.14,-36.21 -0.82,-12.04 -2.82,-24.51 -8.83,-35.67 -5.9,-11.21 -15.7,-19.98 -26.33,-26.37 -10.71,-6.44 -22.26,-11.02 -33.93,-14.75 -11.63,-3.8 -23.91,-6.38 -35.88,-8.28 -12.04,-1.94 -24.09,-3.43 -36.15,-4.74 -24.11,-2.6 -48.28,-4.14 -72.44,-5.45 -96.65,-4.75 -193.46,-3.77 -290.12,3.66 -24.15,2.05 -48.3,4.62 -72.4,8.19 -12.06,1.8 -24.1,3.84 -36.13,6.38 -11.96,2.54 -24.2,5.53 -35.86,9.73 -11.49,3.99 -22.95,8.1 -34.37,12.87 -11.37,4.81 -22.82,10.19 -33.47,17.85 -5.29,3.84 -10.33,8.3 -14.67,13.43 -4.36,5.11 -7.98,10.81 -10.84,16.69 -5.71,11.82 -8.86,24.02 -11.56,35.99 -2.76,12.08 -4.41,24.35 -5.79,36.41 -1.35,12.1 -2.41,24.19 -3.16,36.29 -1.54,24.18 -2.43,48.36 -2.78,72.54 -0.21,24.18 -0.06,48.36 1.04,72.51 1.23,24.1 2.58,48.4 7.76,72.02 -1.83,-11.92 -2.33,-23.98 -2.65,-36 -0.33,-12.03 -0.34,-24.06 -0.14,-36.1 0.39,-24.06 1.3,-48.11 2.79,-72.11 1.39,-24.02 3.19,-48 5.7,-71.87 2.65,-23.79 5.13,-47.8 10.86,-70.47 2.9,-11.43 6.26,-22.66 11.36,-32.44 5.03,-9.83 12.1,-17.83 21.21,-24.1 9.06,-6.3 19.65,-11.14 30.54,-15.5 10.91,-4.35 22.22,-8.19 33.57,-11.9 22.06,-7.35 45.53,-11.42 69.11,-14.87 23.62,-3.37 47.47,-5.74 71.36,-7.68 47.79,-4.09 95.84,-6.13 143.89,-7.32 48.06,-1.33 96.17,-1.24 144.22,-0.27 24.02,0.55 48.03,1.61 71.95,3.18 11.96,0.81 23.9,1.8 35.73,3.24 5.91,0.72 11.8,1.54 17.6,2.59 5.73,1.01 11.53,2.45 17.26,3.93 11.43,3.03 22.66,6.85 32.95,12.35 10.25,5.48 19.41,12.97 25.49,22.83 6.14,9.85 8.86,21.65 10.44,33.48 1.63,11.88 2.34,23.97 3.81,35.94" /><path
         id="path330"
         style="fill:#f9b040;fill-opacity:1;fill-rule:nonzero;stroke:none"
         d="m 1315.8,2233.86 c -14.36,-11.18 -17.88,-114 1.98,-129.19 16.3,-12.46 338.1,-44.14 348.04,-25.26 9.14,17.37 7.97,128.2 -15.62,134.64 -23.59,6.43 -315.09,34.82 -334.4,19.81" /><path
         id="path332"
         style="fill:#d78821;fill-opacity:1;fill-rule:nonzero;stroke:none"
         d="m 1665.82,2079.41 c 3.4,6.45 5.37,25.83 5.29,47.95 -222.68,6.02 -335.66,73.1 -362.28,91.24 -7.88,-32.1 -7.11,-101.65 8.95,-113.93 16.3,-12.46 338.1,-44.14 348.04,-25.26" /><path
         id="path334"
         style="fill:#fddeac;fill-opacity:1;fill-rule:nonzero;stroke:none"
         d="m 1650.2,2214.05 c -16.35,4.45 -161.26,19.44 -255.18,23.24 52.7,-5.26 237.86,-24.25 252.46,-32.7 16.06,-9.3 20.17,-63.2 22.84,-100.91 2.92,38.39 -1.93,105.41 -20.12,110.37" /><path
         id="path336"
         style="fill:#fddeac;fill-opacity:1;fill-rule:nonzero;stroke:none"
         d="m 1359.88,2237.16 c 0.47,-12.29 0.35,-22.99 0.38,-35.18 0.1,-12.18 0.02,-24.34 0.2,-36.48 0.05,-12.14 0.34,-24.26 0.87,-36.36 0.64,-12.1 0.78,-21.82 3.19,-33.86 -5.28,11.18 -11.71,13.4 -14.06,69.57 -0.28,43.41 6.93,60.26 9.42,72.31" /><path
         id="path338"
         style="fill:#fddeac;fill-opacity:1;fill-rule:nonzero;stroke:none"
         d="m 1437.31,2233.72 c -3.21,-27.49 -4.53,-116.89 4.62,-146.64 -5.27,11.19 -11.7,18.17 -14.04,74.34 -0.28,43.41 6.93,60.25 9.42,72.3" /><path
         id="path340"
         style="fill:#fddeac;fill-opacity:1;fill-rule:nonzero;stroke:none"
         d="m 1520.27,2227.82 c -3.22,-27.5 -5.5,-119.33 3.65,-149.08 -5.28,11.19 -11.69,18.98 -14.04,75.15 -0.28,43.41 7.89,61.88 10.39,73.93" /><path
         id="path342"
         style="fill:#fddeac;fill-opacity:1;fill-rule:nonzero;stroke:none"
         d="m 1600.02,2221.09 c -3.22,-27.49 -3.67,-117.64 5.48,-147.39 -5.27,11.19 -12.32,14.44 -14.67,70.62 -0.28,43.4 6.7,64.72 9.19,76.77" /><path
         id="path344"
         style="fill:#937241;fill-opacity:1;fill-rule:nonzero;stroke:none"
         d="m 1359.88,2237.16 c 0.47,-12.29 0.35,-22.99 0.38,-35.18 0.1,-12.18 0.02,-24.34 0.2,-36.48 0.05,-12.14 0.34,-24.26 0.87,-36.36 0.64,-12.1 0.78,-21.82 3.19,-33.86 -5.28,11.18 -7.07,21.18 -8.77,33.35 -1.68,12.22 -2.28,24.53 -2.46,36.8 -0.04,12.28 0.35,24.55 1.4,36.77 1.01,12.22 2.7,22.91 5.19,34.96" /><path
         id="path346"
         style="fill:#937241;fill-opacity:1;fill-rule:nonzero;stroke:none"
         d="m 1437.37,2234.84 c 0.47,-12.77 0.53,-24.23 0.57,-36.9 0.1,-12.67 0.02,-25.31 0.2,-37.95 0.05,-12.62 0.34,-25.24 0.86,-37.83 0.65,-12.59 1.42,-25.14 3.83,-37.67 -5.29,11.71 -7.71,24.53 -9.4,37.18 -1.69,12.71 -2.28,25.5 -2.46,38.26 -0.04,12.76 0.35,25.51 1.4,38.22 1.01,12.7 2.51,24.15 5,36.69" /><path
         id="path348"
         style="fill:#937241;fill-opacity:1;fill-rule:nonzero;stroke:none"
         d="m 1520.27,2227.82 c 0.47,-13.03 -0.12,-22.87 -0.07,-35.79 0.09,-12.92 0.01,-25.83 0.19,-38.71 0.05,-12.88 0.34,-25.74 0.86,-38.59 0.65,-12.85 0.26,-23.2 2.67,-35.99 -5.3,11.98 -6.55,22.6 -8.25,35.51 -1.68,12.96 -2.27,26 -2.45,39.01 -0.04,13.02 0.35,26.02 1.4,38.98 1.02,12.95 3.15,22.77 5.65,35.58" /><path
         id="path350"
         style="fill:#937241;fill-opacity:1;fill-rule:nonzero;stroke:none"
         d="m 1600.02,2221.09 c 0.47,-12.42 0.55,-24.76 0.6,-37.09 0.09,-12.32 0.01,-24.62 0.19,-36.9 0.05,-12.28 0.34,-24.54 0.87,-36.78 0.64,-12.24 1.42,-24.44 3.82,-36.62 -5.28,11.33 -7.7,23.82 -9.4,36.12 -1.68,12.36 -2.28,24.81 -2.46,37.22 -0.04,12.42 0.35,24.82 1.4,37.18 1.02,12.35 2.49,24.68 4.98,36.87" /><path
         id="path352"
         style="fill:#211d1d;fill-opacity:1;fill-rule:nonzero;stroke:none"
         d="m 1411.61,2594.88 c 0,-42 -14.72,-76.04 -32.87,-76.04 -18.15,0 -32.86,34.04 -32.86,76.04 0,41.99 14.71,76.04 32.86,76.04 18.15,0 32.87,-34.05 32.87,-76.04" /><path
         id="path354"
         style="fill:#211d1d;fill-opacity:1;fill-rule:nonzero;stroke:none"
         d="m 1650.68,2594.88 c 0,-42 -14.72,-76.04 -32.87,-76.04 -18.15,0 -32.86,34.04 -32.86,76.04 0,41.99 14.71,76.04 32.86,76.04 18.15,0 32.87,-34.05 32.87,-76.04" /><path
         id="path356"
         style="fill:#ffffff;fill-opacity:1;fill-rule:nonzero;stroke:none"
         d="m 2213.7,3021.11 c 0,0 -179.81,-79.93 -206.15,-94.24 -46.13,-25.05 -43.2,-78.53 -41.23,-113.87 -20.11,82.41 -37.31,102.09 -104.06,107.98 75.95,-0.75 106.97,9.22 159.98,28.86 53,19.63 191.46,71.27 191.46,71.27" /><path
         id="path358"
         style="fill:#211d1d;fill-opacity:1;fill-rule:nonzero;stroke:none"
         d="m 1881.71,3083.58 c -47.15,0 -98.79,-1.07 -153.5,-3.17 -336.78,-12.96 -633.2,-109.68 -660.38,-140.25 -65.83,-74.06 -19.8,-490.42 23.34,-692.85 38.26,-179.51 84.05,-188.63 254.43,-222.57 18.49,-3.68 37.6,-7.48 58.63,-11.88 94.48,-19.74 181.89,-29.34 267.25,-29.34 88.85,0 176.94,10.06 285.59,32.62 174.93,36.3 382.39,326.18 447.58,434.81 46.34,77.24 32.54,289.38 -8.84,431.47 -21.56,74.07 -48.42,122.35 -75.59,135.94 -55.99,28 -162.37,65.22 -438.51,65.22 z M 1671.48,1979.94 c -85.61,0 -173.26,9.62 -267.98,29.41 -21.02,4.39 -40.12,8.2 -58.6,11.88 -172.2,34.3 -218.49,43.51 -257.24,225.34 -43.27,203.04 -89.14,621.02 -22.51,695.98 27.43,30.86 325.22,128.45 662.94,141.44 54.73,2.11 106.42,3.18 153.62,3.18 276.9,0 383.8,-37.44 440.12,-65.6 28.07,-14.04 55.58,-63.11 77.43,-138.15 41.58,-142.8 55.28,-356.29 8.47,-434.32 -65.41,-109 -273.74,-399.91 -449.93,-436.48 -108.9,-22.6 -197.21,-32.68 -286.32,-32.68" /><path
         id="path360"
         style="fill:#f9b040;fill-opacity:1;fill-rule:nonzero;stroke:none"
         d="m 2469.7,3339.46 c -52.87,24.9 -510.55,-640.06 -320.53,-748.81 162.78,-93.17 373.39,723.9 320.53,748.81" /><path
         id="path362"
         style="fill:#d78821;fill-opacity:1;fill-rule:nonzero;stroke:none"
         d="m 2477.78,3314.68 c -30.6,-40.17 -165.58,-223.32 -247.71,-431.96 -77.59,-197.11 -100.98,-224.64 -125.56,-216.69 4.04,-33.81 17.95,-60.09 44.66,-75.38 148.13,-84.78 335.84,584.12 328.61,724.03" /><path
         id="path364"
         style="fill:#f9b040;fill-opacity:1;fill-rule:nonzero;stroke:none"
         d="m 2266.81,2745.07 c -16.1,-46.06 -41.91,-78.94 -57.66,-73.44 -15.75,5.51 -15.47,47.31 0.63,93.37 16.1,46.06 41.91,78.94 57.66,73.44 15.74,-5.51 15.47,-47.31 -0.63,-93.37" /><path
         id="path366"
         style="fill:#99def9;fill-opacity:1;fill-rule:nonzero;stroke:none"
         d="m 2266.02,2755.39 c -16.1,-46.06 -41.92,-78.94 -57.67,-73.44 -15.75,5.51 -15.47,47.31 0.63,93.38 16.1,46.06 41.91,78.94 57.66,73.43 15.75,-5.5 15.47,-47.31 -0.62,-93.37" /><path
         id="path368"
         style="fill:#e4f6fd;fill-opacity:1;fill-rule:nonzero;stroke:none"
         d="m 2212.71,2762.81 c 16.09,46.06 41.91,78.93 57.66,73.43 2.41,-0.85 4.45,1.03 6.12,-1.41 -1.84,7.33 -5.11,12.28 -9.85,13.93 -15.75,5.51 -41.56,-27.37 -57.66,-73.43 -13.62,-38.98 -15.91,-74.9 -6.75,-88.37 -4.3,17.09 -0.79,43.62 10.48,75.85" /><path
         id="path370"
         style="fill:#fddeac;fill-opacity:1;fill-rule:nonzero;stroke:none"
         d="m 2175.42,2931.59 c 96.1,173.67 238.85,373.71 300.18,398.68 -1.37,4.82 -3.31,7.96 -5.9,9.19 -30.58,14.4 -196.5,-201.86 -294.28,-407.87" /><path
         id="path372"
         style="fill:#211d1d;fill-opacity:1;fill-rule:nonzero;stroke:none"
         d="m 2466.38,3338.34 c -22.81,0 -95.28,-83.89 -168.59,-195.13 -41.36,-62.78 -141.65,-224.07 -179.2,-365.27 -25.68,-96.59 -15.09,-159.08 31.47,-185.73 8.3,-4.75 16.97,-7.16 25.8,-7.17 0.01,0 0.02,0 0.03,0 103.78,-0.02 224.05,328.52 276.32,561.84 27.83,124.24 28.44,185.43 16.72,190.96 -0.73,0.33 -1.58,0.5 -2.55,0.5 z m -290.49,-756.89 c -0.01,0 -0.02,0 -0.04,0 -9.44,0.01 -18.72,2.58 -27.57,7.64 -48.15,27.56 -59.31,91.41 -33.15,189.78 60.6,227.91 303.05,563.06 351.25,563.06 1.5,0 2.88,-0.29 4.08,-0.85 24.28,-11.44 -5.16,-152.14 -14.76,-194.99 -28.34,-126.54 -72.33,-263.39 -117.67,-366.06 -40.01,-90.59 -100.62,-198.58 -162.14,-198.58" /></g></g></svg>