<svg xmlns="http://www.w3.org/2000/svg" xmlns:xlink="http://www.w3.org/1999/xlink" version="1.1" style="enable-background:new 0 0 52 52;" xml:space="preserve" width="60" height="60"><rect id="backgroundrect" width="100%" height="100%" x="0" y="0" fill="none" stroke="none" class="" style=""/>
























































<g class="currentLayer" style=""><title>Layer 1</title><path style="fill:#38454F;" d="M54.950150150299066,51.4634148478508 H5.762150150299071 C4.986150150299071,51.4634148478508 4.356150150299072,50.833414847850804 4.356150150299072,50.057414847850794 V38.8694148478508 C4.356150150299072,38.093414847850795 4.986150150299071,37.4634148478508 5.762150150299071,37.4634148478508 h49.187 C55.72615015029908,37.4634148478508 56.35615015029907,38.093414847850795 56.35615015029907,38.8694148478508 v11.187 C56.35615015029907,50.833414847850804 55.72615015029908,51.4634148478508 54.950150150299066,51.4634148478508 z" id="svg_1" class=""/><path style="fill:#28384C;" d="M10.356150150299072,55.4634148478508 L10.356150150299072,55.4634148478508 c-1.657,0 -3,-1.343 -3,-3 v-1 h6 v1 C13.356150150299072,54.12041484785081 12.013150150299072,55.4634148478508 10.356150150299072,55.4634148478508 z" id="svg_2" class=""/><path style="fill:#28384C;" d="M50.35615015029907,55.4634148478508 L50.35615015029907,55.4634148478508 c-1.657,0 -3,-1.343 -3,-3 v-1 h6 v1 C53.35615015029907,54.12041484785081 52.01315015029908,55.4634148478508 50.35615015029907,55.4634148478508 z" id="svg_3" class=""/><circle style="fill:#546A79;" cx="52.35615015029907" cy="42.4634148478508" r="1" id="svg_4" class=""/><circle style="fill:#546A79;" cx="48.35615015029907" cy="42.4634148478508" r="1" id="svg_5" class=""/><circle style="fill:#546A79;" cx="50.35615015029907" cy="46.4634148478508" r="1" id="svg_6" class=""/><circle style="fill:#546A79;" cx="46.35615015029907" cy="46.4634148478508" r="1" id="svg_7" class=""/><circle style="fill:#546A79;" cx="44.35615015029907" cy="42.4634148478508" r="1" id="svg_8" class=""/><circle style="fill:#546A79;" cx="42.35615015029907" cy="46.4634148478508" r="1" id="svg_9" class=""/><circle style="fill:#546A79;" cx="40.35615015029907" cy="42.4634148478508" r="1" id="svg_10" class=""/><circle style="fill:#546A79;" cx="38.35615015029907" cy="46.4634148478508" r="1" id="svg_11" class=""/><circle style="fill:#546A79;" cx="36.35615015029907" cy="42.4634148478508" r="1" id="svg_12" class=""/><circle style="fill:#546A79;" cx="34.35615015029907" cy="46.4634148478508" r="1" id="svg_13" class=""/><path style="fill:#546A79;" d="M54.950150150299066,37.4634148478508 H5.762150150299071 C4.986150150299071,37.4634148478508 4.356150150299072,36.833414847850804 4.356150150299072,36.0574148478508 V24.8694148478508 C4.356150150299072,24.093414847850795 4.986150150299071,23.4634148478508 5.762150150299071,23.4634148478508 h49.187 C55.72615015029908,23.4634148478508 56.35615015029907,24.093414847850795 56.35615015029907,24.8694148478508 v11.187 C56.35615015029907,36.833414847850804 55.72615015029908,37.4634148478508 54.950150150299066,37.4634148478508 z" id="svg_14" class=""/><path style="fill:#38454F;" d="M54.950150150299066,23.4634148478508 H5.762150150299071 C4.986150150299071,23.4634148478508 4.356150150299072,22.833414847850804 4.356150150299072,22.0574148478508 V10.869414847850798 C4.356150150299072,10.093414847850799 4.986150150299071,9.4634148478508 5.762150150299071,9.4634148478508 h49.187 C55.72615015029908,9.4634148478508 56.35615015029907,10.093414847850799 56.35615015029907,10.869414847850798 v11.187 C56.35615015029907,22.833414847850804 55.72615015029908,23.4634148478508 54.950150150299066,23.4634148478508 z" id="svg_15" class=""/><circle style="fill:#38454F;" cx="52.35615015029907" cy="28.4634148478508" r="1" id="svg_16" class=""/><circle style="fill:#38454F;" cx="48.35615015029907" cy="28.4634148478508" r="1" id="svg_17" class=""/><circle style="fill:#38454F;" cx="50.35615015029907" cy="32.4634148478508" r="1" id="svg_18" class=""/><circle style="fill:#38454F;" cx="46.35615015029907" cy="32.4634148478508" r="1" id="svg_19" class=""/><circle style="fill:#38454F;" cx="44.35615015029907" cy="28.4634148478508" r="1" id="svg_20" class=""/><circle style="fill:#38454F;" cx="42.35615015029907" cy="32.4634148478508" r="1" id="svg_21" class=""/><circle style="fill:#38454F;" cx="40.35615015029907" cy="28.4634148478508" r="1" id="svg_22" class=""/><circle style="fill:#38454F;" cx="38.35615015029907" cy="32.4634148478508" r="1" id="svg_23" class=""/><circle style="fill:#38454F;" cx="36.35615015029907" cy="28.4634148478508" r="1" id="svg_24" class=""/><circle style="fill:#38454F;" cx="34.35615015029907" cy="32.4634148478508" r="1" id="svg_25" class=""/><circle style="fill:#546A79;" cx="52.35615015029907" cy="14.4634148478508" r="1" id="svg_26" class=""/><circle style="fill:#546A79;" cx="48.35615015029907" cy="14.4634148478508" r="1" id="svg_27" class=""/><circle style="fill:#546A79;" cx="50.35615015029907" cy="18.4634148478508" r="1" id="svg_28" class=""/><circle style="fill:#546A79;" cx="46.35615015029907" cy="18.4634148478508" r="1" id="svg_29" class=""/><circle style="fill:#546A79;" cx="44.35615015029907" cy="14.4634148478508" r="1" id="svg_30" class=""/><circle style="fill:#546A79;" cx="42.35615015029907" cy="18.4634148478508" r="1" id="svg_31" class=""/><circle style="fill:#546A79;" cx="40.35615015029907" cy="14.4634148478508" r="1" id="svg_32" class=""/><circle style="fill:#546A79;" cx="38.35615015029907" cy="18.4634148478508" r="1" id="svg_33" class=""/><circle style="fill:#546A79;" cx="36.35615015029907" cy="14.4634148478508" r="1" id="svg_34" class=""/><circle style="fill:#546A79;" cx="34.35615015029907" cy="18.4634148478508" r="1" id="svg_35" class=""/><circle style="fill:#283238;" cx="12.356150150299072" cy="16.4634148478508" r="3" id="svg_36" class=""/><circle style="fill:#81EA1C;" cx="12.356150150299072" cy="16.4634148478508" r="2" id="svg_37" class=""/><circle style="fill:#283238;" cx="12.356150150299072" cy="30.4634148478508" r="3" id="svg_38" class=""/><circle style="fill:#81EA1C;" cx="12.356150150299072" cy="30.4634148478508" r="2" id="svg_39" class=""/><circle style="fill:#283238;" cx="12.356150150299072" cy="44.4634148478508" r="3" id="svg_40" class=""/><circle style="fill:#81EA1C;" cx="12.356150150299072" cy="44.4634148478508" r="2" id="svg_41" class=""/><g id="svg_42" class="">
</g><g id="svg_43" class="">
</g><g id="svg_44" class="">
</g><g id="svg_45" class="">
</g><g id="svg_46" class="">
</g><g id="svg_47" class="">
</g><g id="svg_48" class="">
</g><g id="svg_49" class="">
</g><g id="svg_50" class="">
</g><g id="svg_51" class="">
</g><g id="svg_52" class="">
</g><g id="svg_53" class="">
</g><g id="svg_54" class="">
</g><g id="svg_55" class="">
</g><g id="svg_56" class="">
</g></g></svg>