<svg xmlns="http://www.w3.org/2000/svg" xmlns:xlink="http://www.w3.org/1999/xlink" data-name="Layer 1" width="1000" height="1000" style=""><rect id="backgroundrect" width="100%" height="100%" x="0" y="0" fill="none" stroke="none" class="" style=""/><defs><linearGradient id="afc558c8-c8c4-43a0-9ff8-36c738bcadf8" x1="0.5009874701499939" y1="0.9986805319786072" x2="0.5009874701499939" y2="0.0013199785025790334"><stop offset="0" stop-color="gray" stop-opacity="0.25"/><stop offset="0.54" stop-color="gray" stop-opacity="0.12"/><stop offset="1" stop-color="gray" stop-opacity="0.1"/></linearGradient><linearGradient id="be82fdd5-66ab-49fc-8aef-9500b2c1a08e" x1="537.719970703125" y1="134.67999267578125" x2="537.719970703125" y2="104.44999694824219" xlink:href="#afc558c8-c8c4-43a0-9ff8-36c738bcadf8"/><linearGradient id="b48d588d-308d-4a6b-9b06-bb920dd362b3" x1="814.719970703125" y1="181.67999267578125" x2="814.719970703125" y2="151.4499969482422" xlink:href="#afc558c8-c8c4-43a0-9ff8-36c738bcadf8"/><linearGradient id="fc40df44-a3eb-403a-93a3-c2e14ff8183d" x1="358.8699951171875" y1="217.60000610351562" x2="358.8699951171875" y2="193.82000732421875" xlink:href="#afc558c8-c8c4-43a0-9ff8-36c738bcadf8"/><linearGradient id="b9a74a8c-4f86-4b12-a01e-b38b12640f79" x1="708.8699951171875" y1="160.60000610351562" x2="708.8699951171875" y2="136.82000732421875" xlink:href="#afc558c8-c8c4-43a0-9ff8-36c738bcadf8"/><linearGradient id="e1cc7b1e-4a38-4d88-bc31-d957dc0e789b" x1="909.8699951171875" y1="160.60000610351562" x2="909.8699951171875" y2="136.82000732421875" xlink:href="#afc558c8-c8c4-43a0-9ff8-36c738bcadf8"/><linearGradient id="a786e464-0004-4162-bf9c-1c77ea556f3f" x1="343.17999267578125" y1="57.119998931884766" x2="343.17999267578125" y2="44.97999954223633" xlink:href="#afc558c8-c8c4-43a0-9ff8-36c738bcadf8"/><linearGradient id="ed7113af-a3f6-4b83-ad2a-4145c0897ac0" x1="344.17999267578125" y1="133.1199951171875" x2="344.17999267578125" y2="120.9800033569336" xlink:href="#afc558c8-c8c4-43a0-9ff8-36c738bcadf8"/><linearGradient id="bcce56f4-6100-452c-94c0-0e4dd07d63d7" x1="663.1799926757812" y1="41.119998931884766" x2="663.1799926757812" y2="28.979999542236328" xlink:href="#afc558c8-c8c4-43a0-9ff8-36c738bcadf8"/><linearGradient id="f80e6619-6a6a-4d27-b58b-13c487a3d966" x1="802.1799926757812" y1="149.1199951171875" x2="802.1799926757812" y2="136.97999572753906" xlink:href="#afc558c8-c8c4-43a0-9ff8-36c738bcadf8"/><linearGradient id="f9495c88-7725-4ca5-9368-72e54c981d92" x1="490.7300109863281" y1="580.9000244140625" x2="490.7300109863281" y2="313.1000061035156" xlink:href="#afc558c8-c8c4-43a0-9ff8-36c738bcadf8"/><linearGradient id="b82d2768-795c-4dc2-9de8-934b40644624" x1="592.8300170898438" y1="800.3400268554688" x2="592.8300170898438" y2="416.2699890136719" xlink:href="#afc558c8-c8c4-43a0-9ff8-36c738bcadf8"/><linearGradient id="e991d392-04f4-4018-b9d8-24ee41179e03" x1="593.6099853515625" y1="431.92999267578125" x2="593.6099853515625" y2="298.80999755859375" xlink:href="#afc558c8-c8c4-43a0-9ff8-36c738bcadf8"/><linearGradient id="f4033a33-768d-491b-9f07-cdde246aef8f" x1="551.030029296875" y1="816.0499877929688" x2="551.030029296875" y2="767.0700073242188" xlink:href="#afc558c8-c8c4-43a0-9ff8-36c738bcadf8"/><linearGradient id="bd26dae2-ae14-4e05-844d-7f17be67c7f9" x1="635.5900268554688" y1="816.0499877929688" x2="635.5900268554688" y2="767.0700073242188" xlink:href="#afc558c8-c8c4-43a0-9ff8-36c738bcadf8"/><linearGradient id="a2f70ec8-8dd0-4c65-80e1-e3da54a3f4f7" x1="745.3400268554688" y1="828.1500244140625" x2="745.3400268554688" y2="252.92999267578125" xlink:href="#afc558c8-c8c4-43a0-9ff8-36c738bcadf8"/><linearGradient id="e5b0ae8b-f5f0-41eb-bef6-53438e13ac16" x1="924.9099731445312" y1="439.70001220703125" x2="924.9099731445312" y2="234.6699981689453" xlink:href="#afc558c8-c8c4-43a0-9ff8-36c738bcadf8"/><linearGradient id="f0273ade-576a-4ad8-9a6f-7fc7971c2987" x1="436.3399963378906" y1="828.1500244140625" x2="436.3399963378906" y2="252.92999267578125" gradientTransform="matrix(-1, 0, 0, 1, 891, 0)" xlink:href="#afc558c8-c8c4-43a0-9ff8-36c738bcadf8"/><linearGradient id="e88a7565-ba81-4ab7-95f1-6629f0af5c08" x1="615.9099731445312" y1="439.70001220703125" x2="615.9099731445312" y2="234.6699981689453" gradientTransform="matrix(-1, 0, 0, 1, 891, 0)" xlink:href="#afc558c8-c8c4-43a0-9ff8-36c738bcadf8"/><linearGradient id="bf514d7a-d100-48d8-89e1-e526b58397db" x1="492.2900085449219" y1="513.5599975585938" x2="492.2900085449219" y2="403.92999267578125" xlink:href="#afc558c8-c8c4-43a0-9ff8-36c738bcadf8"/><linearGradient id="a76115cf-cd8c-4176-9a3c-9a73b10c4903" x1="798.4299926757812" y1="18.600000381469727" x2="798.4299926757812" y2="0" xlink:href="#afc558c8-c8c4-43a0-9ff8-36c738bcadf8"/><linearGradient id="a32a47df-12b4-443d-9765-8cd8524a5228" x1="765.4299926757812" y1="143.60000610351562" x2="765.4299926757812" y2="125" xlink:href="#afc558c8-c8c4-43a0-9ff8-36c738bcadf8"/><linearGradient id="be475b5a-0363-4725-9e86-39c6835f7bb0" x1="630.4299926757812" y1="160.60000610351562" x2="630.4299926757812" y2="142" xlink:href="#afc558c8-c8c4-43a0-9ff8-36c738bcadf8"/><linearGradient id="ba4f5741-eaf0-4ada-8124-dbf7ca11ac85" x1="545.4299926757812" y1="61.599998474121094" x2="545.4299926757812" y2="43" xlink:href="#afc558c8-c8c4-43a0-9ff8-36c738bcadf8"/><linearGradient id="ed21139e-2a95-41cd-b755-047a620bfa49" x1="436.42999267578125" y1="115.5999984741211" x2="436.42999267578125" y2="97" xlink:href="#afc558c8-c8c4-43a0-9ff8-36c738bcadf8"/><linearGradient id="e90eae1c-1fda-4179-aacd-c7bc40fa73b9" x1="247.42999267578125" y1="75.5999984741211" x2="247.42999267578125" y2="57" xlink:href="#afc558c8-c8c4-43a0-9ff8-36c738bcadf8"/><linearGradient id="abb092bc-1b17-4de6-b635-8e2be4eed0bd" x1="214.42999267578125" y1="234.60000610351562" x2="214.42999267578125" y2="216" xlink:href="#afc558c8-c8c4-43a0-9ff8-36c738bcadf8"/><linearGradient id="e8540004-522d-4b52-801f-b41ff9acf3f2" x1="736.9500122070312" y1="40.65999984741211" x2="736.9500122070312" y2="30.610000610351562" xlink:href="#afc558c8-c8c4-43a0-9ff8-36c738bcadf8"/><linearGradient id="b2f43547-506b-48c0-921d-dcf648161924" x1="472.95001220703125" y1="168.66000366210938" x2="472.95001220703125" y2="158.61000061035156" xlink:href="#afc558c8-c8c4-43a0-9ff8-36c738bcadf8"/><linearGradient id="a5f9757d-6ad9-4e45-a734-ac7d7f2fecf7" x1="185.9499969482422" y1="97.66000366210938" x2="185.9499969482422" y2="87.61000061035156" xlink:href="#afc558c8-c8c4-43a0-9ff8-36c738bcadf8"/><linearGradient id="a1b47319-948d-4901-bb26-91f5cee31525" x1="250.9499969482422" y1="224.66000366210938" x2="250.9499969482422" y2="214.61000061035156" xlink:href="#afc558c8-c8c4-43a0-9ff8-36c738bcadf8"/><linearGradient id="b1659724-cb8a-4fa8-b312-9f444de5ed18" x1="364.95001220703125" y1="207.66000366210938" x2="364.95001220703125" y2="197.61000061035156" xlink:href="#afc558c8-c8c4-43a0-9ff8-36c738bcadf8"/><linearGradient id="ec4cfa8f-50ab-441a-b17a-cb383eba365e" x1="529.9500122070312" y1="128.66000366210938" x2="529.9500122070312" y2="118.61000061035156" xlink:href="#afc558c8-c8c4-43a0-9ff8-36c738bcadf8"/></defs><title>Astronaut</title><g class="currentLayer" style=""><title>Layer 1</title><path d="M445.4163671875,147.15818161010742 H443.5263671875 c-0.3900000000000003,0 -1.37,-1.55 -1.37,-2 v-1.8 c0,-1.4100000000000001 -1.59,-5.27 -3,-5.27 s-3,3.8600000000000003 -3,5.27 v1.8 c0,0.6400000000000005 -0.4900000000000002,2 -1.09,2 h-1.94 c-1.4100000000000001,0 -5.27,1.09 -5.27,2.5 s3.8600000000000003,2.5 5.27,2.5 h2.31 c0.7400000000000004,0 0.7200000000000004,0.7500000000000004 0.7200000000000004,1.1400000000000001 v2.4 c0,1.4100000000000001 1.59,5.27 3,5.27 s3,-3.8600000000000003 3,-5.27 v-2.4 c0,-0.3200000000000003 0.6400000000000005,-1.1400000000000001 1,-1.1400000000000001 h2.31 c1.4100000000000001,0 5.27,-1.09 5.27,-2.5 S446.82636718749995,147.15818161010742 445.4163671875,147.15818161010742 z" fill="#2196f3" id="svg_1" class=""/><path d="M173.4063671875,250.39818161010743 h-2.5700000000000003 c-0.52,0 -1.81,-2.05 -1.81,-2.64 v-2.38 c0,-1.86 -2.11,-7 -4,-7 s-4,5.1 -4,7 v2.38 c0,0.8400000000000004 -0.6500000000000006,2.64 -1.44,2.64 h-2.56 c-1.86,0 -7,1.44 -7,3.3 s5.1,3.3 7,3.3 h3.06 c1,0 0.9400000000000004,1 0.9400000000000004,1.51 v3.18 c0,1.85 2.1,7 4,7 s4,-5.11 4,-7 v-3.18 c0,-0.4200000000000002 0.8500000000000004,-1.51 1.32,-1.51 h3.06 c1.86,0 7,-1.44 7,-3.3 S175.2663671875,250.39818161010743 173.4063671875,250.39818161010743 z" fill="url(#afc558c8-c8c4-43a0-9ff8-36c738bcadf8)" id="svg_2" class=""/><path d="M447.4063671875,146.39818161010743 h-2.5700000000000003 c-0.52,0 -1.81,-2.05 -1.81,-2.64 v-2.38 c0,-1.86 -2.11,-7 -4,-7 s-4,5.1 -4,7 v2.38 c0,0.8400000000000004 -0.6500000000000006,2.64 -1.44,2.64 h-2.56 c-1.86,0 -7,1.44 -7,3.3 s5.1,3.3 7,3.3 h3.06 c1,0 0.9400000000000004,1 0.9400000000000004,1.51 v3.18 c0,1.85 2.1,7 4,7 s4,-5.11 4,-7 v-3.18 c0,-0.4200000000000002 0.8500000000000004,-1.51 1.32,-1.51 h3.06 c1.86,0 7,-1.44 7,-3.3 S449.2663671875,146.39818161010743 447.4063671875,146.39818161010743 z" fill="url(#be82fdd5-66ab-49fc-8aef-9500b2c1a08e)" id="svg_3" class=""/><path d="M724.4063671875,193.39818161010743 h-2.5700000000000003 c-0.52,0 -1.81,-2.05 -1.81,-2.64 v-2.38 c0,-1.86 -2.11,-7 -4,-7 s-4,5.1 -4,7 v2.38 c0,0.8400000000000004 -0.6500000000000006,2.64 -1.44,2.64 h-2.56 c-1.86,0 -7,1.44 -7,3.3 s5.1,3.3 7,3.3 h3.06 c1,0 0.9400000000000004,1 0.9400000000000004,1.51 v3.18 c0,1.85 2.1,7 4,7 s4,-5.11 4,-7 v-3.18 c0,-0.4200000000000002 0.8500000000000004,-1.51 1.32,-1.51 h3.06 c1.86,0 7,-1.44 7,-3.3 S726.2663671875,193.39818161010743 724.4063671875,193.39818161010743 z" fill="url(#b48d588d-308d-4a6b-9b06-bb920dd362b3)" id="svg_4" class=""/><path d="M614.3363671875,177.15818161010742 h-1.24 c-0.25,0 -1,-1 -1,-1.26 v-1.15 c0,-0.9 -1.1,-3.36 -2,-3.36 s-2,2.46 -2,3.36 v1.15 c0,0.4 0,1.26 -0.4100000000000002,1.26 h-1.23 c-0.9,0 -3.36,0.6000000000000004 -3.36,1.5 s2.46,1.5 3.36,1.5 h1.47 c0.4700000000000002,0 0.17,0.6800000000000007 0.17,0.92 v1.53 c0,0.9 1.1,3.36 2,3.36 s2,-2.46 2,-3.36 v-1.53 c0,-0.2 0.52,-0.92 0.7500000000000004,-0.92 h1.48 c0.8900000000000005,0 3.35,-0.6000000000000004 3.35,-1.5 S615.2263671875,177.15818161010742 614.3363671875,177.15818161010742 z" fill="#1976d2" id="svg_5" class=""/><path d="M266.8063671875,233.1981816101074 h-2 c-0.4100000000000002,0 -1.61,-1.6 -1.61,-2.06 V229.26818161010743 c0,-1.46 -1.8,-5.48 -3.26,-5.48 s-3.26,4 -3.26,5.48 v1.87 c0,0.6600000000000007 0,2.06 -0.6600000000000007,2.06 h-2 c-1.46,0 -5.48,1 -5.48,2.45 s4,2.44 5.48,2.44 h2.4 c0.77,0 0.28,1.11 0.28,1.5 v2.5 c0,1.47 1.79,5.48 3.26,5.48 s3.26,-4 3.26,-5.48 v-2.5 c0,-0.3300000000000003 0.8500000000000004,-1.5 1.22,-1.5 h2.4 c1.47,0 5.48,-1 5.48,-2.44 S268.2763671875,233.1981816101074 266.8063671875,233.1981816101074 z" fill="url(#fc40df44-a3eb-403a-93a3-c2e14ff8183d)" id="svg_6" class=""/><path d="M835.8972790527343,947.7436222839356 h-2 c-0.4100000000000003,0 -1.61,-1.6 -1.61,-2.06 V943.8136222839355 c0,-1.46 -1.8,-5.48 -3.26,-5.48 s-3.26,4 -3.26,5.48 v1.87 c0,0.6600000000000009 0,2.06 -0.6600000000000009,2.06 h-2 c-1.46,0 -5.48,1 -5.48,2.45 s4,2.44 5.48,2.44 h2.4 c0.77,0 0.28,1.11 0.28,1.5 v2.5 c0,1.47 1.79,5.48 3.26,5.48 s3.26,-4 3.26,-5.48 v-2.5 c0,-0.3300000000000004 0.8500000000000006,-1.5 1.22,-1.5 h2.4 c1.47,0 5.48,-1 5.48,-2.44 S837.3672790527344,947.7436222839356 835.8972790527343,947.7436222839356 z" fill="url(#fc40df44-a3eb-403a-93a3-c2e14ff8183d)" class="" id="svg_143"/><circle cx="975.9072265625" cy="927.41357421875" r="6.070000171661377" fill="url(#a786e464-0004-4162-bf9c-1c77ea556f3f)" class="" id="svg_144"/><path d="M793.4272790527343,908.7036222839356 h-1.24 c-0.25,0 -1,-1 -1,-1.26 v-1.15 c0,-0.9 -1.1,-3.36 -2,-3.36 s-2,2.46 -2,3.36 v1.15 c0,0.4 0,1.26 -0.4100000000000003,1.26 h-1.23 c-0.9,0 -3.36,0.6000000000000006 -3.36,1.5 s2.46,1.5 3.36,1.5 h1.47 c0.4700000000000003,0 0.17,0.6800000000000009 0.17,0.92 v1.53 c0,0.9 1.1,3.36 2,3.36 s2,-2.46 2,-3.36 v-1.53 c0,-0.2 0.52,-0.92 0.7500000000000007,-0.92 h1.48 c0.8900000000000008,0 3.35,-0.6000000000000006 3.35,-1.5 S794.3172790527344,908.7036222839356 793.4272790527343,908.7036222839356 z" fill="#1976d2" class="" id="svg_145"/><circle cx="856.9072265625" cy="883.4136352539062" r="3.7100000381469727" fill="#0d47a1" class="" id="svg_146"/><circle cx="836.9072265625" cy="863.4136352539062" r="6.070000171661377" fill="url(#ed7113af-a3f6-4b83-ad2a-4145c0897ac0)" class="" id="svg_147"/><circle cx="908.697265625" cy="822.20361328125" r="7.5" fill="#64b5f6" class="" id="svg_148"/><path d="M894.5072790527344,741.7036222839356 H892.6172790527344 c-0.3900000000000004,0 -1.37,-1.55 -1.37,-2 v-1.8 c0,-1.4100000000000001 -1.59,-5.27 -3,-5.27 s-3,3.8600000000000003 -3,5.27 v1.8 c0,0.6400000000000008 -0.4900000000000003,2 -1.09,2 h-1.94 c-1.4100000000000001,0 -5.27,1.09 -5.27,2.5 s3.8600000000000003,2.5 5.27,2.5 h2.31 c0.7400000000000007,0 0.7200000000000006,0.7500000000000007 0.7200000000000006,1.1400000000000001 v2.4 c0,1.4100000000000001 1.59,5.27 3,5.27 s3,-3.8600000000000003 3,-5.27 v-2.4 c0,-0.3200000000000004 0.6400000000000008,-1.1400000000000001 1,-1.1400000000000001 h2.31 c1.4100000000000001,0 5.27,-1.09 5.27,-2.5 S895.9172790527343,741.7036222839356 894.5072790527344,741.7036222839356 z" fill="#2196f3" class="" id="svg_149"/><circle cx="835.9072265625" cy="787.41357421875" r="3.7100000381469727" fill="#0d47a1" class="" id="svg_150"/><circle cx="849.1572265625" cy="762.6636352539062" r="9.300000190734863" fill="url(#ed21139e-2a95-41cd-b755-047a620bfa49)" class="" id="svg_151"/><path d="M836.4972790527344,680.9436222839356 h-2.5700000000000003 c-0.52,0 -1.81,-2.05 -1.81,-2.64 v-2.38 c0,-1.86 -2.11,-7 -4,-7 s-4,5.1 -4,7 v2.38 c0,0.8400000000000006 -0.6500000000000008,2.64 -1.44,2.64 h-2.56 c-1.86,0 -7,1.44 -7,3.3 s5.1,3.3 7,3.3 h3.06 c1,0 0.9400000000000006,1 0.9400000000000006,1.51 v3.18 c0,1.85 2.1,7 4,7 s4,-5.11 4,-7 v-3.18 c0,-0.4200000000000003 0.8500000000000006,-1.51 1.32,-1.51 h3.06 c1.86,0 7,-1.44 7,-3.3 S838.3572790527344,680.9436222839356 836.4972790527344,680.9436222839356 z" fill="url(#be82fdd5-66ab-49fc-8aef-9500b2c1a08e)" class="" id="svg_152"/><circle cx="660.1572265625" cy="722.6636352539062" r="6.960000038146973" fill="#64b5f6" class="" id="svg_153"/><circle cx="640.1572265625" cy="702.6636352539062" r="6.960000038146973" fill="#64b5f6" class="" id="svg_154"/><circle cx="518.67724609375" cy="668.99365234375" r="3.4800000190734863" fill="#64b5f6" class="" id="svg_155"/><circle cx="498.6772766113281" cy="648.99365234375" r="5.03000020980835" fill="url(#a5f9757d-6ad9-4e45-a734-ac7d7f2fecf7)" class="" id="svg_156"/><circle cx="560.1572265625" cy="622.6636352539062" r="9.300000190734863" fill="url(#e90eae1c-1fda-4179-aacd-c7bc40fa73b9)" class="" id="svg_157"/><circle cx="540.1572265625" cy="602.6636352539062" r="9.300000190734863" fill="url(#e90eae1c-1fda-4179-aacd-c7bc40fa73b9)" class="" id="svg_158"/><circle cx="595.9072265625" cy="547.41357421875" r="6.070000171661377" fill="url(#a786e464-0004-4162-bf9c-1c77ea556f3f)" class="" id="svg_159"/><circle cx="575.9072265625" cy="527.41357421875" r="3.7100000381469727" fill="#0d47a1" class="" id="svg_160"/><circle cx="460.1572570800781" cy="522.6636352539062" r="6.960000038146973" fill="#64b5f6" class="" id="svg_161"/><circle cx="440.1572570800781" cy="502.66363525390625" r="9.300000190734863" fill="url(#e90eae1c-1fda-4179-aacd-c7bc40fa73b9)" class="" id="svg_162"/><path d="M526.8063671875,493.19818161010744 h-2 c-0.41000000000000025,0 -1.61,-1.6 -1.61,-2.06 V489.26818161010743 c0,-1.46 -1.8,-5.48 -3.26,-5.48 s-3.26,4 -3.26,5.48 v1.87 c0,0.6600000000000008 0,2.06 -0.6600000000000008,2.06 h-2 c-1.46,0 -5.48,1 -5.48,2.45 s4,2.44 5.48,2.44 h2.4 c0.77,0 0.28,1.11 0.28,1.5 v2.5 c0,1.47 1.79,5.48 3.26,5.48 s3.26,-4 3.26,-5.48 v-2.5 c0,-0.33000000000000035 0.8500000000000005,-1.5 1.22,-1.5 h2.4 c1.47,0 5.48,-1 5.48,-2.44 S528.2763671875,493.19818161010744 526.8063671875,493.19818161010744 z" fill="url(#fc40df44-a3eb-403a-93a3-c2e14ff8183d)" class="" id="svg_110"/><circle cx="587.8163452148438" cy="468.8681945800781" r="3.7100000381469727" fill="#0d47a1" class="" id="svg_111"/><circle cx="567.8163452148438" cy="448.8681945800781" r="6.070000171661377" fill="url(#ed7113af-a3f6-4b83-ad2a-4145c0897ac0)" class="" id="svg_112"/><path d="M645.4163671875,347.1581816101074 H643.5263671875 c-0.39000000000000035,0 -1.37,-1.55 -1.37,-2 v-1.8 c0,-1.4100000000000001 -1.59,-5.27 -3,-5.27 s-3,3.8600000000000003 -3,5.27 v1.8 c0,0.6400000000000007 -0.49000000000000027,2 -1.09,2 h-1.94 c-1.4100000000000001,0 -5.27,1.09 -5.27,2.5 s3.8600000000000003,2.5 5.27,2.5 h2.31 c0.7400000000000005,0 0.7200000000000005,0.7500000000000006 0.7200000000000005,1.1400000000000001 v2.4 c0,1.4100000000000001 1.59,5.27 3,5.27 s3,-3.8600000000000003 3,-5.27 v-2.4 c0,-0.32000000000000034 0.6400000000000007,-1.1400000000000001 1,-1.1400000000000001 h2.31 c1.4100000000000001,0 5.27,-1.09 5.27,-2.5 S646.8263671875,347.1581816101074 645.4163671875,347.1581816101074 z" fill="#2196f3" class="" id="svg_113"/><circle cx="619.6063232421875" cy="387.6581726074219" r="7.5" fill="#64b5f6" class="" id="svg_114"/><circle cx="600.0663452148438" cy="368.1181945800781" r="9.300000190734863" fill="url(#ed21139e-2a95-41cd-b755-047a620bfa49)" class="" id="svg_115"/><path d="M587.4063671875,286.39818161010743 h-2.5700000000000003 c-0.52,0 -1.81,-2.05 -1.81,-2.64 v-2.38 c0,-1.86 -2.11,-7 -4,-7 s-4,5.1 -4,7 v2.38 c0,0.8400000000000005 -0.6500000000000007,2.64 -1.44,2.64 h-2.56 c-1.86,0 -7,1.44 -7,3.3 s5.1,3.3 7,3.3 h3.06 c1,0 0.9400000000000005,1 0.9400000000000005,1.51 v3.18 c0,1.85 2.1,7 4,7 s4,-5.11 4,-7 v-3.18 c0,-0.42000000000000026 0.8500000000000005,-1.51 1.32,-1.51 h3.06 c1.86,0 7,-1.44 7,-3.3 S589.2663671875,286.39818161010743 587.4063671875,286.39818161010743 z" fill="url(#be82fdd5-66ab-49fc-8aef-9500b2c1a08e)" class="" id="svg_116"/><circle cx="309.58636474609375" cy="314.44818115234375" r="3.4800000190734863" fill="#64b5f6" class="" id="svg_117"/><circle cx="289.58636474609375" cy="294.44818115234375" r="5.03000020980835" fill="url(#a5f9757d-6ad9-4e45-a734-ac7d7f2fecf7)" class="" id="svg_118"/><circle cx="426.81634521484375" cy="232.8681640625" r="6.070000171661377" fill="url(#a786e464-0004-4162-bf9c-1c77ea556f3f)" class="" id="svg_119"/><circle cx="406.81634521484375" cy="212.8681640625" r="3.7100000381469727" fill="#0d47a1" class="" id="svg_120"/><circle cx="291.06634521484375" cy="208.11819458007812" r="6.960000038146973" fill="#64b5f6" class="" id="svg_121"/><circle cx="271.06634521484375" cy="188.11819458007812" r="9.300000190734863" fill="url(#e90eae1c-1fda-4179-aacd-c7bc40fa73b9)" class="" id="svg_122"/><circle cx="160.15728759765625" cy="259.0273132324219" r="9.300000190734863" fill="url(#e90eae1c-1fda-4179-aacd-c7bc40fa73b9)" class="" id="svg_198"/><circle cx="140.15728759765625" cy="239.02731323242188" r="9.300000190734863" fill="url(#e90eae1c-1fda-4179-aacd-c7bc40fa73b9)" class="" id="svg_199"/><circle cx="140.15728759765625" cy="239.02731323242188" r="6.960000038146973" fill="#64b5f6" class="" id="svg_200"/><circle cx="120.15728759765625" cy="219.02731323242188" r="6.960000038146973" fill="#64b5f6" class="" id="svg_201"/><circle cx="155.90728759765625" cy="143.77728271484375" r="6.070000171661377" fill="url(#a786e464-0004-4162-bf9c-1c77ea556f3f)" class="" id="svg_202"/><circle cx="136.90728759765625" cy="199.77731323242188" r="6.070000171661377" fill="url(#ed7113af-a3f6-4b83-ad2a-4145c0897ac0)" class="" id="svg_203"/><circle cx="115.90728759765625" cy="103.77728271484375" r="3.7100000381469727" fill="#0d47a1" class="" id="svg_204"/><circle cx="96.90728759765625" cy="159.77731323242188" r="3.7100000381469727" fill="#0d47a1" class="" id="svg_205"/><circle cx="135.90728759765625" cy="123.77728271484375" r="3.7100000381469727" fill="#0d47a1" class="" id="svg_206"/><path d="M154.5073095703125,38.067300262451226 H152.6173095703125 c-0.3900000000000004,0 -1.37,-1.55 -1.37,-2 v-1.8 c0,-1.4100000000000001 -1.59,-5.27 -3,-5.27 s-3,3.8600000000000003 -3,5.27 v1.8 c0,0.6400000000000008 -0.4900000000000003,2 -1.09,2 h-1.94 c-1.4100000000000001,0 -5.27,1.09 -5.27,2.5 s3.8600000000000003,2.5 5.27,2.5 h2.31 c0.7400000000000007,0 0.7200000000000006,0.7500000000000007 0.7200000000000006,1.1400000000000001 v2.4 c0,1.4100000000000001 1.59,5.27 3,5.27 s3,-3.8600000000000003 3,-5.27 v-2.4 c0,-0.3200000000000004 0.6400000000000008,-1.1400000000000001 1,-1.1400000000000001 h2.31 c1.4100000000000001,0 5.27,-1.09 5.27,-2.5 S155.91730957031245,38.067300262451226 154.5073095703125,38.067300262451226 z" fill="#2196f3" class="" id="svg_207"/><circle cx="115.90728759765625" cy="103.77728271484375" r="6.070000171661377" fill="url(#a786e464-0004-4162-bf9c-1c77ea556f3f)" class="" id="svg_208"/><circle cx="108.69729614257812" cy="58.567291259765625" r="7.5" fill="#64b5f6" class="" id="svg_209"/><circle cx="89.15728759765625" cy="39.027313232421875" r="9.300000190734863" fill="url(#ed21139e-2a95-41cd-b755-047a620bfa49)" class="" id="svg_210"/><path d="M76.4973095703125,-42.69269973754882 h-2.5700000000000003 c-0.52,0 -1.81,-2.05 -1.81,-2.64 v-2.38 c0,-1.86 -2.11,-7 -4,-7 s-4,5.1 -4,7 v2.38 c0,0.8400000000000006 -0.6500000000000008,2.64 -1.44,2.64 h-2.56 c-1.86,0 -7,1.44 -7,3.3 s5.1,3.3 7,3.3 h3.06 c1,0 0.9400000000000006,1 0.9400000000000006,1.51 v3.18 c0,1.85 2.1,7 4,7 s4,-5.11 4,-7 v-3.18 c0,-0.4200000000000003 0.8500000000000006,-1.51 1.32,-1.51 h3.06 c1.86,0 7,-1.44 7,-3.3 S78.35730957031251,-42.69269973754882 76.4973095703125,-42.69269973754882 z" fill="url(#be82fdd5-66ab-49fc-8aef-9500b2c1a08e)" class="" id="svg_211"/><circle cx="157.69732666015625" cy="-55.432708740234375" r="7.5" fill="#64b5f6" class="" id="svg_212"/><circle cx="122.69732666015625" cy="-4.102691650390625" r="2.5" fill="#0071bc" class="" id="svg_213"/><circle cx="118.1573486328125" cy="-94.97271728515625" r="9.300000190734863" fill="url(#ba4f5741-eaf0-4ada-8124-dbf7ca11ac85)" class="" id="svg_214"/><circle cx="82.6773681640625" cy="-43.6427001953125" r="5.03000020980835" fill="url(#ec4cfa8f-50ab-441a-b17a-cb383eba365e)" class="" id="svg_215"/><circle cx="264.7882080078125" cy="-195.73907470703125" r="3.5" fill="#0d47a1" class="" id="svg_216"/><circle cx="318.76824951171875" cy="-215.279052734375" r="3.4800000190734863" fill="#82a9ff" class="" id="svg_217"/><path d="M103.42730957031245,-151.93269973754883 h-1.24 c-0.25,0 -1,-1 -1,-1.26 v-1.15 c0,-0.9 -1.1,-3.36 -2,-3.36 s-2,2.46 -2,3.36 v1.15 c0,0.4 0,1.26 -0.4100000000000003,1.26 h-1.23 c-0.9,0 -3.36,0.6000000000000006 -3.36,1.5 s2.46,1.5 3.36,1.5 h1.47 c0.4700000000000003,0 0.17,0.6800000000000009 0.17,0.92 v1.53 c0,0.9 1.1,3.36 2,3.36 s2,-2.46 2,-3.36 v-1.53 c0,-0.2 0.52,-0.92 0.7500000000000007,-0.92 h1.48 c0.8900000000000008,0 3.35,-0.6000000000000006 3.35,-1.5 S104.31730957031255,-151.93269973754883 103.42730957031245,-151.93269973754883 z" fill="#1976d2" class="" id="svg_218"/><path d="M85.89730957031247,-172.8926997375488 h-2 c-0.4100000000000003,0 -1.61,-1.6 -1.61,-2.06 V-176.82269973754882 c0,-1.46 -1.8,-5.48 -3.26,-5.48 s-3.26,4 -3.26,5.48 v1.87 c0,0.6600000000000009 0,2.06 -0.6600000000000009,2.06 h-2 c-1.46,0 -5.48,1 -5.48,2.45 s4,2.44 5.48,2.44 h2.4 c0.77,0 0.28,1.11 0.28,1.5 v2.5 c0,1.47 1.79,5.48 3.26,5.48 s3.26,-4 3.26,-5.48 v-2.5 c0,-0.3300000000000004 0.8500000000000006,-1.5 1.22,-1.5 h2.4 c1.47,0 5.48,-1 5.48,-2.44 S87.3673095703125,-172.8926997375488 85.89730957031247,-172.8926997375488 z" fill="url(#b9a74a8c-4f86-4b12-a01e-b38b12640f79)" class="" id="svg_219"/><circle cx="115.9073486328125" cy="-232.2227020263672" r="6.070000171661377" fill="url(#bcce56f4-6100-452c-94c0-0e4dd07d63d7)" class="" id="svg_220"/><path d="M151.5073095703125,-194.93269973754883 H149.6173095703125 c-0.3900000000000004,0 -1.37,-1.55 -1.37,-2 v-1.8 c0,-1.4100000000000001 -1.59,-5.27 -3,-5.27 s-3,3.8600000000000003 -3,5.27 v1.8 c0,0.6400000000000008 -0.4900000000000003,2 -1.09,2 h-1.94 c-1.4100000000000001,0 -5.27,1.09 -5.27,2.5 s3.8600000000000003,2.5 5.27,2.5 h2.31 c0.7400000000000007,0 0.7200000000000006,0.7500000000000007 0.7200000000000006,1.1400000000000001 v2.4 c0,1.4100000000000001 1.59,5.27 3,5.27 s3,-3.8600000000000003 3,-5.27 v-2.4 c0,-0.3200000000000004 0.6400000000000008,-1.1400000000000001 1,-1.1400000000000001 h2.31 c1.4100000000000001,0 5.27,-1.09 5.27,-2.5 S152.91730957031245,-194.93269973754883 151.5073095703125,-194.93269973754883 z" fill="#2196f3" class="" id="svg_221"/><path d="M133.4973095703125,-215.69269973754882 h-2.5700000000000003 c-0.52,0 -1.81,-2.05 -1.81,-2.64 v-2.38 c0,-1.86 -2.11,-7 -4,-7 s-4,5.1 -4,7 v2.38 c0,0.8400000000000006 -0.6500000000000008,2.64 -1.44,2.64 h-2.56 c-1.86,0 -7,1.44 -7,3.3 s5.1,3.3 7,3.3 h3.06 c1,0 0.9400000000000006,1 0.9400000000000006,1.51 v3.18 c0,1.85 2.1,7 4,7 s4,-5.11 4,-7 v-3.18 c0,-0.4200000000000003 0.8500000000000006,-1.51 1.32,-1.51 h3.06 c1.86,0 7,-1.44 7,-3.3 S135.3573095703125,-215.69269973754882 133.4973095703125,-215.69269973754882 z" fill="url(#b48d588d-308d-4a6b-9b06-bb920dd362b3)" class="" id="svg_222"/><circle cx="129.6773681640625" cy="-291.6427001953125" r="5.03000020980835" fill="url(#e8540004-522d-4b52-801f-b41ff9acf3f2)" class="" id="svg_223"/><circle cx="138.1573486328125" cy="-212.97268676757812" r="9.300000190734863" fill="url(#a32a47df-12b4-443d-9765-8cd8524a5228)" class="" id="svg_224"/><path d="M166.89730957031247,-292.8926997375488 h-2 c-0.4100000000000003,0 -1.61,-1.6 -1.61,-2.06 V-296.8226997375488 c0,-1.46 -1.8,-5.48 -3.26,-5.48 s-3.26,4 -3.26,5.48 v1.87 c0,0.6600000000000009 0,2.06 -0.6600000000000009,2.06 h-2 c-1.46,0 -5.48,1 -5.48,2.45 s4,2.44 5.48,2.44 h2.4 c0.77,0 0.28,1.11 0.28,1.5 v2.5 c0,1.47 1.79,5.48 3.26,5.48 s3.26,-4 3.26,-5.48 v-2.5 c0,-0.3300000000000004 0.8500000000000006,-1.5 1.22,-1.5 h2.4 c1.47,0 5.48,-1 5.48,-2.44 S168.3673095703125,-292.8926997375488 166.89730957031247,-292.8926997375488 z" fill="url(#e1cc7b1e-4a38-4d88-bc31-d957dc0e789b)" class="" id="svg_225"/><path d="M144.42730957031245,-311.93269973754883 h-1.24 c-0.25,0 -1,-1 -1,-1.26 v-1.15 c0,-0.9 -1.1,-3.36 -2,-3.36 s-2,2.46 -2,3.36 v1.15 c0,0.4 0,1.26 -0.4100000000000003,1.26 h-1.23 c-0.9,0 -3.36,0.6000000000000006 -3.36,1.5 s2.46,1.5 3.36,1.5 h1.47 c0.4700000000000003,0 0.17,0.6800000000000009 0.17,0.92 v1.53 c0,0.9 1.1,3.36 2,3.36 s2,-2.46 2,-3.36 v-1.53 c0,-0.2 0.52,-0.92 0.7500000000000007,-0.92 h1.48 c0.8900000000000008,0 3.35,-0.6000000000000006 3.35,-1.5 S145.31730957031255,-311.93269973754883 144.42730957031245,-311.93269973754883 z" fill="#1976d2" class="" id="svg_226"/><path d="M146.89730957031247,-312.8926997375488 h-2 c-0.4100000000000003,0 -1.61,-1.6 -1.61,-2.06 V-316.8226997375488 c0,-1.46 -1.8,-5.48 -3.26,-5.48 s-3.26,4 -3.26,5.48 v1.87 c0,0.660000000000001 0,2.06 -0.660000000000001,2.06 h-2 c-1.46,0 -5.48,1 -5.48,2.45 s4,2.44 5.48,2.44 h2.4 c0.77,0 0.28,1.11 0.28,1.5 v2.5 c0,1.47 1.79,5.48 3.26,5.48 s3.26,-4 3.26,-5.48 v-2.5 c0,-0.33000000000000046 0.8500000000000006,-1.5 1.22,-1.5 h2.4 c1.47,0 5.48,-1 5.48,-2.44 S148.3673095703125,-312.8926997375488 146.89730957031247,-312.8926997375488 z" fill="url(#e1cc7b1e-4a38-4d88-bc31-d957dc0e789b)" class="" id="svg_227"/><path d="M144.42730957031245,-311.93269973754883 h-1.24 c-0.25,0 -1,-1 -1,-1.26 v-1.15 c0,-0.9 -1.1,-3.36 -2,-3.36 s-2,2.46 -2,3.36 v1.15 c0,0.4 0,1.26 -0.4100000000000003,1.26 h-1.23 c-0.9,0 -3.36,0.6000000000000006 -3.36,1.5 s2.46,1.5 3.36,1.5 h1.47 c0.4700000000000003,0 0.17,0.680000000000001 0.17,0.92 v1.53 c0,0.9 1.1,3.36 2,3.36 s2,-2.46 2,-3.36 v-1.53 c0,-0.2 0.52,-0.92 0.7500000000000008,-0.92 h1.48 c0.8900000000000009,0 3.35,-0.6000000000000006 3.35,-1.5 S145.31730957031255,-311.93269973754883 144.42730957031245,-311.93269973754883 z" fill="#1976d2" class="" id="svg_228"/><path d="M616.8063671875,176.1981816101074 h-2 c-0.4100000000000002,0 -1.61,-1.6 -1.61,-2.06 V172.26818161010743 c0,-1.46 -1.8,-5.48 -3.26,-5.48 s-3.26,4 -3.26,5.48 v1.87 c0,0.6600000000000007 0,2.06 -0.6600000000000007,2.06 h-2 c-1.46,0 -5.48,1 -5.48,2.45 s4,2.44 5.48,2.44 h2.4 c0.77,0 0.28,1.11 0.28,1.5 v2.5 c0,1.47 1.79,5.48 3.26,5.48 s3.26,-4 3.26,-5.48 v-2.5 c0,-0.3300000000000003 0.8500000000000004,-1.5 1.22,-1.5 h2.4 c1.47,0 5.48,-1 5.48,-2.44 S618.2763671875,176.1981816101074 616.8063671875,176.1981816101074 z" fill="url(#b9a74a8c-4f86-4b12-a01e-b38b12640f79)" id="svg_7" class=""/><path d="M817.8063671875,176.1981816101074 h-2 c-0.4100000000000002,0 -1.61,-1.6 -1.61,-2.06 V172.26818161010743 c0,-1.46 -1.8,-5.48 -3.26,-5.48 s-3.26,4 -3.26,5.48 v1.87 c0,0.6600000000000007 0,2.06 -0.6600000000000007,2.06 h-2 c-1.46,0 -5.48,1 -5.48,2.45 s4,2.44 5.48,2.44 h2.4 c0.77,0 0.28,1.11 0.28,1.5 v2.5 c0,1.47 1.79,5.48 3.26,5.48 s3.26,-4 3.26,-5.48 v-2.5 c0,-0.3300000000000003 0.8500000000000004,-1.5 1.22,-1.5 h2.4 c1.47,0 5.48,-1 5.48,-2.44 S819.2763671875,176.1981816101074 817.8063671875,176.1981816101074 z" fill="url(#e1cc7b1e-4a38-4d88-bc31-d957dc0e789b)" id="svg_8" class=""/><path d="M264.3363671875,234.15818161010742 h-1.24 c-0.25,0 -1,-1 -1,-1.26 v-1.15 c0,-0.9 -1.1,-3.36 -2,-3.36 s-2,2.46 -2,3.36 v1.15 c0,0.4 0,1.26 -0.4100000000000002,1.26 h-1.23 c-0.9,0 -3.36,0.6000000000000004 -3.36,1.5 s2.46,1.5 3.36,1.5 h1.47 c0.4700000000000002,0 0.17,0.6800000000000007 0.17,0.92 v1.53 c0,0.9 1.1,3.36 2,3.36 s2,-2.46 2,-3.36 v-1.53 c0,-0.2 0.52,-0.92 0.7500000000000004,-0.92 h1.48 c0.8900000000000005,0 3.35,-0.6000000000000004 3.35,-1.5 S265.2263671875,234.15818161010742 264.3363671875,234.15818161010742 z" fill="#1976d2" id="svg_9" class=""/><circle cx="548.6063842773438" cy="153.65817260742188" r="7.5" fill="#64b5f6" id="svg_10" class=""/><circle cx="533.6063842773438" cy="224.98818969726562" r="2.5" fill="#0071bc" id="svg_11" class=""/><circle cx="251.06634521484375" cy="168.11819458007812" r="6.960000038146973" fill="#64b5f6" id="svg_12" class=""/><circle cx="189.58636474609375" cy="194.44818115234375" r="3.4800000190734863" fill="#64b5f6" id="svg_13" class=""/><circle cx="193.22271728515625" cy="1050.811767578125" r="3.4800000190734863" fill="#64b5f6" class="" id="svg_78"/><circle cx="193.22271728515625" cy="1050.811767578125" r="3.4800000190734863" fill="#64b5f6" class="" id="svg_168"/><circle cx="193.22271728515625" cy="1050.811767578125" r="3.4800000190734863" fill="#64b5f6" class="" id="svg_169"/><circle cx="173.22271728515625" cy="1030.811767578125" r="5.03000020980835" fill="url(#a5f9757d-6ad9-4e45-a734-ac7d7f2fecf7)" class="" id="svg_170"/><circle cx="214.70269775390625" cy="984.4818115234375" r="6.960000038146973" fill="#64b5f6" class="" id="svg_171"/><path d="M187.97271972656245,1010.5218138122559 h-1.24 c-0.25,0 -1,-1 -1,-1.26 v-1.15 c0,-0.9 -1.1,-3.36 -2,-3.36 s-2,2.46 -2,3.36 v1.15 c0,0.4 0,1.26 -0.4100000000000003,1.26 h-1.23 c-0.9,0 -3.36,0.6000000000000006 -3.36,1.5 s2.46,1.5 3.36,1.5 h1.47 c0.4700000000000003,0 0.17,0.6800000000000012 0.17,0.92 v1.53 c0,0.9 1.1,3.36 2,3.36 s2,-2.46 2,-3.36 v-1.53 c0,-0.2 0.52,-0.92 0.7500000000000009,-0.92 h1.48 c0.890000000000001,0 3.35,-0.6000000000000006 3.35,-1.5 S188.86271972656255,1010.5218138122559 187.97271972656245,1010.5218138122559 z" fill="#1976d2" class="" id="svg_172"/><path d="M170.44271972656247,989.5618138122559 h-2 c-0.4100000000000003,0 -1.61,-1.6 -1.61,-2.06 V985.6318138122558 c0,-1.46 -1.8,-5.48 -3.26,-5.48 s-3.26,4 -3.26,5.48 v1.87 c0,0.6600000000000011 0,2.06 -0.6600000000000011,2.06 h-2 c-1.46,0 -5.48,1 -5.48,2.45 s4,2.44 5.48,2.44 h2.4 c0.77,0 0.28,1.11 0.28,1.5 v2.5 c0,1.47 1.79,5.48 3.26,5.48 s3.26,-4 3.26,-5.48 v-2.5 c0,-0.3300000000000005 0.8500000000000006,-1.5 1.22,-1.5 h2.4 c1.47,0 5.48,-1 5.48,-2.44 S171.9127197265625,989.5618138122559 170.44271972656247,989.5618138122559 z" fill="url(#fc40df44-a3eb-403a-93a3-c2e14ff8183d)" class="" id="svg_173"/><circle cx="173.22271728515625" cy="1030.811767578125" r="5.03000020980835" fill="url(#a5f9757d-6ad9-4e45-a734-ac7d7f2fecf7)" class="" id="svg_174"/><circle cx="214.70269775390625" cy="984.4818115234375" r="6.960000038146973" fill="#64b5f6" class="" id="svg_175"/><circle cx="107.42996978759766" cy="877.2091064453125" r="9.300000190734863" fill="url(#e90eae1c-1fda-4179-aacd-c7bc40fa73b9)" class="" id="svg_176"/><path d="M187.97271972656245,1010.5218138122559 h-1.24 c-0.25,0 -1,-1 -1,-1.26 v-1.15 c0,-0.9 -1.1,-3.36 -2,-3.36 s-2,2.46 -2,3.36 v1.15 c0,0.4 0,1.26 -0.4100000000000003,1.26 h-1.23 c-0.9,0 -3.36,0.6000000000000006 -3.36,1.5 s2.46,1.5 3.36,1.5 h1.47 c0.4700000000000003,0 0.17,0.680000000000001 0.17,0.92 v1.53 c0,0.9 1.1,3.36 2,3.36 s2,-2.46 2,-3.36 v-1.53 c0,-0.2 0.52,-0.92 0.7500000000000008,-0.92 h1.48 c0.8900000000000009,0 3.35,-0.6000000000000006 3.35,-1.5 S188.86271972656255,1010.5218138122559 187.97271972656245,1010.5218138122559 z" fill="#1976d2" class="" id="svg_177"/><path d="M170.44271972656247,989.5618138122559 h-2 c-0.4100000000000003,0 -1.61,-1.6 -1.61,-2.06 V985.6318138122558 c0,-1.46 -1.8,-5.48 -3.26,-5.48 s-3.26,4 -3.26,5.48 v1.87 c0,0.660000000000001 0,2.06 -0.660000000000001,2.06 h-2 c-1.46,0 -5.48,1 -5.48,2.45 s4,2.44 5.48,2.44 h2.4 c0.77,0 0.28,1.11 0.28,1.5 v2.5 c0,1.47 1.79,5.48 3.26,5.48 s3.26,-4 3.26,-5.48 v-2.5 c0,-0.33000000000000046 0.8500000000000006,-1.5 1.22,-1.5 h2.4 c1.47,0 5.48,-1 5.48,-2.44 S171.9127197265625,989.5618138122559 170.44271972656247,989.5618138122559 z" fill="url(#fc40df44-a3eb-403a-93a3-c2e14ff8183d)" class="" id="svg_178"/><circle cx="230.45269775390625" cy="889.2318115234375" r="6.070000171661377" fill="url(#a786e464-0004-4162-bf9c-1c77ea556f3f)" class="" id="svg_179"/><circle cx="211.45269775390625" cy="945.2318115234375" r="6.070000171661377" fill="url(#ed7113af-a3f6-4b83-ad2a-4145c0897ac0)" class="" id="svg_180"/><circle cx="193.22271728515625" cy="1050.811767578125" r="3.4800000190734863" fill="#64b5f6" class="" id="svg_163"/><circle cx="173.22271728515625" cy="1030.811767578125" r="5.03000020980835" fill="url(#a5f9757d-6ad9-4e45-a734-ac7d7f2fecf7)" class="" id="svg_164"/><circle cx="214.70269775390625" cy="984.4818115234375" r="6.960000038146973" fill="#64b5f6" class="" id="svg_165"/><path d="M187.97271972656245,1010.5218138122559 h-1.24 c-0.25,0 -1,-1 -1,-1.26 v-1.15 c0,-0.9 -1.1,-3.36 -2,-3.36 s-2,2.46 -2,3.36 v1.15 c0,0.4 0,1.26 -0.4100000000000003,1.26 h-1.23 c-0.9,0 -3.36,0.6000000000000006 -3.36,1.5 s2.46,1.5 3.36,1.5 h1.47 c0.4700000000000003,0 0.17,0.680000000000001 0.17,0.92 v1.53 c0,0.9 1.1,3.36 2,3.36 s2,-2.46 2,-3.36 v-1.53 c0,-0.2 0.52,-0.92 0.7500000000000008,-0.92 h1.48 c0.8900000000000009,0 3.35,-0.6000000000000006 3.35,-1.5 S188.86271972656255,1010.5218138122559 187.97271972656245,1010.5218138122559 z" fill="#1976d2" class="" id="svg_166"/><path d="M170.44271972656247,989.5618138122559 h-2 c-0.4100000000000003,0 -1.61,-1.6 -1.61,-2.06 V985.6318138122558 c0,-1.46 -1.8,-5.48 -3.26,-5.48 s-3.26,4 -3.26,5.48 v1.87 c0,0.660000000000001 0,2.06 -0.660000000000001,2.06 h-2 c-1.46,0 -5.48,1 -5.48,2.45 s4,2.44 5.48,2.44 h2.4 c0.77,0 0.28,1.11 0.28,1.5 v2.5 c0,1.47 1.79,5.48 3.26,5.48 s3.26,-4 3.26,-5.48 v-2.5 c0,-0.33000000000000046 0.8500000000000006,-1.5 1.22,-1.5 h2.4 c1.47,0 5.48,-1 5.48,-2.44 S171.9127197265625,989.5618138122559 170.44271972656247,989.5618138122559 z" fill="url(#fc40df44-a3eb-403a-93a3-c2e14ff8183d)" class="" id="svg_167"/><circle cx="173.22271728515625" cy="1030.811767578125" r="5.03000020980835" fill="url(#a5f9757d-6ad9-4e45-a734-ac7d7f2fecf7)" class="" id="svg_79"/><circle cx="123.79360961914062" cy="893.57275390625" r="6.960000038146973" fill="#64b5f6" class="" id="svg_80" transform="rotate(-48.77851486206055 123.79360961914081,893.5727539062501) "/><circle cx="107.42996978759766" cy="877.2091064453125" r="9.300000190734863" fill="url(#e90eae1c-1fda-4179-aacd-c7bc40fa73b9)" class="" id="svg_81"/><path d="M187.97271972656245,1010.5218138122559 h-1.24 c-0.25,0 -1,-1 -1,-1.26 v-1.15 c0,-0.9 -1.1,-3.36 -2,-3.36 s-2,2.46 -2,3.36 v1.15 c0,0.4 0,1.26 -0.4100000000000003,1.26 h-1.23 c-0.9,0 -3.36,0.6000000000000006 -3.36,1.5 s2.46,1.5 3.36,1.5 h1.47 c0.4700000000000003,0 0.17,0.6800000000000009 0.17,0.92 v1.53 c0,0.9 1.1,3.36 2,3.36 s2,-2.46 2,-3.36 v-1.53 c0,-0.2 0.52,-0.92 0.7500000000000007,-0.92 h1.48 c0.8900000000000008,0 3.35,-0.6000000000000006 3.35,-1.5 S188.86271972656255,1010.5218138122559 187.97271972656245,1010.5218138122559 z" fill="#1976d2" class="" id="svg_82"/><path d="M170.44271972656247,989.5618138122559 h-2 c-0.4100000000000003,0 -1.61,-1.6 -1.61,-2.06 V985.6318138122558 c0,-1.46 -1.8,-5.48 -3.26,-5.48 s-3.26,4 -3.26,5.48 v1.87 c0,0.6600000000000009 0,2.06 -0.6600000000000009,2.06 h-2 c-1.46,0 -5.48,1 -5.48,2.45 s4,2.44 5.48,2.44 h2.4 c0.77,0 0.28,1.11 0.28,1.5 v2.5 c0,1.47 1.79,5.48 3.26,5.48 s3.26,-4 3.26,-5.48 v-2.5 c0,-0.3300000000000004 0.8500000000000006,-1.5 1.22,-1.5 h2.4 c1.47,0 5.48,-1 5.48,-2.44 S171.9127197265625,989.5618138122559 170.44271972656247,989.5618138122559 z" fill="url(#fc40df44-a3eb-403a-93a3-c2e14ff8183d)" class="" id="svg_83"/><circle cx="230.45269775390625" cy="889.2318115234375" r="6.070000171661377" fill="url(#a786e464-0004-4162-bf9c-1c77ea556f3f)" class="" id="svg_84"/><circle cx="211.45269775390625" cy="945.2318115234375" r="6.070000171661377" fill="url(#ed7113af-a3f6-4b83-ad2a-4145c0897ac0)" class="" id="svg_85"/><circle cx="103.17996978759766" cy="761.9591064453125" r="3.7100000381469727" fill="#0d47a1" class="" id="svg_86"/><circle cx="84.17996978759766" cy="817.9591064453125" r="3.7100000381469727" fill="#0d47a1" class="" id="svg_87" transform="rotate(-57.36039733886719 84.17996978759768,817.9591064453125) "/><path d="M249.0527197265625,803.5218138122559 H247.1627197265625 c-0.3900000000000004,0 -1.37,-1.55 -1.37,-2 v-1.8 c0,-1.4100000000000001 -1.59,-5.27 -3,-5.27 s-3,3.8600000000000003 -3,5.27 v1.8 c0,0.6400000000000008 -0.4900000000000003,2 -1.09,2 h-1.94 c-1.4100000000000001,0 -5.27,1.09 -5.27,2.5 s3.8600000000000003,2.5 5.27,2.5 h2.31 c0.7400000000000007,0 0.7200000000000006,0.7500000000000007 0.7200000000000006,1.1400000000000001 v2.4 c0,1.4100000000000001 1.59,5.27 3,5.27 s3,-3.8600000000000003 3,-5.27 v-2.4 c0,-0.3200000000000004 0.6400000000000008,-1.1400000000000001 1,-1.1400000000000001 h2.31 c1.4100000000000001,0 5.27,-1.09 5.27,-2.5 S250.46271972656245,803.5218138122559 249.0527197265625,803.5218138122559 z" fill="#2196f3" class="" id="svg_88"/><path d="M231.0427197265625,782.7618138122559 h-2.5700000000000003 c-0.52,0 -1.81,-2.05 -1.81,-2.64 v-2.38 c0,-1.86 -2.11,-7 -4,-7 s-4,5.1 -4,7 v2.38 c0,0.8400000000000006 -0.6500000000000008,2.64 -1.44,2.64 h-2.56 c-1.86,0 -7,1.44 -7,3.3 s5.1,3.3 7,3.3 h3.06 c1,0 0.9400000000000006,1 0.9400000000000006,1.51 v3.18 c0,1.85 2.1,7 4,7 s4,-5.11 4,-7 v-3.18 c0,-0.4200000000000003 0.8500000000000006,-1.51 1.32,-1.51 h3.06 c1.86,0 7,-1.44 7,-3.3 S232.9027197265625,782.7618138122559 231.0427197265625,782.7618138122559 z" fill="url(#be82fdd5-66ab-49fc-8aef-9500b2c1a08e)" class="" id="svg_89"/><circle cx="115.96997833251953" cy="736.7490844726562" r="7.5" fill="#64b5f6" class="" id="svg_90"/><circle cx="96.42996978759766" cy="717.2091064453125" r="9.300000190734863" fill="url(#ed21139e-2a95-41cd-b755-047a620bfa49)" class="" id="svg_91"/><circle cx="594.7936401367188" cy="643.845458984375" r="9.300000190734863" fill="url(#a76115cf-cd8c-4176-9a3c-9a73b10c4903)" class="" id="svg_92"/><circle cx="574.7936401367188" cy="623.845458984375" r="6.960000038146973" fill="#64b5f6" class="" id="svg_93"/><circle cx="232.24273681640625" cy="690.0217895507812" r="7.5" fill="#64b5f6" class="" id="svg_94"/><circle cx="197.24273681640625" cy="741.351806640625" r="2.5" fill="#0071bc" class="" id="svg_95"/><circle cx="192.7027587890625" cy="650.4818115234375" r="9.300000190734863" fill="url(#ba4f5741-eaf0-4ada-8124-dbf7ca11ac85)" class="" id="svg_96"/><circle cx="157.2227783203125" cy="701.8118286132812" r="5.03000020980835" fill="url(#ec4cfa8f-50ab-441a-b17a-cb383eba365e)" class="" id="svg_97"/><path d="M217.97271972656245,633.5218138122559 h-1.24 c-0.25,0 -1,-1 -1,-1.26 v-1.15 c0,-0.9 -1.1,-3.36 -2,-3.36 s-2,2.46 -2,3.36 v1.15 c0,0.4 0,1.26 -0.4100000000000003,1.26 h-1.23 c-0.9,0 -3.36,0.6000000000000006 -3.36,1.5 s2.46,1.5 3.36,1.5 h1.47 c0.4700000000000003,0 0.17,0.6800000000000009 0.17,0.92 v1.53 c0,0.9 1.1,3.36 2,3.36 s2,-2.46 2,-3.36 v-1.53 c0,-0.2 0.52,-0.92 0.7500000000000007,-0.92 h1.48 c0.8900000000000008,0 3.35,-0.6000000000000006 3.35,-1.5 S218.86271972656255,633.5218138122559 217.97271972656245,633.5218138122559 z" fill="#1976d2" class="" id="svg_98"/><path d="M200.44271972656247,612.5618138122559 h-2 c-0.4100000000000003,0 -1.61,-1.6 -1.61,-2.06 V608.6318138122558 c0,-1.46 -1.8,-5.48 -3.26,-5.48 s-3.26,4 -3.26,5.48 v1.87 c0,0.6600000000000009 0,2.06 -0.6600000000000009,2.06 h-2 c-1.46,0 -5.48,1 -5.48,2.45 s4,2.44 5.48,2.44 h2.4 c0.77,0 0.28,1.11 0.28,1.5 v2.5 c0,1.47 1.79,5.48 3.26,5.48 s3.26,-4 3.26,-5.48 v-2.5 c0,-0.3300000000000004 0.8500000000000006,-1.5 1.22,-1.5 h2.4 c1.47,0 5.48,-1 5.48,-2.44 S201.9127197265625,612.5618138122559 200.44271972656247,612.5618138122559 z" fill="url(#b9a74a8c-4f86-4b12-a01e-b38b12640f79)" class="" id="svg_99"/><circle cx="299.3336181640625" cy="509.7154541015625" r="3.5" fill="#0d47a1" class="" id="svg_100"/><circle cx="353.31365966796875" cy="490.1754455566406" r="3.4800000190734863" fill="#82a9ff" class="" id="svg_101"/><circle cx="190.4527587890625" cy="513.2318115234375" r="6.070000171661377" fill="url(#bcce56f4-6100-452c-94c0-0e4dd07d63d7)" class="" id="svg_102"/><path d="M228.0427197265625,549.7618138122559 h-2.5700000000000003 c-0.52,0 -1.81,-2.05 -1.81,-2.64 v-2.38 c0,-1.86 -2.11,-7 -4,-7 s-4,5.1 -4,7 v2.38 c0,0.8400000000000006 -0.6500000000000008,2.64 -1.44,2.64 h-2.56 c-1.86,0 -7,1.44 -7,3.3 s5.1,3.3 7,3.3 h3.06 c1,0 0.9400000000000006,1 0.9400000000000006,1.51 v3.18 c0,1.85 2.1,7 4,7 s4,-5.11 4,-7 v-3.18 c0,-0.4200000000000003 0.8500000000000006,-1.51 1.32,-1.51 h3.06 c1.86,0 7,-1.44 7,-3.3 S229.9027197265625,549.7618138122559 228.0427197265625,549.7618138122559 z" fill="url(#b48d588d-308d-4a6b-9b06-bb920dd362b3)" class="" id="svg_103"/><path d="M206.0527197265625,530.5218138122559 H204.1627197265625 c-0.3900000000000004,0 -1.37,-1.55 -1.37,-2 v-1.8 c0,-1.4100000000000001 -1.59,-5.27 -3,-5.27 s-3,3.8600000000000003 -3,5.27 v1.8 c0,0.6400000000000008 -0.4900000000000003,2 -1.09,2 h-1.94 c-1.4100000000000001,0 -5.27,1.09 -5.27,2.5 s3.8600000000000003,2.5 5.27,2.5 h2.31 c0.7400000000000007,0 0.7200000000000006,0.7500000000000007 0.7200000000000006,1.1400000000000001 v2.4 c0,1.4100000000000001 1.59,5.27 3,5.27 s3,-3.8600000000000003 3,-5.27 v-2.4 c0,-0.3200000000000004 0.6400000000000008,-1.1400000000000001 1,-1.1400000000000001 h2.31 c1.4100000000000001,0 5.27,-1.09 5.27,-2.5 S207.46271972656245,530.5218138122559 206.0527197265625,530.5218138122559 z" fill="#2196f3" class="" id="svg_104"/><circle cx="204.2227783203125" cy="453.81182861328125" r="5.03000020980835" fill="url(#e8540004-522d-4b52-801f-b41ff9acf3f2)" class="" id="svg_105"/><circle cx="212.7027587890625" cy="532.4818115234375" r="9.300000190734863" fill="url(#a32a47df-12b4-443d-9765-8cd8524a5228)" class="" id="svg_106"/><circle cx="192.54278564453125" cy="512.9418334960938" r="6.5" fill="#64b5f6" class="" id="svg_107"/><path d="M221.44271972656247,432.5618138122559 h-2 c-0.4100000000000003,0 -1.61,-1.6 -1.61,-2.06 V428.63181381225587 c0,-1.46 -1.8,-5.48 -3.26,-5.48 s-3.26,4 -3.26,5.48 v1.87 c0,0.6600000000000009 0,2.06 -0.6600000000000009,2.06 h-2 c-1.46,0 -5.48,1 -5.48,2.45 s4,2.44 5.48,2.44 h2.4 c0.77,0 0.28,1.11 0.28,1.5 v2.5 c0,1.47 1.79,5.48 3.26,5.48 s3.26,-4 3.26,-5.48 v-2.5 c0,-0.3300000000000004 0.8500000000000006,-1.5 1.22,-1.5 h2.4 c1.47,0 5.48,-1 5.48,-2.44 S222.9127197265625,432.5618138122559 221.44271972656247,432.5618138122559 z" fill="url(#e1cc7b1e-4a38-4d88-bc31-d957dc0e789b)" class="" id="svg_108"/><path d="M198.97271972656245,413.52181381225586 h-1.24 c-0.25,0 -1,-1 -1,-1.26 v-1.15 c0,-0.9 -1.1,-3.36 -2,-3.36 s-2,2.46 -2,3.36 v1.15 c0,0.4 0,1.26 -0.4100000000000003,1.26 h-1.23 c-0.9,0 -3.36,0.6000000000000006 -3.36,1.5 s2.46,1.5 3.36,1.5 h1.47 c0.4700000000000003,0 0.17,0.6800000000000009 0.17,0.92 v1.53 c0,0.9 1.1,3.36 2,3.36 s2,-2.46 2,-3.36 v-1.53 c0,-0.2 0.52,-0.92 0.7500000000000007,-0.92 h1.48 c0.8900000000000008,0 3.35,-0.6000000000000006 3.35,-1.5 S199.86271972656255,413.52181381225586 198.97271972656245,413.52181381225586 z" fill="#1976d2" class="" id="svg_109"/><circle cx="476.58636474609375" cy="265.44818115234375" r="3.4800000190734863" fill="#82a9ff" id="svg_14" class=""/><circle cx="217.9063720703125" cy="327.5781555175781" r="6.5" fill="#82a9ff" id="svg_15" class=""/><circle cx="346.81634521484375" cy="152.8681640625" r="6.070000171661377" fill="url(#a786e464-0004-4162-bf9c-1c77ea556f3f)" id="svg_16" class=""/><circle cx="686.8163452148438" cy="492.8681640625" r="6.070000171661377" fill="url(#a786e464-0004-4162-bf9c-1c77ea556f3f)" class="" id="svg_181"/><circle cx="666.8163452148438" cy="472.8681640625" r="3.7100000381469727" fill="#0d47a1" class="" id="svg_182"/><circle cx="706.8163452148438" cy="512.8681640625" r="3.7100000381469727" fill="#0d47a1" class="" id="svg_183"/><path d="M725.4163671875,427.1581816101074 H723.5263671875 c-0.39000000000000035,0 -1.37,-1.55 -1.37,-2 v-1.8 c0,-1.4100000000000001 -1.59,-5.27 -3,-5.27 s-3,3.8600000000000003 -3,5.27 v1.8 c0,0.6400000000000007 -0.49000000000000027,2 -1.09,2 h-1.94 c-1.4100000000000001,0 -5.27,1.09 -5.27,2.5 s3.8600000000000003,2.5 5.27,2.5 h2.31 c0.7400000000000005,0 0.7200000000000005,0.7500000000000006 0.7200000000000005,1.1400000000000001 v2.4 c0,1.4100000000000001 1.59,5.27 3,5.27 s3,-3.8600000000000003 3,-5.27 v-2.4 c0,-0.32000000000000034 0.6400000000000007,-1.1400000000000001 1,-1.1400000000000001 h2.31 c1.4100000000000001,0 5.27,-1.09 5.27,-2.5 S726.8263671875,427.1581816101074 725.4163671875,427.1581816101074 z" fill="#2196f3" class="" id="svg_184"/><circle cx="699.6063232421875" cy="467.6581726074219" r="7.5" fill="#64b5f6" class="" id="svg_185"/><circle cx="680.0663452148438" cy="448.1181945800781" r="9.300000190734863" fill="url(#ed21139e-2a95-41cd-b755-047a620bfa49)" class="" id="svg_186"/><path d="M667.4063671875,366.39818161010743 h-2.5700000000000003 c-0.52,0 -1.81,-2.05 -1.81,-2.64 v-2.38 c0,-1.86 -2.11,-7 -4,-7 s-4,5.1 -4,7 v2.38 c0,0.8400000000000005 -0.6500000000000007,2.64 -1.44,2.64 h-2.56 c-1.86,0 -7,1.44 -7,3.3 s5.1,3.3 7,3.3 h3.06 c1,0 0.9400000000000005,1 0.9400000000000005,1.51 v3.18 c0,1.85 2.1,7 4,7 s4,-5.11 4,-7 v-3.18 c0,-0.42000000000000026 0.8500000000000005,-1.51 1.32,-1.51 h3.06 c1.86,0 7,-1.44 7,-3.3 S669.2663671875,366.39818161010743 667.4063671875,366.39818161010743 z" fill="url(#be82fdd5-66ab-49fc-8aef-9500b2c1a08e)" class="" id="svg_187"/><circle cx="866.81640625" cy="336.8681640625" r="6.070000171661377" fill="url(#bcce56f4-6100-452c-94c0-0e4dd07d63d7)" class="" id="svg_188"/><circle cx="920.58642578125" cy="317.44818115234375" r="5.03000020980835" fill="url(#e8540004-522d-4b52-801f-b41ff9acf3f2)" class="" id="svg_189"/><circle cx="708.6063842773438" cy="313.6581726074219" r="7.5" fill="#64b5f6" class="" id="svg_190"/><circle cx="689.06640625" cy="294.1181640625" r="9.300000190734863" fill="url(#ba4f5741-eaf0-4ada-8124-dbf7ca11ac85)" class="" id="svg_191"/><path d="M734.3363671875,297.1581816101074 h-1.24 c-0.25,0 -1,-1 -1,-1.26 v-1.15 c0,-0.9 -1.1,-3.36 -2,-3.36 s-2,2.46 -2,3.36 v1.15 c0,0.4 0,1.26 -0.41000000000000025,1.26 h-1.23 c-0.9,0 -3.36,0.6000000000000005 -3.36,1.5 s2.46,1.5 3.36,1.5 h1.47 c0.47000000000000025,0 0.17,0.6800000000000008 0.17,0.92 v1.53 c0,0.9 1.1,3.36 2,3.36 s2,-2.46 2,-3.36 v-1.53 c0,-0.2 0.52,-0.92 0.7500000000000006,-0.92 h1.48 c0.8900000000000007,0 3.35,-0.6000000000000005 3.35,-1.5 S735.2263671875,297.1581816101074 734.3363671875,297.1581816101074 z" fill="#1976d2" class="" id="svg_192"/><path d="M716.8063671875,276.19818161010744 h-2 c-0.41000000000000025,0 -1.61,-1.6 -1.61,-2.06 V272.26818161010743 c0,-1.46 -1.8,-5.48 -3.26,-5.48 s-3.26,4 -3.26,5.48 v1.87 c0,0.6600000000000008 0,2.06 -0.6600000000000008,2.06 h-2 c-1.46,0 -5.48,1 -5.48,2.45 s4,2.44 5.48,2.44 h2.4 c0.77,0 0.28,1.11 0.28,1.5 v2.5 c0,1.47 1.79,5.48 3.26,5.48 s3.26,-4 3.26,-5.48 v-2.5 c0,-0.33000000000000035 0.8500000000000005,-1.5 1.22,-1.5 h2.4 c1.47,0 5.48,-1 5.48,-2.44 S718.2763671875,276.19818161010744 716.8063671875,276.19818161010744 z" fill="url(#b9a74a8c-4f86-4b12-a01e-b38b12640f79)" class="" id="svg_193"/><path d="M804.4063671875,273.39818161010743 h-2.5700000000000003 c-0.52,0 -1.81,-2.05 -1.81,-2.64 v-2.38 c0,-1.86 -2.11,-7 -4,-7 s-4,5.1 -4,7 v2.38 c0,0.8400000000000005 -0.6500000000000007,2.64 -1.44,2.64 h-2.56 c-1.86,0 -7,1.44 -7,3.3 s5.1,3.3 7,3.3 h3.06 c1,0 0.9400000000000005,1 0.9400000000000005,1.51 v3.18 c0,1.85 2.1,7 4,7 s4,-5.11 4,-7 v-3.18 c0,-0.42000000000000026 0.8500000000000005,-1.51 1.32,-1.51 h3.06 c1.86,0 7,-1.44 7,-3.3 S806.2663671875,273.39818161010743 804.4063671875,273.39818161010743 z" fill="url(#b48d588d-308d-4a6b-9b06-bb920dd362b3)" class="" id="svg_194"/><path d="M782.4163671875,254.15818161010742 H780.5263671875 c-0.39000000000000035,0 -1.37,-1.55 -1.37,-2 v-1.8 c0,-1.4100000000000001 -1.59,-5.27 -3,-5.27 s-3,3.8600000000000003 -3,5.27 v1.8 c0,0.6400000000000007 -0.49000000000000027,2 -1.09,2 h-1.94 c-1.4100000000000001,0 -5.27,1.09 -5.27,2.5 s3.8600000000000003,2.5 5.27,2.5 h2.31 c0.7400000000000005,0 0.7200000000000005,0.7500000000000006 0.7200000000000005,1.1400000000000001 v2.4 c0,1.4100000000000001 1.59,5.27 3,5.27 s3,-3.8600000000000003 3,-5.27 v-2.4 c0,-0.32000000000000034 0.6400000000000007,-1.1400000000000001 1,-1.1400000000000001 h2.31 c1.4100000000000001,0 5.27,-1.09 5.27,-2.5 S783.8263671875,254.15818161010742 782.4163671875,254.15818161010742 z" fill="#2196f3" class="" id="svg_195"/><path d="M855.3363671875,217.15818161010742 h-1.24 c-0.25,0 -1,-1 -1,-1.26 v-1.15 c0,-0.9 -1.1,-3.36 -2,-3.36 s-2,2.46 -2,3.36 v1.15 c0,0.4 0,1.26 -0.41000000000000025,1.26 h-1.23 c-0.9,0 -3.36,0.6000000000000005 -3.36,1.5 s2.46,1.5 3.36,1.5 h1.47 c0.47000000000000025,0 0.17,0.6800000000000008 0.17,0.92 v1.53 c0,0.9 1.1,3.36 2,3.36 s2,-2.46 2,-3.36 v-1.53 c0,-0.2 0.52,-0.92 0.7500000000000006,-0.92 h1.48 c0.8900000000000007,0 3.35,-0.6000000000000005 3.35,-1.5 S856.2263671875,217.15818161010742 855.3363671875,217.15818161010742 z" fill="#1976d2" class="" id="svg_196"/><path d="M837.8063671875,196.1981816101074 h-2 c-0.41000000000000025,0 -1.61,-1.6 -1.61,-2.06 V192.26818161010743 c0,-1.46 -1.8,-5.48 -3.26,-5.48 s-3.26,4 -3.26,5.48 v1.87 c0,0.6600000000000008 0,2.06 -0.6600000000000008,2.06 h-2 c-1.46,0 -5.48,1 -5.48,2.45 s4,2.44 5.48,2.44 h2.4 c0.77,0 0.28,1.11 0.28,1.5 v2.5 c0,1.47 1.79,5.48 3.26,5.48 s3.26,-4 3.26,-5.48 v-2.5 c0,-0.33000000000000035 0.8500000000000005,-1.5 1.22,-1.5 h2.4 c1.47,0 5.48,-1 5.48,-2.44 S839.2763671875,196.1981816101074 837.8063671875,196.1981816101074 z" fill="url(#e1cc7b1e-4a38-4d88-bc31-d957dc0e789b)" class="" id="svg_197"/><circle cx="347.81634521484375" cy="228.86819458007812" r="6.070000171661377" fill="url(#ed7113af-a3f6-4b83-ad2a-4145c0897ac0)" id="svg_17" class=""/><circle cx="666.81640625" cy="136.86817932128906" r="6.070000171661377" fill="url(#bcce56f4-6100-452c-94c0-0e4dd07d63d7)" id="svg_18" class=""/><circle cx="805.81640625" cy="244.86819458007812" r="6.070000171661377" fill="url(#f80e6619-6a6a-4d27-b58b-13c487a3d966)" id="svg_19" class=""/><circle cx="346.81634521484375" cy="152.8681640625" r="3.7100000381469727" fill="#0d47a1" id="svg_20" class=""/><circle cx="886.8163452148438" cy="692.8681640625" r="3.7100000381469727" fill="#0d47a1" class="" id="svg_229"/><path d="M693.4063671875,770.3981816101075 h-2.5700000000000003 c-0.52,0 -1.81,-2.05 -1.81,-2.64 v-2.38 c0,-1.86 -2.11,-7 -4,-7 s-4,5.1 -4,7 v2.38 c0,0.8400000000000005 -0.6500000000000007,2.64 -1.44,2.64 h-2.56 c-1.86,0 -7,1.44 -7,3.3 s5.1,3.3 7,3.3 h3.06 c1,0 0.9400000000000005,1 0.9400000000000005,1.51 v3.18 c0,1.85 2.1,7 4,7 s4,-5.11 4,-7 v-3.18 c0,-0.42000000000000026 0.8500000000000005,-1.51 1.32,-1.51 h3.06 c1.86,0 7,-1.44 7,-3.3 S695.2663671875,770.3981816101075 693.4063671875,770.3981816101075 z" fill="url(#afc558c8-c8c4-43a0-9ff8-36c738bcadf8)" class="" id="svg_230"/><circle cx="831.0663452148438" cy="748.1181945800781" r="9.300000190734863" fill="url(#e90eae1c-1fda-4179-aacd-c7bc40fa73b9)" class="" id="svg_231"/><circle cx="826.8163452148438" cy="632.8681640625" r="6.070000171661377" fill="url(#a786e464-0004-4162-bf9c-1c77ea556f3f)" class="" id="svg_232"/><circle cx="807.8163452148438" cy="688.8681945800781" r="6.070000171661377" fill="url(#ed7113af-a3f6-4b83-ad2a-4145c0897ac0)" class="" id="svg_233"/><circle cx="580.1572875976562" cy="679.0273132324219" r="9.300000190734863" fill="url(#e90eae1c-1fda-4179-aacd-c7bc40fa73b9)" class="" id="svg_234"/><circle cx="560.1572875976562" cy="659.0273132324219" r="6.960000038146973" fill="#64b5f6" class="" id="svg_235"/><path d="M664.3363671875,634.1581816101075 h-1.24 c-0.25,0 -1,-1 -1,-1.26 v-1.15 c0,-0.9 -1.1,-3.36 -2,-3.36 s-2,2.46 -2,3.36 v1.15 c0,0.4 0,1.26 -0.41000000000000025,1.26 h-1.23 c-0.9,0 -3.36,0.6000000000000005 -3.36,1.5 s2.46,1.5 3.36,1.5 h1.47 c0.47000000000000025,0 0.17,0.6800000000000008 0.17,0.92 v1.53 c0,0.9 1.1,3.36 2,3.36 s2,-2.46 2,-3.36 v-1.53 c0,-0.2 0.52,-0.92 0.7500000000000006,-0.92 h1.48 c0.8900000000000007,0 3.35,-0.6000000000000005 3.35,-1.5 S665.2263671875,634.1581816101075 664.3363671875,634.1581816101075 z" fill="#1976d2" class="" id="svg_236"/><path d="M646.8063671875,613.1981816101074 h-2 c-0.41000000000000025,0 -1.61,-1.6 -1.61,-2.06 V609.2681816101074 c0,-1.46 -1.8,-5.48 -3.26,-5.48 s-3.26,4 -3.26,5.48 v1.87 c0,0.6600000000000008 0,2.06 -0.6600000000000008,2.06 h-2 c-1.46,0 -5.48,1 -5.48,2.45 s4,2.44 5.48,2.44 h2.4 c0.77,0 0.28,1.11 0.28,1.5 v2.5 c0,1.47 1.79,5.48 3.26,5.48 s3.26,-4 3.26,-5.48 v-2.5 c0,-0.33000000000000035 0.8500000000000005,-1.5 1.22,-1.5 h2.4 c1.47,0 5.48,-1 5.48,-2.44 S648.2763671875,613.1981816101074 646.8063671875,613.1981816101074 z" fill="url(#fc40df44-a3eb-403a-93a3-c2e14ff8183d)" class="" id="svg_237"/><circle cx="480.15728759765625" cy="579.0273132324219" r="6.960000038146973" fill="#64b5f6" class="" id="svg_238"/><circle cx="631.0663452148438" cy="548.1181945800781" r="6.960000038146973" fill="#64b5f6" class="" id="svg_239"/><circle cx="611.0663452148438" cy="528.1181945800781" r="6.960000038146973" fill="#64b5f6" class="" id="svg_240"/><circle cx="436.90728759765625" cy="499.7773132324219" r="6.070000171661377" fill="url(#ed7113af-a3f6-4b83-ad2a-4145c0897ac0)" class="" id="svg_241"/><circle cx="469.58636474609375" cy="474.44818115234375" r="3.4800000190734863" fill="#64b5f6" class="" id="svg_242"/><circle cx="449.58636474609375" cy="454.44818115234375" r="5.03000020980835" fill="url(#a5f9757d-6ad9-4e45-a734-ac7d7f2fecf7)" class="" id="svg_243"/><circle cx="511.06634521484375" cy="428.1181945800781" r="9.300000190734863" fill="url(#e90eae1c-1fda-4179-aacd-c7bc40fa73b9)" class="" id="svg_244"/><circle cx="491.06634521484375" cy="408.1181945800781" r="9.300000190734863" fill="url(#e90eae1c-1fda-4179-aacd-c7bc40fa73b9)" class="" id="svg_245"/><circle cx="451.06634521484375" cy="368.1181945800781" r="6.960000038146973" fill="#64b5f6" class="" id="svg_246"/><circle cx="431.06634521484375" cy="348.1181945800781" r="9.300000190734863" fill="url(#e90eae1c-1fda-4179-aacd-c7bc40fa73b9)" class="" id="svg_247"/><circle cx="256.90728759765625" cy="319.7773132324219" r="3.7100000381469727" fill="#0d47a1" class="" id="svg_248"/><circle cx="295.90728759765625" cy="283.77728271484375" r="6.070000171661377" fill="url(#a786e464-0004-4162-bf9c-1c77ea556f3f)" class="" id="svg_249"/><circle cx="255.90728759765625" cy="243.77728271484375" r="3.7100000381469727" fill="#0d47a1" class="" id="svg_250"/><circle cx="215.90728759765625" cy="203.77728271484375" r="3.7100000381469727" fill="#0d47a1" class="" id="svg_251"/><circle cx="195.90728759765625" cy="183.77728271484375" r="6.070000171661377" fill="url(#a786e464-0004-4162-bf9c-1c77ea556f3f)" class="" id="svg_252"/><path d="M214.5073095703125,98.06730026245123 H212.6173095703125 c-0.39000000000000046,0 -1.37,-1.55 -1.37,-2 v-1.8 c0,-1.4100000000000001 -1.59,-5.27 -3,-5.27 s-3,3.8600000000000003 -3,5.27 v1.8 c0,0.6400000000000009 -0.4900000000000003,2 -1.09,2 h-1.94 c-1.4100000000000001,0 -5.27,1.09 -5.27,2.5 s3.8600000000000003,2.5 5.27,2.5 h2.31 c0.7400000000000008,0 0.7200000000000006,0.7500000000000008 0.7200000000000006,1.1400000000000001 v2.4 c0,1.4100000000000001 1.59,5.27 3,5.27 s3,-3.8600000000000003 3,-5.27 v-2.4 c0,-0.32000000000000045 0.6400000000000009,-1.1400000000000001 1,-1.1400000000000001 h2.31 c1.4100000000000001,0 5.27,-1.09 5.27,-2.5 S215.91730957031245,98.06730026245123 214.5073095703125,98.06730026245123 z" fill="#2196f3" class="" id="svg_253"/><circle cx="148.69729614257812" cy="98.56729125976562" r="7.5" fill="#64b5f6" class="" id="svg_254"/><circle cx="109.15728759765625" cy="59.027313232421875" r="9.300000190734863" fill="url(#ed21139e-2a95-41cd-b755-047a620bfa49)" class="" id="svg_255"/><circle cx="439.6063537597656" cy="207.65817260742188" r="7.5" fill="#64b5f6" id="svg_21" class=""/><circle cx="839.6063232421875" cy="607.658203125" r="7.5" fill="#64b5f6" class="" id="svg_123"/><path d="M697.9163671875,638.1581816101075 h-1.94 c-0.39000000000000035,0 -1.37,-1.55 -1.37,-2 v-1.8 c0,-1.4100000000000001 -1.59,-5.27 -3,-5.27 s-3,3.8600000000000003 -3,5.27 v1.8 c0,0.6400000000000007 -0.49000000000000027,2 -1.09,2 h-1.94 c-1.4100000000000001,0 -5.27,1.09 -5.27,2.5 s3.8600000000000003,2.5 5.27,2.5 h2.31 c0.7400000000000005,0 0.7200000000000005,0.7500000000000006 0.7200000000000005,1.1400000000000001 v2.4 c0,1.4100000000000001 1.59,5.27 3,5.27 s3,-3.8600000000000003 3,-5.27 v-2.4 c0,-0.32000000000000034 0.6400000000000007,-1.1400000000000001 1,-1.1400000000000001 h2.31 c1.4100000000000001,0 5.27,-1.09 5.27,-2.5 S699.3263671875,638.1581816101075 697.9163671875,638.1581816101075 z" fill="#2196f3" class="" id="svg_124"/><path d="M805.4163671875,507.1581816101074 H803.5263671875 c-0.39000000000000035,0 -1.37,-1.55 -1.37,-2 v-1.8 c0,-1.4100000000000001 -1.59,-5.27 -3,-5.27 s-3,3.8600000000000003 -3,5.27 v1.8 c0,0.6400000000000007 -0.49000000000000027,2 -1.09,2 h-1.94 c-1.4100000000000001,0 -5.27,1.09 -5.27,2.5 s3.8600000000000003,2.5 5.27,2.5 h2.31 c0.7400000000000005,0 0.7200000000000005,0.7500000000000006 0.7200000000000005,1.1400000000000001 v2.4 c0,1.4100000000000001 1.59,5.27 3,5.27 s3,-3.8600000000000003 3,-5.27 v-2.4 c0,-0.32000000000000034 0.6400000000000007,-1.1400000000000001 1,-1.1400000000000001 h2.31 c1.4100000000000001,0 5.27,-1.09 5.27,-2.5 S806.8263671875,507.1581816101074 805.4163671875,507.1581816101074 z" fill="#2196f3" class="" id="svg_125"/><path d="M787.4063671875,486.39818161010743 h-2.5700000000000003 c-0.52,0 -1.81,-2.05 -1.81,-2.64 v-2.38 c0,-1.86 -2.11,-7 -4,-7 s-4,5.1 -4,7 v2.38 c0,0.8400000000000005 -0.6500000000000007,2.64 -1.44,2.64 h-2.56 c-1.86,0 -7,1.44 -7,3.3 s5.1,3.3 7,3.3 h3.06 c1,0 0.9400000000000005,1 0.9400000000000005,1.51 v3.18 c0,1.85 2.1,7 4,7 s4,-5.11 4,-7 v-3.18 c0,-0.42000000000000026 0.8500000000000005,-1.51 1.32,-1.51 h3.06 c1.86,0 7,-1.44 7,-3.3 S789.2663671875,486.39818161010743 787.4063671875,486.39818161010743 z" fill="url(#be82fdd5-66ab-49fc-8aef-9500b2c1a08e)" class="" id="svg_126"/><circle cx="760.0663452148438" cy="528.1181640625" r="9.300000190734863" fill="url(#ed21139e-2a95-41cd-b755-047a620bfa49)" class="" id="svg_127"/><circle cx="726.8163452148438" cy="532.8681640625" r="6.070000171661377" fill="url(#a786e464-0004-4162-bf9c-1c77ea556f3f)" class="" id="svg_128"/><circle cx="686.8163452148438" cy="492.8681640625" r="3.7100000381469727" fill="#0d47a1" class="" id="svg_129"/><path d="M433.4063671875,510.39818161010743 h-2.5700000000000003 c-0.52,0 -1.81,-2.05 -1.81,-2.64 v-2.38 c0,-1.86 -2.11,-7 -4,-7 s-4,5.1 -4,7 v2.38 c0,0.8400000000000005 -0.6500000000000007,2.64 -1.44,2.64 h-2.56 c-1.86,0 -7,1.44 -7,3.3 s5.1,3.3 7,3.3 h3.06 c1,0 0.9400000000000005,1 0.9400000000000005,1.51 v3.18 c0,1.85 2.1,7 4,7 s4,-5.11 4,-7 v-3.18 c0,-0.42000000000000026 0.8500000000000005,-1.51 1.32,-1.51 h3.06 c1.86,0 7,-1.44 7,-3.3 S435.2663671875,510.39818161010743 433.4063671875,510.39818161010743 z" fill="url(#afc558c8-c8c4-43a0-9ff8-36c738bcadf8)" class="" id="svg_130"/><path d="M504.3363671875,474.1581816101074 h-1.24 c-0.25,0 -1,-1 -1,-1.26 v-1.15 c0,-0.9 -1.1,-3.36 -2,-3.36 s-2,2.46 -2,3.36 v1.15 c0,0.4 0,1.26 -0.41000000000000025,1.26 h-1.23 c-0.9,0 -3.36,0.6000000000000005 -3.36,1.5 s2.46,1.5 3.36,1.5 h1.47 c0.47000000000000025,0 0.17,0.6800000000000008 0.17,0.92 v1.53 c0,0.9 1.1,3.36 2,3.36 s2,-2.46 2,-3.36 v-1.53 c0,-0.2 0.52,-0.92 0.7500000000000006,-0.92 h1.48 c0.8900000000000007,0 3.35,-0.6000000000000005 3.35,-1.5 S505.2263671875,474.1581816101074 504.3363671875,474.1581816101074 z" fill="#1976d2" class="" id="svg_131"/><path d="M486.8063671875,453.19818161010744 h-2 c-0.41000000000000025,0 -1.61,-1.6 -1.61,-2.06 V449.26818161010743 c0,-1.46 -1.8,-5.48 -3.26,-5.48 s-3.26,4 -3.26,5.48 v1.87 c0,0.6600000000000008 0,2.06 -0.6600000000000008,2.06 h-2 c-1.46,0 -5.48,1 -5.48,2.45 s4,2.44 5.48,2.44 h2.4 c0.77,0 0.28,1.11 0.28,1.5 v2.5 c0,1.47 1.79,5.48 3.26,5.48 s3.26,-4 3.26,-5.48 v-2.5 c0,-0.33000000000000035 0.8500000000000005,-1.5 1.22,-1.5 h2.4 c1.47,0 5.48,-1 5.48,-2.44 S488.2763671875,453.19818161010744 486.8063671875,453.19818161010744 z" fill="url(#fc40df44-a3eb-403a-93a3-c2e14ff8183d)" class="" id="svg_132"/><circle cx="546.8163452148438" cy="352.8681640625" r="6.070000171661377" fill="url(#a786e464-0004-4162-bf9c-1c77ea556f3f)" class="" id="svg_133"/><circle cx="527.8163452148438" cy="408.8681945800781" r="6.070000171661377" fill="url(#ed7113af-a3f6-4b83-ad2a-4145c0897ac0)" class="" id="svg_134"/><circle cx="506.81634521484375" cy="312.8681640625" r="3.7100000381469727" fill="#0d47a1" class="" id="svg_135"/><circle cx="487.81634521484375" cy="368.8681945800781" r="3.7100000381469727" fill="#0d47a1" class="" id="svg_136"/><circle cx="411.06634521484375" cy="328.1181945800781" r="6.960000038146973" fill="#64b5f6" class="" id="svg_137"/><circle cx="289.58636474609375" cy="294.44818115234375" r="3.4800000190734863" fill="#64b5f6" class="" id="svg_138"/><circle cx="269.58636474609375" cy="274.44818115234375" r="5.03000020980835" fill="url(#a5f9757d-6ad9-4e45-a734-ac7d7f2fecf7)" class="" id="svg_139"/><circle cx="331.06634521484375" cy="248.11819458007812" r="9.300000190734863" fill="url(#e90eae1c-1fda-4179-aacd-c7bc40fa73b9)" class="" id="svg_140"/><circle cx="291.06634521484375" cy="208.11819458007812" r="6.960000038146973" fill="#64b5f6" class="" id="svg_141"/><circle cx="271.06634521484375" cy="188.11819458007812" r="9.300000190734863" fill="url(#e90eae1c-1fda-4179-aacd-c7bc40fa73b9)" class="" id="svg_142"/><rect x="415.2763671875" y="414.9181823730469" width="158.1699981689453" height="267.79998779296875" rx="13" fill="url(#f9495c88-7725-4ca5-9368-72e54c981d92)" id="svg_22" class=""/><rect x="419.8063659667969" y="420.55816650390625" width="150.1699981689453" height="255.2100067138672" rx="13" fill="#4285f4" id="svg_23" class=""/><polyline points="419.8063735961914,766.1781387329102 486.12635040283203,766.1781387329102 469.8163528442383,832.7881240844727 " fill="none" id="svg_24" class=""/><polygon points="540.3563613891602,481.8781509399414 454.5763626098633,483.6481704711914 430.8263626098633,456.35819244384766 558.7063980102539,454.0581741333008 540.3563613891602,481.8781509399414 " fill="#e0e0e0" id="svg_25" class=""/><polygon points="558.7063980102539,456.18814849853516 430.8263626098633,456.18814849853516 456.34632110595703,442.5381851196289 531.4963760375977,440.0581741333008 558.7063980102539,456.18814849853516 " fill="#e0e0e0" id="svg_26" class=""/><path d="M653.1063671875,492.44818161010744 c-12.09,-5.36 -28.3,2 -31.74,14.37 c-9.09,-25.88 -31.1,-47 -57.54,-56.54 c-4.37,-1.58 -16.5,-6.39 -19.86,-2.64 c-1.56,1.7400000000000002 -4.57,8.61 -4.38,14.34 H449.6563671875 c0,-1.12 0,-2.24 0,-3.36 c0,-13.07 -10.51,-13.52 -23.21,-10.47 a70.4,70.4 0 0 0 -29.63,15.92 c-13.51,11.91 -22.9,27.45 -32.08,42.72 l-16,-15.89 c-1.7600000000000002,-1.75 -3.8600000000000003,-3.63 -6.39,-3.51 c-2.68,0.13 -4.62,2.44 -6.18,4.54 c-7.06,9.52 -14.34,19.53 -16,31.12 c-1.6600000000000001,11.41 2.31,22.81 6.23,33.69 c3.8200000000000003,10.64 8.9,25.68 19.89,29.47 c11.83,4.09 24.31,4.57 34.55,-2.44 c16,-11 32.49,-22.37 44.17,-37.42 V660.6081816101074 h1.35 l-11,169.7 l73.54,-0.3800000000000002 l5.25,-169.32 h2.16 L499.83636718749995,829.9681816101074 l74.82,0.3800000000000002 l-11.21,-169.7 h2.3200000000000003 V545.2081816101074 l2,1.6600000000000001 l36.29,30.35 c7.55,6.32 16.19,13 26.17,12.51 c7.17,-0.3600000000000002 13.67,-12.38 18.25,-17.71 s7.55,-11.75 10.46,-18.09 c4.82,-10.49 9.73,-21.33 10.06,-32.8 S663.9263671875,497.2381816101074 653.1063671875,492.44818161010744 z" fill="url(#b82d2768-795c-4dc2-9de8-934b40644624)" id="svg_27" class=""/><path d="M646.2263671875,495.0881816101074 c-11.57,-5.3100000000000005 -27.07,2 -30.36,14.27 c-8.7,-25.69 -29.75,-46.61 -55,-56.1 c-4.19,-1.57 -14.29,-6.34 -17.5,-2.63 c-1.5,1.73 -1.3800000000000001,8.55 -1.2,14.24 h-95 c0,-1.12 0,-2.23 0,-3.34 c-0.05000000000000004,-13 -5.57,-13.41 -17.72,-10.38 c-10.59,2.64 -20.33,8.46 -28.34,15.79 c-12.93,11.82 -21.91,27.23 -30.68,42.39 l-15.32,-15.77 c-1.6900000000000008,-1.73 -3.7,-3.6100000000000003 -6.12,-3.49 s-4.41,2.42 -5.91,4.51 c-6.75,9.45 -13.71,19.38 -15.33,30.88 c-1.59,11.32 2.21,22.63 5.95,33.43 c3.66,10.55 8.52,22.36 19,26.13 c11.31,4.05 23.25,-3.24 33,-10.19 c15.34,-10.88 31.07,-22.2 42.25,-37.13 V661.9681816101074 h1.29 l-10.5,168.37 h67.34 l8,-168.37 h2.06 l6.22,168.37 h68.76 L560.4663671875,661.9681816101074 h2.21 V539.6781816101075 l1.8900000000000001,1.6400000000000001 l34.71,30.11 c7.22,6.27 15.49,12.92 25,12.42 c6.87,-0.3600000000000002 13.08,-4.52 17.47,-9.81 s7.22,-11.66 10,-17.94 c4.61,-10.41 9.31,-21.16 9.620000000000001,-32.55 S656.5763671875,499.8481816101074 646.2263671875,495.0881816101074 z" fill="#fff" id="svg_28" class=""/><path d="M570.3163671875,378.5881816101074 H556.8363671875 c-7.93,-29.27 -32.62,-49.81 -61.87,-49.81 s-53.93,20.54 -61.86,49.81 H419.96636718750005 V408.9681816101074 h11.24 c4.84,31.84 31.54,52.94 63.76,52.94 s58.93,-21.1 63.77,-52.94 h11.58 z" fill="url(#e991d392-04f4-4018-b9d8-24ee41179e03)" id="svg_29" class=""/><path d="M566.5263671875,380.50818161010744 h-12.8 c-7.53,-26.66 -31,-48.21 -58.77,-48.21 s-51.23,21.55 -58.77,48.21 H423.73636718750004 v27.64 h10.67 c4.6,29 30,48.21 60.57,48.21 s56,-19.22 60.58,-48.21 h11 z" fill="#fff" id="svg_30" class=""/><circle cx="494.6263427734375" cy="398.93817138671875" r="49.619998931884766" fill="#4285f4" id="svg_31" class=""/><path d="M490.44636718749996,832.0981816101074 c0,16.57 -17,13.73 -37.89,13.73 s-37.89,2.84 -37.89,-13.73 s17,-35.06 37.89,-35.06 S490.44636718749996,815.5281816101074 490.44636718749996,832.0981816101074 z" fill="url(#f4033a33-768d-491b-9f07-cdde246aef8f)" id="svg_32" class=""/><path d="M575.0063671875,832.0981816101074 c0,16.57 -17,13.73 -37.89,13.73 s-37.89,2.84 -37.89,-13.73 s17,-35.06 37.89,-35.06 S575.0063671875,815.5281816101074 575.0063671875,832.0981816101074 z" fill="url(#bd26dae2-ae14-4e05-844d-7f17be67c7f9)" id="svg_33" class=""/><path d="M487.6363671875,831.1981816101074 c0,15.17 -15.71,12.58 -35.08,12.58 s-35.09,2.59 -35.09,-12.58 s15.71,-32.08 35.09,-32.08 S487.6363671875,816.0281816101074 487.6363671875,831.1981816101074 z" fill="#e0e0e0" id="svg_34" class=""/><path d="M572.7063671875,833.3281816101074 c0,15.17 -15.71,12.57 -35.08,12.57 S502.5263671875,848.4981816101074 502.5263671875,833.3281816101074 s15.71,-32.09 35.09,-32.09 S572.7063671875,818.1581816101075 572.7063671875,833.3281816101074 z" fill="#e0e0e0" id="svg_35" class=""/><path d="M659.5763671875,295.6081816101074 a12.72,12.72 0 1 0 -21.92,8.76 V853.5681816101074 a4.5600000000000005,4.5600000000000005 0 0 0 4.55,4.55 h8.13 a4.57,4.57 0 0 0 4.55,-4.55 V305.4781816101074 A12.69,12.69 0 0 0 659.5763671875,295.6081816101074 z" fill="url(#a2f70ec8-8dd0-4c65-80e1-e3da54a3f4f7)" id="svg_36" class=""/><path d="M658.0263671875,295.6081816101074 a11.17,11.17 0 1 0 -17,9.5 V850.9681816101074 A4.55,4.55 0 0 0 645.5263671875,855.4681816101074 h3.25 a4.5600000000000005,4.5600000000000005 0 0 0 4.55,-4.54 V304.6781816101074 A11.15,11.15 0 0 0 658.0263671875,295.6081816101074 z" fill="#e0e0e0" id="svg_37" class=""/><path d="M639.8163671875,502.68818161010745 c-2,3.09 -6,5.66 -9.33,4 c-2.68,-1.33 -3.54,-4.69 -3.88,-7.66 a61.27,61.27 0 0 1 0.9500000000000004,-19.94 c0.8600000000000004,-4 2.6900000000000004,-8.47 6.62,-9.52 c2.46,-0.6500000000000006 5.07,0.28 7.23,1.6300000000000003 s4,3.1 6.23,4.37 c4.24,2.44 9.4,2.88 14.24,2.17 c2.4,-0.3500000000000002 4.76,-1 7.17,-1.17 a11.94,11.94 0 0 1 7.05,1.23 a6.37,6.37 0 0 1 3.3200000000000003,6 c-0.3000000000000002,2.41 -2.84,4.45 -5.17,3.77 a14.85,14.85 0 0 1 5.18,4.71 a6.73,6.73 0 0 1 0.3800000000000002,6.71 c-1.2,2 -4.16,3 -6.07,1.61 c1.9500000000000002,1.6 4,3.3 4.88,5.65 s0.17,5.53 -2.18,6.45 a20.37,20.37 0 0 1 -3,0.56 c-1,0.2400000000000001 -2,0.92 -2.13,1.9500000000000002 c-0.0900000000000001,1.19 1.1,2 1.8,3 c1.57,2.12 0.7000000000000004,5.3100000000000005 -1.19,7.14 s-4.52,2.6500000000000004 -7,3.41 c-3.7600000000000002,1.13 -7.52,2.26 -11.3,3.3200000000000003 c-4.14,1.1600000000000001 -8.48,2.24 -12.68,1.34 a13.86,13.86 0 0 1 -5.16,-24.83 c2.07,-1.48 2.45,-4 4.12,-5.8900000000000015 a12.78,12.78 0 0 0 3.05,-8.77 c0,-4.72 1.8,-9.28 0.7000000000000004,-13.870000000000001 c-0.26,0 -0.45,0.05000000000000004 -0.7100000000000004,0.1 C642.6663671875,488.0381816101074 644.5263671875,495.5381816101074 639.8163671875,502.68818161010745 z" fill="#4285f4" id="svg_38" class=""/><path d="M999.4163671875001,432.14818161010743 c-115.32,-130 -230.64,130 -346,0 v-130 c115.32,130 230.64,-130 346,0 z" fill="url(#e5b0ae8b-f5f0-41eb-bef6-53438e13ac16)" id="svg_39" class=""/><path d="M995.7063671875001,427.2881816101074 C881.6263671875,308.9081816101074 767.5263671875,545.6781816101075 653.4563671875,427.2881816101074 V308.9081816101074 c114.08,118.38 228.17,-118.39 342.25,0 z" fill="#4285f4" id="svg_40" class=""/><path d="M343.5263671875,295.6081816101074 a12.72,12.72 0 1 1 21.92,8.76 V853.5681816101074 a4.5600000000000005,4.5600000000000005 0 0 1 -4.55,4.55 h-8.13 a4.57,4.57 0 0 1 -4.55,-4.55 V305.4781816101074 A12.69,12.69 0 0 1 343.5263671875,295.6081816101074 z" fill="url(#f0273ade-576a-4ad8-9a6f-7fc7971c2987)" id="svg_41" class=""/><path d="M345.0263671875,295.6081816101074 a11.17,11.17 0 1 1 17,9.5 V850.9681816101074 A4.55,4.55 0 0 1 357.5263671875,855.4681816101074 h-3.25 a4.5600000000000005,4.5600000000000005 0 0 1 -4.55,-4.54 V304.6781816101074 A11.15,11.15 0 0 1 345.0263671875,295.6081816101074 z" fill="#e0e0e0" id="svg_42" class=""/><path d="M3.6363671874999994,432.14818161010743 c115.32,130 230.64,-130 346,0 v-130 c-115.32,-130 -230.64,130 -346,0 z" fill="url(#e88a7565-ba81-4ab7-95f1-6629f0af5c08)" id="svg_43" class=""/><path d="M7.346367187499993,427.2881816101074 c114.08,118.39 228.17,-118.38 342.25,0 V308.9081816101074 C235.5263671875,190.51818161010743 121.4263671875,427.2881816101074 7.346367187499993,308.9081816101074 z" fill="#4285f4" id="svg_44" class=""/><rect x="445.0263671875" y="505.7481689453125" width="101.80000305175781" height="109.62999725341797" rx="6.380000114440918" fill="url(#bf514d7a-d100-48d8-89e1-e526b58397db)" id="svg_45" class=""/><rect x="447.1163635253906" y="509.13818359375" width="97.12999725341797" height="102.81999969482422" rx="6.380000114440918" fill="#4285f4" id="svg_46" class=""/><rect x="459.7163391113281" y="528.6981811523438" width="17.799999237060547" height="47.459999084472656" opacity="0.2" id="svg_47" class=""/><rect x="498.3563537597656" y="546.0181884765625" width="23.40999984741211" height="16.020000457763672" opacity="0.2" id="svg_48" class=""/><rect x="515.3663940429688" y="520.6981811523438" width="12.9399995803833" height="11.510000228881836" opacity="0.2" id="svg_49" class=""/><circle cx="522.7163696289062" cy="584.0482177734375" r="14.09000015258789" opacity="0.2" id="svg_50" class=""/><path d="M500.8863671875,360.2781816101074 A49.55,49.55 0 0 1 540.5263671875,380.01818161010743 a49.63,49.63 0 1 0 -85.5,48.8 a49.64,49.64 0 0 1 45.88,-68.54 z" opacity="0.2" id="svg_51" class=""/><path d="M317.9163671875,258.1581816101074 h-1.94 c-0.3900000000000003,0 -1.37,-1.55 -1.37,-2 v-1.8 c0,-1.4100000000000001 -1.59,-5.27 -3,-5.27 s-3,3.8600000000000003 -3,5.27 v1.8 c0,0.6400000000000005 -0.4900000000000002,2 -1.09,2 h-1.94 c-1.4100000000000001,0 -5.27,1.09 -5.27,2.5 s3.8600000000000003,2.5 5.27,2.5 h2.31 c0.7400000000000004,0 0.7200000000000004,0.7500000000000004 0.7200000000000004,1.1400000000000001 v2.4 c0,1.4100000000000001 1.59,5.27 3,5.27 s3,-3.8600000000000003 3,-5.27 v-2.4 c0,-0.3200000000000003 0.6400000000000005,-1.1400000000000001 1,-1.1400000000000001 h2.31 c1.4100000000000001,0 5.27,-1.09 5.27,-2.5 S319.3263671875,258.1581816101074 317.9163671875,258.1581816101074 z" fill="#2196f3" id="svg_52" class=""/><circle cx="401.1063537597656" cy="327.9881591796875" r="3.5" fill="#0d47a1" id="svg_53" class=""/><circle cx="438.74822998046875" cy="918.300048828125" r="6.960000038146973" fill="#64b5f6" id="svg_54" class=""/><circle cx="515.1063842773438" cy="310.9881591796875" r="2.5" fill="#0071bc" id="svg_55" class=""/><circle cx="347.81634521484375" cy="228.86819458007812" r="3.7100000381469727" fill="#0d47a1" id="svg_56" class=""/><path d="M722.4163671875,194.15818161010742 H720.5263671875 c-0.3900000000000003,0 -1.37,-1.55 -1.37,-2 v-1.8 c0,-1.4100000000000001 -1.59,-5.27 -3,-5.27 s-3,3.8600000000000003 -3,5.27 v1.8 c0,0.6400000000000005 -0.4900000000000002,2 -1.09,2 h-1.94 c-1.4100000000000001,0 -5.27,1.09 -5.27,2.5 s3.8600000000000003,2.5 5.27,2.5 h2.31 c0.7400000000000004,0 0.7200000000000004,0.7500000000000004 0.7200000000000004,1.1400000000000001 v2.4 c0,1.4100000000000001 1.59,5.27 3,5.27 s3,-3.8600000000000003 3,-5.27 v-2.4 c0,-0.3200000000000003 0.6400000000000005,-1.1400000000000001 1,-1.1400000000000001 h2.31 c1.4100000000000001,0 5.27,-1.09 5.27,-2.5 S723.8263671875,194.15818161010742 722.4163671875,194.15818161010742 z" fill="#2196f3" id="svg_57" class=""/><path d="M815.3363671875,177.15818161010742 h-1.24 c-0.25,0 -1,-1 -1,-1.26 v-1.15 c0,-0.9 -1.1,-3.36 -2,-3.36 s-2,2.46 -2,3.36 v1.15 c0,0.4 0,1.26 -0.4100000000000002,1.26 h-1.23 c-0.9,0 -3.36,0.6000000000000004 -3.36,1.5 s2.46,1.5 3.36,1.5 h1.47 c0.4700000000000002,0 0.17,0.6800000000000007 0.17,0.92 v1.53 c0,0.9 1.1,3.36 2,3.36 s2,-2.46 2,-3.36 v-1.53 c0,-0.2 0.52,-0.92 0.7500000000000004,-0.92 h1.48 c0.8900000000000005,0 3.35,-0.6000000000000004 3.35,-1.5 S816.2263671875,177.15818161010742 815.3363671875,177.15818161010742 z" fill="#1976d2" id="svg_58" class=""/><circle cx="805.6063842773438" cy="243.98818969726562" r="3.5" fill="#0d47a1" id="svg_59" class=""/><circle cx="735.697265625" cy="93.35181427001953" r="3.5" fill="#0d47a1" id="svg_60" class=""/><circle cx="871.1572875976562" cy="67.4818115234375" r="9.300000190734863" fill="url(#a76115cf-cd8c-4176-9a3c-9a73b10c4903)" id="svg_61" class=""/><circle cx="769.06640625" cy="236.11819458007812" r="9.300000190734863" fill="url(#a32a47df-12b4-443d-9765-8cd8524a5228)" id="svg_62" class=""/><circle cx="634.06640625" cy="253.11819458007812" r="9.300000190734863" fill="url(#be475b5a-0363-4725-9e86-39c6835f7bb0)" id="svg_63" class=""/><circle cx="549.06640625" cy="154.1181640625" r="9.300000190734863" fill="url(#ba4f5741-eaf0-4ada-8124-dbf7ca11ac85)" id="svg_64" class=""/><circle cx="440.06634521484375" cy="208.11819458007812" r="9.300000190734863" fill="url(#ed21139e-2a95-41cd-b755-047a620bfa49)" id="svg_65" class=""/><circle cx="251.06634521484375" cy="168.11819458007812" r="9.300000190734863" fill="url(#e90eae1c-1fda-4179-aacd-c7bc40fa73b9)" id="svg_66" class=""/><circle cx="218.06634521484375" cy="327.1181640625" r="9.300000190734863" fill="url(#abb092bc-1b17-4de6-b635-8e2be4eed0bd)" id="svg_67" class=""/><circle cx="871.1572875976562" cy="67.4818115234375" r="6.960000038146973" fill="#64b5f6" id="svg_68" class=""/><circle cx="740.58642578125" cy="137.44818115234375" r="5.03000020980835" fill="url(#e8540004-522d-4b52-801f-b41ff9acf3f2)" id="svg_69" class=""/><circle cx="476.58636474609375" cy="265.44818115234375" r="5.03000020980835" fill="url(#b2f43547-506b-48c0-921d-dcf648161924)" id="svg_70" class=""/><circle cx="189.58636474609375" cy="194.44818115234375" r="5.03000020980835" fill="url(#a5f9757d-6ad9-4e45-a734-ac7d7f2fecf7)" id="svg_71" class=""/><circle cx="254.58636474609375" cy="321.44818115234375" r="5.03000020980835" fill="url(#a1b47319-948d-4901-bb26-91f5cee31525)" id="svg_72" class=""/><circle cx="368.58636474609375" cy="304.44818115234375" r="5.03000020980835" fill="url(#b1659724-cb8a-4fa8-b312-9f444de5ed18)" id="svg_73" class=""/><circle cx="533.58642578125" cy="225.44818115234375" r="5.03000020980835" fill="url(#ec4cfa8f-50ab-441a-b17a-cb383eba365e)" id="svg_74" class=""/><circle cx="809.6773071289062" cy="93.81182098388672" r="3.4800000190734863" fill="#82a9ff" id="svg_75" class=""/><circle cx="768.9064331054688" cy="236.57818603515625" r="6.5" fill="#64b5f6" id="svg_76" class=""/><path d="M369.2363671875,502.68818161010745 c2.05,3.09 6,5.66 9.33,4 c2.68,-1.33 3.54,-4.69 3.88,-7.66 a61.27,61.27 0 0 0 -0.9500000000000004,-19.94 c-0.8600000000000004,-4 -2.6900000000000004,-8.47 -6.62,-9.52 c-2.46,-0.6500000000000006 -5.07,0.28 -7.23,1.6300000000000003 s-4,3.1 -6.23,4.37 c-4.24,2.44 -9.4,2.88 -14.24,2.17 c-2.4,-0.3500000000000002 -4.76,-1 -7.17,-1.17 a11.94,11.94 0 0 0 -7.05,1.23 a6.37,6.37 0 0 0 -3.3200000000000003,6 c0.3000000000000002,2.41 2.84,4.45 5.17,3.77 a14.85,14.85 0 0 0 -5.18,4.71 a6.73,6.73 0 0 0 -0.3800000000000002,6.71 c1.2,2 4.16,3 6.07,1.61 c-2,1.6 -4,3.3 -4.88,5.65 s-0.17,5.53 2.18,6.45 a20.37,20.37 0 0 0 3,0.56 c1,0.2400000000000001 2.05,0.92 2.13,1.9500000000000002 c0.0900000000000001,1.19 -1.1,2 -1.8,3 c-1.57,2.12 -0.7000000000000004,5.3100000000000005 1.19,7.14 s4.52,2.6500000000000004 7,3.41 c3.7600000000000002,1.13 7.52,2.26 11.3,3.3200000000000003 c4.14,1.1600000000000001 8.48,2.24 12.68,1.34 a13.86,13.86 0 0 0 5.16,-24.83 c-2.07,-1.48 -2.45,-4 -4.12,-5.8900000000000015 a12.78,12.78 0 0 1 -3,-8.77 c0,-4.72 -1.8,-9.28 -0.7000000000000004,-13.870000000000001 c0.26,0 0.45,0.05000000000000004 0.7100000000000004,0.1 C366.3863671875,488.0381816101074 364.5263671875,495.5381816101074 369.2363671875,502.68818161010745 z" fill="#4285f4" id="svg_77" class=""/></g></svg>